{
    "asset" : {
        "generator" : "Khronos glTF Blender I/O v3.4.50",
        "version" : "2.0"
    },
    "scene" : 0,
    "scenes" : [
        {
            "name" : "Scene",
            "nodes" : [
                0
            ]
        }
    ],
    "nodes" : [
        {
            "mesh" : 0,
            "name" : "UltraTurboHeroMan_Blaster"
        }
    ],
    "materials" : [
        {
            "doubleSided" : true,
            "name" : "UltraTurboHeroMan",
            "pbrMetallicRoughness" : {
                "baseColorTexture" : {
                    "index" : 0
                },
                "metallicFactor" : 0,
                "roughnessFactor" : 0.25
            }
        }
    ],
    "meshes" : [
        {
            "name" : "UltraTurboHeroMan_Blaster",
            "primitives" : [
                {
                    "attributes" : {
                        "POSITION" : 0,
                        "TEXCOORD_0" : 1,
                        "NORMAL" : 2
                    },
                    "indices" : 3,
                    "material" : 0
                }
            ]
        }
    ],
    "textures" : [
        {
            "sampler" : 0,
            "source" : 0
        }
    ],
    "images" : [
        {
            "mimeType" : "image/png",
            "name" : "ultraturboheroman_texture_A.png",
            "uri" : "ultraturboheroman_texture_A_png.png"
        }
    ],
    "accessors" : [
        {
            "bufferView" : 0,
            "componentType" : 5126,
            "count" : 807,
            "max" : [
                0.29487624764442444,
                0.383127361536026,
                0.7592084407806396
            ],
            "min" : [
                -0.2948625087738037,
                -0.27102482318878174,
                -0.24649879336357117
            ],
            "type" : "VEC3"
        },
        {
            "bufferView" : 1,
            "componentType" : 5126,
            "count" : 807,
            "type" : "VEC2"
        },
        {
            "bufferView" : 2,
            "componentType" : 5126,
            "count" : 807,
            "type" : "VEC3"
        },
        {
            "bufferView" : 3,
            "componentType" : 5123,
            "count" : 1740,
            "type" : "SCALAR"
        }
    ],
    "bufferViews" : [
        {
            "buffer" : 0,
            "byteLength" : 9684,
            "byteOffset" : 0,
            "target" : 34962
        },
        {
            "buffer" : 0,
            "byteLength" : 6456,
            "byteOffset" : 9684,
            "target" : 34962
        },
        {
            "buffer" : 0,
            "byteLength" : 9684,
            "byteOffset" : 16140,
            "target" : 34962
        },
        {
            "buffer" : 0,
            "byteLength" : 3480,
            "byteOffset" : 25824,
            "target" : 34963
        }
    ],
    "samplers" : [
        {
            "magFilter" : 9729,
            "minFilter" : 9987
        }
    ],
    "buffers" : [
        {
            "byteLength" : 29304,
            "uri" : "UltraTurboHeroMan_Blaster.bin"
        }
    ]
}
