# Blender v2.80 (sub 75) OBJ File: 'KayKit Character Exporter.blend'
# www.blender.org
mtllib character_orcBArmLeft.mtl
o character_orcBArmLeft_Cube.4064
v -0.091407 0.727740 -0.000000
v -0.234473 0.677212 0.000000
v -0.331595 0.589901 -0.000000
v -0.406119 0.479888 0.000000
v -0.445856 0.453134 0.070131
v -0.233857 0.677212 -0.003902
v -0.180101 0.674566 -0.045074
v -0.188301 0.694110 -0.030716
v -0.214370 0.677212 -0.035024
v -0.327670 0.589901 -0.022251
v -0.272079 0.589901 -0.064054
v -0.308334 0.589901 -0.049094
v -0.399655 0.479888 -0.040226
v -0.344867 0.479888 -0.086112
v -0.380554 0.479888 -0.068863
v -0.409550 0.455425 0.073344
v -0.420514 0.439007 0.094724
v -0.376075 0.449716 0.119317
v -0.401918 0.156901 -0.045053
v -0.398201 0.199326 -0.088876
v -0.451697 0.198781 -0.047054
v -0.432325 0.199053 -0.072732
v -0.396882 0.183174 -0.085022
v -0.428569 0.183357 -0.070091
v -0.446307 0.182671 -0.046384
v -0.434953 0.169054 -0.043369
v -0.459997 0.198781 -0.000000
v -0.404729 0.156901 -0.000000
v -0.454026 0.182754 -0.000000
v -0.442402 0.169167 -0.000000
v -0.180101 0.674566 0.045074
v -0.233858 0.677212 0.003902
v -0.188301 0.694110 0.030716
v -0.214370 0.677212 0.035024
v -0.272079 0.589901 0.064054
v -0.327670 0.589901 0.022250
v -0.308333 0.589901 0.049094
v -0.344867 0.479888 0.086112
v -0.399655 0.479888 0.040225
v -0.380554 0.479888 0.068862
v -0.374337 0.466539 0.092506
v -0.374337 0.466538 -0.092506
v -0.376075 0.449715 -0.119318
v -0.401918 0.156901 0.045052
v -0.451697 0.198781 0.047054
v -0.398201 0.199326 0.088876
v -0.434953 0.169054 0.043369
v -0.432325 0.199053 0.072732
v -0.446307 0.182671 0.046384
v -0.428569 0.183357 0.070091
v -0.396882 0.183174 0.085022
v -0.104532 0.719915 -0.024634
v -0.088710 0.726236 -0.016182
v -0.171354 0.672399 -0.037765
v -0.246155 0.589901 -0.061678
v -0.239054 0.589901 -0.056513
v -0.299685 0.479888 -0.082917
v -0.292780 0.479888 -0.077804
v -0.409550 0.455425 -0.073344
v -0.420514 0.439007 -0.094724
v -0.331881 0.165373 -0.000000
v -0.349927 0.156901 -0.000000
v -0.088710 0.726236 0.016182
v -0.104532 0.719915 0.024634
v -0.171354 0.672399 0.037765
v -0.239054 0.589901 0.056513
v -0.246155 0.589901 0.061678
v -0.292780 0.479888 0.077804
v -0.299685 0.479888 0.082917
v -0.445856 0.453134 -0.070131
v -0.417086 0.469358 -0.053721
v -0.331720 0.199127 -0.073896
v -0.348205 0.199326 -0.085578
v -0.331057 0.165513 -0.049235
v -0.348530 0.156901 -0.048932
v -0.346603 0.183100 -0.081950
v -0.330251 0.183631 -0.070330
v -0.331057 0.165513 0.049235
v -0.348530 0.156901 0.048932
v -0.348205 0.199326 0.085578
v -0.331720 0.199127 0.073896
v -0.346603 0.183100 0.081949
v -0.330250 0.183631 0.070329
v -0.459457 0.243738 -0.048489
v -0.440573 0.243426 -0.073980
v -0.405788 0.242812 -0.090296
v -0.405788 0.242812 0.090296
v -0.440573 0.243426 0.073980
v -0.459457 0.243738 0.048489
v -0.468008 0.243900 -0.000000
v -0.337430 0.239065 -0.075276
v -0.354180 0.241833 -0.086946
v -0.354180 0.241833 0.086946
v -0.337430 0.239065 0.075276
v -0.459249 0.401711 -0.062771
v -0.433773 0.400275 -0.097956
v -0.386322 0.397601 -0.120195
v -0.386322 0.397601 0.120195
v -0.433773 0.400275 0.097956
v -0.459249 0.401711 0.062770
v -0.470112 0.402324 -0.000000
v -0.326383 0.394222 -0.108771
v -0.299747 0.392721 -0.081781
v -0.299747 0.392721 0.081780
v -0.326383 0.394222 0.108771
v -0.338845 0.256361 0.107029
v -0.319736 0.255557 0.074614
v -0.319736 0.255557 -0.074614
v -0.338845 0.256361 -0.107029
v -0.410524 0.259379 -0.116899
v -0.410524 0.259379 0.116899
v -0.456730 0.261324 0.098390
v -0.481814 0.262380 0.064488
v -0.456730 0.261324 -0.098390
v -0.481814 0.262380 -0.064488
v -0.493173 0.262858 0.000000
v -0.429004 0.429807 -0.000000
v -0.455979 0.414735 -0.000000
v -0.421977 0.429492 -0.042401
v -0.446663 0.414188 -0.056115
v -0.379153 0.410227 -0.107646
v -0.373442 0.427267 -0.082323
v -0.424820 0.412907 -0.087620
v -0.407143 0.428740 -0.066922
v -0.373442 0.427267 0.082323
v -0.379153 0.410227 0.107646
v -0.446663 0.414188 0.056114
v -0.421977 0.429492 0.042400
v -0.424820 0.412907 0.087620
v -0.407143 0.428740 0.066921
v -0.323400 0.424897 -0.079283
v -0.324155 0.407000 -0.095289
v -0.303736 0.405802 -0.081057
v -0.317338 0.424617 -0.075075
v -0.317338 0.424617 0.075075
v -0.303736 0.405802 0.081057
v -0.324155 0.407000 0.095289
v -0.323400 0.424897 0.079283
v -0.417086 0.469358 0.053721
v -0.426870 0.456595 -0.000000
v -0.454258 0.440478 -0.000000
v -0.328655 0.444156 -0.093332
v -0.329612 0.433526 -0.112615
v -0.285504 0.441810 -0.089501
v -0.301311 0.459424 -0.076915
v -0.301311 0.459424 0.076915
v -0.285504 0.441810 0.089501
v -0.329612 0.433526 0.112615
v -0.328655 0.444156 0.093332
v -0.470196 0.283611 -0.058276
v -0.452218 0.384313 -0.057163
v -0.461810 0.384876 -0.000000
v -0.480382 0.284068 0.000000
v -0.452218 0.384313 0.057163
v -0.470196 0.283611 0.058276
v -0.447519 0.282595 -0.089196
v -0.429926 0.383005 -0.088915
v -0.405680 0.280720 -0.106469
v -0.388470 0.380573 -0.108604
v -0.342480 0.277889 -0.097314
v -0.334380 0.377399 -0.098443
v -0.388470 0.380573 0.108604
v -0.405680 0.280720 0.106469
v -0.447519 0.282595 0.089196
v -0.429926 0.383005 0.088914
v -0.334380 0.377399 0.098442
v -0.342480 0.277889 0.097314
v -0.324303 0.277074 -0.068613
v -0.311995 0.376085 -0.073256
v -0.324303 0.277074 0.068613
v -0.311995 0.376085 0.073256
v -0.461207 0.333962 -0.057720
v -0.471274 0.334409 0.000000
v -0.461207 0.333962 0.057720
v -0.452723 0.372400 -0.013225
v -0.452723 0.372400 0.013225
v -0.455515 0.357107 0.034622
v -0.460033 0.332361 0.042795
v -0.464551 0.307616 0.034622
v -0.467343 0.292322 0.013224
v -0.467343 0.292322 -0.013225
v -0.464551 0.307616 -0.034622
v -0.460033 0.332361 -0.042796
v -0.455515 0.357107 -0.034622
v -0.478633 0.336583 0.031567
v -0.481966 0.318330 0.025539
v -0.484026 0.307049 0.009755
v -0.484026 0.307049 -0.009755
v -0.481966 0.318330 -0.025539
v -0.478633 0.336583 -0.031568
v -0.475301 0.354836 0.025539
v -0.473241 0.366117 0.009755
v -0.473241 0.366117 -0.009755
v -0.475301 0.354836 -0.025539
v -0.491481 0.337996 -0.000000
vt 0.478547 0.416667
vt 0.478546 0.416667
vt 0.500000 0.416667
vt 0.500000 0.416667
vt 0.521452 0.594529
vt 0.519464 0.666667
vt 0.541667 0.669098
vt 0.541667 0.596221
vt 0.500000 0.666667
vt 0.480537 0.666667
vt 0.485527 0.750000
vt 0.500000 0.750000
vt 0.458334 0.906935
vt 0.458333 0.862459
vt 0.458333 0.833333
vt 0.496791 0.833333
vt 0.500000 0.833333
vt 0.514474 0.750000
vt 0.537646 0.666667
vt 0.536761 0.750000
vt 0.463239 0.750000
vt 0.462354 0.666667
vt 0.534741 0.833333
vt 0.465259 0.833333
vt 0.538103 0.492144
vt 0.461897 0.492144
vt 0.461995 0.453807
vt 0.538006 0.453807
vt 0.458333 0.750000
vt 0.458333 0.750000
vt 0.458333 0.666667
vt 0.458333 0.666667
vt 0.471242 0.916667
vt 0.500000 0.916667
vt 0.458333 0.492160
vt 0.458333 0.492151
vt 0.458333 0.453807
vt 0.458333 0.453807
vt 0.462232 0.439503
vt 0.537768 0.439503
vt 0.541667 0.833333
vt 0.541667 0.862459
vt 0.541667 0.906935
vt 0.503210 0.833333
vt 0.458333 0.835734
vt 0.541667 0.453807
vt 0.541667 0.439573
vt 0.541667 0.437599
vt 0.541667 0.451570
vt 0.541667 0.753358
vt 0.541667 0.833333
vt 0.541667 0.750000
vt 0.522103 0.438838
vt 0.522063 0.453330
vt 0.521454 0.416667
vt 0.522604 0.416667
vt 0.458333 0.841529
vt 0.458333 0.439573
vt 0.458333 0.451570
vt 0.458333 0.437599
vt 0.521454 0.416667
vt 0.541667 0.439510
vt 0.528394 0.416667
vt 0.477937 0.453330
vt 0.477897 0.438838
vt 0.477396 0.416667
vt 0.458333 0.439510
vt 0.541667 0.666667
vt 0.541667 0.593910
vt 0.541667 0.594220
vt 0.541667 0.666667
vt 0.458333 0.753358
vt 0.458333 0.833333
vt 0.458333 0.491567
vt 0.500000 0.416667
vt 0.500000 0.438845
vt 0.500000 0.453330
vt 0.458333 0.669098
vt 0.537989 0.593872
vt 0.500000 0.594554
vt 0.478549 0.594529
vt 0.541667 0.491567
vt 0.541667 0.492151
vt 0.532059 0.840013
vt 0.462011 0.593872
vt 0.541667 0.453807
vt 0.541667 0.750000
vt 0.528758 0.916667
vt 0.471606 0.416667
vt 0.500000 0.416667
vt 0.541667 0.492160
vt 0.477626 0.492070
vt 0.522375 0.492070
vt 0.500000 0.492070
vt 0.458333 0.594220
vt 0.458333 0.596221
vt 0.545932 0.856140
vt 0.458333 0.593910
vt 1.000000 0.500000
vt 0.900000 1.000000
vt 1.000000 1.000000
vt 0.900000 0.500000
vt 0.800000 1.000000
vt 0.900000 1.000000
vt 0.800000 0.500000
vt 0.700000 1.000000
vt 0.800000 1.000000
vt 0.700000 0.500000
vt 0.600000 1.000000
vt 0.600000 0.500000
vt 0.500000 1.000000
vt 0.500000 0.500000
vt 0.400000 1.000000
vt 0.400000 0.500000
vt 0.300000 1.000000
vt 0.300000 0.500000
vt 0.200000 1.000000
vt 0.200000 0.500000
vt 0.100000 1.000000
vt 0.100000 0.500000
vt -0.000000 1.000000
vt 0.478240 0.583333
vt 0.478240 0.583333
vt 0.458333 0.584998
vt 0.458333 0.584998
vt 0.500000 0.583333
vt 0.500000 0.583333
vt 0.461962 0.583333
vt 0.461962 0.583333
vt 0.538038 0.583333
vt 0.538038 0.583333
vt 0.458333 0.491567
vt 0.477626 0.492070
vt 0.541667 0.584998
vt 0.541667 0.584998
vt 0.521760 0.583333
vt 0.521760 0.583333
vt 0.458333 0.583333
vt 0.458333 0.583333
vt 0.458333 0.492151
vt 0.458333 0.583333
vt 0.458333 0.583333
vt 0.500000 0.492070
vt 0.541667 0.583333
vt 0.541667 0.583333
vt 0.541667 0.583333
vt 0.541667 0.583333
vt 0.541667 0.492151
vt 0.541667 0.492160
vt 0.538103 0.492144
vt 0.461897 0.492144
vt 0.522375 0.492070
vt 0.541667 0.571651
vt 0.521848 0.570296
vt 0.500000 0.570296
vt 0.478152 0.570296
vt 0.541667 0.570307
vt 0.458333 0.570307
vt 0.458333 0.570309
vt 0.458333 0.571651
vt 0.541667 0.570309
vt 0.461952 0.570306
vt 0.538048 0.570306
vt 0.541667 0.491567
vt 0.458333 0.492160
vt 0.541667 0.505184
vt 0.538094 0.505171
vt 0.461906 0.505171
vt 0.458333 0.505184
vt 0.541667 0.505177
vt 0.458333 0.505177
vt 0.458333 0.504915
vt 0.477713 0.505108
vt 0.477933 0.537702
vt 0.541667 0.504915
vt 0.500000 0.505108
vt 0.522287 0.505108
vt 0.500000 0.537702
vt 0.522067 0.537702
vt 0.521760 0.583333
vt 0.521452 0.594529
vt 0.541667 0.596221
vt 0.541667 0.584998
vt 0.461962 0.583333
vt 0.458333 0.583333
vt 0.458333 0.583333
vt 0.500000 0.594554
vt 0.458333 0.584998
vt 0.541667 0.593910
vt 0.541667 0.594220
vt 0.500000 0.583333
vt 0.537989 0.593872
vt 0.541667 0.583333
vt 0.541667 0.583333
vt 0.462011 0.593872
vt 0.458333 0.594220
vt 0.458333 0.596221
vt 0.478549 0.594529
vt 0.478240 0.583333
vt 0.538038 0.583333
vt 0.458333 0.593910
vt 0.900000 1.000000
vt 1.000000 1.000000
vt 0.800000 1.000000
vt 0.800000 1.000000
vt 0.900000 1.000000
vt 0.400000 1.000000
vt 0.500000 1.000000
vt 0.700000 1.000000
vt 0.800000 1.000000
vt 0.600000 1.000000
vt -0.000000 1.000000
vt 0.100000 1.000000
vt 0.200000 1.000000
vt 0.300000 1.000000
vt 0.600000 1.000000
vt 0.100000 1.000000
vt 0.400000 1.000000
vt 0.700000 1.000000
vt -0.000000 1.000000
vt 0.300000 1.000000
vt 0.900000 1.000000
vt 0.500000 1.000000
vt 0.200000 1.000000
vn 0.2101 -0.9303 0.3005
vn -0.1603 -0.9428 0.2922
vn -0.1723 -0.9850 0.0000
vn 0.2185 -0.9758 -0.0000
vn -0.8583 0.4003 -0.3210
vn -0.8175 0.4743 -0.3267
vn -0.5880 0.3769 -0.7157
vn -0.6635 0.3088 -0.6815
vn -0.8742 0.4856 0.0000
vn -0.8175 0.4743 0.3267
vn -0.7123 0.6401 0.2879
vn -0.7591 0.6509 0.0000
vn -0.1120 0.5574 0.8227
vn -0.2884 0.8248 0.4863
vn 0.1877 0.1366 0.9727
vn -0.5166 0.8342 0.1930
vn -0.5189 0.8548 0.0000
vn -0.7123 0.6401 -0.2879
vn 0.9067 -0.4218 -0.0000
vn 0.8484 -0.5294 -0.0000
vn 0.6576 -0.6392 -0.3988
vn 0.6576 -0.6392 0.3988
vn 0.9899 0.1415 -0.0000
vn 0.9928 0.1201 -0.0000
vn 0.3360 -0.0170 0.9417
vn -0.1340 0.3155 0.9394
vn -0.1715 0.1617 0.9718
vn 0.3269 -0.0843 0.9413
vn -0.3188 0.9470 0.0394
vn -0.3191 0.9477 0.0000
vn 0.2963 0.0113 0.9550
vn -0.2142 -0.0698 0.9743
vn -0.1741 -0.1485 0.9735
vn 0.3324 -0.0812 0.9396
vn 0.9988 0.0500 -0.0000
vn 0.1877 0.1366 -0.9727
vn -0.2884 0.8248 -0.4863
vn -0.1120 0.5574 -0.8227
vn -0.5166 0.8342 -0.1930
vn -0.4193 0.6680 0.6148
vn -0.1741 -0.1485 -0.9735
vn -0.1607 -0.5369 -0.8282
vn -0.5143 -0.5208 -0.6813
vn -0.6146 -0.2005 -0.7630
vn -0.5185 0.5583 -0.6476
vn -0.4193 0.6680 -0.6148
vn -0.1340 0.3155 -0.9394
vn -0.8038 -0.4787 -0.3532
vn -0.8916 -0.2414 -0.3832
vn -0.1603 -0.9428 -0.2922
vn -0.5153 -0.8084 -0.2845
vn -0.1607 -0.5369 0.8282
vn -0.6146 -0.2005 0.7630
vn -0.5143 -0.5208 0.6813
vn 0.2101 -0.9303 -0.3005
vn 0.2855 -0.4942 -0.8211
vn 0.4917 -0.5053 -0.7091
vn 0.4279 -0.8422 -0.3281
vn -0.8916 -0.2414 0.3832
vn -0.8038 -0.4787 0.3532
vn -0.5153 -0.8084 0.2845
vn 0.2855 -0.4942 0.8211
vn -0.1715 0.1617 -0.9718
vn 0.2730 -0.1828 -0.9445
vn -0.2536 0.0775 -0.9642
vn 0.3269 -0.0843 -0.9413
vn -0.5185 0.5583 0.6476
vn -0.6422 -0.1381 0.7540
vn -0.5802 -0.8145 0.0000
vn -0.8689 -0.4951 0.0000
vn -0.9671 -0.2543 0.0000
vn -0.5880 0.3769 0.7157
vn 0.5761 -0.1920 -0.7945
vn 0.5548 -0.2879 -0.7805
vn -0.9107 0.4130 -0.0000
vn -0.8583 0.4003 0.3210
vn -0.6422 -0.1381 -0.7540
vn -0.2142 -0.0698 -0.9743
vn 0.9139 -0.4060 0.0000
vn 0.3324 -0.0812 -0.9396
vn 0.3360 -0.0170 -0.9417
vn -0.3188 0.9470 -0.0394
vn 0.5165 -0.5434 -0.6618
vn 0.5668 -0.8171 -0.1052
vn 0.5751 -0.2385 -0.7825
vn 0.5668 -0.8171 0.1052
vn 0.5165 -0.5434 0.6618
vn 0.5751 -0.2385 0.7825
vn 0.5761 -0.1920 0.7945
vn 0.5783 -0.0469 -0.8145
vn 0.4279 -0.8422 0.3281
vn 0.4917 -0.5053 0.7091
vn 0.9980 -0.0629 -0.0000
vn 0.5783 -0.0469 0.8145
vn 0.4335 -0.9011 -0.0000
vn 0.5528 -0.8333 0.0000
vn 0.5773 0.0547 0.8147
vn 0.2963 0.0113 -0.9550
vn 0.5773 0.0547 -0.8147
vn -0.7658 -0.5640 0.3089
vn -0.7658 -0.5640 -0.3089
vn -0.8391 -0.5440 0.0000
vn -0.2536 0.0775 0.9642
vn -0.6635 0.3088 0.6815
vn 0.2730 -0.1828 0.9445
vn 0.5548 -0.2879 0.7805
vn 0.9837 -0.1796 -0.0000
vn 0.9945 0.0678 0.0797
vn 0.9777 -0.0244 0.2087
vn 0.9504 -0.1735 0.2579
vn 0.9945 0.0678 -0.0797
vn 0.9777 -0.0244 -0.2087
vn 0.9504 -0.1735 -0.2579
vn 0.9232 -0.3227 -0.2087
vn 0.9064 -0.4148 -0.0797
vn 0.9064 -0.4148 0.0797
vn 0.9232 -0.3227 0.2087
vn -0.6093 0.7489 0.2606
vn -0.6024 0.7487 0.2766
vn -0.3965 0.7477 0.5327
vn -0.3989 0.7477 0.5309
vn -0.6654 0.7465 0.0000
vn 0.9563 0.0951 0.2764
vn 0.8595 0.3772 0.3451
vn 0.8595 0.3772 -0.3451
vn 0.9563 0.0951 -0.2764
vn -0.3520 -0.8472 0.3980
vn -0.3433 -0.8478 0.4042
vn -0.5217 -0.8231 0.2243
vn -0.3989 0.7477 -0.5309
vn -0.3965 0.7477 -0.5327
vn -0.6024 0.7487 -0.2766
vn -0.6093 0.7489 -0.2606
vn -0.0709 0.7239 0.6863
vn 0.0029 0.7132 0.7010
vn -0.1011 -0.8493 0.5181
vn -0.1077 -0.8496 0.5163
vn 0.3470 0.5955 0.7246
vn 0.4604 0.5284 0.7133
vn -0.5993 -0.8005 0.0000
vn 0.4604 0.5284 -0.7133
vn 0.3470 0.5955 -0.7246
vn -0.0709 0.7239 -0.6863
vn 0.0029 0.7132 -0.7010
vn -0.1011 -0.8493 -0.5181
vn -0.1077 -0.8496 -0.5163
vn 0.2613 -0.8222 -0.5056
vn 0.2264 -0.8272 -0.5142
vn 0.5730 -0.7766 -0.2621
vn 0.6075 -0.7707 -0.1926
vn 0.6075 -0.7707 0.1926
vn 0.5730 -0.7766 0.2621
vn -0.5217 -0.8231 -0.2243
vn -0.6302 -0.2069 -0.7484
vn -0.9153 -0.1529 -0.3726
vn -0.8271 -0.4416 -0.3477
vn -0.5679 -0.4799 -0.6687
vn -0.9911 -0.1333 0.0000
vn -0.9062 -0.4229 0.0000
vn -0.9153 -0.1529 0.3726
vn -0.8271 -0.4416 0.3477
vn -0.1407 -0.2947 -0.9452
vn -0.1180 -0.5488 -0.8276
vn -0.1407 -0.2947 0.9452
vn 0.4403 -0.3858 0.8108
vn 0.3541 -0.6228 0.6977
vn -0.1180 -0.5488 0.8276
vn -0.6302 -0.2069 0.7484
vn -0.5679 -0.4799 0.6687
vn 0.4403 -0.3858 -0.8108
vn 0.3541 -0.6228 -0.6977
vn 0.8577 -0.4176 0.3000
vn 0.8577 -0.4176 -0.3000
vn 0.6920 -0.6475 -0.3192
vn 0.6920 -0.6475 0.3192
vn -0.3520 -0.8472 -0.3980
vn -0.3433 -0.8478 -0.4042
vn 0.2264 -0.8272 0.5142
vn 0.2613 -0.8222 0.5056
vn 0.9152 0.2872 -0.2826
vn 0.8093 0.3313 -0.4850
vn 0.5364 0.1836 -0.8237
vn 0.9584 0.0846 -0.2725
vn 0.8093 0.3313 0.4850
vn 0.9152 0.2872 0.2826
vn 0.9584 0.0846 0.2725
vn 0.5364 0.1836 0.8237
vn 0.1446 0.4175 -0.8971
vn -0.1033 0.4641 -0.8798
vn -0.1118 0.2549 -0.9605
vn -0.5155 0.5159 0.6842
vn -0.1033 0.4641 0.8798
vn -0.1118 0.2549 0.9605
vn -0.5821 0.3306 0.7429
vn -0.7756 0.5258 0.3492
vn -0.8593 0.3602 0.3631
vn -0.9082 0.1654 0.3844
vn 0.1446 0.4175 0.8971
vn -0.5155 0.5159 -0.6842
vn -0.5821 0.3306 -0.7429
vn -0.8569 0.5154 0.0000
vn -0.9336 0.3583 0.0000
vn -0.7756 0.5258 -0.3492
vn -0.8593 0.3602 -0.3631
vn -0.9838 0.1794 0.0000
vn -0.9082 0.1654 -0.3843
vn -0.1026 0.8036 -0.5863
vn -0.2488 0.8111 -0.5293
vn -0.3049 0.8086 -0.5033
vn 0.4893 -0.4159 0.7666
vn 0.2521 -0.4133 0.8750
vn 0.3499 -0.4177 0.8385
vn -0.1552 -0.3187 0.9351
vn -0.1755 -0.3111 0.9340
vn 0.9612 -0.0116 0.2756
vn 0.9497 0.0104 0.3131
vn 0.9970 -0.0772 -0.0000
vn -0.9371 -0.0532 -0.3449
vn -0.8989 -0.0798 -0.4309
vn -0.5943 -0.1804 -0.7838
vn -0.6403 -0.1717 -0.7487
vn -0.5943 -0.1804 0.7838
vn -0.6403 -0.1717 0.7487
vn -0.3669 0.3767 0.8506
vn -0.2117 0.3901 0.8961
vn 0.2543 0.3175 0.9135
vn 0.2456 0.3214 0.9145
vn -1.0000 0.0089 0.0000
vn -0.5990 0.3333 0.7281
vn -0.1755 -0.3112 -0.9340
vn -0.1552 -0.3187 -0.9351
vn 0.2521 -0.4133 -0.8750
vn 0.3499 -0.4177 -0.8385
vn 0.7024 0.1698 0.6913
vn 0.7046 0.1691 0.6892
vn -0.9083 0.4182 0.0000
vn -0.4486 0.7866 -0.4243
vn -0.4486 0.7866 0.4243
vn -0.2489 0.8111 0.5293
vn -0.3049 0.8086 0.5033
vn -0.1026 0.8036 0.5863
vn -0.5206 0.8538 -0.0000
vn -0.5181 0.8497 0.0983
vn -0.5181 0.8497 -0.0983
vn 0.2609 0.7903 -0.5544
vn 0.2158 0.7864 -0.5788
vn 0.0980 0.7670 -0.6341
vn 0.0980 0.7670 0.6341
vn 0.2158 0.7864 0.5788
vn 0.2609 0.7903 0.5544
vn 0.7442 0.6679 -0.0000
vn 0.3626 0.7912 -0.4924
vn 0.3626 0.7912 0.4924
vn -0.9371 -0.0532 0.3449
vn -0.8989 -0.0798 0.4309
vn 0.2456 0.3214 -0.9145
vn 0.2543 0.3175 -0.9135
vn -0.2117 0.3901 -0.8961
vn -0.3669 0.3767 -0.8506
vn 0.7046 0.1691 -0.6892
vn 0.7024 0.1698 -0.6913
vn 0.9497 0.0104 -0.3131
vn 0.9612 -0.0116 -0.2756
vn -0.5990 0.3333 -0.7281
vn 0.8922 -0.4517 -0.0000
vn 0.4893 -0.4159 -0.7666
vn -0.6689 -0.6964 -0.2600
vn -0.8382 -0.5028 -0.2113
vn -0.7907 -0.2599 -0.5543
vn -0.6056 -0.4020 -0.6868
vn -0.9856 0.1690 -0.0000
vn -0.7133 0.1354 -0.6877
vn -0.3922 0.5883 0.7072
vn -0.6352 0.5336 0.5584
vn -0.7133 0.1354 0.6877
vn -0.5005 0.0859 0.8615
vn -0.6689 -0.6964 0.2600
vn -0.8382 -0.5028 0.2113
vn -0.5005 0.0859 -0.8615
vn -0.6056 -0.4020 0.6868
vn -0.7907 -0.2599 0.5543
vn -0.6352 0.5336 -0.5584
vn -0.3922 0.5883 -0.7072
vn -0.5866 0.7812 -0.2138
vn -0.3236 0.9061 -0.2726
vn -0.5866 0.7812 0.2138
vn -0.3236 0.9061 0.2726
usemtl GreenLight
s 1
f 79/1/1 44/2/2 28/3/3 62/4/4
s 2
f 119/5/5 13/6/6 15/7/7 124/8/8
s 3
f 4/9/9 39/10/10 36/11/11 3/12/12
s 5
f 64/13/13 33/14/14 31/15/15
s 6
f 3/12/12 36/11/11 32/16/16 2/17/17
s 8
f 13/6/6 4/9/9 3/12/12 10/18/18
s 9
f 58/19/19 56/20/20 66/21/20 68/22/19
s 10
f 56/20/20 54/23/21 65/24/22 66/21/20
s 11
f 91/25/23 94/26/23 81/27/24 72/28/24
s 14
f 67/29/25 35/30/26 38/31/27 69/32/28
s 15
f 31/15/15 35/30/26 67/29/25
s 16
f 2/17/17 32/16/16 33/14/14 64/13/29 63/33/29 1/34/30
s 17
f 93/35/31 87/36/32 46/37/33 80/38/34
s 18
f 72/28/24 81/27/24 83/39/35 77/40/35
s 19
f 7/41/36 8/42/37 52/43/38
s 20
f 10/18/18 3/12/12 2/17/17 6/44/39
s 21
f 31/15/15 33/14/14 34/45/40
s 22
f 20/46/41 23/47/42 24/48/43 22/49/44
s 23
f 12/50/45 9/51/46 7/41/36 11/52/47
s 24
f 25/53/48 21/54/49 22/49/44 24/48/43
s 25
f 23/47/42 19/55/50 26/56/51 24/48/43
s 26
f 26/56/51 25/53/48 24/48/43
s 27
f 34/45/40 33/14/14 32/57/16
s 28
f 51/58/52 46/37/33 48/59/53 50/60/54
s 29
f 75/61/55 76/62/56 77/40/57 74/63/58
s 30
f 45/64/59 49/65/60 50/60/54 48/59/53
s 31
f 49/65/60 47/66/61 50/60/54
s 32
f 46/37/33 51/58/52 82/67/62 80/38/34
s 33
f 44/2/2 51/58/52 50/60/54 47/66/61
s 34
f 76/62/56 75/61/55 19/55/50 23/47/42
s 35
f 10/18/18 6/44/39 9/51/46 12/50/45
s 36
f 79/1/1 82/67/62 51/58/52 44/2/2
s 37
f 13/6/6 10/18/18 12/50/45 15/7/7
s 38
f 15/7/7 12/50/45 11/52/47 14/68/63
s 40
f 131/69/64 122/70/65 14/68/63 57/71/66
s 43
f 37/72/67 34/73/40 32/16/16 36/11/11
s 44
f 46/37/33 87/36/32 88/74/68 48/59/53
s 45
f 35/30/26 31/15/15 34/73/40 37/72/67
s 46
f 30/75/69 29/76/70 25/53/48 26/56/51
s 47
f 29/76/70 27/77/71 21/54/49 25/53/48
s 48
f 38/31/27 35/30/26 37/72/67 40/78/72
s 49
f 40/78/72 37/72/67 36/11/11 39/10/10
s 51
f 131/69/64 57/71/66 58/19/73 134/79/74
s 53
f 117/80/75 128/81/76 39/10/10 4/9/9
s 54
f 20/46/41 22/49/44 85/82/77 86/83/78
s 55
f 47/66/61 49/65/60 29/76/70 30/75/69
s 56
f 49/65/60 45/64/59 27/77/71 29/76/70
s 57
f 6/44/39 8/42/37 9/84/46
s 60
f 134/79/79 58/19/19 68/22/19 135/85/79
s 61
f 23/47/42 20/46/41 73/86/80 76/62/56
s 62
f 62/4/4 28/3/3 19/55/50 75/61/55
s 63
f 57/71/66 14/68/63 11/52/47 55/87/81
s 64
f 55/87/81 11/52/47 7/41/36
s 65
f 6/44/39 2/17/17 1/34/30 53/88/82 52/43/82 8/42/37
s 66
f 7/41/36 52/43/83 53/88/84 54/23/21
s 67
f 55/87/81 7/41/36 54/23/21 56/20/85
s 68
f 57/71/66 55/87/81 56/20/85 58/19/73
s 70
f 65/24/22 63/33/86 64/13/87 31/15/15
s 71
f 66/21/88 65/24/22 31/15/15 67/29/25
s 72
f 68/22/89 66/21/88 67/29/25 69/32/28
s 74
f 76/62/56 73/86/80 72/28/90 77/40/57
s 75
f 82/67/62 79/1/1 78/89/91 83/39/92
s 76
f 77/40/35 83/39/35 78/89/93 61/90/93 74/63/93
s 77
f 80/38/34 82/67/62 83/39/92 81/27/94
s 79
f 62/4/4 75/61/55 74/63/58 61/90/95
s 80
f 79/1/1 62/4/4 61/90/95 78/89/91
s 81
f 54/23/21 53/88/84 1/34/96 63/33/86 65/24/22
s 82
f 80/38/34 81/27/94 94/26/97 93/35/31
s 83
f 72/28/90 73/86/80 92/91/98 91/25/99
s 84
f 73/86/80 20/46/41 86/83/78 92/91/98
s 85
f 28/3/3 44/2/2 47/66/61 30/75/69
s 86
f 45/64/59 48/59/53 88/74/68 89/92/100
s 87
f 19/55/50 28/3/3 30/75/69 26/56/51
s 88
f 21/54/49 84/93/101 85/82/77 22/49/44
s 89
f 21/54/49 27/77/71 90/94/102 84/93/101
s 90
f 125/95/103 38/31/27 40/78/72 130/96/104
s 91
f 27/77/71 45/64/59 89/92/100 90/94/102
s 92
f 9/84/46 8/42/37 7/97/36
s 108
f 69/32/28 38/31/27 125/95/103 138/98/105
s 111
f 124/8/8 15/7/7 14/68/63 122/70/65
s 113
f 130/96/104 40/78/72 39/10/10 128/81/76
s 116
f 135/85/106 68/22/89 69/32/28 138/98/105
s 128
f 119/5/5 117/80/75 4/9/9 13/6/6
s 174
f 173/99/107 181/100/108 182/101/109
s 175
f 173/102/107 182/103/109 183/104/110
s 176
f 173/105/107 180/106/111 181/107/108
s 177
f 173/108/107 179/109/112 180/106/111
s 178
f 173/110/107 178/111/113 179/109/112
s 179
f 173/112/107 177/113/114 178/111/113
s 180
f 173/114/107 176/115/115 177/113/114
s 181
f 173/116/107 175/117/116 176/115/115
s 182
f 173/118/107 184/119/117 175/117/116
s 183
f 173/120/107 183/121/110 184/119/117
usemtl WoodDark
s 4
f 127/122/118 100/123/119 99/124/120 129/125/121
s 7
f 118/126/122 101/127/122 100/123/119 127/122/118
s 12
f 136/128/123 104/129/124 103/130/125 133/131/126
s 13
f 88/74/127 112/132/128 113/133/129 89/92/100
s 39
f 123/134/130 96/135/131 95/136/132 120/137/133
s 41
f 129/125/121 99/124/120 98/138/134 126/139/135
s 42
f 87/36/136 111/140/137 112/132/128 88/74/127
s 50
f 126/139/135 98/138/134 105/141/138 137/142/139
s 52
f 89/92/100 113/133/129 116/143/140 90/94/102
s 58
f 132/144/141 102/145/142 97/146/143 121/147/144
s 59
f 86/83/145 110/148/146 109/149/147 92/91/148
s 69
f 133/131/126 103/130/125 102/145/142 132/144/141
s 73
f 137/142/139 105/141/138 104/129/124 136/128/123
s 78
f 91/25/149 108/150/150 107/151/151 94/26/152
s 93
f 92/91/148 109/149/147 108/150/150 91/25/149
s 94
f 90/94/102 116/143/140 115/152/153 84/93/101
s 95
f 157/153/154 151/154/155 95/136/156 96/135/157
s 96
f 151/154/155 152/155/158 101/127/159 95/136/156
s 97
f 152/155/158 154/156/160 100/123/161 101/127/159
s 98
f 159/157/162 157/153/154 96/135/157 97/146/163
s 99
f 162/158/164 166/159/165 105/141/166 98/138/167
s 100
f 154/156/160 165/160/168 99/124/169 100/123/161
s 101
f 165/160/168 162/158/164 98/138/167 99/124/169
s 102
f 161/161/170 159/157/162 97/146/163 102/145/171
s 103
f 171/162/172 169/163/173 103/130/174 104/129/175
s 104
f 166/159/165 171/162/172 104/129/175 105/141/166
s 105
f 169/163/173 161/161/170 102/145/171 103/130/174
s 106
f 121/147/144 97/146/143 96/135/131 123/134/130
s 107
f 85/82/176 114/164/177 110/148/146 86/83/145
s 109
f 84/93/101 115/152/153 114/164/177 85/82/176
s 112
f 93/35/178 106/165/179 111/140/137 87/36/136
s 114
f 94/26/152 107/151/151 106/165/179 93/35/178
s 115
f 120/137/133 95/136/132 101/127/122 118/126/122
s 150
f 108/150/180 109/149/181 160/166/182 168/167/183
s 151
f 168/167/183 160/166/182 161/161/170 169/163/173
s 152
f 106/165/184 107/151/185 170/168/186 167/169/187
s 153
f 167/169/187 170/168/186 171/162/172 166/159/165
s 154
f 107/151/185 108/150/180 168/167/183 170/168/186
s 155
f 170/168/186 168/167/183 169/163/173 171/162/172
s 156
f 109/149/188 110/148/189 158/170/190 160/166/182
s 157
f 160/166/182 158/170/190 159/157/162 161/161/170
s 158
f 112/132/191 111/140/192 163/171/193 164/172/194
s 159
f 164/172/194 163/171/193 162/158/164 165/160/168
s 160
f 113/133/195 112/132/191 164/172/194 155/173/196
s 161
f 155/173/196 164/172/194 165/160/168 154/156/160 174/174/197
s 162
f 111/140/192 106/165/198 167/169/187 163/171/193
s 163
f 163/171/193 167/169/187 166/159/165 162/158/164
s 164
f 110/148/189 114/164/199 156/175/200 158/170/190
s 165
f 158/170/190 156/175/200 157/153/154 159/157/162
s 166
f 116/143/201 113/133/195 155/173/196 153/176/202
s 167
f 115/152/203 116/143/201 153/176/202 150/177/204
s 168
f 153/176/202 155/173/196 174/174/197 173/178/205
s 169
f 114/164/199 115/152/203 150/177/204 156/175/200
s 170
f 156/175/200 150/177/204 172/179/206 151/154/155 157/153/154
s 171
f 172/179/206 173/178/205 152/155/158 151/154/155
s 172
f 173/178/205 174/174/197 154/156/160 152/155/158
s 173
f 150/177/204 153/176/202 173/178/205 172/179/206
usemtl BrownDark
s 110
f 70/180/207 71/181/207 59/182/208 60/183/209
s 117
f 136/128/210 147/184/210 148/185/211 137/142/212
s 118
f 137/142/212 148/185/211 18/186/213 126/139/214
s 119
f 119/5/215 71/181/216 140/187/217 117/80/217
s 120
f 120/137/218 70/180/219 60/183/220 123/134/221
s 121
f 126/139/214 18/186/213 17/188/222 129/125/223
s 122
f 131/69/224 142/189/225 42/190/226 122/70/227
s 123
f 118/126/228 141/191/228 70/180/219 120/137/218
s 124
f 134/79/229 145/192/229 142/189/225 131/69/224
s 125
f 121/147/230 43/193/231 143/194/232 132/144/233
s 126
f 122/70/227 42/190/226 59/182/234 124/8/235
s 127
f 135/85/236 146/195/236 145/192/236 134/79/236
s 129
f 60/183/209 59/182/208 42/190/237 43/193/237
s 130
f 18/186/238 41/196/238 16/197/239 17/188/240
s 131
f 17/188/240 16/197/239 139/198/241 5/199/241
s 132
f 141/191/242 140/187/242 71/181/243 70/180/243
s 133
f 5/199/244 139/198/244 140/187/242 141/191/242
s 134
f 143/194/245 142/189/246 145/192/247 144/200/247
s 135
f 147/184/248 146/195/248 149/201/249 148/185/250
s 136
f 144/200/251 145/192/251 146/195/251 147/184/251
s 137
f 43/193/252 42/190/252 142/189/246 143/194/245
s 138
f 148/185/250 149/201/249 41/196/253 18/186/253
s 139
f 127/122/254 5/199/255 141/191/228 118/126/228
s 140
f 125/95/256 41/196/257 149/201/258 138/98/259
s 141
f 130/96/260 16/197/261 41/196/257 125/95/256
s 142
f 124/8/235 59/182/234 71/181/216 119/5/215
s 143
f 117/80/217 140/187/217 139/198/262 128/81/263
s 144
f 129/125/223 17/188/222 5/199/255 127/122/254
s 145
f 138/98/259 149/201/258 146/195/264 135/85/264
s 146
f 123/134/221 60/183/220 43/193/231 121/147/230
s 147
f 133/131/126 144/200/265 147/184/265 136/128/123
s 148
f 132/144/233 143/194/232 144/200/266 133/131/266
s 149
f 128/81/263 139/198/262 16/197/261 130/96/260
usemtl Metal
s 184
f 181/100/267 188/202/268 189/203/269 182/101/270
s 185
f 189/204/269 195/205/271 190/206/272
s 186
f 177/113/273 191/207/274 185/208/275 178/111/276
s 187
f 180/106/277 187/209/278 188/210/268 181/107/267
s 188
f 182/103/270 189/204/269 190/206/272 183/104/279
s 189
f 179/109/280 186/211/281 187/209/278 180/106/277
s 190
f 178/111/276 185/208/275 186/211/281 179/109/280
s 191
f 183/121/279 190/212/272 194/213/282 184/119/283
s 192
f 184/119/283 194/213/282 193/214/284 175/117/285
s 193
f 175/117/285 193/214/284 192/215/286 176/115/287
s 194
f 176/115/287 192/215/286 191/207/274 177/113/273
s 195
f 186/211/281 195/216/271 187/209/278
s 196
f 194/213/282 195/217/271 193/214/284
s 197
f 191/207/274 195/218/271 185/208/275
s 198
f 187/209/278 195/219/271 188/210/268
s 199
f 190/212/272 195/220/271 194/213/282
s 200
f 192/215/286 195/221/271 191/207/274
s 201
f 188/202/268 195/222/271 189/203/269
s 202
f 185/208/275 195/223/271 186/211/281
s 203
f 193/214/284 195/224/271 192/215/286
