# Blender v2.80 (sub 75) OBJ File: 'KayKit Character Exporter.blend'
# www.blender.org
mtllib character_orcAArmRight.mtl
o character_orcAArmRight_Cube.4066
v -0.091407 0.727740 -0.000000
v -0.234473 0.677212 0.000000
v -0.331595 0.589901 -0.000000
v -0.406119 0.479888 0.000000
v -0.445856 0.453134 0.070131
v -0.233857 0.677212 -0.003902
v -0.180101 0.674566 -0.045074
v -0.188301 0.694110 -0.030716
v -0.214370 0.677212 -0.035024
v -0.327670 0.589901 -0.022251
v -0.272079 0.589901 -0.064054
v -0.308334 0.589901 -0.049094
v -0.399655 0.479888 -0.040226
v -0.344867 0.479888 -0.086112
v -0.380554 0.479888 -0.068863
v -0.409550 0.455425 0.073344
v -0.420514 0.439007 0.094724
v -0.376075 0.449716 0.119317
v -0.401918 0.156901 -0.045053
v -0.401520 0.199326 -0.099543
v -0.464885 0.198781 -0.052702
v -0.441940 0.199053 -0.081462
v -0.401288 0.183174 -0.090320
v -0.437086 0.183357 -0.074458
v -0.457126 0.182671 -0.049274
v -0.434953 0.169054 -0.043369
v -0.474717 0.198781 -0.000000
v -0.404729 0.156901 -0.000000
v -0.465847 0.182754 -0.000000
v -0.442402 0.169167 -0.000000
v -0.180101 0.674566 0.045074
v -0.233858 0.677212 0.003902
v -0.188301 0.694110 0.030716
v -0.214370 0.677212 0.035024
v -0.272079 0.589901 0.064054
v -0.327670 0.589901 0.022250
v -0.308333 0.589901 0.049094
v -0.344867 0.479888 0.086112
v -0.399655 0.479888 0.040225
v -0.380554 0.479888 0.068862
v -0.374337 0.466539 0.092506
v -0.374337 0.466538 -0.092506
v -0.376075 0.449715 -0.119318
v -0.401918 0.156901 0.045052
v -0.464885 0.198781 0.052702
v -0.401520 0.199326 0.099543
v -0.434953 0.169054 0.043369
v -0.441940 0.199053 0.081462
v -0.457126 0.182671 0.049274
v -0.437086 0.183357 0.074458
v -0.401288 0.183174 0.090320
v -0.104532 0.719915 -0.024634
v -0.088710 0.726236 -0.016182
v -0.171354 0.672399 -0.037765
v -0.246155 0.589901 -0.061678
v -0.239054 0.589901 -0.056513
v -0.299685 0.479888 -0.082917
v -0.292780 0.479888 -0.077804
v -0.409550 0.455425 -0.073344
v -0.420514 0.439007 -0.094724
v -0.331881 0.165373 -0.000000
v -0.349927 0.156901 -0.000000
v -0.088710 0.726236 0.016182
v -0.104532 0.719915 0.024634
v -0.171354 0.672399 0.037765
v -0.239054 0.589901 0.056513
v -0.246155 0.589901 0.061678
v -0.292780 0.479888 0.077804
v -0.299685 0.479888 0.082917
v -0.445856 0.453134 -0.070131
v -0.417086 0.469358 -0.053721
v -0.322777 0.199127 -0.082765
v -0.342303 0.199326 -0.095849
v -0.331057 0.165513 -0.049235
v -0.348530 0.156901 -0.048932
v -0.344485 0.183100 -0.087056
v -0.326011 0.183631 -0.074712
v -0.331057 0.165513 0.049235
v -0.348530 0.156901 0.048932
v -0.342303 0.199326 0.095849
v -0.322776 0.199127 0.082765
v -0.344485 0.183100 0.087056
v -0.326010 0.183631 0.074712
v -0.463206 0.410270 -0.066315
v -0.436291 0.408753 -0.103488
v -0.386160 0.405927 -0.126982
v -0.386160 0.405927 0.126982
v -0.436291 0.408753 0.103488
v -0.463206 0.410270 0.066315
v -0.474682 0.410916 -0.000000
v -0.322836 0.402358 -0.114913
v -0.294696 0.400771 -0.086399
v -0.294696 0.400771 0.086399
v -0.322836 0.402358 0.114913
v -0.334972 0.287860 0.112865
v -0.314822 0.287012 0.078683
v -0.314822 0.287012 -0.078683
v -0.334972 0.287860 -0.112865
v -0.410561 0.291042 -0.123274
v -0.410560 0.291042 0.123274
v -0.459286 0.293093 0.103756
v -0.485738 0.294207 0.068005
v -0.459286 0.293093 -0.103756
v -0.485738 0.294207 -0.068005
v -0.497716 0.294711 0.000000
v -0.429004 0.429807 -0.000000
v -0.455979 0.414735 -0.000000
v -0.421977 0.429492 -0.042401
v -0.446663 0.414188 -0.056115
v -0.379153 0.410227 -0.107646
v -0.373442 0.427267 -0.082323
v -0.424820 0.412907 -0.087620
v -0.407143 0.428740 -0.066922
v -0.373442 0.427267 0.082323
v -0.379153 0.410227 0.107646
v -0.446663 0.414188 0.056114
v -0.421977 0.429492 0.042400
v -0.424820 0.412907 0.087620
v -0.407143 0.428740 0.066921
v -0.323400 0.424897 -0.079283
v -0.324155 0.407000 -0.095289
v -0.303736 0.405802 -0.081057
v -0.317338 0.424617 -0.075075
v -0.317338 0.424617 0.075075
v -0.303736 0.405802 0.081057
v -0.324155 0.407000 0.095289
v -0.323400 0.424897 0.079283
v -0.417086 0.469358 0.053721
v -0.426870 0.456595 -0.000000
v -0.454258 0.440478 -0.000000
v -0.328655 0.444156 -0.093332
v -0.329612 0.433526 -0.112615
v -0.285504 0.441810 -0.089501
v -0.301311 0.459424 -0.076915
v -0.301311 0.459424 0.076915
v -0.285504 0.441810 0.089501
v -0.329612 0.433526 0.112615
v -0.328655 0.444156 0.093332
v -0.470196 0.306686 -0.058276
v -0.452218 0.369794 -0.057163
v -0.461810 0.370357 -0.000000
v -0.480382 0.307143 0.000000
v -0.452218 0.369794 0.057163
v -0.470196 0.306686 0.058276
v -0.447519 0.305670 -0.089196
v -0.429926 0.368486 -0.088915
v -0.405680 0.303795 -0.106469
v -0.388470 0.366053 -0.108604
v -0.342480 0.300964 -0.097314
v -0.334380 0.362879 -0.098443
v -0.388470 0.366053 0.108604
v -0.405680 0.303795 0.106469
v -0.447519 0.305670 0.089196
v -0.429926 0.368486 0.088914
v -0.334380 0.362879 0.098442
v -0.342480 0.300964 0.097314
v -0.324303 0.300149 -0.068613
v -0.311995 0.361566 -0.073256
v -0.324303 0.300149 0.068613
v -0.311995 0.361566 0.073256
v -0.461207 0.333962 -0.057720
v -0.471274 0.334409 0.000000
v -0.461207 0.333962 0.057720
v -0.452723 0.372400 -0.013225
v -0.452723 0.372400 0.013225
v -0.455515 0.357107 0.034622
v -0.460033 0.332361 0.042795
v -0.464551 0.307616 0.034622
v -0.467343 0.292322 0.013224
v -0.467343 0.292322 -0.013225
v -0.464551 0.307616 -0.034622
v -0.460033 0.332361 -0.042796
v -0.455515 0.357107 -0.034622
v -0.478633 0.336583 0.031567
v -0.481966 0.318330 0.025539
v -0.484026 0.307049 0.009755
v -0.484026 0.307049 -0.009755
v -0.481966 0.318330 -0.025539
v -0.478633 0.336583 -0.031568
v -0.475301 0.354836 0.025539
v -0.473241 0.366117 0.009755
v -0.473241 0.366117 -0.009755
v -0.475301 0.354836 -0.025539
v -0.491481 0.337996 -0.000000
v -0.407656 0.229441 -0.116887
v -0.316490 0.237811 0.084554
v -0.337205 0.235953 -0.109455
v -0.316490 0.237811 -0.084554
v -0.491382 0.221358 -0.000000
v -0.479987 0.222417 -0.063338
v -0.479987 0.222417 0.063338
v -0.454208 0.224969 0.097180
v -0.407656 0.229441 0.116887
v -0.454208 0.224969 -0.097180
v -0.337205 0.235953 0.109455
vt 0.521452 0.594529
vt 0.519464 0.666667
vt 0.541667 0.669098
vt 0.541667 0.596221
vt 0.500000 0.666667
vt 0.480537 0.666667
vt 0.485527 0.750000
vt 0.500000 0.750000
vt 0.458334 0.906935
vt 0.458333 0.862459
vt 0.458333 0.833333
vt 0.496791 0.833333
vt 0.500000 0.833333
vt 0.514474 0.750000
vt 0.537646 0.666667
vt 0.536761 0.750000
vt 0.463239 0.750000
vt 0.462354 0.666667
vt 0.534741 0.833333
vt 0.465259 0.833333
vt 0.458333 0.750000
vt 0.458333 0.750000
vt 0.458333 0.666667
vt 0.458333 0.666667
vt 0.471242 0.916667
vt 0.500000 0.916667
vt 0.541667 0.833333
vt 0.541667 0.862459
vt 0.541667 0.906935
vt 0.503210 0.833333
vt 0.458333 0.835734
vt 0.541667 0.753358
vt 0.541667 0.833333
vt 0.541667 0.750000
vt 0.458333 0.841529
vt 0.541667 0.666667
vt 0.541667 0.593910
vt 0.541667 0.594220
vt 0.541667 0.666667
vt 0.458333 0.753358
vt 0.458333 0.833333
vt 0.458333 0.669098
vt 0.537989 0.593872
vt 0.500000 0.594554
vt 0.478549 0.594529
vt 0.532059 0.840013
vt 0.462011 0.593872
vt 0.541667 0.750000
vt 0.528758 0.916667
vt 0.458333 0.594220
vt 0.458333 0.596221
vt 0.545932 0.856140
vt 0.458333 0.593910
vt 1.000000 0.500000
vt 0.900000 1.000000
vt 1.000000 1.000000
vt 0.900000 0.500000
vt 0.800000 1.000000
vt 0.900000 1.000000
vt 0.800000 0.500000
vt 0.700000 1.000000
vt 0.800000 1.000000
vt 0.700000 0.500000
vt 0.600000 1.000000
vt 0.600000 0.500000
vt 0.500000 1.000000
vt 0.500000 0.500000
vt 0.400000 1.000000
vt 0.400000 0.500000
vt 0.300000 1.000000
vt 0.300000 0.500000
vt 0.200000 1.000000
vt 0.200000 0.500000
vt 0.100000 1.000000
vt 0.100000 0.500000
vt -0.000000 1.000000
vt 0.521760 0.583333
vt 0.521452 0.594529
vt 0.541667 0.596221
vt 0.541667 0.584998
vt 0.461962 0.583333
vt 0.461962 0.583333
vt 0.458333 0.583333
vt 0.458333 0.583333
vt 0.458333 0.583333
vt 0.458333 0.583333
vt 0.500000 0.594554
vt 0.521760 0.583333
vt 0.541667 0.584998
vt 0.458333 0.584998
vt 0.458333 0.584998
vt 0.541667 0.593910
vt 0.541667 0.594220
vt 0.500000 0.583333
vt 0.500000 0.583333
vt 0.537989 0.593872
vt 0.541667 0.583333
vt 0.541667 0.583333
vt 0.541667 0.583333
vt 0.541667 0.583333
vt 0.462011 0.593872
vt 0.458333 0.594220
vt 0.458333 0.596221
vt 0.478549 0.594529
vt 0.478240 0.583333
vt 0.538038 0.583333
vt 0.458333 0.593910
vt 0.478240 0.583333
vt 0.538038 0.583333
vt 0.478547 0.416667
vt 0.478546 0.416667
vt 0.500000 0.416667
vt 0.500000 0.416667
vt 0.478240 0.583333
vt 0.458333 0.584998
vt 0.500000 0.583333
vt 0.500000 0.472700
vt 0.477781 0.472700
vt 0.477626 0.492070
vt 0.500000 0.492070
vt 0.461962 0.583333
vt 0.538038 0.583333
vt 0.541667 0.471569
vt 0.541667 0.491567
vt 0.541667 0.492151
vt 0.541667 0.472979
vt 0.522375 0.492070
vt 0.522219 0.472700
vt 0.538006 0.453807
vt 0.461995 0.453807
vt 0.462232 0.439503
vt 0.537768 0.439503
vt 0.541667 0.453807
vt 0.541667 0.439573
vt 0.541667 0.437599
vt 0.541667 0.451570
vt 0.522103 0.438838
vt 0.522063 0.453330
vt 0.521454 0.416667
vt 0.522604 0.416667
vt 0.458333 0.439573
vt 0.458333 0.453807
vt 0.458333 0.451570
vt 0.458333 0.437599
vt 0.521454 0.416667
vt 0.541667 0.439510
vt 0.528394 0.416667
vt 0.477937 0.453330
vt 0.477897 0.438838
vt 0.477396 0.416667
vt 0.458333 0.439510
vt 0.458333 0.453807
vt 0.541667 0.584998
vt 0.521760 0.583333
vt 0.458333 0.583333
vt 0.458333 0.471569
vt 0.458333 0.491567
vt 0.500000 0.416667
vt 0.500000 0.438845
vt 0.500000 0.453330
vt 0.458333 0.583333
vt 0.541667 0.583333
vt 0.541667 0.583333
vt 0.458333 0.472979
vt 0.458333 0.492151
vt 0.541667 0.453807
vt 0.471606 0.416667
vt 0.500000 0.416667
vt 0.541667 0.472983
vt 0.541667 0.492160
vt 0.538103 0.492144
vt 0.538054 0.472976
vt 0.458333 0.472983
vt 0.458333 0.492160
vt 0.461897 0.492144
vt 0.461946 0.472976
vt 0.541667 0.571651
vt 0.521848 0.570296
vt 0.500000 0.570296
vt 0.478152 0.570296
vt 0.541667 0.570307
vt 0.458333 0.570307
vt 0.458333 0.570309
vt 0.458333 0.571651
vt 0.541667 0.570309
vt 0.461952 0.570306
vt 0.538048 0.570306
vt 0.541667 0.505184
vt 0.538094 0.505171
vt 0.461906 0.505171
vt 0.458333 0.505184
vt 0.541667 0.505177
vt 0.458333 0.505177
vt 0.458333 0.504915
vt 0.477713 0.505108
vt 0.477933 0.537702
vt 0.541667 0.504915
vt 0.500000 0.505108
vt 0.522287 0.505108
vt 0.500000 0.537702
vt 0.522067 0.537702
vt 0.900000 1.000000
vt 1.000000 1.000000
vt 0.800000 1.000000
vt 0.800000 1.000000
vt 0.900000 1.000000
vt 0.400000 1.000000
vt 0.500000 1.000000
vt 0.700000 1.000000
vt 0.800000 1.000000
vt 0.600000 1.000000
vt -0.000000 1.000000
vt 0.100000 1.000000
vt 0.200000 1.000000
vt 0.300000 1.000000
vt 0.600000 1.000000
vt 0.100000 1.000000
vt 0.400000 1.000000
vt 0.700000 1.000000
vt -0.000000 1.000000
vt 0.300000 1.000000
vt 0.900000 1.000000
vt 0.500000 1.000000
vt 0.200000 1.000000
vn -0.8583 0.4003 -0.3210
vn -0.8175 0.4743 -0.3267
vn -0.5880 0.3769 -0.7157
vn -0.6635 0.3088 -0.6815
vn -0.8742 0.4856 0.0000
vn -0.8175 0.4743 0.3267
vn -0.7123 0.6401 0.2879
vn -0.7591 0.6509 0.0000
vn -0.1120 0.5574 0.8227
vn -0.2884 0.8248 0.4863
vn 0.1877 0.1366 0.9727
vn -0.5166 0.8342 0.1930
vn -0.5189 0.8548 0.0000
vn -0.7123 0.6401 -0.2879
vn 0.9067 -0.4218 -0.0000
vn 0.8484 -0.5294 -0.0000
vn 0.6576 -0.6392 -0.3988
vn 0.6576 -0.6392 0.3988
vn 0.3360 -0.0170 0.9417
vn -0.1340 0.3155 0.9394
vn -0.1715 0.1617 0.9718
vn 0.3269 -0.0843 0.9413
vn -0.3188 0.9470 0.0394
vn -0.3191 0.9477 0.0000
vn 0.1877 0.1366 -0.9727
vn -0.2884 0.8248 -0.4863
vn -0.1120 0.5574 -0.8227
vn -0.5166 0.8342 -0.1930
vn -0.4193 0.6680 0.6148
vn -0.5185 0.5583 -0.6476
vn -0.4193 0.6680 -0.6148
vn -0.1340 0.3155 -0.9394
vn -0.1715 0.1617 -0.9718
vn 0.2730 -0.1828 -0.9445
vn -0.2536 0.0775 -0.9642
vn 0.3269 -0.0843 -0.9413
vn -0.5185 0.5583 0.6476
vn -0.5880 0.3769 0.7157
vn 0.5761 -0.1920 -0.7945
vn 0.5548 -0.2879 -0.7805
vn -0.9107 0.4130 -0.0000
vn -0.8583 0.4003 0.3210
vn 0.9139 -0.4060 0.0000
vn 0.3360 -0.0170 -0.9417
vn -0.3188 0.9470 -0.0394
vn 0.5165 -0.5434 -0.6618
vn 0.5668 -0.8171 -0.1052
vn 0.5751 -0.2385 -0.7825
vn 0.5668 -0.8171 0.1052
vn 0.5165 -0.5434 0.6618
vn 0.5751 -0.2385 0.7825
vn 0.5761 -0.1920 0.7945
vn 0.5528 -0.8333 0.0000
vn -0.2536 0.0775 0.9642
vn -0.6635 0.3088 0.6815
vn 0.2730 -0.1828 0.9445
vn 0.5548 -0.2879 0.7805
vn 0.9837 -0.1796 -0.0000
vn 0.9945 0.0678 0.0797
vn 0.9777 -0.0244 0.2087
vn 0.9504 -0.1735 0.2579
vn 0.9945 0.0678 -0.0797
vn 0.9777 -0.0244 -0.2087
vn 0.9504 -0.1735 -0.2579
vn 0.9232 -0.3227 -0.2087
vn 0.9064 -0.4148 -0.0797
vn 0.9064 -0.4148 0.0797
vn 0.9232 -0.3227 0.2087
vn -0.1026 0.8036 -0.5863
vn -0.2488 0.8111 -0.5293
vn -0.3049 0.8086 -0.5033
vn 0.4893 -0.4159 0.7666
vn 0.2521 -0.4133 0.8750
vn 0.3499 -0.4177 0.8385
vn -0.1552 -0.3187 0.9351
vn -0.1755 -0.3111 0.9340
vn 0.9612 -0.0116 0.2756
vn 0.9497 0.0104 0.3131
vn 0.9970 -0.0772 -0.0000
vn -0.9371 -0.0532 -0.3449
vn -0.8989 -0.0798 -0.4309
vn -0.5943 -0.1804 -0.7838
vn -0.6403 -0.1717 -0.7487
vn -0.5943 -0.1804 0.7838
vn -0.6403 -0.1717 0.7487
vn -0.3669 0.3767 0.8506
vn -0.2117 0.3901 0.8961
vn 0.2543 0.3175 0.9135
vn 0.2456 0.3214 0.9145
vn -1.0000 0.0089 0.0000
vn -0.5990 0.3333 0.7281
vn -0.1755 -0.3112 -0.9340
vn -0.1552 -0.3187 -0.9351
vn 0.2521 -0.4133 -0.8750
vn 0.3499 -0.4177 -0.8385
vn 0.7024 0.1698 0.6913
vn 0.7046 0.1691 0.6892
vn -0.9083 0.4182 0.0000
vn -0.4486 0.7866 -0.4243
vn -0.4486 0.7866 0.4243
vn -0.2489 0.8111 0.5293
vn -0.3049 0.8086 0.5033
vn -0.1026 0.8036 0.5863
vn -0.5206 0.8538 -0.0000
vn -0.5181 0.8497 0.0983
vn -0.5181 0.8497 -0.0983
vn 0.2609 0.7903 -0.5544
vn 0.2158 0.7864 -0.5788
vn 0.0980 0.7670 -0.6341
vn 0.0980 0.7670 0.6341
vn 0.2158 0.7864 0.5788
vn 0.2609 0.7903 0.5544
vn 0.7442 0.6679 -0.0000
vn 0.3626 0.7912 -0.4924
vn 0.3626 0.7912 0.4924
vn -0.9371 -0.0532 0.3449
vn -0.8989 -0.0798 0.4309
vn 0.2456 0.3214 -0.9145
vn 0.2543 0.3175 -0.9135
vn -0.2117 0.3901 -0.8961
vn -0.3669 0.3767 -0.8506
vn 0.7046 0.1691 -0.6892
vn 0.7024 0.1698 -0.6913
vn 0.9497 0.0104 -0.3131
vn 0.9612 -0.0116 -0.2756
vn -0.5990 0.3333 -0.7281
vn 0.8922 -0.4517 -0.0000
vn 0.4893 -0.4159 -0.7666
vn 0.2014 -0.9426 0.2663
vn -0.1489 -0.9551 0.2563
vn -0.1723 -0.9850 0.0000
vn 0.2185 -0.9758 -0.0000
vn -0.1776 0.9800 0.0896
vn -0.1719 0.9800 0.1001
vn -0.0913 0.9792 0.1811
vn -0.0963 0.9793 0.1779
vn -0.2023 0.9793 0.0000
vn -0.9386 -0.3450 0.0000
vn -0.8497 -0.3587 0.3864
vn -0.9114 -0.1012 0.3989
vn -0.9961 -0.0886 0.0000
vn 0.3861 0.9142 0.1234
vn 0.3734 0.9173 0.1380
vn 0.3734 0.9173 -0.1380
vn 0.3861 0.9142 -0.1234
vn -0.5622 -0.3557 -0.7466
vn -0.6108 -0.1163 -0.7832
vn -0.1429 -0.1039 -0.9843
vn -0.1281 -0.2995 -0.9455
vn -0.9114 -0.1012 -0.3989
vn -0.8497 -0.3587 -0.3864
vn 0.9840 -0.1782 -0.0000
vn 0.9748 -0.2232 -0.0000
vn -0.1193 -0.4932 -0.8617
vn -0.1505 -0.6776 -0.7199
vn -0.4541 -0.6650 -0.5929
vn -0.5002 -0.5404 -0.6766
vn -0.6745 -0.6716 -0.3066
vn -0.7628 -0.5475 -0.3442
vn -0.1489 -0.9551 -0.2563
vn -0.3806 -0.8972 -0.2240
vn -0.1505 -0.6776 0.7199
vn -0.1193 -0.4932 0.8617
vn -0.5002 -0.5404 0.6766
vn -0.4541 -0.6650 0.5929
vn 0.2014 -0.9426 -0.2663
vn 0.2353 -0.6651 -0.7087
vn 0.4316 -0.6618 -0.6130
vn 0.4096 -0.8663 -0.2859
vn -0.7628 -0.5475 0.3442
vn -0.6745 -0.6716 0.3066
vn -0.3806 -0.8972 0.2240
vn 0.2353 -0.6651 0.7087
vn 0.3444 -0.4190 0.8401
vn -0.0963 0.9793 -0.1779
vn -0.0913 0.9792 -0.1811
vn -0.1719 0.9800 -0.1001
vn -0.1776 0.9800 -0.0896
vn 0.0201 0.9745 0.2237
vn 0.0409 0.9730 0.2271
vn -0.5622 -0.3557 0.7466
vn -0.6108 -0.1163 0.7832
vn -0.4262 -0.9046 0.0000
vn -0.7337 -0.6795 0.0000
vn -0.8439 -0.5366 0.0000
vn 0.1625 0.9567 0.2415
vn 0.2040 0.9480 0.2442
vn 0.2040 0.9480 -0.2442
vn 0.1625 0.9567 -0.2415
vn 0.0201 0.9745 -0.2237
vn 0.0409 0.9730 -0.2271
vn -0.1281 -0.2995 0.9455
vn -0.1429 -0.1039 0.9843
vn 0.3444 -0.4190 -0.8401
vn 0.5880 -0.3625 -0.7231
vn 0.4096 -0.8663 0.2859
vn 0.4316 -0.6618 0.6130
vn 0.9590 -0.2835 -0.0000
vn 0.5880 -0.3625 0.7231
vn 0.4335 -0.9011 -0.0000
vn 0.4621 -0.1982 -0.8644
vn 0.8225 -0.0179 -0.5685
vn 0.9012 0.3367 -0.2727
vn 0.9302 -0.1178 -0.3476
vn 0.1227 -0.0846 -0.9888
vn 0.4621 -0.1982 0.8644
vn 0.1227 -0.0846 0.9888
vn 0.9012 0.3367 0.2727
vn 0.9302 -0.1178 0.3476
vn -0.6317 -0.1050 -0.7680
vn -0.9246 -0.0418 -0.3787
vn -0.8741 -0.3182 -0.3669
vn -0.6045 -0.3554 -0.7130
vn -0.9996 -0.0279 0.0000
vn -0.9542 -0.2990 0.0000
vn -0.9246 -0.0418 0.3787
vn -0.8741 -0.3182 0.3669
vn -0.1224 -0.2122 -0.9695
vn -0.1296 -0.4092 -0.9032
vn -0.1224 -0.2122 0.9695
vn 0.4669 -0.3055 0.8299
vn 0.4069 -0.4607 0.7888
vn -0.1297 -0.4092 0.9032
vn -0.6317 -0.1050 0.7680
vn -0.6045 -0.3554 0.7130
vn 0.4669 -0.3055 -0.8299
vn 0.4069 -0.4607 -0.7888
vn 0.8890 -0.3344 0.3129
vn 0.8890 -0.3344 -0.3129
vn 0.8082 -0.4651 -0.3612
vn 0.8082 -0.4651 0.3612
vn 0.3559 0.7842 -0.5084
vn 0.3830 0.7811 -0.4932
vn 0.7425 0.6550 -0.1405
vn 0.9323 -0.1871 -0.3096
vn 0.4972 -0.1147 -0.8600
vn 0.3559 0.7842 0.5084
vn 0.7425 0.6550 0.1405
vn 0.3830 0.7811 0.4932
vn 0.4972 -0.1147 0.8600
vn 0.9323 -0.1871 0.3096
vn -0.0471 0.8068 -0.5890
vn -0.0264 0.8048 -0.5930
vn -0.1661 0.0319 -0.9856
vn -0.3205 0.8284 0.4593
vn -0.0471 0.8068 0.5890
vn -0.0264 0.8048 0.5930
vn -0.5071 0.5781 0.6393
vn -0.1661 0.0319 0.9856
vn -0.5097 0.8249 0.2446
vn -0.7329 0.6087 0.3038
vn -0.8914 0.2611 0.3706
vn -0.3205 0.8284 -0.4593
vn -0.5071 0.5781 -0.6393
vn -0.5833 0.8122 0.0000
vn -0.7933 0.6089 0.0000
vn -0.5097 0.8249 -0.2446
vn -0.7329 0.6087 -0.3038
vn -0.9587 0.2844 0.0000
vn -0.8914 0.2611 -0.3706
vn -0.6689 -0.6964 -0.2600
vn -0.8382 -0.5028 -0.2113
vn -0.7907 -0.2599 -0.5543
vn -0.6056 -0.4020 -0.6868
vn -0.9856 0.1690 -0.0000
vn -0.7133 0.1354 -0.6877
vn -0.3922 0.5883 0.7072
vn -0.6352 0.5336 0.5584
vn -0.7133 0.1354 0.6877
vn -0.5005 0.0859 0.8615
vn -0.6689 -0.6964 0.2600
vn -0.8382 -0.5028 0.2113
vn -0.5005 0.0859 -0.8615
vn -0.6056 -0.4020 0.6868
vn -0.7907 -0.2599 0.5543
vn -0.6352 0.5336 -0.5584
vn -0.3922 0.5883 -0.7072
vn -0.5866 0.7812 -0.2138
vn -0.3236 0.9061 -0.2726
vn -0.5866 0.7812 0.2138
vn -0.3236 0.9061 0.2726
vn 0.8225 -0.0179 0.5685
usemtl WoodDark
s 2
f 108/1/1 13/2/2 15/3/3 113/4/4
s 3
f 4/5/5 39/6/6 36/7/7 3/8/8
s 5
f 64/9/9 33/10/10 31/11/11
s 6
f 3/8/8 36/7/7 32/12/12 2/13/13
s 8
f 13/2/2 4/5/5 3/8/8 10/14/14
s 9
f 58/15/15 56/16/16 66/17/16 68/18/15
s 10
f 56/16/16 54/19/17 65/20/18 66/17/16
s 14
f 67/21/19 35/22/20 38/23/21 69/24/22
s 15
f 31/11/11 35/22/20 67/21/19
s 16
f 2/13/13 32/12/12 33/10/10 64/9/23 63/25/23 1/26/24
s 19
f 7/27/25 8/28/26 52/29/27
s 20
f 10/14/14 3/8/8 2/13/13 6/30/28
s 21
f 31/11/11 33/10/10 34/31/29
s 23
f 12/32/30 9/33/31 7/27/25 11/34/32
s 27
f 34/31/29 33/10/10 32/35/12
s 35
f 10/14/14 6/30/28 9/33/31 12/32/30
s 37
f 13/2/2 10/14/14 12/32/30 15/3/3
s 38
f 15/3/3 12/32/30 11/34/32 14/36/33
s 40
f 120/37/34 111/38/35 14/36/33 57/39/36
s 43
f 37/40/37 34/41/29 32/12/12 36/7/7
s 44
f 35/22/20 31/11/11 34/41/29 37/40/37
s 47
f 38/23/21 35/22/20 37/40/37 40/42/38
s 48
f 40/42/38 37/40/37 36/7/7 39/6/6
s 50
f 120/37/34 57/39/36 58/15/39 123/43/40
s 51
f 106/44/41 117/45/42 39/6/6 4/5/5
s 55
f 6/30/28 8/28/26 9/46/31
s 58
f 123/43/43 58/15/15 68/18/15 124/47/43
s 61
f 57/39/36 14/36/33 11/34/32 55/48/44
s 62
f 55/48/44 11/34/32 7/27/25
s 63
f 6/30/28 2/13/13 1/26/24 53/49/45 52/29/45 8/28/26
s 64
f 7/27/25 52/29/46 53/49/47 54/19/17
s 65
f 55/48/44 7/27/25 54/19/17 56/16/48
s 66
f 57/39/36 55/48/44 56/16/48 58/15/39
s 68
f 65/20/18 63/25/49 64/9/50 31/11/11
s 69
f 66/17/51 65/20/18 31/11/11 67/21/19
s 70
f 68/18/52 66/17/51 67/21/19 69/24/22
s 78
f 54/19/17 53/49/47 1/26/53 63/25/49 65/20/18
s 85
f 114/50/54 38/23/21 40/42/38 119/51/55
s 86
f 9/46/31 8/28/26 7/52/25
s 99
f 69/24/22 38/23/21 114/50/54 127/53/56
s 101
f 113/4/4 15/3/3 14/36/33 111/38/35
s 102
f 119/51/55 40/42/38 39/6/6 117/45/42
s 104
f 124/47/57 68/18/52 69/24/22 127/53/56
s 116
f 108/1/1 106/44/41 4/5/5 13/2/2
s 162
f 162/54/58 170/55/59 171/56/60
s 163
f 162/57/58 171/58/60 172/59/61
s 164
f 162/60/58 169/61/62 170/62/59
s 165
f 162/63/58 168/64/63 169/61/62
s 166
f 162/65/58 167/66/64 168/64/63
s 167
f 162/67/58 166/68/65 167/66/64
s 168
f 162/69/58 165/70/66 166/68/65
s 169
f 162/71/58 164/72/67 165/70/66
s 170
f 162/73/58 173/74/68 164/72/67
s 171
f 162/75/58 172/76/61 173/74/68
usemtl BrownDark
s 100
f 70/77/69 71/78/69 59/79/70 60/80/71
s 105
f 125/81/72 136/82/72 137/83/73 126/84/74
s 106
f 126/84/74 137/83/73 18/85/75 115/86/76
s 107
f 108/1/77 71/78/78 129/87/79 106/44/79
s 108
f 109/88/80 70/77/81 60/80/82 112/89/83
s 109
f 115/86/76 18/85/75 17/90/84 118/91/85
s 110
f 120/37/86 131/92/87 42/93/88 111/38/89
s 111
f 107/94/90 130/95/90 70/77/81 109/88/80
s 112
f 123/43/91 134/96/91 131/92/87 120/37/86
s 113
f 110/97/92 43/98/93 132/99/94 121/100/95
s 114
f 111/38/89 42/93/88 59/79/96 113/4/97
s 115
f 124/47/98 135/101/98 134/96/98 123/43/98
s 117
f 60/80/71 59/79/70 42/93/99 43/98/99
s 118
f 18/85/100 41/102/100 16/103/101 17/90/102
s 119
f 17/90/102 16/103/101 128/104/103 5/105/103
s 120
f 130/95/104 129/87/104 71/78/105 70/77/105
s 121
f 5/105/106 128/104/106 129/87/104 130/95/104
s 122
f 132/99/107 131/92/108 134/96/109 133/106/109
s 123
f 136/82/110 135/101/110 138/107/111 137/83/112
s 124
f 133/106/113 134/96/113 135/101/113 136/82/113
s 125
f 43/98/114 42/93/114 131/92/108 132/99/107
s 126
f 137/83/112 138/107/111 41/102/115 18/85/115
s 127
f 116/108/116 5/105/117 130/95/90 107/94/90
s 128
f 114/50/118 41/102/119 138/107/120 127/53/121
s 129
f 119/51/122 16/103/123 41/102/119 114/50/118
s 130
f 113/4/97 59/79/96 71/78/78 108/1/77
s 131
f 106/44/79 129/87/79 128/104/124 117/45/125
s 132
f 118/91/85 17/90/84 5/105/117 116/108/116
s 133
f 127/53/121 138/107/120 135/101/126 124/47/126
s 134
f 112/89/83 60/80/82 43/98/93 110/97/92
s 135
f 122/109/127 133/106/127 136/82/127 125/81/127
s 136
f 121/100/95 132/99/94 133/106/128 122/109/128
s 137
f 117/45/125 128/104/124 16/103/123 119/51/122
usemtl Metal
s 1
f 79/110/129 44/111/130 28/112/131 62/113/132
s 4
f 116/108/133 89/114/134 88/115/135 118/91/136
s 7
f 107/94/137 90/116/137 89/114/134 116/108/133
s 11
f 189/117/138 191/118/139 102/119/140 105/120/141
s 12
f 125/81/142 93/121/143 92/122/144 122/109/145
s 13
f 194/123/146 103/124/147 99/125/148 185/126/149
s 17
f 189/117/138 105/120/141 104/127/150 190/128/151
s 18
f 72/129/152 81/130/152 83/131/153 77/132/153
s 22
f 20/133/154 23/134/155 24/135/156 22/136/157
s 24
f 25/137/158 21/138/159 22/136/157 24/135/156
s 25
f 23/134/155 19/139/160 26/140/161 24/135/156
s 26
f 26/140/161 25/137/158 24/135/156
s 28
f 51/141/162 46/142/163 48/143/164 50/144/165
s 29
f 75/145/166 76/146/167 77/132/168 74/147/169
s 30
f 45/148/170 49/149/171 50/144/165 48/143/164
s 31
f 49/149/171 47/150/172 50/144/165
s 32
f 46/142/163 51/141/162 82/151/173 80/152/174
s 33
f 44/111/130 51/141/162 50/144/165 47/150/172
s 34
f 76/146/167 75/145/166 19/139/160 23/134/155
s 36
f 79/110/129 82/151/173 51/141/162 44/111/130
s 39
f 112/89/175 85/153/176 84/154/177 109/88/178
s 41
f 118/91/136 88/115/135 87/155/179 115/86/180
s 42
f 191/118/139 192/156/181 101/157/182 102/119/140
s 45
f 30/158/183 29/159/184 25/137/158 26/140/161
s 46
f 29/159/184 27/160/185 21/138/159 25/137/158
s 49
f 115/86/180 87/155/179 94/161/186 126/84/187
s 52
f 190/128/151 104/127/150 103/124/147 194/123/146
s 53
f 47/150/172 49/149/171 29/159/184 30/158/183
s 54
f 49/149/171 45/148/170 27/160/185 29/159/184
s 56
f 121/100/188 91/162/189 86/163/190 110/97/191
s 57
f 193/164/192 100/165/193 101/157/182 192/156/181
s 59
f 23/134/155 20/133/154 73/166/194 76/146/167
s 60
f 62/113/132 28/112/131 19/139/160 75/145/166
s 67
f 122/109/145 92/122/144 91/162/189 121/100/188
s 71
f 126/84/187 94/161/186 93/121/143 125/81/142
s 72
f 76/146/167 73/166/194 72/129/195 77/132/168
s 73
f 82/151/173 79/110/129 78/167/196 83/131/197
s 74
f 77/132/153 83/131/153 78/167/198 61/168/198 74/147/198
s 75
f 80/152/174 82/151/173 83/131/197 81/130/199
s 76
f 62/113/132 75/145/166 74/147/169 61/168/200
s 77
f 79/110/129 62/113/132 61/168/200 78/167/196
s 79
f 187/169/201 98/170/202 97/171/203 188/172/204
s 80
f 187/169/201 185/126/149 99/125/148 98/170/205
s 81
f 28/112/131 44/111/130 47/150/172 30/158/183
s 82
f 19/139/160 28/112/131 30/158/183 26/140/161
s 83
f 195/173/206 95/174/207 100/165/193 193/164/192
s 84
f 188/172/204 97/171/203 96/175/208 186/176/209
s 87
f 146/177/210 140/178/211 84/154/212 85/153/213
s 88
f 140/178/211 141/179/214 90/116/215 84/154/212
s 89
f 141/179/214 143/180/216 89/114/217 90/116/215
s 90
f 148/181/218 146/177/210 85/153/213 86/163/219
s 91
f 151/182/220 155/183/221 94/161/222 87/155/223
s 92
f 143/180/216 154/184/224 88/115/225 89/114/217
s 93
f 154/184/224 151/182/220 87/155/223 88/115/225
s 94
f 150/185/226 148/181/218 86/163/219 91/162/227
s 95
f 160/186/228 158/187/229 92/122/230 93/121/231
s 96
f 155/183/221 160/186/228 93/121/231 94/161/222
s 97
f 158/187/229 150/185/226 91/162/227 92/122/230
s 98
f 110/97/191 86/163/190 85/153/176 112/89/175
s 103
f 109/88/178 84/154/177 90/116/137 107/94/137
s 138
f 97/171/203 98/170/232 149/188/233 157/189/234
s 139
f 157/189/235 149/188/236 150/185/226 158/187/229
s 140
f 95/174/237 96/175/208 159/190/238 156/191/239
s 141
f 156/191/240 159/190/241 160/186/228 155/183/221
s 142
f 96/175/208 97/171/203 157/189/234 159/190/238
s 143
f 159/190/241 157/189/235 158/187/229 160/186/228
s 144
f 98/170/232 99/125/242 147/192/243 149/188/233
s 145
f 149/188/236 147/192/244 148/181/218 150/185/226
s 146
f 101/157/245 100/165/246 152/193/247 153/194/248
s 147
f 153/194/248 152/193/249 151/182/220 154/184/224
s 148
f 102/119/250 101/157/245 153/194/248 144/195/251
s 149
f 144/195/251 153/194/248 154/184/224 143/180/216 163/196/252
s 150
f 100/165/246 95/174/237 156/191/239 152/193/247
s 151
f 152/193/249 156/191/240 155/183/221 151/182/220
s 152
f 99/125/242 103/124/253 145/197/254 147/192/243
s 153
f 147/192/244 145/197/254 146/177/210 148/181/218
s 154
f 105/120/255 102/119/250 144/195/251 142/198/256
s 155
f 104/127/257 105/120/255 142/198/256 139/199/258
s 156
f 142/198/256 144/195/251 163/196/252 162/200/259
s 157
f 103/124/253 104/127/257 139/199/258 145/197/254
s 158
f 145/197/254 139/199/258 161/201/260 140/178/211 146/177/210
s 159
f 161/201/260 162/200/259 141/179/214 140/178/211
s 160
f 162/200/259 163/196/252 143/180/216 141/179/214
s 161
f 139/199/258 142/198/256 162/200/259 161/201/260
s 172
f 170/55/261 177/202/262 178/203/263 171/56/264
s 173
f 178/204/263 184/205/265 179/206/266
s 174
f 166/68/267 180/207/268 174/208/269 167/66/270
s 175
f 169/61/271 176/209/272 177/210/262 170/62/261
s 176
f 171/58/264 178/204/263 179/206/266 172/59/273
s 177
f 168/64/274 175/211/275 176/209/272 169/61/271
s 178
f 167/66/270 174/208/269 175/211/275 168/64/274
s 179
f 172/76/273 179/212/266 183/213/276 173/74/277
s 180
f 173/74/277 183/213/276 182/214/278 164/72/279
s 181
f 164/72/279 182/214/278 181/215/280 165/70/281
s 182
f 165/70/281 181/215/280 180/207/268 166/68/267
s 183
f 175/211/275 184/216/265 176/209/272
s 184
f 183/213/276 184/217/265 182/214/278
s 185
f 180/207/268 184/218/265 174/208/269
s 186
f 176/209/272 184/219/265 177/210/262
s 187
f 179/212/266 184/220/265 183/213/276
s 188
f 181/215/280 184/221/265 180/207/268
s 189
f 177/202/262 184/222/265 178/203/263
s 190
f 174/208/269 184/223/265 175/211/275
s 191
f 182/214/278 184/224/265 181/215/280
s 192
f 186/176/209 96/175/208 95/174/282 195/173/206
s 193
f 81/130/199 186/176/209 195/173/206 80/152/174
s 194
f 72/129/152 188/172/204 186/176/209 81/130/152
s 195
f 80/152/174 195/173/206 193/164/192 46/142/163
s 196
f 73/166/194 20/133/154 185/126/149 187/169/201
s 197
f 73/166/194 187/169/201 188/172/204 72/129/195
s 198
f 46/142/163 193/164/192 192/156/181 48/143/164
s 199
f 21/138/159 190/128/151 194/123/146 22/136/157
s 200
f 45/148/170 48/143/164 192/156/181 191/118/139
s 201
f 27/160/185 189/117/138 190/128/151 21/138/159
s 202
f 22/136/157 194/123/146 185/126/149 20/133/154
s 203
f 27/160/185 45/148/170 191/118/139 189/117/138
