# Blender v2.80 (sub 75) OBJ File: 'orcAccessories.blend'
# www.blender.org
mtllib orc_hammerAxe.mtl
o orc_hammerAxe_Cube.4119
v 0.137685 0.190522 0.071585
v 0.137685 0.190522 -0.071585
v 0.138836 0.494754 0.071585
v 0.138836 0.494754 -0.071585
v 0.138000 0.237698 -0.121880
v 0.138000 0.237698 0.121880
v 0.138664 0.448092 -0.121880
v 0.138664 0.448092 0.121880
v -0.000009 0.016627 0.045111
v -0.039076 0.016627 0.022556
v -0.039076 0.016627 -0.022556
v -0.000009 0.016627 -0.045111
v 0.039059 0.016627 -0.022555
v 0.039059 0.016627 0.022556
v 0.022547 0.016627 0.039067
v 0.045102 0.016627 0.000000
v 0.022547 0.016627 -0.039067
v -0.022564 0.016627 -0.039067
v -0.045120 0.016627 0.000000
v -0.022564 0.016627 0.039067
v 0.074057 0.247705 0.053105
v 0.074057 0.247705 -0.053105
v 0.075190 0.440083 -0.052531
v 0.075190 0.440083 0.052531
v 0.074205 0.416939 0.091020
v 0.074205 0.416939 -0.091020
v 0.073528 0.272014 -0.091603
v 0.073528 0.272015 0.091603
v -0.000009 0.192707 0.059779
v -0.051778 0.192707 0.029889
v -0.051778 0.192707 -0.029889
v -0.000009 0.192707 -0.059778
v 0.051761 0.192707 -0.029889
v 0.051761 0.192707 0.029889
v 0.029881 0.192707 0.051770
v 0.059770 0.192707 0.000000
v 0.029881 0.192707 -0.051770
v -0.029898 0.192707 -0.051770
v -0.059787 0.192707 0.000000
v -0.029898 0.192707 0.051770
v -0.000009 0.487746 0.000000
v -0.000009 0.482033 0.039219
v -0.000009 0.469125 0.048498
v -0.042009 0.469125 0.024249
v -0.033973 0.482033 0.019609
v -0.042009 0.469125 -0.024249
v -0.033973 0.482033 -0.019609
v -0.000009 0.469125 -0.048498
v -0.000009 0.482033 -0.039219
v 0.041992 0.469125 -0.024249
v 0.033956 0.482033 -0.019609
v 0.041992 0.469125 0.024249
v 0.033956 0.482033 0.019609
v 0.024241 0.469125 0.042001
v 0.019601 0.482033 0.033965
v 0.048490 0.469125 0.000000
v 0.039210 0.482033 0.000000
v 0.024241 0.469125 -0.042001
v 0.019601 0.482033 -0.033965
v -0.024258 0.469125 -0.042001
v -0.019618 0.482033 -0.033965
v -0.048507 0.469125 0.000000
v -0.039228 0.482033 0.000000
v -0.024258 0.469125 0.042001
v -0.019618 0.482033 0.033965
v -0.045789 0.434994 -0.055111
v -0.080439 0.250958 -0.039952
v -0.080439 0.250958 0.039952
v -0.080439 0.438538 -0.039952
v -0.080439 0.438538 0.039952
v -0.237883 0.042280 -0.000001
v -0.269531 0.573561 -0.000001
v -0.174253 0.206125 -0.023283
v -0.119592 0.234701 -0.032474
v -0.174253 0.206125 0.023282
v -0.119592 0.234701 0.032474
v -0.174253 0.483369 -0.023283
v -0.119592 0.454793 -0.032474
v -0.174253 0.483369 0.023282
v -0.119592 0.454793 0.032474
v -0.304374 0.510408 -0.000001
v -0.304374 0.179086 -0.000001
v -0.337829 0.405383 -0.000001
v -0.337829 0.284111 -0.000001
v -0.080439 0.289996 -0.050832
v -0.080439 0.289996 0.050834
v -0.080439 0.399499 -0.050832
v -0.080439 0.399499 0.050834
v -0.212893 0.168286 0.033138
v -0.212893 0.168286 -0.033142
v -0.227598 0.466145 -0.033142
v -0.227598 0.466145 0.033138
v -0.174949 0.259089 -0.041498
v -0.120160 0.286362 -0.048752
v -0.174950 0.259089 0.041497
v -0.120160 0.286362 0.048753
v -0.174949 0.430405 -0.041498
v -0.120160 0.403132 -0.048752
v -0.174950 0.430405 0.041497
v -0.120160 0.403132 0.048753
v -0.243986 0.432639 0.033374
v -0.243986 0.236692 0.033374
v -0.261735 0.376918 0.033374
v -0.261735 0.312576 0.033374
v -0.243986 0.236692 -0.033378
v -0.243986 0.432639 -0.033378
v -0.261735 0.312576 -0.033378
v -0.261735 0.376918 -0.033378
v -0.197169 0.500638 -0.018199
v -0.197170 0.500638 0.018196
v -0.182835 0.129019 0.018196
v -0.182835 0.129019 -0.018199
v -0.033499 0.416613 0.082854
v -0.033499 0.272882 0.082854
v -0.045789 0.289996 0.055112
v -0.045789 0.399499 0.055112
v -0.033500 0.416613 -0.082854
v -0.033500 0.272882 -0.082854
v -0.045789 0.289996 -0.055111
v -0.045789 0.399499 -0.055111
v -0.045789 0.254503 -0.055111
v -0.045789 0.254503 0.055112
v -0.045789 0.434994 0.055112
v 0.299197 0.474546 0.063899
v 0.298273 0.212419 0.064040
v 0.298273 0.212419 -0.064040
v 0.299197 0.474546 -0.063899
v 0.299542 0.439296 -0.102369
v 0.299037 0.246640 -0.102369
v 0.299037 0.246640 0.102369
v 0.299542 0.439296 0.102369
v -0.030959 0.035337 0.030745
v -0.030959 0.035337 -0.030745
v 0.030959 0.035337 -0.030745
v 0.030959 0.035337 0.030745
v -0.000000 0.035337 0.040101
v 0.040099 0.035337 -0.000000
v -0.000000 0.035337 -0.040101
v -0.040099 0.035337 -0.000000
v -0.014840 0.035337 0.040084
v 0.014840 0.035337 0.040084
v 0.040278 0.035337 0.014269
v 0.040278 0.035337 -0.014269
v 0.014840 0.035337 -0.040084
v -0.014840 0.035337 -0.040084
v -0.040278 0.035337 -0.014269
v -0.040278 0.035337 0.014269
v 0.041618 -0.213885 0.046553
v 0.041618 -0.213885 -0.046553
v -0.041618 -0.213885 0.046553
v -0.041618 -0.213885 -0.046553
v 0.063426 -0.269237 0.070574
v 0.063426 -0.269237 -0.070574
v -0.063426 -0.269237 -0.070574
v -0.063426 -0.269237 0.070574
v 0.051959 -0.358838 0.063376
v 0.051959 -0.358838 -0.063376
v -0.051959 -0.358838 -0.063376
v -0.051959 -0.358838 0.063376
v 0.056122 -0.213326 -0.000000
v -0.000000 -0.223343 -0.054595
v -0.056122 -0.213326 -0.000000
v -0.000000 -0.223343 0.054595
v 0.104940 -0.251686 -0.000000
v -0.000000 -0.271797 -0.048081
v -0.104940 -0.251686 -0.000000
v -0.000000 -0.271797 0.048081
v 0.066382 -0.383458 -0.000000
v -0.000000 -0.320758 -0.044514
v -0.066382 -0.383458 -0.000000
v -0.000000 -0.320758 0.044514
v 0.065735 -0.302429 -0.076613
v -0.065735 -0.302429 -0.076613
v -0.065735 -0.302429 0.076613
v 0.065735 -0.302429 0.076613
v -0.000000 -0.296863 0.051540
v 0.116185 -0.305786 -0.000000
v -0.116185 -0.305786 -0.000000
v -0.000000 -0.357301 -0.000000
v -0.000000 -0.296863 -0.051540
v 0.056045 -0.215077 -0.023662
v -0.019560 -0.223555 -0.054825
v -0.056045 -0.215077 0.023661
v 0.019560 -0.223555 0.054825
v 0.098807 -0.253628 -0.045180
v -0.028975 -0.266802 -0.067292
v -0.098807 -0.253628 0.045180
v 0.028975 -0.266802 0.067291
v 0.061214 -0.377430 -0.034593
v -0.017289 -0.353333 -0.052085
v -0.061214 -0.377430 0.034593
v 0.017289 -0.353333 0.052085
v 0.058935 -0.333474 -0.073570
v 0.058935 -0.333474 0.073570
v 0.056045 -0.215077 0.023661
v 0.019560 -0.223555 -0.054825
v -0.056045 -0.215077 -0.023662
v -0.019560 -0.223555 0.054825
v 0.098807 -0.253628 0.045180
v 0.028975 -0.266802 -0.067292
v -0.098807 -0.253628 -0.045180
v -0.028975 -0.266802 0.067291
v 0.051341 -0.243217 0.061100
v 0.051341 -0.243217 -0.061100
v -0.051341 -0.243217 0.061100
v -0.051341 -0.243217 -0.061100
v 0.061214 -0.377430 0.034593
v 0.017289 -0.353333 -0.052085
v -0.061214 -0.377430 -0.034593
v -0.017289 -0.353333 0.052085
v -0.058935 -0.333474 -0.073570
v -0.058935 -0.333474 0.073570
v -0.000000 -0.309241 0.049520
v 0.028798 -0.301471 0.071623
v -0.028798 -0.301471 0.071623
v 0.104590 -0.350333 -0.000000
v 0.109287 -0.307611 -0.047594
v 0.109287 -0.307611 0.047593
v -0.104590 -0.350333 -0.000000
v -0.109287 -0.307611 0.047593
v -0.109287 -0.307611 -0.047594
v -0.000000 -0.344153 0.028659
v -0.000000 -0.344153 -0.028659
v -0.023877 -0.381438 -0.000000
v 0.023877 -0.381438 -0.000000
v -0.076916 -0.229435 -0.000000
v -0.000000 -0.248153 -0.051229
v -0.000000 -0.248153 0.051229
v -0.000000 -0.309241 -0.049520
v -0.028798 -0.301471 -0.071623
v 0.028798 -0.301471 -0.071623
v 0.076916 -0.229435 -0.000000
v -0.074027 -0.231289 0.034800
v 0.074027 -0.231289 0.034800
v -0.023312 -0.321555 -0.065208
v -0.023460 -0.244662 0.061082
v 0.023460 -0.244662 -0.061082
v -0.074027 -0.231289 -0.034800
v 0.021307 -0.374634 -0.029987
v -0.021307 -0.374634 -0.029987
v -0.021307 -0.374634 0.029987
v -0.093898 -0.347019 0.047422
v 0.093898 -0.347019 -0.047422
v 0.023312 -0.321555 0.065208
v -0.023312 -0.321555 0.065208
v 0.093898 -0.347019 0.047422
v -0.093898 -0.347019 -0.047422
v 0.021307 -0.374634 0.029987
v -0.023460 -0.244662 -0.061082
v 0.023460 -0.244662 0.061082
v 0.074027 -0.231289 -0.034800
v 0.023312 -0.321555 -0.065208
v 0.026899 0.025349 0.046605
v -0.000009 0.025349 0.053815
v 0.046597 0.025349 0.026908
v 0.053807 0.025349 0.000000
v 0.046597 0.025349 -0.026908
v 0.026899 0.025349 -0.046605
v -0.000009 0.025349 -0.053815
v -0.026916 0.025349 -0.046605
v -0.046614 0.025349 -0.026908
v -0.053824 0.025349 0.000000
v -0.046614 0.025349 0.026908
v -0.026916 0.025349 0.046605
v 0.297289 0.343185 -0.031975
v 0.387223 0.343185 0.000000
v 0.297289 0.324391 -0.025869
v 0.297289 0.312775 -0.009881
v 0.297289 0.312775 0.009881
v 0.297289 0.324391 0.025869
v 0.297289 0.343185 0.031975
v 0.297289 0.361980 0.025869
v 0.297289 0.373596 0.009881
v 0.297289 0.373596 -0.009881
v 0.297289 0.361980 -0.025869
v 0.297289 0.428892 -0.031975
v 0.387223 0.428892 0.000000
v 0.297289 0.410097 -0.025869
v 0.297289 0.398481 -0.009881
v 0.297289 0.398481 0.009881
v 0.297289 0.410097 0.025869
v 0.297289 0.428892 0.031975
v 0.297289 0.447686 0.025869
v 0.297289 0.459302 0.009881
v 0.297289 0.459302 -0.009881
v 0.297289 0.447686 -0.025869
v 0.297289 0.257479 -0.031975
v 0.387223 0.257479 0.000000
v 0.297289 0.238684 -0.025869
v 0.297289 0.227069 -0.009881
v 0.297289 0.227069 0.009881
v 0.297289 0.238684 0.025869
v 0.297289 0.257479 0.031975
v 0.297289 0.276274 0.025869
v 0.297289 0.287890 0.009881
v 0.297289 0.287890 -0.009881
v 0.297289 0.276274 -0.025869
v 0.297289 0.300332 -0.094956
v 0.387223 0.300332 -0.062981
v 0.297289 0.281538 -0.088850
v 0.297289 0.269922 -0.072862
v 0.297289 0.269922 -0.053100
v 0.297289 0.281538 -0.037112
v 0.297289 0.300332 -0.031005
v 0.297289 0.319127 -0.037112
v 0.297289 0.330743 -0.053100
v 0.297289 0.330743 -0.072862
v 0.297289 0.319127 -0.088850
v 0.297289 0.386038 -0.094956
v 0.387223 0.386038 -0.062981
v 0.297289 0.367244 -0.088850
v 0.297289 0.355628 -0.072862
v 0.297289 0.355628 -0.053100
v 0.297289 0.367244 -0.037112
v 0.297289 0.386038 -0.031005
v 0.297289 0.404833 -0.037112
v 0.297289 0.416449 -0.053100
v 0.297289 0.416449 -0.072862
v 0.297289 0.404833 -0.088850
v 0.297289 0.300332 0.031006
v 0.387223 0.300332 0.062981
v 0.297289 0.281538 0.037112
v 0.297289 0.269922 0.053100
v 0.297289 0.269922 0.072862
v 0.297289 0.281538 0.088850
v 0.297289 0.300332 0.094956
v 0.297289 0.319127 0.088850
v 0.297289 0.330743 0.072862
v 0.297289 0.330743 0.053100
v 0.297289 0.319127 0.037112
v 0.297289 0.386038 0.031006
v 0.387223 0.386038 0.062981
v 0.297289 0.367244 0.037112
v 0.297289 0.355628 0.053100
v 0.297289 0.355628 0.072862
v 0.297289 0.367244 0.088850
v 0.297289 0.386038 0.094956
v 0.297289 0.404833 0.088850
v 0.297289 0.416449 0.072862
v 0.297289 0.416449 0.053100
v 0.297289 0.404833 0.037112
v 0.283047 0.447664 -0.121384
v 0.282738 0.493560 -0.071293
v 0.281685 0.193404 0.071293
v 0.281685 0.193404 -0.071293
v 0.282738 0.493560 0.071293
v 0.282484 0.238126 -0.121384
v 0.282484 0.238126 0.121384
v 0.283047 0.447664 0.121384
v 0.014694 0.369560 -0.106327
v 0.014694 0.369560 0.106325
v 0.027533 0.365388 -0.106327
v 0.027533 0.365388 0.106325
v 0.035468 0.354466 -0.106327
v 0.035468 0.354466 0.106325
v 0.035468 0.340966 -0.106327
v 0.035468 0.340966 0.106325
v 0.027533 0.330044 -0.106327
v 0.027533 0.330044 0.106325
v 0.014694 0.325872 -0.106327
v 0.014694 0.325872 0.106325
v 0.001854 0.330044 -0.106327
v 0.001854 0.330044 0.106325
v -0.006081 0.340966 -0.106327
v -0.006081 0.340966 0.106325
v -0.006081 0.354466 -0.106327
v -0.006081 0.354466 0.106325
v 0.001854 0.365388 -0.106327
v 0.001854 0.365388 0.106325
v 0.014694 0.378784 -0.101240
v 0.032955 0.372850 -0.101240
v 0.032955 0.372850 0.101238
v 0.014694 0.378784 0.101238
v 0.044241 0.357317 -0.101240
v 0.044241 0.357317 0.101238
v 0.044241 0.338116 -0.101240
v 0.044241 0.338116 0.101238
v 0.032955 0.322582 -0.101240
v 0.032955 0.322582 0.101238
v 0.014694 0.316648 -0.101240
v 0.014694 0.316648 0.101238
v -0.003568 0.322582 -0.101240
v -0.003568 0.322582 0.101238
v -0.014854 0.338116 -0.101240
v -0.014854 0.338116 0.101238
v -0.014854 0.357317 -0.101240
v -0.014854 0.357317 0.101238
v -0.003568 0.372850 -0.101240
v -0.003568 0.372850 0.101238
vt 0.416667 0.875000
vt 0.333333 0.875000
vt 0.333333 1.000000
vt 0.416667 1.000000
vt 0.916667 0.875000
vt 0.833333 0.875000
vt 0.833333 1.000000
vt 0.916667 1.000000
vt 0.833333 1.000000
vt 0.916667 1.000000
vt 0.583333 1.000000
vt 0.583333 1.000000
vt 0.666667 1.000000
vt 0.666667 1.000000
vt 0.166667 0.875000
vt 0.166667 1.000000
vt 0.083333 1.000000
vt 0.083333 1.000000
vt 0.666667 0.875000
vt 0.416667 1.000000
vt 0.583333 0.875000
vt 0.166667 1.000000
vt 0.083333 0.875000
vt 0.333333 1.000000
vt 0.583333 0.750000
vt 0.666667 0.750000
vt 0.583333 0.750000
vt 0.666667 0.750000
vt 0.916667 0.750000
vt 0.833333 0.750000
vt 0.833333 0.750000
vt 0.916667 0.750000
vt 0.666667 0.750000
vt 0.833333 0.750000
vt 0.833333 0.750000
vt 0.666667 0.750000
vt 0.666164 0.750000
vt 0.833835 0.750000
vt 0.666164 0.750000
vt 0.833835 0.750000
vt 0.833333 0.750000
vt 0.666667 0.750000
vt 0.666667 0.750000
vt 0.833333 0.750000
vt 0.666164 0.750000
vt 0.666667 0.750000
vt 0.666667 0.750000
vt 0.833333 0.750000
vt 0.833333 0.750000
vt 0.833333 0.750000
vt 0.833333 0.750000
vt 0.666667 0.750000
vt 0.666667 0.750000
vt 0.666667 0.750000
vt 0.666667 0.750000
vt 0.833333 0.750000
vt 0.833333 0.750000
vt 0.833835 0.750000
vt 0.833333 0.750000
vt 0.833835 0.750000
vt 0.666667 0.750000
vt 0.666667 0.750000
vt 0.666667 0.750000
vt 0.666667 0.750000
vt 0.833333 0.750000
vt 0.833333 0.750000
vt 0.833333 0.750000
vt 0.833333 0.750000
vt 0.666667 0.750000
vt 0.666667 0.750000
vt 0.833333 0.750000
vt 0.833333 0.750000
vt 0.666667 0.750000
vt 0.833333 0.750000
vt 0.833333 0.750000
vt 0.666667 0.750000
vt 0.666667 0.750000
vt 0.833333 0.750000
vt 0.666164 0.750000
vt 0.666667 0.750000
vt 0.833333 0.750000
vt 0.833333 0.750000
vt 0.666667 0.750000
vt 0.000000 0.000000
vt 0.222222 0.250000
vt 0.000000 0.000000
vt 0.000000 0.000000
vt 0.000000 0.000000
vt 0.000000 0.000000
vt 0.000000 0.000000
vt 0.444444 0.500000
vt 0.666667 0.750000
vt 0.413125 1.000000
vt 0.346964 1.000000
vt 0.193880 1.000000
vt 0.159877 1.000000
vt 0.840047 1.000000
vt 0.805968 1.000000
vt 0.652615 1.000000
vt 0.586938 1.000000
vt 0.800000 0.500000
vt 0.700000 1.000000
vt 0.700000 0.500000
vt 0.900000 0.500000
vt 0.800000 1.000000
vt 0.600000 1.000000
vt 0.600000 0.500000
vt 0.500000 1.000000
vt 0.500000 0.500000
vt 0.400000 1.000000
vt 0.400000 0.500000
vt 0.300000 1.000000
vt 0.300000 0.500000
vt 0.200000 1.000000
vt 0.200000 0.500000
vt 0.100000 1.000000
vt 0.100000 0.500000
vt -0.000000 1.000000
vt -0.000000 0.500000
vt 1.000000 0.500000
vt 0.900000 1.000000
vt 0.900000 0.500000
vt 0.800000 0.500000
vt 0.700000 1.000000
vt 0.700000 0.500000
vt 0.800000 1.000000
vt 0.600000 1.000000
vt 0.600000 0.500000
vt 0.500000 1.000000
vt 0.500000 0.500000
vt 0.400000 1.000000
vt 0.400000 0.500000
vt 0.300000 1.000000
vt 0.300000 0.500000
vt 0.200000 1.000000
vt 0.200000 0.500000
vt 0.100000 1.000000
vt 0.100000 0.500000
vt -0.000000 1.000000
vt -0.000000 0.500000
vt 1.000000 0.500000
vt 0.900000 1.000000
vt 0.900000 0.500000
vt 0.800000 0.500000
vt 0.700000 1.000000
vt 0.700000 0.500000
vt 0.800000 1.000000
vt 0.600000 1.000000
vt 0.600000 0.500000
vt 0.500000 1.000000
vt 0.500000 0.500000
vt 0.400000 1.000000
vt 0.400000 0.500000
vt 0.300000 1.000000
vt 0.300000 0.500000
vt 0.200000 1.000000
vt 0.200000 0.500000
vt 0.100000 1.000000
vt 0.100000 0.500000
vt -0.000000 1.000000
vt -0.000000 0.500000
vt 1.000000 0.500000
vt 0.900000 1.000000
vt 0.900000 0.500000
vt 0.800000 0.500000
vt 0.700000 1.000000
vt 0.700000 0.500000
vt 0.800000 1.000000
vt 0.600000 1.000000
vt 0.600000 0.500000
vt 0.500000 1.000000
vt 0.500000 0.500000
vt 0.400000 1.000000
vt 0.400000 0.500000
vt 0.300000 1.000000
vt 0.300000 0.500000
vt 0.200000 1.000000
vt 0.200000 0.500000
vt 0.100000 1.000000
vt 0.100000 0.500000
vt -0.000000 1.000000
vt -0.000000 0.500000
vt 1.000000 0.500000
vt 0.900000 1.000000
vt 0.900000 0.500000
vt 0.800000 0.500000
vt 0.700000 1.000000
vt 0.700000 0.500000
vt 0.800000 1.000000
vt 0.600000 1.000000
vt 0.600000 0.500000
vt 0.500000 1.000000
vt 0.500000 0.500000
vt 0.400000 1.000000
vt 0.400000 0.500000
vt 0.300000 1.000000
vt 0.300000 0.500000
vt 0.200000 1.000000
vt 0.200000 0.500000
vt 0.100000 1.000000
vt 0.100000 0.500000
vt -0.000000 1.000000
vt -0.000000 0.500000
vt 1.000000 0.500000
vt 0.900000 1.000000
vt 0.900000 0.500000
vt 0.800000 0.500000
vt 0.700000 1.000000
vt 0.700000 0.500000
vt 0.800000 1.000000
vt 0.600000 1.000000
vt 0.600000 0.500000
vt 0.500000 1.000000
vt 0.500000 0.500000
vt 0.400000 1.000000
vt 0.400000 0.500000
vt 0.300000 1.000000
vt 0.300000 0.500000
vt 0.200000 1.000000
vt 0.200000 0.500000
vt 0.100000 1.000000
vt 0.100000 0.500000
vt -0.000000 1.000000
vt -0.000000 0.500000
vt 1.000000 0.500000
vt 0.900000 1.000000
vt 0.900000 0.500000
vt 0.800000 0.500000
vt 0.700000 1.000000
vt 0.700000 0.500000
vt 0.800000 1.000000
vt 0.600000 1.000000
vt 0.600000 0.500000
vt 0.500000 1.000000
vt 0.500000 0.500000
vt 0.400000 1.000000
vt 0.400000 0.500000
vt 0.300000 1.000000
vt 0.300000 0.500000
vt 0.200000 1.000000
vt 0.200000 0.500000
vt 0.100000 1.000000
vt 0.100000 0.500000
vt -0.000000 1.000000
vt -0.000000 0.500000
vt 1.000000 0.500000
vt 0.900000 1.000000
vt 0.583333 0.750000
vt 0.666667 0.750000
vt 0.666667 0.750000
vt 0.583333 0.750000
vt -0.000000 0.750000
vt 0.083333 0.750000
vt 0.083333 0.750000
vt -0.000000 0.750000
vt 0.416667 0.750000
vt 0.500000 0.750000
vt 0.500000 0.750000
vt 0.416667 0.750000
vt 0.250000 0.750000
vt 0.333333 0.750000
vt 0.333333 0.750000
vt 0.250000 0.750000
vt 0.166667 0.750000
vt 0.166667 0.750000
vt 0.833333 0.750000
vt 0.916667 0.750000
vt 0.916667 0.750000
vt 0.833333 0.750000
vt 0.750000 0.750000
vt 0.750000 0.750000
vt 1.000000 0.750000
vt 1.000000 0.750000
vt 0.833333 0.750000
vt 0.900722 0.750000
vt 0.833333 0.750000
vt 0.250000 0.750000
vt 0.317389 0.750000
vt 0.250000 0.750000
vt 0.333333 0.750000
vt 0.400722 0.750000
vt 0.333333 0.750000
vt 0.583333 0.750000
vt 0.650722 0.750000
vt 0.583333 0.750000
vt 0.916667 0.750000
vt 0.984055 0.750000
vt 0.916667 0.750000
vt 0.666667 0.750000
vt 0.734055 0.750000
vt 0.666667 0.750000
vt 0.083333 0.750000
vt 0.150722 0.750000
vt 0.083333 0.750000
vt 0.083333 0.750000
vt -0.000000 0.750000
vt 0.166667 0.750000
vt 0.234055 0.750000
vt 0.166667 0.750000
vt 0.416667 0.750000
vt 0.484055 0.750000
vt 0.416667 0.750000
vt 0.500000 0.750000
vt 0.567389 0.750000
vt 0.500000 0.750000
vt 0.166667 0.750000
vt 0.750000 0.750000
vt 0.666667 0.750000
vt 0.500000 0.750000
vt 0.416667 0.750000
vt 0.250000 0.750000
vt 0.833333 0.750000
vt 0.583333 0.750000
vt 0.333333 0.750000
vt 0.916667 0.750000
vt 1.000000 0.750000
vt 0.750000 0.750000
vt 0.817389 0.750000
vt 0.750000 0.750000
vt 0.067389 0.750000
vt -0.000000 0.750000
vt -0.000000 0.750000
vt 0.267168 0.750000
vt 0.816165 0.750000
vt 0.858399 0.750000
vt 0.797236 0.750000
vt 0.726936 0.750000
vt 0.653641 0.750000
vt 0.579109 0.750000
vt 0.504224 0.750000
vt 0.429692 0.750000
vt 0.356397 0.750000
vt 0.286097 0.750000
vt 0.224934 0.750000
vt 1.000000 0.500000
vt 1.000000 1.000000
vt 0.900000 1.000000
vt 0.900000 0.500000
vt 0.800000 1.000000
vt 0.800000 0.500000
vt 0.700000 1.000000
vt 0.700000 0.500000
vt 0.600000 1.000000
vt 0.600000 0.500000
vt 0.500000 1.000000
vt 0.500000 0.500000
vt 0.400000 1.000000
vt 0.400000 0.500000
vt 0.300000 1.000000
vt 0.300000 0.500000
vt 0.200000 1.000000
vt 0.200000 0.500000
vt 0.349186 0.386518
vt 0.250000 0.418745
vt 0.150814 0.386518
vt 0.089514 0.302145
vt 0.089514 0.197855
vt 0.150814 0.113482
vt 0.250000 0.081255
vt 0.349186 0.113482
vt 0.410486 0.197855
vt 0.410486 0.302145
vt 0.100000 1.000000
vt 0.100000 0.500000
vt -0.000000 1.000000
vt -0.000000 0.500000
vt 0.750000 0.418745
vt 0.849186 0.386518
vt 0.910486 0.302145
vt 0.910486 0.197855
vt 0.849186 0.113482
vt 0.750000 0.081255
vt 0.650814 0.113482
vt 0.589514 0.197855
vt 0.589514 0.302145
vt 0.650814 0.386518
vt 0.750000 0.490000
vt 0.891068 0.444164
vt 0.391068 0.444164
vt 0.250000 0.490000
vt 0.978254 0.324164
vt 0.478254 0.324164
vt 0.978254 0.175836
vt 0.478254 0.175836
vt 0.891068 0.055836
vt 0.391068 0.055836
vt 0.750000 0.010000
vt 0.250000 0.010000
vt 0.608932 0.055836
vt 0.108932 0.055836
vt 0.521746 0.175836
vt 0.021746 0.175836
vt 0.521746 0.324164
vt 0.021746 0.324164
vt 0.608932 0.444164
vt 0.108932 0.444164
vt 0.500000 0.875000
vt 0.625000 0.875000
vt 0.625000 0.937500
vt 0.500000 0.875000
vt 0.500000 0.000000
vt 0.625000 0.000000
vt 0.625000 0.062500
vt 0.500000 0.750000
vt 0.500000 0.250000
vt 0.625000 0.250000
vt 0.625000 0.312500
vt 0.500000 0.500000
vt 0.500000 0.500000
vt 0.625000 0.500000
vt 0.625000 0.562500
vt 0.500000 0.250000
vt 0.500000 0.750000
vt 0.625000 0.750000
vt 0.625000 0.812500
vt 0.500000 1.000000
vt 0.625000 0.312500
vt 0.625000 0.250000
vt 0.625000 0.250000
vt 0.625000 0.312500
vt 0.625000 0.187500
vt 0.625000 0.125000
vt 0.625000 0.125000
vt 0.625000 0.187500
vt 0.625000 0.937500
vt 0.625000 0.875000
vt 0.625000 0.875000
vt 0.625000 0.937500
vt 0.625000 0.437500
vt 0.625000 0.375000
vt 0.625000 0.375000
vt 0.625000 0.437500
vt 0.812500 0.687500
vt 0.875000 0.687500
vt 0.875000 0.750000
vt 0.812500 0.750000
vt 0.625000 0.562500
vt 0.625000 0.500000
vt 0.625000 0.500000
vt 0.625000 0.562500
vt 0.625000 0.062500
vt 0.625000 0.000000
vt 0.625000 0.000000
vt 0.625000 0.062500
vt 0.625000 0.812500
vt 0.625000 0.750000
vt 0.625000 0.750000
vt 0.625000 0.812500
vt 0.625000 0.937500
vt 0.625000 0.875000
vt 0.625000 0.875000
vt 0.625000 0.937500
vt 0.625000 1.000000
vt 0.625000 0.937500
vt 0.625000 1.000000
vt 0.625000 0.187500
vt 0.625000 0.125000
vt 0.625000 0.125000
vt 0.625000 0.187500
vt 0.625000 0.812500
vt 0.625000 0.812500
vt 0.625000 0.875000
vt 0.625000 0.250000
vt 0.625000 0.187500
vt 0.625000 0.250000
vt 0.625000 0.687500
vt 0.625000 0.625000
vt 0.625000 0.625000
vt 0.625000 0.687500
vt 0.625000 0.062500
vt 0.625000 0.062500
vt 0.625000 0.125000
vt 0.625000 0.750000
vt 0.625000 0.687500
vt 0.625000 0.687500
vt 0.625000 0.750000
vt 0.687500 0.687500
vt 0.750000 0.687500
vt 0.750000 0.750000
vt 0.687500 0.750000
vt 0.687500 0.562500
vt 0.750000 0.562500
vt 0.750000 0.625000
vt 0.687500 0.625000
vt 0.812500 0.562500
vt 0.875000 0.562500
vt 0.875000 0.625000
vt 0.812500 0.625000
vt 0.625000 0.562500
vt 0.625000 0.500000
vt 0.625000 0.500000
vt 0.625000 0.562500
vt 0.625000 0.312500
vt 0.625000 0.250000
vt 0.625000 0.312500
vt 0.625000 0.812500
vt 0.625000 0.750000
vt 0.625000 0.437500
vt 0.625000 0.375000
vt 0.625000 0.375000
vt 0.625000 0.437500
vt 0.625000 0.625000
vt 0.625000 0.562500
vt 0.625000 0.625000
vt 0.625000 0.437500
vt 0.625000 0.500000
vt 0.625000 0.062500
vt 0.625000 0.000000
vt 0.625000 0.000000
vt 0.500000 0.625000
vt 0.625000 0.625000
vt 0.625000 0.687500
vt 0.500000 0.125000
vt 0.500000 0.375000
vt 0.625000 0.375000
vt 0.625000 0.437500
vt 0.500000 0.375000
vt 0.500000 0.125000
vt 0.625000 0.125000
vt 0.625000 0.187500
vt 0.500000 0.625000
vt 0.625000 0.687500
vt 0.625000 0.625000
vt 0.500000 0.187500
vt 0.500000 0.562500
vt 0.500000 0.437500
vt 0.500000 0.312500
vt 0.500000 0.687500
vt 0.500000 0.062500
vt 0.500000 0.812500
vt 0.500000 0.937500
vt 0.625000 0.312500
vt 0.625000 0.375000
vt 0.750000 0.500000
vt 0.812500 0.500000
vt 0.875000 0.500000
vt 0.687500 0.500000
vt 0.625000 0.000000
vt 0.625000 1.000000
vt 0.625000 1.000000
vt 0.625000 1.000000
vt 0.625000 1.000000
vt 0.500000 0.562500
vt 0.500000 0.187500
vt 0.500000 0.312500
vt 0.500000 0.437500
vt 0.500000 0.062500
vt 0.500000 0.687500
vt 0.500000 0.937500
vt 0.500000 0.812500
vn -0.6093 0.6272 -0.4852
vn -0.6224 -0.6104 0.4899
vn 0.0103 -0.7376 0.6751
vn 0.0103 -0.7376 -0.6751
vn -0.6516 0.7586 0.0000
vn 0.0034 -0.0000 1.0000
vn -0.6684 -0.7438 -0.0000
vn 0.0200 -0.9998 0.0000
vn 0.0034 -0.0000 -1.0000
vn -0.4284 0.0031 -0.9036
vn 0.0060 0.7352 0.6778
vn -0.6224 -0.6104 -0.4899
vn -0.6093 0.6272 0.4852
vn 0.0083 1.0000 0.0000
vn -0.4284 0.0031 0.9036
vn -0.0331 0.8442 -0.5349
vn 0.0030 0.9844 -0.1760
vn -0.0392 0.9618 -0.2710
vn -0.0445 -0.8361 -0.5467
vn -0.0529 -0.9590 -0.2785
vn -0.0068 -0.9836 -0.1805
vn -0.0445 -0.8361 0.5467
vn -0.0068 -0.9836 0.1805
vn -0.0529 -0.9590 0.2785
vn 0.0030 0.9844 0.1760
vn -0.0392 0.9618 0.2710
vn -0.0331 0.8442 0.5349
vn -0.0785 0.0022 -0.9969
vn -0.9143 -0.0000 -0.4050
vn -0.9143 -0.0000 0.4050
vn 0.4633 -0.8862 0.0000
vn 0.4197 -0.9077 0.0000
vn 0.4197 0.9077 0.0000
vn 0.2205 0.9754 0.0000
vn 0.5271 0.8498 0.0000
vn -0.0048 -0.3037 -0.9528
vn -0.0641 -0.1328 -0.9891
vn -0.1201 -0.1012 -0.9876
vn -0.1777 -0.2754 -0.9448
vn -0.3906 -0.0611 0.9185
vn -0.3641 -0.1457 0.9199
vn -0.3707 -0.1311 0.9194
vn -0.3933 -0.0468 0.9182
vn -0.3641 -0.1457 -0.9199
vn -0.3906 -0.0611 -0.9185
vn -0.3933 -0.0468 -0.9182
vn -0.3707 -0.1311 -0.9194
vn -0.0048 -0.3037 0.9528
vn -0.1777 -0.2754 0.9448
vn -0.1201 -0.1012 0.9876
vn -0.0641 -0.1328 0.9891
vn -0.0048 0.3037 0.9528
vn 0.0501 0.3265 0.9439
vn -0.0700 0.1539 0.9856
vn -0.0641 0.1328 0.9891
vn -0.3271 0.1489 -0.9332
vn -0.1874 0.2204 -0.9572
vn -0.1867 0.2206 -0.9573
vn -0.3440 0.1331 -0.9295
vn -0.1874 0.2204 0.9573
vn -0.3271 0.1488 0.9332
vn -0.3440 0.1331 0.9295
vn -0.1867 0.2206 0.9573
vn -0.1946 -0.2114 -0.9578
vn -0.2422 -0.1995 -0.9495
vn -0.1946 -0.2114 0.9578
vn -0.2421 -0.1995 0.9495
vn 0.3065 -0.2240 -0.9251
vn -0.0657 -0.1190 -0.9907
vn -0.3802 0.0654 0.9226
vn -0.3849 0.0515 0.9215
vn -0.3802 0.0654 -0.9226
vn -0.3849 0.0515 -0.9215
vn 0.3065 -0.2240 0.9251
vn -0.0657 -0.1190 0.9907
vn 0.2205 -0.9754 0.0000
vn 0.0502 0.3265 -0.9439
vn -0.0048 0.3037 -0.9528
vn -0.0641 0.1328 -0.9891
vn -0.0700 0.1539 -0.9856
vn -0.1201 0.1012 0.9876
vn -0.1777 0.2754 0.9448
vn -0.1225 0.0000 0.9925
vn -0.2593 -0.1380 0.9559
vn -0.2593 0.1380 0.9559
vn -0.1777 0.2754 -0.9448
vn -0.2594 0.1379 -0.9559
vn -0.1202 0.1012 -0.9876
vn -0.2594 -0.1379 -0.9559
vn -0.1226 0.0000 -0.9925
vn 0.0072 0.0002 -1.0000
vn -0.0221 0.1715 -0.9849
vn 0.2750 -0.1376 -0.9515
vn 0.0072 0.0002 1.0000
vn 0.2750 -0.1376 0.9515
vn -0.0221 0.1715 0.9849
vn 0.0663 0.3330 0.9406
vn 0.0663 0.3330 -0.9406
vn 0.6515 0.7587 0.0000
vn 0.0922 0.3262 -0.9408
vn 0.7098 0.7044 0.0000
vn 0.0922 0.3262 0.9408
vn 0.9493 -0.3144 0.0000
vn 0.8443 -0.5358 0.0000
vn 0.1164 -0.2742 0.9546
vn 0.1164 -0.2742 -0.9546
vn 0.9939 -0.1106 0.0000
vn 0.4090 -0.1849 0.8936
vn 0.4090 -0.1849 -0.8936
vn 1.0000 -0.0034 0.0000
vn 0.0060 0.7352 -0.6778
vn 0.3350 -0.8961 -0.2912
vn 1.0000 0.0000 -0.0000
vn 0.3350 -0.8961 0.2912
vn 0.3350 -0.5538 -0.7623
vn 0.3350 -0.5538 0.7623
vn 0.3350 0.0000 0.9422
vn 0.3350 0.5538 0.7623
vn 0.3350 0.8961 0.2912
vn 0.3350 0.8961 -0.2912
vn 0.3350 0.5538 -0.7623
vn 0.3350 -0.0000 -0.9422
vn 0.7557 0.4857 -0.4394
vn 0.7536 -0.6574 0.0000
vn 0.7561 0.6545 0.0000
vn 0.7548 -0.0020 -0.6559
vn 0.7537 -0.4968 -0.4302
vn 0.7537 -0.4968 0.4302
vn 0.7548 -0.0020 0.6559
vn 0.7557 0.4857 0.4394
vn -0.0785 0.0022 0.9969
vn -0.4629 -0.3781 -0.8017
vn -0.8017 -0.3781 -0.4629
vn -0.8660 0.0026 -0.5000
vn -0.5000 0.0026 -0.8660
vn -0.0000 -0.3781 0.9258
vn 0.4629 -0.3781 0.8017
vn 0.5000 0.0026 0.8660
vn -0.0000 0.0026 1.0000
vn 0.4629 -0.3781 -0.8017
vn 0.0000 -0.3781 -0.9258
vn 0.0000 0.0026 -1.0000
vn 0.5000 0.0026 -0.8660
vn 0.9258 -0.3781 -0.0000
vn 0.8017 -0.3781 -0.4629
vn 0.8660 0.0026 -0.5000
vn 1.0000 0.0026 -0.0000
vn 0.8017 -0.3781 0.4629
vn 0.8660 0.0026 0.5000
vn -0.8017 -0.3781 0.4629
vn -0.4629 -0.3781 0.8017
vn -0.5000 0.0026 0.8660
vn -0.8660 0.0026 0.5000
vn -0.9258 -0.3781 -0.0000
vn -1.0000 0.0026 -0.0000
vn -0.1248 0.9896 0.0721
vn -0.0721 0.9896 0.1248
vn 0.0000 1.0000 0.0000
vn 0.1442 0.9896 0.0000
vn 0.1248 0.9896 -0.0721
vn 0.0721 0.9896 -0.1248
vn -0.0721 0.9896 -0.1248
vn -0.1248 0.9896 -0.0721
vn -0.0000 0.9896 0.1442
vn -0.1442 0.9896 0.0000
vn 0.0721 0.9896 0.1248
vn 0.1248 0.9896 0.0721
vn 0.4750 0.3122 0.8227
vn 0.0000 0.3122 0.9500
vn 0.0000 0.9896 -0.1442
vn 0.8227 0.3122 0.4750
vn -0.9500 0.3122 -0.0000
vn -0.8227 0.3122 -0.4750
vn 0.0000 0.3122 -0.9500
vn 0.4750 0.3122 -0.8227
vn 0.9500 0.3122 -0.0000
vn -0.8227 0.3122 0.4750
vn -0.4750 0.3122 -0.8227
vn 0.8227 0.3122 -0.4750
vn -0.4750 0.3122 0.8227
vn 0.4060 0.5837 0.7032
vn 0.0000 0.5837 0.8120
vn 0.7032 0.5837 0.4060
vn 0.8120 0.5837 -0.0000
vn 0.7032 0.5837 -0.4060
vn 0.4060 0.5837 -0.7032
vn 0.0000 0.5837 -0.8120
vn -0.4060 0.5837 -0.7032
vn -0.7032 0.5837 -0.4060
vn -0.8120 0.5837 -0.0000
vn -0.7032 0.5837 0.4060
vn -0.4060 0.5837 0.7032
vn 0.0000 -1.0000 -0.0000
vn -0.0000 -0.7064 0.7078
vn 0.3539 -0.7064 0.6130
vn 0.6130 -0.7064 0.3539
vn 0.7078 -0.7064 -0.0000
vn 0.6130 -0.7064 -0.3539
vn 0.3539 -0.7064 -0.6130
vn 0.0000 -0.7064 -0.7078
vn -0.3539 -0.7064 -0.6130
vn -0.6130 -0.7064 -0.3539
vn -0.7078 -0.7064 -0.0000
vn -0.6130 -0.7064 0.3539
vn -0.3539 -0.7064 0.6130
vn 0.5878 0.8090 0.0000
vn 0.9511 0.3090 0.0000
vn 0.9511 -0.3090 0.0000
vn 0.5878 -0.8090 0.0000
vn -0.5878 -0.8090 0.0000
vn -0.9511 -0.3090 0.0000
vn -0.9511 0.3090 0.0000
vn 0.1733 0.2385 0.9556
vn 0.0000 0.2948 0.9556
vn -0.1733 0.2385 0.9556
vn -0.2804 0.0911 0.9556
vn -0.2804 -0.0911 0.9556
vn -0.1733 -0.2385 0.9556
vn 0.0000 -0.2948 0.9556
vn 0.1733 -0.2385 0.9556
vn 0.2804 -0.0911 0.9556
vn 0.2804 0.0911 0.9556
vn -0.5878 0.8090 0.0000
vn 0.0000 0.2948 -0.9556
vn 0.1733 0.2385 -0.9556
vn 0.2804 0.0911 -0.9556
vn 0.2804 -0.0911 -0.9556
vn 0.1733 -0.2385 -0.9556
vn 0.0000 -0.2948 -0.9556
vn -0.1733 -0.2385 -0.9556
vn -0.2804 -0.0911 -0.9556
vn -0.2804 0.0911 -0.9556
vn -0.1733 0.2385 -0.9556
vn 0.0000 0.4829 -0.8757
vn 0.2839 0.3907 -0.8757
vn 0.2839 0.3907 0.8757
vn 0.0000 0.4829 0.8757
vn 0.4593 0.1492 -0.8757
vn 0.4593 0.1492 0.8757
vn 0.4593 -0.1492 -0.8757
vn 0.4593 -0.1492 0.8757
vn 0.2839 -0.3907 -0.8757
vn 0.2839 -0.3907 0.8757
vn 0.0000 -0.4829 -0.8757
vn 0.0000 -0.4829 0.8757
vn -0.2839 -0.3907 -0.8757
vn -0.2839 -0.3907 0.8757
vn -0.4593 -0.1492 -0.8757
vn -0.4593 -0.1492 0.8757
vn -0.4593 0.1492 -0.8757
vn -0.4593 0.1492 0.8757
vn -0.2839 0.3907 -0.8757
vn -0.2839 0.3907 0.8757
vn 0.0000 0.0563 0.9984
vn 0.0000 0.0497 0.9988
vn 0.0294 0.1600 0.9867
vn 0.2032 0.0631 0.9771
vn 0.6622 0.0725 0.7458
vn 0.5248 0.3129 0.7916
vn 0.8255 0.4736 0.3069
vn 0.9622 0.0698 0.2632
vn 0.6622 0.0725 -0.7458
vn 0.5248 0.3129 -0.7916
vn 0.0294 0.1600 -0.9867
vn 0.2032 0.0631 -0.9771
vn -0.6622 0.0725 -0.7458
vn -0.5248 0.3129 -0.7916
vn -0.8255 0.4736 -0.3069
vn -0.9622 0.0698 -0.2632
vn -0.6622 0.0725 0.7458
vn -0.5248 0.3129 0.7916
vn -0.0294 0.1600 0.9867
vn -0.2032 0.0631 0.9771
vn -0.4544 -0.1915 -0.8700
vn 0.1231 -0.3205 -0.9392
vn 0.0151 -0.6116 -0.7910
vn -0.5513 -0.4980 -0.6694
vn 0.5668 0.7232 -0.3946
vn 0.6297 0.7768 0.0000
vn 0.8593 0.5115 0.0000
vn 0.7282 0.4719 -0.4971
vn -0.1890 0.1888 0.9637
vn 0.0000 0.0200 0.9998
vn -0.5270 0.0597 0.8478
vn -0.2890 0.1558 0.9446
vn 0.1890 0.1888 -0.9637
vn -0.0000 0.0200 -0.9998
vn 0.5270 0.0597 -0.8478
vn 0.2890 0.1558 -0.9446
vn -0.4671 -0.8080 0.3592
vn 0.2359 -0.8765 0.4197
vn 0.0151 -0.6116 0.7910
vn -0.5513 -0.4980 0.6694
vn -0.6981 -0.4916 -0.5206
vn -0.1231 -0.3205 -0.9392
vn -0.0151 -0.6116 -0.7910
vn -0.2359 -0.8765 -0.4197
vn 0.6981 -0.4916 0.5206
vn 0.1231 -0.3205 0.9392
vn 0.4544 -0.1915 0.8700
vn -0.1231 -0.3205 0.9392
vn -0.0151 -0.6116 0.7910
vn 0.5513 -0.4980 0.6694
vn -0.4544 -0.1915 0.8700
vn -0.6163 -0.1543 0.7723
vn -0.7052 -0.2788 0.6519
vn 0.2355 0.2944 0.9262
vn -0.3515 0.0001 0.9362
vn 0.2338 -0.0059 0.9723
vn 0.6981 -0.4916 -0.5206
vn 0.8372 -0.5469 -0.0000
vn 0.3302 -0.9439 -0.0000
vn 0.2359 -0.8765 -0.4197
vn 0.5270 0.0597 0.8478
vn 0.2890 0.1558 0.9446
vn 0.3515 0.0001 0.9362
vn 0.5755 0.0078 0.8178
vn 0.2355 0.2944 -0.9262
vn 0.5469 -0.0243 -0.8369
vn 0.2338 -0.0059 -0.9723
vn -0.6981 -0.4916 0.5206
vn -0.8372 -0.5469 -0.0000
vn -0.3302 -0.9439 -0.0000
vn -0.2359 -0.8765 0.4197
vn 0.7282 0.4719 0.4971
vn 0.9838 -0.0645 0.1672
vn 0.9989 -0.0472 -0.0000
vn -0.2355 0.2944 0.9262
vn -0.7282 0.4719 0.4971
vn -0.5469 -0.0243 0.8369
vn -0.2338 -0.0059 0.9723
vn 0.4671 -0.8080 0.3592
vn 0.7941 -0.5043 0.3393
vn 0.7052 -0.2788 0.6519
vn 0.4671 -0.8080 -0.3592
vn 0.7941 -0.5043 -0.3393
vn 0.7727 -0.6348 0.0000
vn -0.4671 -0.8080 -0.3592
vn -0.0689 -0.9976 0.0000
vn -0.5668 0.7232 -0.3946
vn -0.2184 0.4868 -0.8458
vn -0.2355 0.2944 -0.9262
vn -0.7282 0.4719 -0.4971
vn -0.1890 0.1888 -0.9637
vn 0.2184 0.4868 -0.8458
vn -0.2890 0.1558 -0.9446
vn 0.1890 0.1888 0.9637
vn -0.2184 0.4868 0.8458
vn 0.4544 -0.1915 -0.8700
vn 0.6163 -0.1543 -0.7723
vn 0.7052 -0.2788 -0.6519
vn 0.5513 -0.4980 -0.6694
vn -0.8593 0.5115 0.0000
vn -0.9838 -0.0645 -0.1672
vn -0.9989 -0.0472 -0.0000
vn 0.3515 0.0001 -0.9362
vn -0.2338 -0.0059 -0.9723
vn 0.5668 0.7232 0.3946
vn 0.2184 0.4868 0.8458
vn -0.9980 0.0636 -0.0000
vn -0.8255 0.4736 0.3069
vn -0.9622 0.0698 0.2632
vn -0.0000 0.0563 -0.9984
vn -0.0000 0.0497 -0.9988
vn -0.0294 0.1600 -0.9867
vn -0.2032 0.0631 -0.9771
vn 0.9980 0.0636 0.0000
vn 0.8255 0.4736 -0.3069
vn 0.9622 0.0698 -0.2632
vn -0.5668 0.7232 0.3946
vn -0.6297 0.7768 -0.0000
vn -0.6266 0.7793 -0.0000
vn 0.6266 0.7793 0.0000
vn -0.3515 0.0001 -0.9362
vn 0.5755 0.0078 -0.8178
vn -0.5270 0.0597 -0.8478
vn -0.7941 -0.5043 -0.3393
vn -0.7727 -0.6348 0.0000
vn -0.7052 -0.2788 -0.6519
vn 0.0689 -0.9976 -0.0000
vn -0.5469 -0.0243 -0.8369
vn -0.9838 -0.0645 0.1672
vn 0.5469 -0.0243 0.8369
vn 0.9838 -0.0645 -0.1672
vn -0.5755 0.0078 0.8178
vn 0.6163 -0.1543 0.7723
vn -0.7941 -0.5043 0.3393
vn -0.6163 -0.1543 -0.7723
vn -0.5755 0.0078 -0.8178
usemtl Metal
s 1
f 26/1/1 23/2/1 4/3/1 7/4/1
s 2
f 28/5/2 21/6/2 1/7/2 6/8/2
s 3
f 1/7/3 344/9/3 348/10/3 6/8/3
s 4
f 5/11/4 347/12/4 345/13/4 2/14/4
s 5
f 24/15/5 3/16/5 4/3/5 23/2/5
s 6
f 6/8/6 348/10/6 349/17/6 8/18/6
s 7
f 22/19/7 2/14/7 1/7/7 21/6/7
s 8
f 2/14/8 345/13/8 344/9/8 1/7/8
s 9
f 7/4/9 342/20/9 347/12/9 5/11/9
s 10
f 27/21/10 26/1/10 7/4/10 5/11/10
s 11
f 8/18/11 349/17/11 346/22/11 3/16/11
s 12
f 5/11/12 2/14/12 22/19/12 27/21/12
s 13
f 8/18/13 3/16/13 24/15/13 25/23/13
s 14
f 3/16/14 346/22/14 343/24/14 4/3/14
s 15
f 6/8/15 8/18/15 25/23/15 28/5/15
s 16
f 117/25/16 66/26/17 23/2/18 26/1/16
s 17
f 118/27/19 27/21/19 22/19/20 121/28/21
s 18
f 114/29/22 122/30/23 21/6/24 28/5/22
s 19
f 23/2/18 66/26/17 123/31/25 24/15/26
s 20
f 113/32/27 25/23/27 24/15/26 123/31/25
s 21
f 122/30/23 121/28/21 22/19/20 21/6/24
s 22
f 118/27/28 117/25/28 26/1/28 27/21/28
s 71
f 117/25/29 120/33/29 66/26/29
s 72
f 116/34/30 113/32/30 123/31/30
s 73
f 75/35/31 73/36/31 74/37/32 76/38/32
s 74
f 78/39/33 80/40/33 70/41/34 69/42/34
s 75
f 77/43/35 79/44/35 80/40/33 78/39/33
s 76
f 74/37/36 94/45/37 85/46/38 67/47/39
s 77
f 84/48/40 82/49/41 102/50/42 104/51/43
s 78
f 82/52/44 84/53/45 107/54/46 105/55/47
s 79
f 76/38/48 68/56/49 86/57/50 96/58/51
s 80
f 80/40/52 79/44/53 99/59/54 100/60/55
s 81
f 81/61/56 72/62/57 91/63/58 106/64/59
s 82
f 72/65/60 81/66/61 101/67/62 92/68/63
s 83
f 71/69/64 82/52/44 105/55/47 90/70/65
s 84
f 82/49/41 71/71/66 89/72/67 102/50/42
s 85
f 74/37/36 73/36/68 93/73/69 94/45/37
s 86
f 81/66/61 83/74/70 103/75/71 101/67/62
s 87
f 83/76/72 81/61/56 106/64/59 108/77/73
s 88
f 75/35/74 76/38/48 96/58/51 95/78/75
s 89
f 74/37/32 67/47/76 68/56/76 76/38/32
s 90
f 77/43/77 78/39/78 98/79/79 97/80/80
s 91
f 84/53/45 83/76/72 108/77/73 107/54/46
s 92
f 83/74/70 84/48/40 104/51/43 103/75/71
s 93
f 80/40/52 100/60/55 88/81/81 70/41/82
s 94
f 115/82/83 86/57/50 122/30/84
s 95
f 86/57/50 68/56/49 122/30/84
s 96
f 88/81/81 123/31/85 70/41/82
s 97
f 123/31/25 66/26/17 69/42/34 70/41/34
s 98
f 69/42/86 66/26/87 87/83/88
s 99
f 67/47/39 85/46/38 121/84/89
s 100
f 119/85/90 121/84/89 85/46/38
s 101
f 121/84/21 122/30/23 68/56/76 67/47/76
s 102
f 78/39/78 69/42/86 87/83/88 98/79/79
s 103
f 106/64/91 91/63/92 90/70/93 105/55/91 107/54/91 108/77/91
s 104
f 101/67/94 103/75/94 104/51/94 102/50/94 89/72/95 92/68/96
s 105
f 92/68/96 99/59/54 79/44/53 110/86/97
s 106
f 109/87/98 77/43/77 97/80/80 91/63/92
s 107
f 77/43/35 109/87/99 110/86/99 79/44/35
s 108
f 72/62/57 109/87/100 91/63/58
s 109
f 109/87/99 72/62/101 110/86/99
s 110
f 72/62/60 92/68/63 110/86/102
s 111
f 111/88/103 71/89/104 112/90/103
s 112
f 71/89/66 111/88/105 89/72/67
s 113
f 71/89/64 90/70/65 112/90/106
s 114
f 75/35/107 111/88/103 112/90/103 73/36/107
s 115
f 89/72/95 111/88/108 75/35/74 95/78/75
s 116
f 90/70/93 93/73/69 73/36/68 112/90/109
s 117
f 66/26/87 120/91/90 87/83/88
s 118
f 120/91/90 119/85/90 85/46/38 87/83/88
s 119
f 123/31/85 88/81/81 116/34/83
s 120
f 116/34/83 88/81/81 86/57/50 115/82/83
s 121
f 89/72/95 95/78/75 99/59/54 92/68/96
s 122
f 94/45/37 93/73/69 97/80/80 98/79/79
s 123
f 93/73/69 90/70/93 91/63/92 97/80/80
s 124
f 95/78/75 96/58/51 100/60/55 99/59/54
s 125
f 94/45/37 98/79/79 87/83/88 85/46/38
s 126
f 96/58/51 86/57/50 88/81/81 100/60/55
s 127
f 122/30/30 114/29/30 115/82/30
s 128
f 118/27/29 119/92/29 120/33/29 117/25/29
s 129
f 115/82/30 114/29/30 113/32/30 116/34/30
s 130
f 118/27/29 121/28/29 119/92/29
s 131
f 128/93/110 127/94/110 124/95/110 131/96/110 130/97/110 125/98/110 126/99/110 129/100/110
s 257
f 4/3/111 343/24/111 342/20/111 7/4/111
s 258
f 268/101/112 266/102/113 269/103/114
s 259
f 267/104/115 266/105/113 268/101/112
s 260
f 269/103/114 266/106/113 270/107/116
s 261
f 270/107/116 266/108/113 271/109/117
s 262
f 271/109/117 266/110/113 272/111/118
s 263
f 272/111/118 266/112/113 273/113/119
s 264
f 273/113/119 266/114/113 274/115/120
s 265
f 274/115/120 266/116/113 275/117/121
s 266
f 275/117/121 266/118/113 265/119/122
s 267
f 276/120/122 277/121/113 278/122/115
s 268
f 279/123/112 277/124/113 280/125/114
s 269
f 278/122/115 277/126/113 279/123/112
s 270
f 280/125/114 277/127/113 281/128/116
s 271
f 281/128/116 277/129/113 282/130/117
s 272
f 282/130/117 277/131/113 283/132/118
s 273
f 283/132/118 277/133/113 284/134/119
s 274
f 284/134/119 277/135/113 285/136/120
s 275
f 285/136/120 277/137/113 286/138/121
s 276
f 286/138/121 277/139/113 276/140/122
s 277
f 287/141/122 288/142/113 289/143/115
s 278
f 290/144/112 288/145/113 291/146/114
s 279
f 289/143/115 288/147/113 290/144/112
s 280
f 291/146/114 288/148/113 292/149/116
s 281
f 292/149/116 288/150/113 293/151/117
s 282
f 293/151/117 288/152/113 294/153/118
s 283
f 294/153/118 288/154/113 295/155/119
s 284
f 295/155/119 288/156/113 296/157/120
s 285
f 296/157/120 288/158/113 297/159/121
s 286
f 297/159/121 288/160/113 287/161/122
s 287
f 298/162/122 299/163/113 300/164/115
s 288
f 301/165/112 299/166/113 302/167/114
s 289
f 300/164/115 299/168/113 301/165/112
s 290
f 302/167/114 299/169/113 303/170/116
s 291
f 303/170/116 299/171/113 304/172/117
s 292
f 304/172/117 299/173/113 305/174/118
s 293
f 305/174/118 299/175/113 306/176/119
s 294
f 306/176/119 299/177/113 307/178/120
s 295
f 307/178/120 299/179/113 308/180/121
s 296
f 308/180/121 299/181/113 298/182/122
s 297
f 309/183/122 310/184/113 311/185/115
s 298
f 312/186/112 310/187/113 313/188/114
s 299
f 311/185/115 310/189/113 312/186/112
s 300
f 313/188/114 310/190/113 314/191/116
s 301
f 314/191/116 310/192/113 315/193/117
s 302
f 315/193/117 310/194/113 316/195/118
s 303
f 316/195/118 310/196/113 317/197/119
s 304
f 317/197/119 310/198/113 318/199/120
s 305
f 318/199/120 310/200/113 319/201/121
s 306
f 319/201/121 310/202/113 309/203/122
s 307
f 320/204/122 321/205/113 322/206/115
s 308
f 323/207/112 321/208/113 324/209/114
s 309
f 322/206/115 321/210/113 323/207/112
s 310
f 324/209/114 321/211/113 325/212/116
s 311
f 325/212/116 321/213/113 326/214/117
s 312
f 326/214/117 321/215/113 327/216/118
s 313
f 327/216/118 321/217/113 328/218/119
s 314
f 328/218/119 321/219/113 329/220/120
s 315
f 329/220/120 321/221/113 330/222/121
s 316
f 330/222/121 321/223/113 320/224/122
s 317
f 331/225/122 332/226/113 333/227/115
s 318
f 334/228/112 332/229/113 335/230/114
s 319
f 333/227/115 332/231/113 334/228/112
s 320
f 335/230/114 332/232/113 336/233/116
s 321
f 336/233/116 332/234/113 337/235/117
s 322
f 337/235/117 332/236/113 338/237/118
s 323
f 338/237/118 332/238/113 339/239/119
s 324
f 339/239/119 332/240/113 340/241/120
s 325
f 340/241/120 332/242/113 341/243/121
s 326
f 341/243/121 332/244/113 331/245/122
s 327
f 265/246/122 266/247/113 267/104/115
s 328
f 127/94/123 128/93/123 342/20/123 343/24/123
s 329
f 126/99/124 125/98/124 344/9/124 345/13/124
s 330
f 124/95/125 127/94/125 343/24/125 346/22/125
s 331
f 128/93/126 129/100/126 347/12/126 342/20/126
s 332
f 129/100/127 126/99/127 345/13/127 347/12/127
s 333
f 125/98/128 130/97/128 348/10/128 344/9/128
s 334
f 130/97/129 131/96/129 349/17/129 348/10/129
s 335
f 131/96/130 124/95/130 346/22/130 349/17/130
s 336
f 114/29/131 28/5/131 25/23/131 113/32/131
usemtl BrownDark
s 23
f 260/248/132 261/249/133 31/250/134 38/251/135
s 24
f 254/252/136 253/253/137 35/254/138 29/255/139
s 25
f 258/256/140 259/257/141 32/258/142 37/259/143
s 26
f 256/260/144 257/261/145 33/262/146 36/263/147
s 27
f 253/253/137 255/264/148 34/265/149 35/254/138
s 28
f 263/266/150 264/267/151 40/268/152 30/269/153
s 29
f 261/249/133 262/270/154 39/271/155 31/250/134
s 30
f 259/257/141 260/248/132 38/251/135 32/258/142
s 31
f 264/267/151 254/272/136 29/273/139 40/268/152
s 32
f 257/261/145 258/256/140 37/259/143 33/262/146
s 33
f 262/270/154 263/266/150 30/269/153 39/271/155
s 34
f 255/264/148 256/260/144 36/263/147 34/265/149
s 35
f 45/274/156 65/275/157 41/276/158
s 36
f 57/277/159 51/278/160 41/279/158
s 37
f 51/280/160 59/281/161 41/282/158
s 38
f 61/283/162 47/284/163 41/285/158
s 39
f 65/286/157 42/287/164 41/288/158
s 40
f 47/289/163 63/290/165 41/291/158
s 41
f 55/292/166 53/293/167 41/294/158
s 42
f 29/255/139 35/254/138 54/295/168 43/296/169
s 43
f 53/297/167 57/298/159 41/299/158
s 44
f 59/300/161 49/301/170 41/302/158
s 45
f 49/303/170 61/304/162 41/305/158
s 46
f 35/254/138 34/265/149 52/306/171 54/295/168
s 47
f 31/250/134 39/271/155 62/307/172 46/308/173
s 48
f 37/259/143 32/258/142 48/309/174 58/310/175
s 49
f 34/265/149 36/263/147 56/311/176 52/306/171
s 50
f 39/271/155 30/269/153 44/312/177 62/307/172
s 51
f 32/258/142 38/251/135 60/313/178 48/309/174
s 52
f 36/263/147 33/262/146 50/314/179 56/311/176
s 53
f 30/269/153 40/268/152 64/315/180 44/312/177
s 54
f 40/268/152 29/273/139 43/316/169 64/315/180
s 55
f 38/251/135 31/250/134 46/308/173 60/313/178
s 56
f 33/262/146 37/259/143 58/310/175 50/314/179
s 57
f 63/317/165 45/318/156 41/319/158
s 58
f 55/320/181 42/321/182 43/296/169 54/295/168
s 59
f 53/293/183 55/292/181 54/295/168 52/306/171
s 60
f 57/298/184 53/297/183 52/306/171 56/311/176
s 61
f 51/278/185 57/277/184 56/311/176 50/314/179
s 62
f 59/281/186 51/280/185 50/314/179 58/310/175
s 63
f 49/301/187 59/300/186 58/310/175 48/309/174
s 64
f 61/304/188 49/303/187 48/309/174 60/313/178
s 65
f 47/284/189 61/283/188 60/313/178 46/308/173
s 66
f 63/290/190 47/289/189 46/308/173 62/307/172
s 67
f 45/318/191 63/317/190 62/307/172 44/312/177
s 68
f 65/275/192 45/274/191 44/312/177 64/315/180
s 69
f 42/287/182 65/286/192 64/315/180 43/316/169
s 70
f 42/321/164 55/320/166 41/322/158
s 244
f 15/323/193 9/324/193 20/325/193 10/326/193 19/327/193 11/328/193 18/329/193 12/330/193 17/331/193 13/332/193 16/333/193 14/334/193
s 245
f 9/324/194 15/323/195 253/253/137 254/272/136
s 246
f 15/323/195 14/334/196 255/264/148 253/253/137
s 247
f 14/334/196 16/333/197 256/260/144 255/264/148
s 248
f 16/333/197 13/332/198 257/261/145 256/260/144
s 249
f 13/332/198 17/331/199 258/256/140 257/261/145
s 250
f 17/331/199 12/330/200 259/257/141 258/256/140
s 251
f 12/330/200 18/329/201 260/248/132 259/257/141
s 252
f 18/329/201 11/328/202 261/249/133 260/248/132
s 253
f 11/328/202 19/327/203 262/270/154 261/249/133
s 254
f 19/327/203 10/326/204 263/266/150 262/270/154
s 255
f 10/326/204 20/325/205 264/267/151 263/266/150
s 256
f 20/325/205 9/324/194 254/272/136 264/267/151
s 337
f 370/335/158 373/336/158 372/337/206 371/338/206
s 338
f 371/338/206 372/337/206 375/339/207 374/340/207
s 339
f 374/340/207 375/339/207 377/341/208 376/342/208
s 340
f 376/342/208 377/341/208 379/343/209 378/344/209
s 341
f 378/344/209 379/343/209 381/345/193 380/346/193
s 342
f 380/346/193 381/345/193 383/347/210 382/348/210
s 343
f 382/348/210 383/347/210 385/349/211 384/350/211
s 344
f 384/350/211 385/349/211 387/351/212 386/352/212
s 345
f 353/353/213 351/354/214 369/355/215 367/356/216 365/357/217 363/358/218 361/359/219 359/360/220 357/361/221 355/362/222
s 346
f 386/352/212 387/351/212 389/363/223 388/364/223
s 347
f 388/364/223 389/363/223 373/365/158 370/366/158
s 348
f 350/367/224 352/368/225 354/369/226 356/370/227 358/371/228 360/372/229 362/373/230 364/374/231 366/375/232 368/376/233
s 349
f 352/368/225 350/367/224 370/377/234 371/378/235
s 350
f 351/354/214 353/353/213 372/379/236 373/380/237
s 351
f 354/369/226 352/368/225 371/378/235 374/381/238
s 352
f 353/353/213 355/362/222 375/382/239 372/379/236
s 353
f 356/370/227 354/369/226 374/381/238 376/383/240
s 354
f 355/362/222 357/361/221 377/384/241 375/382/239
s 355
f 358/371/228 356/370/227 376/383/240 378/385/242
s 356
f 357/361/221 359/360/220 379/386/243 377/384/241
s 357
f 360/372/229 358/371/228 378/385/242 380/387/244
s 358
f 359/360/220 361/359/219 381/388/245 379/386/243
s 359
f 362/373/230 360/372/229 380/387/244 382/389/246
s 360
f 361/359/219 363/358/218 383/390/247 381/388/245
s 361
f 364/374/231 362/373/230 382/389/246 384/391/248
s 362
f 363/358/218 365/357/217 385/392/249 383/390/247
s 363
f 366/375/232 364/374/231 384/391/248 386/393/250
s 364
f 365/357/217 367/356/216 387/394/251 385/392/249
s 365
f 368/376/233 366/375/232 386/393/250 388/395/252
s 366
f 367/356/216 369/355/215 389/396/253 387/394/251
s 367
f 350/367/224 368/376/233 388/395/252 370/377/234
s 368
f 369/355/215 351/354/214 373/380/237 389/396/253
usemtl White
s 132
f 136/397/254 163/398/255 184/399/256 141/400/257
s 133
f 135/401/258 148/402/259 195/403/260 142/404/261
s 134
f 134/405/262 149/406/263 196/407/264 144/408/265
s 135
f 133/409/266 151/410/267 197/411/268 146/412/269
s 136
f 132/413/270 150/414/271 198/415/272 140/416/273
s 137
f 252/417/274 193/418/275 157/419/276 208/420/277
s 138
f 251/421/278 232/422/279 164/423/280 185/424/281
s 139
f 250/425/282 228/426/283 167/427/284 188/428/285
s 140
f 249/429/286 227/430/287 165/431/288 186/432/289
s 141
f 248/433/290 207/434/291 156/435/292 192/436/293
s 142
f 247/437/294 211/438/295 158/439/296 209/440/297
s 143
f 246/441/298 194/442/299 156/443/292 207/444/291
s 144
f 245/445/300 212/446/301 159/447/302 210/448/303
s 145
f 244/449/304 213/450/305 171/451/306 192/452/293
s 146
f 152/453/307 188/428/285 214/454/308 175/455/309
s 147
f 243/456/310 216/457/311 168/458/312 189/459/313
s 148
f 167/427/314 202/460/315 215/461/316 176/462/317
s 149
f 153/463/318 185/424/281 217/464/319 172/465/320
s 150
f 242/466/321 219/467/322 170/468/323 191/469/324
s 151
f 164/423/280 199/470/325 218/471/326 177/472/327
s 152
f 155/473/328 187/474/329 220/475/330 174/476/331
s 153
f 241/477/332 222/478/333 171/479/334 210/480/303
s 154
f 240/481/335 223/482/336 179/483/337 224/484/337
s 155
f 239/485/338 189/486/313 168/487/312 225/488/339
s 156
f 238/489/340 206/490/341 154/491/342 201/492/343
s 157
f 237/493/344 204/494/345 153/463/318 200/495/346
s 158
f 236/496/347 205/497/348 155/473/328 202/460/315
s 159
f 235/498/349 229/499/350 169/500/351 190/501/352
s 160
f 166/502/353 201/492/343 221/503/354 178/504/355
s 161
f 154/491/342 186/432/289 230/505/356 173/506/357
s 162
f 234/507/358 203/508/359 152/509/307 199/470/325
s 163
f 139/510/360 162/511/360 183/512/361 147/513/362
s 164
f 138/514/363 161/515/364 182/516/365 145/517/366
s 165
f 137/518/367 160/519/367 181/520/368 143/521/369
s 166
f 233/522/370 226/523/371 166/502/353 187/474/329
s 167
f 205/497/348 233/522/370 187/474/329 155/473/328
s 168
f 150/414/271 183/512/361 233/522/370 205/497/348
s 169
f 183/512/361 162/511/372 226/523/371 233/522/370
s 170
f 143/524/369 181/520/368 149/406/263 134/525/262
s 171
f 145/526/366 182/516/365 151/410/267 133/527/266
s 172
f 147/528/362 183/512/361 150/414/271 132/529/270
s 173
f 140/530/273 198/415/272 163/398/255 136/531/254
s 174
f 232/422/279 234/507/358 199/470/325 164/423/280
s 175
f 160/519/373 195/403/260 234/507/358 232/422/279
s 176
f 195/403/260 148/402/259 203/508/359 234/507/358
s 177
f 200/495/346 153/463/318 172/465/320 231/532/374
s 178
f 186/432/289 165/431/288 180/533/375 230/505/356
s 179
f 211/438/295 235/498/349 190/501/352 158/439/296
s 180
f 173/506/357 230/505/356 235/498/349 211/438/295
s 181
f 230/505/356 180/533/375 229/499/350 235/498/349
s 182
f 228/426/283 236/496/347 202/460/315 167/427/314
s 183
f 163/398/255 198/415/272 236/496/347 228/426/283
s 184
f 198/415/272 150/414/271 205/497/348 236/496/347
s 185
f 227/430/287 237/493/344 200/495/346 165/431/376
s 186
f 161/515/364 196/407/264 237/493/344 227/430/287
s 187
f 196/407/264 149/406/263 204/494/345 237/493/344
s 188
f 226/523/371 238/489/340 201/492/343 166/502/353
s 189
f 162/511/372 197/411/268 238/489/340 226/523/371
s 190
f 197/411/268 151/410/267 206/490/341 238/489/340
s 191
f 223/482/377 239/485/338 225/488/378 179/483/378
s 192
f 169/534/379 208/535/277 239/485/338 223/482/377
s 193
f 208/535/277 157/536/276 189/486/313 239/485/338
s 194
f 209/440/297 240/481/335 224/484/380 170/468/323
s 195
f 158/439/296 190/537/352 240/481/335 209/440/297
s 196
f 190/537/352 169/534/351 223/482/336 240/481/335
s 197
f 191/469/324 241/477/332 210/480/303 159/447/302
s 198
f 170/468/323 224/484/380 241/477/332 191/469/324
s 199
f 224/484/337 179/483/337 222/478/333 241/477/332
s 200
f 201/492/343 154/491/342 173/506/357 221/503/381
s 201
f 187/474/329 166/502/353 178/504/355 220/475/382
s 202
f 212/446/301 242/466/321 191/469/324 159/447/302
s 203
f 174/476/331 220/475/330 242/466/321 212/446/301
s 204
f 220/475/382 178/504/355 219/467/322 242/466/321
s 205
f 199/470/325 152/509/307 175/538/309 218/471/383
s 206
f 185/424/281 164/423/280 177/472/327 217/464/384
s 207
f 193/418/275 243/456/310 189/459/313 157/419/276
s 208
f 172/465/320 217/464/319 243/456/310 193/418/275
s 209
f 217/464/384 177/472/327 216/457/311 243/456/310
s 210
f 202/460/315 155/473/328 174/476/331 215/461/316
s 211
f 188/428/285 167/427/284 176/462/385 214/454/308
s 212
f 194/539/299 244/449/304 192/452/293 156/540/292
s 213
f 175/455/309 214/454/308 244/449/304 194/539/299
s 214
f 214/454/308 176/462/385 213/450/305 244/449/304
s 215
f 213/450/386 245/445/300 210/448/303 171/451/334
s 216
f 176/462/317 215/461/316 245/445/300 213/450/386
s 217
f 215/461/316 174/476/331 212/446/301 245/445/300
s 218
f 216/457/311 246/441/298 207/444/291 168/458/312
s 219
f 177/472/327 218/471/326 246/441/298 216/457/311
s 220
f 218/471/383 175/538/309 194/442/299 246/441/298
s 221
f 219/467/322 247/437/294 209/440/297 170/468/323
s 222
f 178/504/355 221/503/354 247/437/294 219/467/322
s 223
f 221/503/381 173/506/357 211/438/295 247/437/294
s 224
f 222/478/387 248/433/290 192/436/293 171/479/306
s 225
f 179/483/378 225/488/378 248/433/290 222/478/387
s 226
f 225/488/339 168/487/312 207/434/291 248/433/290
s 227
f 206/490/341 249/429/286 186/432/289 154/491/342
s 228
f 151/410/267 182/516/365 249/429/286 206/490/341
s 229
f 182/516/365 161/515/364 227/430/287 249/429/286
s 230
f 203/541/359 250/425/282 188/428/285 152/453/307
s 231
f 148/542/259 184/399/256 250/425/282 203/541/359
s 232
f 184/399/256 163/398/255 228/426/283 250/425/282
s 233
f 204/494/345 251/421/278 185/424/281 153/463/318
s 234
f 149/406/263 181/520/368 251/421/278 204/494/345
s 235
f 181/520/368 160/519/373 232/422/279 251/421/278
s 236
f 229/499/388 252/417/274 208/420/277 169/500/379
s 237
f 180/533/389 231/532/374 252/417/274 229/499/388
s 238
f 231/532/374 172/465/320 193/418/275 252/417/274
s 239
f 146/543/269 197/411/268 162/511/360 139/544/360
s 240
f 144/545/265 196/407/264 161/515/364 138/546/363
s 241
f 142/547/261 195/403/260 160/519/367 137/548/367
s 242
f 165/431/376 200/495/346 231/532/374 180/533/389
s 243
f 141/549/257 184/399/256 148/542/259 135/550/258
