# Blender v2.80 (sub 75) OBJ File: 'orcAccessories.blend'
# www.blender.org
mtllib orc_sword.mtl
o orc_sword_Cube.4120
v 0.041618 -0.140389 0.046553
v 0.041618 -0.140389 -0.046553
v -0.041618 -0.140389 0.046553
v -0.041618 -0.140389 -0.046553
v 0.063426 -0.195740 0.070574
v 0.063426 -0.195740 -0.070574
v -0.063426 -0.195740 -0.070574
v -0.063426 -0.195740 0.070574
v 0.051959 -0.285342 0.063376
v 0.051959 -0.285342 -0.063376
v -0.051959 -0.285342 -0.063376
v -0.051959 -0.285342 0.063376
v 0.056122 -0.139829 -0.000000
v -0.000000 -0.149847 -0.054595
v -0.056122 -0.139829 -0.000000
v -0.000000 -0.149847 0.054595
v 0.104940 -0.178190 -0.000000
v -0.000000 -0.198300 -0.048081
v -0.104940 -0.178190 -0.000000
v -0.000000 -0.198300 0.048081
v 0.066382 -0.309962 -0.000000
v -0.000000 -0.247262 -0.044514
v -0.066382 -0.309962 -0.000000
v -0.000000 -0.247262 0.044514
v 0.065735 -0.228932 -0.076613
v -0.065735 -0.228932 -0.076613
v -0.065735 -0.228932 0.076613
v 0.065735 -0.228932 0.076613
v -0.000000 -0.223367 0.051540
v 0.116185 -0.232289 -0.000000
v -0.116185 -0.232289 -0.000000
v -0.000000 -0.283804 -0.000000
v -0.000000 -0.223367 -0.051540
v 0.056045 -0.141580 -0.023662
v -0.019560 -0.150059 -0.054825
v -0.056045 -0.141580 0.023661
v 0.019560 -0.150059 0.054825
v 0.098807 -0.180131 -0.045180
v -0.028975 -0.193306 -0.067292
v -0.098807 -0.180131 0.045180
v 0.028975 -0.193306 0.067291
v 0.061214 -0.303933 -0.034593
v -0.017289 -0.279837 -0.052085
v -0.061214 -0.303933 0.034593
v 0.017289 -0.279837 0.052085
v 0.058935 -0.259978 -0.073570
v 0.058935 -0.259978 0.073570
v 0.056045 -0.141580 0.023661
v 0.019560 -0.150059 -0.054825
v -0.056045 -0.141580 -0.023662
v -0.019560 -0.150059 0.054825
v 0.098807 -0.180132 0.045180
v 0.028975 -0.193306 -0.067292
v -0.098807 -0.180131 -0.045180
v -0.028975 -0.193306 0.067291
v 0.051341 -0.169721 0.061100
v 0.051341 -0.169721 -0.061100
v -0.051341 -0.169721 0.061100
v -0.051341 -0.169721 -0.061100
v 0.061214 -0.303933 0.034593
v 0.017289 -0.279837 -0.052085
v -0.061214 -0.303933 -0.034593
v -0.017289 -0.279837 0.052085
v -0.058935 -0.259978 -0.073570
v -0.058935 -0.259978 0.073570
v -0.000000 -0.235744 0.049520
v 0.028798 -0.227975 0.071623
v -0.028798 -0.227975 0.071623
v 0.104590 -0.276837 -0.000000
v 0.109287 -0.234114 -0.047594
v 0.109287 -0.234114 0.047593
v -0.104590 -0.276837 -0.000000
v -0.109287 -0.234114 0.047593
v -0.109287 -0.234114 -0.047594
v -0.000000 -0.270657 0.028659
v -0.000000 -0.270657 -0.028659
v -0.023877 -0.307941 -0.000000
v 0.023877 -0.307941 -0.000000
v -0.076916 -0.155938 -0.000000
v -0.000000 -0.174656 -0.051229
v -0.000000 -0.174656 0.051229
v -0.000000 -0.235744 -0.049520
v -0.028798 -0.227975 -0.071623
v 0.028798 -0.227975 -0.071623
v 0.076916 -0.155938 -0.000000
v -0.074027 -0.157793 0.034800
v 0.074027 -0.157793 0.034800
v -0.023312 -0.248058 -0.065208
v -0.023460 -0.171165 0.061082
v 0.023460 -0.171165 -0.061082
v -0.074027 -0.157793 -0.034800
v 0.021307 -0.301138 -0.029987
v -0.021307 -0.301138 -0.029987
v -0.021307 -0.301138 0.029987
v -0.093898 -0.273522 0.047422
v 0.093898 -0.273522 -0.047422
v 0.023312 -0.248058 0.065208
v -0.023312 -0.248058 0.065208
v 0.093898 -0.273522 0.047422
v -0.093898 -0.273522 -0.047422
v 0.021307 -0.301138 0.029987
v -0.023460 -0.171165 -0.061082
v 0.023460 -0.171165 0.061082
v 0.074027 -0.157793 -0.034800
v 0.023312 -0.248058 -0.065208
v 0.038440 0.188156 0.038174
v 0.038440 0.188156 -0.038174
v -0.038440 0.188156 -0.038174
v -0.038440 0.188156 0.038174
v 0.000000 0.188156 0.049791
v -0.049789 0.188156 0.000000
v 0.000000 0.188156 -0.049791
v 0.049789 0.188156 0.000000
v 0.018426 0.188156 0.049769
v -0.018426 0.188156 0.049769
v -0.050011 0.188156 0.017717
v -0.050011 0.188156 -0.017717
v -0.018426 0.188156 -0.049769
v 0.018426 0.188156 -0.049769
v 0.050011 0.188156 -0.017717
v 0.050011 0.188156 0.017717
v -0.089941 0.207780 0.031927
v -0.089941 1.252391 0.031927
v -0.089941 0.207780 -0.031927
v -0.089941 1.252391 -0.031927
v 0.077910 0.207780 0.031927
v -0.104579 1.335843 -0.000000
v 0.077910 0.207780 -0.031927
v -0.104579 0.192564 -0.000000
v -0.048524 1.222499 0.031927
v 0.073602 1.009098 0.031927
v 0.060971 1.056136 0.031927
v 0.040879 1.109950 0.031927
v 0.014693 1.156596 0.031927
v -0.015800 1.193750 0.031927
v -0.048524 1.222499 -0.031927
v -0.015800 1.193750 -0.031927
v 0.014693 1.156596 -0.031927
v 0.040879 1.109950 -0.031927
v 0.060971 1.056136 -0.031927
v 0.073602 1.009098 -0.031927
v 0.104579 0.192564 -0.000000
v -0.052970 1.319310 -0.000000
v -0.001751 1.277409 -0.000000
v 0.044209 1.223714 -0.000000
v 0.076216 1.159996 -0.000000
v 0.101809 1.092942 -0.000000
v 0.114770 1.045836 -0.000000
v 0.143128 0.239178 0.058673
v 0.051698 0.099068 0.021193
v 0.143128 0.239178 -0.058673
v 0.051698 0.099068 -0.021193
v -0.143128 0.239178 0.058673
v -0.051698 0.099068 0.021193
v -0.143128 0.239178 -0.058673
v -0.051698 0.099068 -0.021193
v 0.128066 0.128138 -0.052498
v 0.128066 0.128138 0.052498
v -0.169279 0.207171 0.069393
v 0.169279 0.207171 0.069393
v -0.128066 0.128138 0.052498
v -0.169279 0.207171 -0.069393
v -0.128066 0.128138 -0.052498
v 0.169279 0.207171 -0.069393
v -0.076839 0.128138 0.084452
v 0.076839 0.128138 0.084452
v -0.101568 0.207171 0.111630
v 0.101568 0.207171 0.111630
v 0.076839 0.128138 -0.084452
v -0.076839 0.128138 -0.084452
v 0.101568 0.207171 -0.111630
v -0.101568 0.207171 -0.111630
v -0.085877 0.239178 -0.094385
v 0.085877 0.239178 -0.094385
v 0.031019 0.099068 -0.027379
v -0.031019 0.099068 -0.027379
v 0.085877 0.239178 0.094385
v -0.085877 0.239178 0.094385
v -0.031019 0.099068 0.027379
v 0.031019 0.099068 0.027379
v 0.000000 0.288209 0.000000
v 0.076892 0.969071 0.031927
v 0.076892 0.969071 -0.031927
v 0.118111 0.998268 -0.000000
v 0.118640 0.921179 -0.000000
v 0.077365 0.615741 -0.031927
v 0.077365 0.615741 0.031927
v 0.112567 0.651894 -0.000000
v 0.111729 0.579739 -0.000000
v 0.038727 -0.115418 0.038931
v 0.049799 -0.102378 0.049454
v 0.038727 -0.115418 -0.038931
v 0.049799 -0.102378 -0.049454
v -0.038727 -0.115418 -0.038931
v -0.049799 -0.102378 -0.049454
v -0.038727 -0.115418 0.038931
v -0.049799 -0.102378 0.049454
v 0.000000 -0.115454 0.050177
v 0.000000 -0.102378 0.064504
v -0.050365 -0.115406 0.000000
v -0.064501 -0.102378 0.000000
v 0.000000 -0.115454 -0.050177
v 0.000000 -0.102378 -0.064504
v 0.050365 -0.115406 0.000000
v 0.064501 -0.102378 0.000000
v 0.023870 -0.102378 0.064476
v 0.018516 -0.115453 0.050174
v -0.023870 -0.102378 0.064476
v -0.018516 -0.115453 0.050174
v -0.064789 -0.102378 0.022953
v -0.050547 -0.115409 0.018245
v -0.064789 -0.102378 -0.022952
v -0.050547 -0.115409 -0.018245
v -0.023870 -0.102378 -0.064475
v -0.018516 -0.115453 -0.050174
v 0.023870 -0.102378 -0.064475
v 0.018516 -0.115453 -0.050174
v 0.064789 -0.102378 -0.022952
v 0.050547 -0.115409 -0.018245
v 0.064789 -0.102378 0.022953
v 0.050547 -0.115409 0.018245
v 0.057199 0.035234 0.020264
v 0.056131 0.056229 0.019885
v 0.047271 0.045731 0.016746
v 0.043144 0.056229 0.042846
v 0.043965 0.035234 0.043661
v 0.036334 0.045731 0.036082
v 0.021074 0.035234 0.056923
v 0.020680 0.056229 0.055860
v 0.017416 0.045731 0.047042
v 0.021074 0.035234 -0.056923
v 0.020680 0.056229 -0.055860
v 0.017416 0.045731 -0.047042
v 0.043144 0.056229 -0.042846
v 0.043965 0.035234 -0.043661
v 0.036334 0.045731 -0.036082
v 0.057199 0.035234 -0.020264
v 0.056131 0.056229 -0.019885
v 0.047271 0.045731 -0.016746
v -0.057199 0.035234 -0.020264
v -0.056131 0.056229 -0.019885
v -0.047271 0.045731 -0.016746
v -0.043144 0.056229 -0.042846
v -0.043965 0.035234 -0.043661
v -0.036334 0.045731 -0.036082
v -0.021074 0.035234 -0.056923
v -0.020680 0.056229 -0.055860
v -0.017416 0.045731 -0.047042
v -0.021074 0.035234 0.056923
v -0.020680 0.056229 0.055860
v -0.017416 0.045731 0.047042
v -0.043144 0.056229 0.042846
v -0.043965 0.035234 0.043661
v -0.036334 0.045731 0.036082
v -0.057199 0.035234 0.020264
v -0.056131 0.056229 0.019885
v -0.047271 0.045731 0.016746
v 0.000000 0.056229 0.055884
v 0.000000 0.035234 0.056948
v 0.000000 0.045731 0.047063
v -0.055882 0.056229 0.000000
v -0.056945 0.035234 0.000000
v -0.047061 0.045731 0.000000
v 0.000000 0.056229 -0.055884
v 0.000000 0.035234 -0.056948
v 0.000000 0.045731 -0.047063
v 0.056945 0.035234 0.000000
v 0.055882 0.056229 0.000000
v 0.047061 0.045731 0.000000
v 0.047087 -0.044622 0.046761
v 0.046266 -0.023627 0.045946
v 0.038938 -0.034124 0.038669
v 0.022177 -0.023627 0.059902
v 0.022570 -0.044622 0.060965
v 0.018664 -0.034124 0.050414
v 0.047087 -0.044622 -0.046761
v 0.046266 -0.023627 -0.045946
v 0.038938 -0.034124 -0.038669
v 0.060193 -0.023627 -0.021324
v 0.061261 -0.044622 -0.021703
v 0.050659 -0.034124 -0.017947
v -0.047087 -0.044622 -0.046761
v -0.046266 -0.023627 -0.045946
v -0.038938 -0.034124 -0.038669
v -0.022177 -0.023627 -0.059902
v -0.022570 -0.044622 -0.060965
v -0.018664 -0.034124 -0.050414
v -0.047087 -0.044622 0.046761
v -0.046266 -0.023627 0.045946
v -0.038938 -0.034124 0.038669
v -0.060193 -0.023627 0.021324
v -0.061261 -0.044622 0.021703
v -0.050659 -0.034124 0.017947
v 0.000000 -0.044622 0.060991
v 0.000000 -0.023627 0.059928
v 0.000000 -0.034124 0.050436
v -0.060989 -0.044622 0.000000
v -0.059926 -0.023627 0.000000
v -0.050434 -0.034124 0.000000
v 0.000000 -0.044622 -0.060991
v 0.000000 -0.023627 -0.059928
v 0.000000 -0.034124 -0.050436
v 0.059926 -0.023627 0.000000
v 0.060989 -0.044622 0.000000
v 0.050434 -0.034124 0.000000
v 0.060193 -0.023627 0.021324
v 0.061261 -0.044622 0.021703
v 0.050659 -0.034124 0.017947
v 0.022177 -0.023627 -0.059902
v 0.022570 -0.044622 -0.060965
v 0.018664 -0.034124 -0.050414
v -0.060193 -0.023627 -0.021324
v -0.061261 -0.044622 -0.021703
v -0.050659 -0.034124 -0.017947
v -0.022177 -0.023627 0.059902
v -0.022570 -0.044622 0.060965
v -0.018664 -0.034124 0.050414
v 0.129201 0.307388 -0.045413
v 0.129201 0.307388 0.045413
v 0.085877 0.307388 -0.075800
v -0.129201 0.307388 0.045413
v -0.129201 0.307388 -0.045413
v -0.085877 0.307388 0.075800
v -0.085877 0.307388 -0.075800
v 0.085877 0.307388 0.075800
vt 0.375000 0.125000
vt 0.625000 0.125000
vt 0.625000 0.250000
vt 0.375000 0.250000
vt 0.813313 0.500000
vt 0.875000 0.500000
vt 0.875000 0.625000
vt 0.813313 0.625000
vt 0.125000 0.625000
vt 0.375000 0.625000
vt 0.375000 0.750000
vt 0.125000 0.750000
vt 0.595547 0.497861
vt 0.595547 0.625000
vt 0.587517 0.625000
vt 0.590901 0.498827
vt 0.813313 0.750000
vt 0.717598 0.796525
vt 0.717598 0.625000
vt 0.685996 0.781385
vt 0.685996 0.625000
vt 0.621120 0.768385
vt 0.621120 0.625000
vt 0.605131 0.758410
vt 0.605131 0.625000
vt 0.595547 0.752139
vt 0.478887 0.625000
vt 0.478663 0.750000
vt 0.875000 0.750000
vt 0.496786 0.750661
vt 0.590901 0.751173
vt 0.625000 0.938313
vt 0.625000 1.000000
vt 0.375000 1.000000
vt 0.605131 0.491590
vt 0.621120 0.481615
vt 0.685996 0.468615
vt 0.717598 0.453475
vt 0.375000 0.500000
vt 0.478663 0.500000
vt 0.125000 0.500000
vt 0.375000 0.000000
vt 0.625000 0.000000
vt 0.579310 0.625000
vt 0.579191 0.500000
vt 0.490181 0.500000
vt 0.491059 0.625000
vt 0.579191 0.750000
vt 0.490181 0.750000
vt 0.625000 0.311687
vt 0.625000 0.000000
vt 0.625000 0.250000
vt 0.562500 0.250000
vt 0.562500 0.000000
vt 0.375000 0.500000
vt 0.437500 0.500000
vt 0.437500 0.750000
vt 0.375000 0.750000
vt 0.562500 0.500000
vt 0.625000 0.500000
vt 0.625000 0.750000
vt 0.562500 0.750000
vt 0.375000 0.950000
vt 0.437500 0.950000
vt 0.437500 1.000000
vt 0.375000 1.000000
vt 0.437500 0.000000
vt 0.437500 0.250000
vt 0.375000 0.250000
vt 0.375000 0.000000
vt 0.562500 0.950000
vt 0.625000 0.950000
vt 0.625000 1.000000
vt 0.562500 1.000000
vt 0.375000 0.450000
vt 0.437500 0.450000
vt 0.562500 0.450000
vt 0.625000 0.450000
vt 0.825000 0.500000
vt 0.875000 0.500000
vt 0.875000 0.750000
vt 0.825000 0.750000
vt 0.375000 0.300000
vt 0.375000 0.450000
vt 0.375000 0.300000
vt 0.375000 0.250000
vt 0.375000 0.000000
vt 0.375000 0.800000
vt 0.375000 0.950000
vt 0.375000 0.800000
vt 0.562500 0.300000
vt 0.437500 0.300000
vt 0.675000 0.500000
vt 0.675000 0.750000
vt 0.562500 0.800000
vt 0.437500 0.800000
vt 0.625000 0.300000
vt 0.625000 0.800000
vt 0.375000 0.750000
vt 0.375000 0.500000
vt 0.375000 1.000000
vt 0.174573 0.664656
vt 0.125000 0.750000
vt 0.125000 0.500000
vt 0.174573 0.585344
vt 0.175000 0.500000
vt 0.325427 0.585344
vt 0.325427 0.664656
vt 0.325000 0.750000
vt 0.315448 0.574836
vt 0.325000 0.500000
vt 0.184552 0.574836
vt 0.184552 0.675164
vt 0.175000 0.750000
vt 0.315448 0.675164
vt 0.511096 0.187500
vt 0.625000 0.187500
vt 0.625000 0.250000
vt 0.511296 0.250000
vt 0.511096 0.562500
vt 0.625000 0.562500
vt 0.625000 0.625000
vt 0.511363 0.625000
vt 0.511097 0.687500
vt 0.625000 0.687500
vt 0.625000 0.750000
vt 0.511296 0.750000
vt 0.511096 0.062500
vt 0.625000 0.062500
vt 0.625000 0.125000
vt 0.511363 0.125000
vt 0.510012 0.812500
vt 0.625000 0.812500
vt 0.625000 0.875000
vt 0.510039 0.875000
vt 0.510012 0.312500
vt 0.625000 0.312500
vt 0.625000 0.375000
vt 0.510039 0.375000
vt 0.625000 0.937500
vt 0.510012 0.937500
vt 0.510012 0.437500
vt 0.625000 0.437500
vt 0.625000 0.500000
vt 0.511296 0.500000
vt 0.625000 0.312500
vt 0.625000 0.250000
vt 0.625000 0.250000
vt 0.625000 0.312500
vt 0.625000 0.187500
vt 0.625000 0.125000
vt 0.625000 0.125000
vt 0.625000 0.187500
vt 0.625000 0.937500
vt 0.625000 0.875000
vt 0.625000 0.875000
vt 0.625000 0.937500
vt 0.625000 0.437500
vt 0.625000 0.375000
vt 0.625000 0.375000
vt 0.625000 0.437500
vt 0.812500 0.687500
vt 0.875000 0.687500
vt 0.875000 0.750000
vt 0.812500 0.750000
vt 0.625000 0.562500
vt 0.625000 0.500000
vt 0.625000 0.500000
vt 0.625000 0.562500
vt 0.625000 0.062500
vt 0.625000 0.000000
vt 0.625000 0.000000
vt 0.625000 0.062500
vt 0.625000 0.812500
vt 0.625000 0.750000
vt 0.625000 0.750000
vt 0.625000 0.812500
vt 0.625000 0.937500
vt 0.625000 0.875000
vt 0.625000 0.875000
vt 0.625000 0.937500
vt 0.625000 1.000000
vt 0.625000 0.937500
vt 0.625000 1.000000
vt 0.625000 0.187500
vt 0.625000 0.125000
vt 0.625000 0.125000
vt 0.625000 0.187500
vt 0.625000 0.812500
vt 0.625000 0.812500
vt 0.625000 0.875000
vt 0.625000 0.250000
vt 0.625000 0.187500
vt 0.625000 0.250000
vt 0.625000 0.687500
vt 0.625000 0.625000
vt 0.625000 0.625000
vt 0.625000 0.687500
vt 0.625000 0.062500
vt 0.625000 0.062500
vt 0.625000 0.125000
vt 0.625000 0.750000
vt 0.625000 0.687500
vt 0.625000 0.687500
vt 0.625000 0.750000
vt 0.687500 0.687500
vt 0.750000 0.687500
vt 0.750000 0.750000
vt 0.687500 0.750000
vt 0.687500 0.562500
vt 0.750000 0.562500
vt 0.750000 0.625000
vt 0.687500 0.625000
vt 0.812500 0.562500
vt 0.875000 0.562500
vt 0.875000 0.625000
vt 0.812500 0.625000
vt 0.625000 0.562500
vt 0.625000 0.500000
vt 0.625000 0.500000
vt 0.625000 0.562500
vt 0.625000 0.312500
vt 0.625000 0.250000
vt 0.625000 0.312500
vt 0.625000 0.812500
vt 0.625000 0.750000
vt 0.625000 0.437500
vt 0.625000 0.375000
vt 0.625000 0.375000
vt 0.625000 0.437500
vt 0.625000 0.625000
vt 0.625000 0.562500
vt 0.625000 0.625000
vt 0.625000 0.437500
vt 0.625000 0.500000
vt 0.625000 0.062500
vt 0.625000 0.000000
vt 0.625000 0.000000
vt 0.625000 0.687500
vt 0.625000 0.625000
vt 0.625000 0.000000
vt 0.511296 0.000000
vt 0.625000 0.312500
vt 0.625000 0.375000
vt 0.750000 0.500000
vt 0.812500 0.500000
vt 0.875000 0.500000
vt 0.687500 0.500000
vt 0.625000 0.000000
vt 0.625000 1.000000
vt 0.625000 1.000000
vt 0.625000 1.000000
vt 0.625000 1.000000
vt 0.500000 0.937500
vt 0.500000 0.000000
vt 0.500000 0.062500
vt 0.500000 0.125000
vt 0.500000 0.187500
vt 0.500000 0.250000
vt 0.500000 0.312500
vt 0.500000 0.375000
vt 0.500000 0.437500
vt 0.500000 0.500000
vt 0.500000 0.562500
vt 0.500000 0.625000
vt 0.500000 0.687500
vt 0.500000 0.750000
vt 0.500000 0.812500
vt 0.500000 0.875000
vt 0.511296 1.000000
vt 0.500000 0.500000
vt 0.500000 0.500000
vt 0.500000 0.437500
vt 0.500000 0.437500
vt 0.500000 0.250000
vt 0.500000 0.250000
vt 0.500000 0.187500
vt 0.500000 0.187500
vt 0.500000 1.000000
vt 0.500000 1.000000
vt 0.500000 0.937500
vt 0.500000 0.937500
vt 0.500000 0.750000
vt 0.500000 0.750000
vt 0.500000 0.687500
vt 0.500000 0.687500
vt 0.500000 0.125000
vt 0.500000 0.125000
vt 0.500000 1.000000
vt 0.500000 1.000000
vt 0.500000 0.937500
vt 0.500000 0.250000
vt 0.500000 0.187500
vt 0.500000 0.500000
vt 0.500000 0.437500
vt 0.500000 0.750000
vt 0.500000 0.687500
vt 0.500000 0.875000
vt 0.500000 0.875000
vt 0.500000 0.812500
vt 0.500000 0.812500
vt 0.500000 0.625000
vt 0.500000 0.625000
vt 0.500000 0.562500
vt 0.500000 0.562500
vt 0.500000 0.375000
vt 0.500000 0.375000
vt 0.500000 0.312500
vt 0.500000 0.312500
vt 0.500000 0.062500
vt 0.500000 0.062500
vt 0.500000 1.000000
vt 0.500000 0.937500
vt 0.500000 0.875000
vt 0.500000 0.812500
vt 0.500000 0.750000
vt 0.500000 0.687500
vt 0.500000 0.625000
vt 0.500000 0.562500
vt 0.500000 0.500000
vt 0.500000 0.437500
vt 0.500000 0.375000
vt 0.500000 0.312500
vt 0.500000 0.250000
vt 0.500000 0.187500
vt 0.500000 0.125000
vt 0.500000 0.062500
vt 0.500000 0.000000
vt 0.500000 0.312500
vt 0.500000 0.062500
vt 0.500000 0.000000
vt 0.500000 0.812500
vt 0.500000 0.125000
vt 0.500000 0.062500
vt 0.500000 0.375000
vt 0.500000 0.625000
vt 0.500000 0.562500
vt 0.500000 0.875000
vt 0.500000 0.000000
vt 0.500000 0.000000
vt 0.500000 0.437500
vt 0.500000 0.375000
vt 0.500000 0.187500
vt 0.500000 0.125000
vt 0.500000 0.937500
vt 0.500000 0.875000
vt 0.500000 0.687500
vt 0.500000 0.625000
vt 0.500000 0.562500
vt 0.500000 0.500000
vt 0.500000 0.312500
vt 0.500000 0.750000
vt 0.500000 0.250000
vt 0.500000 1.000000
vt 0.500000 0.812500
vt 0.500000 0.875000
vt 0.500000 0.937500
vt 0.500000 0.625000
vt 0.500000 0.687500
vt 0.500000 0.375000
vt 0.500000 0.437500
vt 0.500000 0.000000
vt 0.500000 0.000000
vt 0.500000 0.062500
vt 0.500000 0.250000
vt 0.500000 0.312500
vt 0.500000 0.500000
vt 0.500000 0.562500
vt 0.500000 0.750000
vt 0.500000 0.812500
vt 0.500000 0.125000
vt 0.500000 0.187500
vt 0.500000 1.000000
vt 0.500000 0.437500
vt 0.500000 0.500000
vt 0.500000 0.187500
vt 0.500000 0.250000
vt 0.500000 0.937500
vt 0.500000 1.000000
vt 0.500000 0.687500
vt 0.500000 0.750000
vt 0.500000 0.125000
vt 0.500000 0.062500
vt 0.500000 0.312500
vt 0.500000 0.375000
vt 0.500000 0.562500
vt 0.500000 0.625000
vt 0.500000 0.812500
vt 0.500000 0.875000
vt 0.500000 0.000000
vn -0.9090 0.0000 -0.4168
vn 0.2351 0.3203 -0.9177
vn 0.1722 0.3451 -0.9227
vn 0.2004 0.3342 -0.9210
vn 0.0000 -0.9027 0.4302
vn 0.5675 0.0797 -0.8195
vn 0.5479 0.1096 -0.8293
vn 0.5894 0.0446 -0.8066
vn 0.2004 0.3342 0.9210
vn 0.2351 0.3203 0.9177
vn 0.3123 0.2919 0.9040
vn 0.2844 0.3016 0.9100
vn 0.4035 0.2495 0.8803
vn 0.3699 0.2667 0.8900
vn 0.4757 0.2034 0.8557
vn 0.4585 0.2162 0.8620
vn 0.5143 0.1602 0.8425
vn 0.5077 0.1705 0.8445
vn 0.5675 0.0797 0.8195
vn 0.5479 0.1096 0.8293
vn 0.7205 -0.0060 0.6935
vn 0.1722 0.3451 0.9227
vn 0.0000 0.0000 1.0000
vn 0.5143 0.1602 -0.8425
vn 0.5077 0.1705 -0.8445
vn 0.4757 0.2034 -0.8557
vn 0.4585 0.2162 -0.8620
vn 0.4035 0.2495 -0.8803
vn 0.3699 0.2667 -0.8900
vn 0.3123 0.2919 -0.9040
vn 0.2844 0.3016 -0.9100
vn 0.7205 -0.0060 -0.6935
vn 0.0000 -0.9027 -0.4302
vn -0.9090 0.0000 0.4168
vn 0.7538 0.6571 0.0000
vn 0.5780 -0.8160 0.0000
vn 0.5894 0.0446 0.8066
vn 0.6381 -0.0057 -0.7700
vn 0.6381 -0.0057 0.7700
vn 0.7165 -0.6976 0.0000
vn 0.7234 0.6905 0.0000
vn -0.0000 -0.0000 -1.0000
vn 0.1875 -0.9725 0.1383
vn 0.1875 -0.9725 -0.1383
vn 0.2842 -0.9453 -0.1600
vn 0.2842 -0.9453 0.1600
vn -0.8883 0.4593 0.0000
vn -0.7744 0.6327 0.0000
vn -0.2842 -0.9453 -0.1600
vn -0.1875 -0.9725 -0.1383
vn -0.1875 -0.9725 0.1383
vn -0.2842 -0.9453 0.1600
vn 0.2262 0.4146 0.8814
vn 0.2615 0.5540 0.7904
vn 0.4302 0.5825 0.6897
vn 0.4829 0.4434 0.7551
vn 0.7744 0.6327 0.0000
vn 0.8883 0.4593 0.0000
vn 0.8867 -0.4624 -0.0000
vn 0.1188 -0.9137 0.3887
vn 0.0369 -0.9718 0.2328
vn -0.8867 -0.4624 -0.0000
vn -0.2262 0.4146 -0.8814
vn -0.2615 0.5540 -0.7904
vn -0.4302 0.5825 -0.6897
vn -0.4829 0.4434 -0.7551
vn -0.1188 -0.9137 -0.3887
vn -0.0369 -0.9718 -0.2328
vn 0.2800 -0.3894 0.8775
vn 0.2221 -0.3785 0.8986
vn 0.4813 -0.4159 0.7716
vn 0.0369 -0.9718 -0.2328
vn -0.2800 -0.3894 -0.8775
vn -0.2221 -0.3785 -0.8986
vn -0.4813 -0.4159 -0.7716
vn 0.2262 0.4146 -0.8814
vn -0.2900 0.2631 -0.9202
vn 0.2900 0.2631 -0.9202
vn 0.9798 0.2001 0.0000
vn -0.2262 0.4146 0.8814
vn 0.2900 0.2631 0.9202
vn -0.2900 0.2631 0.9202
vn 0.4813 -0.4159 -0.7716
vn 0.2221 -0.3785 -0.8986
vn 0.2800 -0.3894 -0.8775
vn -0.0369 -0.9718 0.2328
vn -0.4813 -0.4159 0.7716
vn -0.2221 -0.3785 0.8986
vn -0.2800 -0.3894 0.8775
vn 0.1188 -0.9137 -0.3887
vn 0.4829 0.4434 -0.7551
vn 0.4302 0.5825 -0.6897
vn 0.2615 0.5540 -0.7904
vn -0.1188 -0.9137 0.3887
vn -0.4829 0.4434 0.7551
vn -0.4302 0.5825 0.6897
vn -0.2615 0.5540 0.7904
vn -0.9798 0.2001 0.0000
vn 0.5327 0.2436 0.8105
vn -0.5327 0.2436 0.8105
vn -0.5327 0.2436 -0.8105
vn 0.5327 0.2436 -0.8105
vn 0.0000 1.0000 0.0000
vn -0.1256 0.9902 -0.0608
vn -0.1256 0.9902 0.0608
vn -0.0693 0.9830 0.1702
vn 0.1256 0.9902 0.0608
vn 0.1256 0.9902 -0.0608
vn 0.0693 0.9830 -0.1702
vn 0.0693 0.9830 0.1702
vn -0.0693 0.9830 -0.1702
vn 0.9398 0.2460 -0.2370
vn 0.7809 0.5466 -0.3023
vn 0.4875 0.4041 -0.7740
vn 0.6486 0.2505 -0.7187
vn -0.9398 0.2460 -0.2370
vn -0.7809 0.5466 -0.3023
vn -0.8559 0.5171 0.0000
vn -0.9760 0.2178 0.0000
vn -0.9398 0.2460 0.2370
vn -0.7809 0.5466 0.3023
vn -0.4875 0.4041 0.7740
vn -0.6486 0.2505 0.7187
vn 0.9398 0.2460 0.2370
vn 0.7809 0.5466 0.3023
vn 0.8559 0.5171 0.0000
vn 0.9760 0.2178 0.0000
vn -0.1864 0.1741 0.9669
vn -0.0221 0.2053 0.9785
vn 0.0000 0.0875 0.9962
vn 0.0000 0.1302 0.9915
vn 0.1864 0.1741 -0.9669
vn 0.0221 0.2053 -0.9785
vn -0.0000 0.0875 -0.9962
vn -0.0000 0.1302 -0.9915
vn 0.0221 0.2053 0.9785
vn 0.1864 0.1741 0.9669
vn -0.1864 0.1741 -0.9669
vn -0.0221 0.2053 -0.9785
vn -0.4875 0.4041 -0.7740
vn -0.6486 0.2505 -0.7187
vn -0.4544 -0.1915 -0.8700
vn -0.2656 -0.2149 -0.9398
vn 0.0151 -0.6116 -0.7910
vn -0.5513 -0.4980 -0.6694
vn 0.5668 0.7232 -0.3946
vn 0.6297 0.7768 0.0000
vn 0.8593 0.5115 0.0000
vn 0.8647 0.4837 -0.1353
vn -0.1890 0.1888 0.9637
vn 0.0000 0.0200 0.9998
vn -0.5270 0.0597 0.8478
vn -0.2890 0.1558 0.9446
vn 0.1890 0.1888 -0.9637
vn -0.0000 0.0200 -0.9998
vn 0.5270 0.0597 -0.8478
vn 0.2890 0.1558 -0.9446
vn -0.1442 -0.9084 0.3925
vn 0.2359 -0.8765 0.4197
vn 0.0151 -0.6116 0.7910
vn -0.5513 -0.4980 0.6694
vn -0.6981 -0.4916 -0.5206
vn -0.4971 -0.3744 -0.7828
vn -0.0151 -0.6116 -0.7910
vn -0.2359 -0.8765 -0.4197
vn 0.6981 -0.4916 0.5206
vn 0.4971 -0.3744 0.7828
vn 0.4544 -0.1915 0.8700
vn 0.2656 -0.2149 0.9398
vn -0.0151 -0.6116 0.7910
vn 0.5513 -0.4980 0.6694
vn -0.4544 -0.1915 0.8700
vn -0.6163 -0.1543 0.7723
vn -0.7052 -0.2788 0.6519
vn 0.2355 0.2944 0.9262
vn -0.3515 0.0001 0.9362
vn 0.2338 -0.0059 0.9723
vn 0.6981 -0.4916 -0.5206
vn 0.8372 -0.5469 -0.0000
vn 0.6459 -0.7634 -0.0000
vn 0.2359 -0.8765 -0.4197
vn 0.5270 0.0597 0.8478
vn 0.2890 0.1558 0.9446
vn 0.3515 0.0001 0.9362
vn 0.5755 0.0078 0.8178
vn 0.2355 0.2944 -0.9262
vn 0.4696 0.3841 -0.7949
vn 0.5469 -0.0243 -0.8369
vn 0.2338 -0.0059 -0.9723
vn -0.6981 -0.4916 0.5206
vn -0.8372 -0.5469 0.0000
vn -0.6459 -0.7634 -0.0000
vn -0.2359 -0.8765 0.4197
vn 0.8647 0.4837 0.1353
vn 0.9838 -0.0645 0.1672
vn 0.9989 -0.0472 -0.0000
vn -0.2355 0.2944 0.9262
vn -0.4696 0.3841 0.7949
vn -0.5469 -0.0243 0.8369
vn -0.2338 -0.0059 0.9723
vn 0.7820 -0.5644 0.2645
vn 0.7941 -0.5043 0.3393
vn 0.7052 -0.2788 0.6519
vn 0.7820 -0.5644 -0.2645
vn 0.7941 -0.5043 -0.3393
vn 0.7727 -0.6348 0.0000
vn -0.1442 -0.9084 -0.3925
vn -0.0689 -0.9976 -0.0000
vn -0.5668 0.7232 -0.3946
vn -0.2184 0.4868 -0.8458
vn -0.2355 0.2944 -0.9262
vn -0.4696 0.3841 -0.7949
vn -0.1890 0.1888 -0.9637
vn 0.2184 0.4868 -0.8458
vn -0.2890 0.1558 -0.9446
vn 0.1890 0.1888 0.9637
vn -0.2184 0.4868 0.8458
vn 0.4544 -0.1915 -0.8700
vn 0.6163 -0.1543 -0.7723
vn 0.7052 -0.2788 -0.6519
vn 0.5513 -0.4980 -0.6694
vn -0.8593 0.5115 0.0000
vn -0.8647 0.4837 -0.1353
vn -0.9838 -0.0645 -0.1672
vn -0.9989 -0.0472 0.0000
vn 0.3515 0.0001 -0.9362
vn -0.2338 -0.0059 -0.9723
vn 0.5668 0.7232 0.3946
vn 0.2184 0.4868 0.8458
vn 0.4696 0.3841 0.7949
vn -0.5668 0.7232 0.3946
vn -0.6297 0.7768 0.0000
vn -0.8647 0.4837 0.1353
vn 0.4875 0.4041 0.7740
vn 0.6486 0.2505 0.7187
vn -0.3515 0.0001 -0.9362
vn 0.5755 0.0078 -0.8178
vn 0.2656 -0.2149 -0.9398
vn -0.5270 0.0597 -0.8478
vn -0.7941 -0.5043 -0.3393
vn -0.7820 -0.5644 -0.2645
vn -0.7727 -0.6348 -0.0000
vn -0.7052 -0.2788 -0.6519
vn 0.1442 -0.9084 -0.3925
vn 0.0689 -0.9976 -0.0000
vn 0.1442 -0.9084 0.3925
vn -0.5469 -0.0243 -0.8369
vn -0.9838 -0.0645 0.1672
vn -0.4971 -0.3744 0.7828
vn 0.5469 -0.0243 0.8369
vn 0.9838 -0.0645 -0.1672
vn 0.4971 -0.3744 -0.7828
vn -0.5755 0.0078 0.8178
vn -0.2656 -0.2149 0.9398
vn 0.6163 -0.1543 0.7723
vn -0.7941 -0.5043 0.3393
vn -0.7820 -0.5644 0.2645
vn -0.6163 -0.1543 -0.7723
vn -0.5755 0.0078 -0.8178
vn -0.7097 0.0550 -0.7024
vn -0.2589 0.0537 -0.9644
vn -0.2605 0.0537 -0.9640
vn 0.7097 0.0550 -0.7024
vn 0.9674 0.0537 -0.2473
vn 0.9670 0.0537 -0.2489
vn 0.7097 0.0550 0.7024
vn 0.2589 0.0537 0.9644
vn 0.2605 0.0537 0.9640
vn -0.7097 0.0550 0.7024
vn -0.9674 0.0537 0.2473
vn -0.9670 0.0537 0.2489
vn 0.9987 0.0506 -0.0000
vn 0.7098 0.0502 0.7026
vn 0.7099 0.0502 0.7025
vn 0.2591 0.0490 0.9646
vn 0.2605 0.0490 0.9642
vn 0.7098 0.0502 -0.7026
vn 0.7099 0.0502 -0.7025
vn 0.9677 0.0490 -0.2475
vn 0.9673 0.0490 -0.2489
vn -0.7098 0.0502 -0.7026
vn -0.7099 0.0502 -0.7025
vn -0.2591 0.0490 -0.9646
vn -0.2605 0.0490 -0.9642
vn -0.7098 0.0502 0.7026
vn -0.7099 0.0502 0.7025
vn -0.9677 0.0490 0.2475
vn -0.9673 0.0490 0.2489
vn -0.0000 0.0506 0.9987
vn -0.2589 0.0537 0.9644
vn -0.2605 0.0537 0.9640
vn -0.9987 0.0506 0.0000
vn -0.9674 0.0537 -0.2473
vn -0.9670 0.0537 -0.2489
vn -0.0000 0.0506 -0.9987
vn 0.2589 0.0537 -0.9644
vn 0.2605 0.0537 -0.9640
vn 0.9674 0.0537 0.2473
vn 0.9670 0.0537 0.2489
vn 0.1589 -0.7555 0.6356
vn 0.4567 -0.7621 0.4590
vn 0.4598 -0.7621 0.4559
vn 0.1748 -0.7561 0.6307
vn -0.1589 -0.7555 0.6356
vn 0.0000 -0.7384 0.6744
vn -0.1748 -0.7561 0.6307
vn -0.6375 -0.7542 0.1574
vn -0.4567 -0.7621 0.4590
vn -0.4598 -0.7621 0.4559
vn -0.6342 -0.7547 0.1683
vn -0.6375 -0.7542 -0.1574
vn -0.6771 -0.7359 0.0000
vn -0.6342 -0.7547 -0.1683
vn -0.1589 -0.7555 -0.6356
vn -0.4567 -0.7621 -0.4590
vn -0.4598 -0.7621 -0.4559
vn -0.1748 -0.7561 -0.6307
vn 0.1589 -0.7555 -0.6356
vn 0.0000 -0.7384 -0.6744
vn 0.1748 -0.7561 -0.6307
vn 0.6375 -0.7542 -0.1574
vn 0.4567 -0.7621 -0.4590
vn 0.4598 -0.7621 -0.4559
vn 0.6342 -0.7547 -0.1683
vn 0.6375 -0.7542 0.1574
vn 0.6771 -0.7359 0.0000
vn 0.6342 -0.7547 0.1683
vn 0.2605 0.0490 -0.9642
vn 0.2591 0.0490 -0.9646
vn 0.9664 0.0644 0.2489
vn 0.9669 0.0644 0.2470
vn 0.7092 0.0660 0.7019
vn -0.2605 0.0490 0.9642
vn -0.2591 0.0490 0.9646
vn 0.9989 0.0461 -0.0000
vn 0.9677 0.0490 0.2475
vn 0.9673 0.0490 0.2489
vn -0.0000 0.0461 -0.9989
vn -0.9989 0.0461 0.0000
vn -0.9677 0.0490 -0.2475
vn -0.9673 0.0490 -0.2489
vn 0.0000 0.0461 0.9989
vn -0.2605 0.0644 -0.9633
vn -0.2586 0.0644 -0.9638
vn 0.0000 0.0607 -0.9982
vn 0.9664 0.0644 -0.2489
vn 0.9669 0.0644 -0.2470
vn 0.9982 0.0607 -0.0000
vn 0.2605 0.0644 0.9633
vn 0.2586 0.0644 0.9638
vn -0.0000 0.0607 0.9982
vn -0.9664 0.0644 0.2489
vn -0.9669 0.0644 0.2470
vn -0.9982 0.0607 0.0000
vn -0.9664 0.0644 -0.2489
vn -0.9669 0.0644 -0.2470
vn -0.7092 0.0660 -0.7019
vn 0.2586 0.0644 -0.9638
vn 0.2605 0.0644 -0.9633
vn -0.7092 0.0660 0.7019
vn 0.7092 0.0660 -0.7019
vn -0.2605 0.0644 0.9633
vn -0.2586 0.0644 0.9638
vn 0.2003 -0.6659 0.7186
vn -0.0000 -0.6434 0.7656
vn 0.1856 -0.6652 0.7232
vn 0.1753 0.7065 0.6857
vn 0.0000 0.6855 0.7280
vn 0.1901 0.7072 0.6810
vn -0.7210 -0.6659 0.1915
vn -0.7656 -0.6433 -0.0000
vn -0.7254 -0.6652 0.1770
vn -0.6877 0.7065 0.1671
vn -0.7280 0.6855 0.0000
vn -0.6833 0.7072 0.1818
vn -0.2003 -0.6659 -0.7186
vn 0.0000 -0.6434 -0.7656
vn -0.1856 -0.6652 -0.7232
vn -0.1753 0.7065 -0.6857
vn -0.0000 0.6855 -0.7280
vn -0.1901 0.7072 -0.6810
vn 0.7210 -0.6659 0.1915
vn 0.5245 -0.6748 0.5192
vn 0.5247 -0.6748 0.5190
vn 0.7254 -0.6652 0.1770
vn 0.6877 0.7065 0.1671
vn 0.4966 0.7156 0.4912
vn 0.4964 0.7156 0.4914
vn 0.6833 0.7072 0.1818
vn 0.2003 -0.6659 -0.7186
vn 0.5245 -0.6748 -0.5192
vn 0.5247 -0.6748 -0.5190
vn 0.1856 -0.6652 -0.7232
vn 0.1753 0.7065 -0.6857
vn 0.4966 0.7156 -0.4912
vn 0.4964 0.7156 -0.4914
vn 0.1901 0.7072 -0.6810
vn -0.7210 -0.6659 -0.1915
vn -0.5245 -0.6748 -0.5192
vn -0.5247 -0.6748 -0.5190
vn -0.7254 -0.6652 -0.1770
vn -0.6877 0.7065 -0.1671
vn -0.4966 0.7156 -0.4912
vn -0.4964 0.7156 -0.4914
vn -0.6833 0.7072 -0.1818
vn -0.2003 -0.6659 0.7186
vn -0.5245 -0.6748 0.5192
vn -0.5247 -0.6748 0.5190
vn -0.1856 -0.6652 0.7232
vn -0.1753 0.7065 0.6857
vn -0.4966 0.7156 0.4912
vn -0.4964 0.7156 0.4914
vn -0.1901 0.7072 0.6810
vn 0.7656 -0.6433 0.0000
vn 0.7280 0.6855 -0.0000
vn 0.7210 -0.6659 -0.1915
vn 0.7254 -0.6652 -0.1770
vn 0.6877 0.7065 -0.1671
vn 0.6833 0.7072 -0.1818
vn -0.5066 -0.7013 -0.5015
vn -0.1938 -0.6927 -0.6947
vn -0.1790 -0.6920 -0.6994
vn -0.5068 -0.7013 -0.5013
vn -0.4796 0.7381 -0.4745
vn -0.1691 0.7293 -0.6630
vn -0.1839 0.7300 -0.6582
vn -0.4794 0.7381 -0.4747
vn 0.5066 -0.7013 -0.5015
vn 0.6970 -0.6927 -0.1854
vn 0.7014 -0.6920 -0.1707
vn 0.5068 -0.7013 -0.5013
vn 0.4796 0.7381 -0.4745
vn 0.6650 0.7293 -0.1613
vn 0.6605 0.7300 -0.1759
vn 0.4794 0.7381 -0.4747
vn 0.5066 -0.7013 0.5015
vn 0.1938 -0.6927 0.6947
vn 0.1790 -0.6920 0.6994
vn 0.5068 -0.7013 0.5013
vn 0.4796 0.7381 0.4745
vn 0.1691 0.7293 0.6630
vn 0.1839 0.7300 0.6582
vn 0.4794 0.7381 0.4747
vn -0.5066 -0.7013 0.5015
vn -0.6970 -0.6927 0.1854
vn -0.7014 -0.6920 0.1707
vn -0.5068 -0.7013 0.5013
vn -0.4796 0.7381 0.4745
vn -0.6650 0.7293 0.1613
vn -0.6605 0.7300 0.1759
vn -0.4794 0.7381 0.4747
vn 0.7417 -0.6707 0.0000
vn 0.7052 0.7090 -0.0000
vn 0.6970 -0.6927 0.1854
vn 0.7014 -0.6920 0.1707
vn 0.6650 0.7293 0.1613
vn 0.6605 0.7300 0.1759
vn 0.0000 -0.6707 -0.7417
vn 0.1938 -0.6927 -0.6947
vn 0.1790 -0.6920 -0.6994
vn -0.0000 0.7090 -0.7052
vn 0.1691 0.7293 -0.6630
vn 0.1839 0.7300 -0.6582
vn -0.7417 -0.6707 -0.0000
vn -0.6970 -0.6927 -0.1854
vn -0.7014 -0.6920 -0.1707
vn -0.7052 0.7090 0.0000
vn -0.6650 0.7293 -0.1613
vn -0.6605 0.7300 -0.1759
vn -0.0000 -0.6707 0.7417
vn -0.1938 -0.6927 0.6947
vn -0.1790 -0.6920 0.6994
vn 0.0000 0.7090 0.7052
vn -0.1691 0.7293 0.6630
vn -0.1839 0.7300 0.6582
usemtl Metal
s 129
f 129/1/1 127/2/1 125/3/1 124/4/1
s 130
f 136/5/2 125/6/3 127/7/3 143/8/4
s 131
f 129/9/5 142/10/5 126/11/5 122/12/5
s 132
f 141/13/6 148/14/7 184/15/8 183/16/8
s 133
f 143/8/9 130/17/10 135/18/11 144/19/12
s 134
f 144/19/12 135/18/11 134/20/13 145/21/14
s 135
f 145/21/14 134/20/13 133/22/15 146/23/16
s 136
f 146/23/16 133/22/15 132/24/17 147/25/18
s 137
f 147/25/18 132/24/17 131/26/19 148/14/20
s 138
f 142/10/21 189/27/21 187/28/21 126/11/21
s 139
f 143/8/9 127/7/22 123/29/22 130/17/10
s 140
f 126/11/23 187/30/23 182/31/23 131/26/23 132/24/23 133/22/23 134/20/23 135/18/23 130/32/23 123/33/23 122/34/23
s 141
f 140/35/24 147/25/25 148/14/7 141/13/6
s 142
f 139/36/26 146/23/27 147/25/25 140/35/24
s 143
f 138/37/28 145/21/29 146/23/27 139/36/26
s 144
f 137/38/30 144/19/31 145/21/29 138/37/28
s 145
f 136/5/2 143/8/4 144/19/31 137/38/30
s 146
f 128/39/32 186/40/32 189/27/32 142/10/32
s 147
f 124/41/33 128/39/33 142/10/33 129/9/33
s 148
f 122/42/34 123/43/34 127/2/34 129/1/34
s 184
f 185/44/35 183/45/35 182/31/35
s 185
f 184/15/36 182/31/36 183/16/36
s 186
f 148/14/20 131/26/19 182/31/37 184/15/37
s 187
f 186/46/38 183/45/38 185/44/38 188/47/38
s 188
f 188/47/39 185/44/39 182/48/39 187/49/39
s 189
f 188/47/40 187/28/40 186/46/40
s 190
f 189/27/41 186/40/41 187/28/41
s 191
f 124/4/42 125/3/42 136/50/42 137/38/42 138/37/42 139/36/42 140/35/42 141/13/42 183/45/42 186/40/42 128/39/42
usemtl BrownDark
s 149
f 150/51/43 152/52/44 157/53/45 158/54/46
s 150
f 155/55/47 162/56/48 159/57/48 153/58/47
s 151
f 163/59/49 156/60/50 154/61/51 161/62/52
s 152
f 177/63/53 168/64/54 160/65/55 149/66/56
s 153
f 160/67/57 164/68/57 151/69/58 149/70/58
s 154
f 158/54/59 157/53/59 164/68/59 160/67/59
s 155
f 166/71/60 180/72/61 150/73/43 158/74/46
s 156
f 162/56/62 163/59/62 161/62/62 159/57/62
s 157
f 173/75/63 172/76/64 162/56/65 155/55/66
s 158
f 170/77/67 176/78/68 156/60/50 163/59/49
s 159
f 168/64/69 166/71/70 158/74/71 160/65/71
s 160
f 175/79/72 152/80/44 150/81/43 180/82/61
s 161
f 172/76/73 170/77/74 163/59/75 162/56/75
s 162
f 174/83/76 173/75/63 324/84/77 320/85/78
s 163
f 149/70/58 151/69/58 318/86/79 319/87/79
s 164
f 178/88/80 177/63/53 325/89/81 323/90/82
s 165
f 164/68/83 157/53/83 169/91/84 171/92/85
s 166
f 171/92/85 169/91/84 170/77/74 172/76/73
s 167
f 156/60/50 176/93/68 179/94/86 154/61/51
s 168
f 176/93/68 175/79/72 180/82/61 179/94/86
s 169
f 159/57/87 161/62/87 165/95/88 167/96/89
s 170
f 167/96/89 165/95/88 166/71/70 168/64/69
s 171
f 157/53/45 152/52/44 175/97/72 169/91/90
s 172
f 169/91/90 175/97/72 176/78/68 170/77/67
s 173
f 151/69/91 164/68/92 171/92/93 174/83/76
s 174
f 174/83/76 171/92/93 172/76/64 173/75/63
s 175
f 161/62/52 154/61/51 179/98/86 165/95/94
s 176
f 165/95/94 179/98/86 180/72/61 166/71/60
s 177
f 153/58/95 159/57/96 167/96/97 178/88/80
s 178
f 178/88/80 167/96/97 168/64/54 177/63/53
s 179
f 155/55/47 153/58/47 321/99/98 322/100/98
s 180
f 177/63/53 149/66/56 319/101/99 325/89/81
s 181
f 153/58/95 178/88/80 323/90/82 321/99/100
s 182
f 173/75/63 155/55/66 322/100/101 324/84/77
s 183
f 151/69/91 174/83/76 320/85/78 318/86/102
s 305
f 181/102/103 319/103/104 318/104/105
s 306
f 181/105/103 318/104/105 320/106/106
s 307
f 181/107/103 322/100/107 321/99/108
s 308
f 181/108/103 321/99/108 323/109/109
s 309
f 181/110/103 324/111/110 322/100/107
s 310
f 181/112/103 320/106/106 324/111/110
s 311
f 181/113/103 325/114/111 319/103/104
s 312
f 181/115/103 323/109/109 325/114/111
usemtl White
s 2
f 219/116/112 34/117/113 2/118/114 192/119/115
s 3
f 213/120/116 50/121/117 15/122/118 200/123/119
s 5
f 211/124/120 36/125/121 3/126/122 196/127/123
s 6
f 221/128/124 48/129/125 13/130/126 204/131/127
s 7
f 209/132/128 51/133/129 16/134/130 198/135/131
s 8
f 204/131/127 13/130/126 34/117/113 219/116/112
s 9
f 217/136/132 49/137/133 14/138/134 202/139/135
s 11
f 198/135/131 16/134/130 37/140/136 207/141/137
s 12
f 215/142/138 35/143/139 4/144/140 194/145/141
s 13
f 202/139/135 14/138/134 35/143/139 215/142/138
s 15
f 200/123/119 15/122/118 36/125/121 211/124/120
s 21
f 105/146/142 46/147/143 10/148/144 61/149/145
s 22
f 104/150/146 85/151/147 17/152/148 38/153/149
s 23
f 103/154/150 81/155/151 20/156/152 41/157/153
s 24
f 102/158/154 80/159/155 18/160/156 39/161/157
s 25
f 101/162/158 60/163/159 9/164/160 45/165/161
s 26
f 100/166/162 64/167/163 11/168/164 62/169/165
s 27
f 99/170/166 47/171/167 9/172/160 60/173/159
s 28
f 98/174/168 65/175/169 12/176/170 63/177/171
s 29
f 97/178/172 66/179/173 24/180/174 45/181/161
s 30
f 5/182/175 41/157/153 67/183/176 28/184/177
s 31
f 96/185/178 69/186/179 21/187/180 42/188/181
s 32
f 20/156/182 55/189/183 68/190/184 29/191/185
s 33
f 6/192/186 38/153/187 70/193/188 25/194/189
s 34
f 95/195/190 72/196/191 23/197/192 44/198/193
s 35
f 17/152/148 52/199/194 71/200/195 30/201/196
s 36
f 8/202/197 40/203/198 73/204/199 27/205/200
s 37
f 94/206/201 75/207/202 24/208/203 63/209/171
s 38
f 93/210/204 76/211/205 32/212/206 77/213/206
s 39
f 92/214/207 42/215/181 21/216/208 78/217/208
s 40
f 91/218/209 59/219/210 7/220/211 54/221/212
s 41
f 90/222/213 57/223/214 6/192/186 53/224/215
s 42
f 89/225/216 58/226/217 8/202/197 55/189/183
s 43
f 88/227/218 82/228/219 22/229/220 43/230/221
s 44
f 19/231/222 54/221/223 74/232/224 31/233/225
s 45
f 7/220/211 39/161/157 83/234/226 26/235/227
s 46
f 87/236/228 56/237/229 5/238/175 52/199/230
s 51
f 86/239/231 79/240/232 19/231/222 40/203/233
s 52
f 58/226/217 86/239/231 40/203/198 8/202/197
s 53
f 3/126/122 36/125/121 86/239/231 58/226/217
s 54
f 36/125/121 15/122/118 79/240/232 86/239/231
s 58
f 1/241/234 48/129/125 221/128/124 190/242/235
s 59
f 85/151/147 87/236/228 52/199/194 17/152/148
s 60
f 13/130/126 48/129/125 87/236/228 85/151/147
s 61
f 48/129/125 1/241/234 56/237/229 87/236/228
s 62
f 53/224/215 6/192/186 25/194/189 84/243/236
s 63
f 39/161/157 18/160/156 33/244/237 83/234/226
s 64
f 64/167/238 88/227/218 43/230/221 11/168/164
s 65
f 26/235/227 83/234/226 88/227/218 64/167/238
s 66
f 83/234/226 33/244/237 82/228/219 88/227/218
s 67
f 81/155/151 89/225/216 55/189/183 20/156/182
s 68
f 16/134/130 51/133/129 89/225/216 81/155/151
s 69
f 51/133/129 3/126/122 58/226/217 89/225/216
s 70
f 80/159/155 90/222/213 53/224/215 18/160/239
s 71
f 14/138/134 49/137/133 90/222/213 80/159/155
s 72
f 49/137/133 2/118/114 57/223/214 90/222/213
s 73
f 79/240/232 91/218/209 54/221/223 19/231/222
s 74
f 15/122/118 50/121/117 91/218/209 79/240/232
s 75
f 50/121/117 4/144/140 59/219/210 91/218/209
s 76
f 76/211/240 92/214/241 78/217/242 32/212/242
s 77
f 22/245/243 61/246/145 92/214/241 76/211/240
s 78
f 61/246/145 10/247/144 42/215/181 92/214/207
s 79
f 62/169/165 93/210/244 77/213/245 23/197/245
s 80
f 11/168/164 43/248/221 93/210/244 62/169/165
s 81
f 43/248/221 22/245/220 76/211/205 93/210/204
s 82
f 44/198/193 94/206/246 63/209/171 12/176/170
s 83
f 23/197/245 77/213/245 94/206/246 44/198/193
s 84
f 77/213/206 32/212/206 75/207/202 94/206/201
s 85
f 54/221/212 7/220/211 26/235/227 74/232/247
s 86
f 40/203/233 19/231/222 31/233/225 73/204/248
s 87
f 65/175/249 95/195/190 44/198/193 12/176/170
s 88
f 27/205/200 73/204/199 95/195/190 65/175/249
s 89
f 73/204/248 31/233/225 72/196/191 95/195/190
s 90
f 52/199/230 5/238/175 28/249/177 71/200/250
s 91
f 38/153/149 17/152/148 30/201/196 70/193/251
s 92
f 46/147/252 96/185/178 42/188/181 10/148/144
s 93
f 25/194/189 70/193/188 96/185/178 46/147/252
s 94
f 70/193/251 30/201/196 69/186/179 96/185/178
s 95
f 55/189/183 8/202/197 27/205/200 68/190/184
s 96
f 41/157/153 20/156/152 29/191/253 67/183/176
s 97
f 47/250/254 97/178/172 45/181/161 9/251/160
s 98
f 28/184/177 67/183/176 97/178/172 47/250/254
s 99
f 67/183/176 29/191/253 66/179/173 97/178/172
s 100
f 66/179/255 98/174/168 63/177/171 24/180/203
s 101
f 29/191/185 68/190/184 98/174/168 66/179/255
s 102
f 68/190/184 27/205/200 65/175/169 98/174/168
s 103
f 69/186/179 99/170/166 60/173/159 21/187/180
s 104
f 30/201/196 71/200/195 99/170/166 69/186/179
s 105
f 71/200/250 28/249/177 47/171/167 99/170/166
s 106
f 72/196/191 100/166/162 62/169/165 23/197/192
s 107
f 31/233/225 74/232/224 100/166/162 72/196/191
s 108
f 74/232/247 26/235/227 64/167/163 100/166/162
s 109
f 75/207/256 101/162/257 45/165/161 24/208/174
s 110
f 32/212/242 78/217/242 101/162/257 75/207/256
s 111
f 78/217/208 21/216/208 60/163/159 101/162/158
s 112
f 59/219/210 102/158/154 39/161/157 7/220/211
s 113
f 4/144/140 35/143/139 102/158/154 59/219/210
s 114
f 35/143/139 14/138/134 80/159/155 102/158/154
s 115
f 56/252/229 103/154/150 41/157/153 5/182/175
s 116
f 1/253/234 37/140/136 103/154/150 56/252/229
s 117
f 37/140/136 16/134/130 81/155/151 103/154/150
s 118
f 57/223/214 104/150/146 38/153/187 6/192/186
s 119
f 2/118/114 34/117/113 104/150/146 57/223/214
s 120
f 34/117/113 13/130/126 85/151/147 104/150/146
s 121
f 82/228/258 105/146/142 61/149/145 22/229/243
s 122
f 33/244/259 84/243/236 105/146/142 82/228/258
s 123
f 84/243/236 25/194/189 46/147/143 105/146/142
s 124
f 196/127/123 3/126/122 51/133/129 209/132/128
s 125
f 194/145/141 4/144/140 50/121/117 213/120/116
s 126
f 192/119/115 2/118/114 49/137/133 217/136/132
s 127
f 18/160/239 53/224/215 84/243/236 33/244/259
s 128
f 114/254/103 106/255/103 121/256/103 113/257/103 120/258/103 107/259/103 119/260/103 112/261/103 118/262/103 108/263/103 117/264/103 111/265/103 116/266/103 109/267/103 115/268/103 110/269/103
s 208
f 207/141/137 37/140/136 1/253/234 190/270/235
usemtl Red
s 1
f 283/271/260 244/272/260 246/273/261 285/274/262
s 4
f 277/275/263 235/276/263 237/277/264 279/278/265
s 10
f 271/279/266 226/280/266 228/281/267 273/282/268
s 14
f 289/283/269 253/284/269 255/285/270 291/286/271
s 16
f 279/278/265 237/277/264 267/287/272 303/288/272
s 17
f 225/289/273 106/290/274 114/254/275 229/291/276
s 18
f 234/292/277 107/259/278 120/258/279 238/293/280
s 19
f 243/294/281 108/263/282 118/262/283 247/295/284
s 20
f 252/296/285 109/267/286 116/266/287 256/297/288
s 47
f 295/298/289 259/299/289 249/300/290 315/301/291
s 48
f 298/302/292 262/303/292 240/304/293 312/305/294
s 49
f 301/306/295 265/307/295 231/308/296 309/309/297
s 50
f 303/288/272 267/287/272 222/310/298 306/311/299
s 55
f 285/274/262 246/273/261 265/307/295 301/306/295
s 56
f 291/286/271 255/285/270 262/303/292 298/302/292
s 57
f 273/282/268 228/281/267 259/299/289 295/298/289
s 192
f 207/141/300 190/270/301 191/312/302 206/313/303
s 193
f 209/132/304 198/135/305 199/314/305 208/315/306
s 194
f 211/124/307 196/127/308 197/316/309 210/317/310
s 195
f 213/120/311 200/123/312 201/318/312 212/319/313
s 196
f 215/142/314 194/145/315 195/320/316 214/321/317
s 197
f 217/136/318 202/139/319 203/322/319 216/323/320
s 198
f 219/116/321 192/119/322 193/324/323 218/325/324
s 199
f 221/128/325 204/131/326 205/326/326 220/327/327
s 200
f 198/135/305 207/141/300 206/313/303 199/314/305
s 201
f 196/127/308 209/132/304 208/315/306 197/316/309
s 202
f 200/123/312 211/124/307 210/317/310 201/318/312
s 203
f 194/145/315 213/120/311 212/319/313 195/320/316
s 204
f 202/139/319 215/142/314 214/321/317 203/322/319
s 205
f 192/119/322 217/136/318 216/323/320 193/324/323
s 206
f 204/131/326 219/116/321 218/325/324 205/326/326
s 207
f 190/242/301 221/128/325 220/327/327 191/328/302
s 209
f 232/329/328 119/260/329 107/259/278 234/292/277
s 210
f 220/327/330 307/330/331 270/331/332 191/328/332
s 211
f 250/332/333 115/268/334 109/267/286 252/296/285
s 212
f 268/333/335 113/257/335 121/256/336 223/334/337
s 213
f 264/335/338 112/261/338 119/260/329 232/329/328
s 214
f 261/336/339 111/265/339 117/264/340 241/337/341
s 215
f 258/338/342 110/269/342 115/268/334 250/332/333
s 216
f 315/301/291 249/300/290 253/284/269 289/283/269
s 217
f 312/305/294 240/304/293 244/272/260 283/271/260
s 218
f 309/309/297 231/308/296 235/276/263 277/275/263
s 219
f 306/311/299 222/310/298 226/339/266 271/340/266
s 220
f 241/337/341 117/264/340 108/263/282 243/294/281
s 221
f 256/297/288 116/266/287 111/265/339 261/336/339
s 222
f 229/291/276 114/254/275 110/269/342 258/338/342
s 223
f 238/293/280 120/258/279 113/257/335 268/333/335
s 224
f 247/295/284 118/262/283 112/261/338 264/335/338
s 225
f 214/321/343 286/341/344 300/342/345 203/322/345
s 226
f 218/325/346 280/343/347 304/344/348 205/326/348
s 227
f 206/313/349 274/345/350 294/346/351 199/314/351
s 228
f 210/317/352 292/347/353 297/348/354 201/318/354
s 229
f 212/319/355 313/349/356 282/350/357 195/320/357
s 230
f 205/326/348 304/344/348 307/330/331 220/327/330
s 231
f 203/322/345 300/342/345 310/351/358 216/323/359
s 232
f 201/318/354 297/348/354 313/349/356 212/319/355
s 233
f 197/316/360 288/352/360 292/347/353 210/317/352
s 234
f 195/320/357 282/350/357 286/341/344 214/321/343
s 235
f 193/324/361 276/353/361 280/343/347 218/325/346
s 236
f 191/312/332 270/354/332 274/345/350 206/313/349
s 237
f 208/315/362 316/355/363 288/352/360 197/316/360
s 238
f 199/314/351 294/346/351 316/355/363 208/315/362
s 239
f 216/323/359 310/351/358 276/353/361 193/324/361
s 240
f 229/291/364 258/338/365 260/356/365 230/357/366
s 241
f 230/357/367 260/356/368 259/299/368 228/281/369
s 242
f 256/297/370 261/336/371 263/358/371 257/359/372
s 243
f 257/359/373 263/358/374 262/303/374 255/285/375
s 244
f 247/295/376 264/335/377 266/360/377 248/361/378
s 245
f 248/361/379 266/360/380 265/307/380 246/273/381
s 246
f 223/334/382 225/362/383 227/363/384 224/364/385
s 247
f 224/364/386 227/363/387 226/339/388 222/310/389
s 248
f 232/329/390 234/292/391 236/365/392 233/366/393
s 249
f 233/366/394 236/365/395 235/276/396 231/308/397
s 250
f 241/337/398 243/294/399 245/367/400 242/368/401
s 251
f 242/368/402 245/367/403 244/272/404 240/304/405
s 252
f 250/332/406 252/296/407 254/369/408 251/370/409
s 253
f 251/370/410 254/369/411 253/284/412 249/300/413
s 254
f 258/338/365 250/332/406 251/370/409 260/356/365
s 255
f 260/356/368 251/370/410 249/300/413 259/299/368
s 256
f 261/336/371 241/337/398 242/368/401 263/358/371
s 257
f 263/358/374 242/368/402 240/304/405 262/303/374
s 258
f 264/335/377 232/329/390 233/366/393 266/360/377
s 259
f 266/360/380 233/366/394 231/308/397 265/307/380
s 260
f 268/333/414 223/334/382 224/364/385 269/371/414
s 261
f 269/371/415 224/364/386 222/310/389 267/287/415
s 262
f 238/293/416 268/333/414 269/371/414 239/372/417
s 263
f 239/372/418 269/371/415 267/287/415 237/277/419
s 264
f 252/296/407 256/297/370 257/359/372 254/369/408
s 265
f 254/369/411 257/359/373 255/285/375 253/284/412
s 266
f 225/289/383 229/291/364 230/357/366 227/373/384
s 267
f 227/373/387 230/357/367 228/281/369 226/280/388
s 268
f 234/292/391 238/293/416 239/372/417 236/365/392
s 269
f 236/365/395 239/372/418 237/277/419 235/276/396
s 270
f 243/294/399 247/295/376 248/361/378 245/367/400
s 271
f 245/367/403 248/361/379 246/273/381 244/272/404
s 272
f 283/271/420 285/274/421 287/374/422 284/375/423
s 273
f 284/375/424 287/374/425 286/341/426 282/350/427
s 274
f 277/275/428 279/278/429 281/376/430 278/377/431
s 275
f 278/377/432 281/376/433 280/343/434 276/353/435
s 276
f 271/279/436 273/282/437 275/378/438 272/379/439
s 277
f 272/379/440 275/378/441 274/345/442 270/354/443
s 278
f 289/283/444 291/286/445 293/380/446 290/381/447
s 279
f 290/381/448 293/380/449 292/347/450 288/352/451
s 280
f 279/278/429 303/288/452 305/382/452 281/376/430
s 281
f 281/376/433 305/382/453 304/344/453 280/343/434
s 282
f 303/288/452 306/311/454 308/383/455 305/382/452
s 283
f 305/382/453 308/383/456 307/330/457 304/344/453
s 284
f 301/306/458 309/309/459 311/384/460 302/385/458
s 285
f 302/385/461 311/384/462 310/351/463 300/342/461
s 286
f 298/302/464 312/305/465 314/386/466 299/387/464
s 287
f 299/387/467 314/386/468 313/349/469 297/348/467
s 288
f 295/298/470 315/301/471 317/388/472 296/389/470
s 289
f 296/389/473 317/388/474 316/355/475 294/346/473
s 290
f 315/301/471 289/283/444 290/381/447 317/388/472
s 291
f 317/388/474 290/381/448 288/352/451 316/355/475
s 292
f 312/305/465 283/271/420 284/375/423 314/386/466
s 293
f 314/386/468 284/375/424 282/350/427 313/349/469
s 294
f 309/309/459 277/275/428 278/377/431 311/384/460
s 295
f 311/384/462 278/377/432 276/353/435 310/351/463
s 296
f 306/311/454 271/340/436 272/390/439 308/383/455
s 297
f 308/383/456 272/390/440 270/331/443 307/330/457
s 298
f 285/274/421 301/306/458 302/385/458 287/374/422
s 299
f 287/374/425 302/385/461 300/342/461 286/341/426
s 300
f 291/286/445 298/302/464 299/387/464 293/380/446
s 301
f 293/380/449 299/387/467 297/348/467 292/347/450
s 302
f 273/282/437 295/298/470 296/389/470 275/378/438
s 303
f 275/378/441 296/389/473 294/346/473 274/345/442
s 304
f 223/334/337 121/256/336 106/255/274 225/362/273
