# Blender v3.4.1 OBJ File: 'July2026_DemonLord_Assets_Export.blend'
# www.blender.org
mtllib DemonHeart.mtl
o DemonHeart
v 0.005053 -0.638204 0.006199
v 0.126529 -0.288644 0.201412
v -0.128528 -0.317978 0.192555
v 0.004698 -0.185588 -0.268989
v 0.247573 -0.221094 -0.095375
v 0.142110 0.131736 0.193535
v -0.132199 0.137821 0.182475
v -0.253145 0.116932 -0.071282
v -0.001292 0.105453 -0.269982
v 0.005891 0.287663 0.021457
v 0.046776 -0.544391 0.132920
v -0.005915 -0.346780 0.238993
v 0.132227 -0.488902 -0.012743
v -0.120089 -0.475963 -0.098899
v -0.239520 -0.296000 0.045378
v -0.121718 -0.258907 -0.212091
v 0.140781 -0.222459 -0.187776
v 0.275785 -0.022649 0.080847
v 0.273962 -0.054620 -0.087239
v 0.009911 -0.083115 0.266143
v -0.286658 -0.037253 0.061807
v -0.281881 -0.019273 -0.084444
v 0.008408 -0.032357 -0.278152
v 0.240619 0.155311 0.059993
v 0.016179 0.157837 0.224622
v -0.135902 0.121218 -0.176083
v 0.116166 0.135342 -0.209095
v 0.114833 0.252171 -0.078426
v -0.033277 0.247212 0.132969
v -0.134419 0.221259 0.007950
v 0.234644 -0.013104 0.320246
v 0.201739 0.362209 0.086047
v 0.311054 0.174832 -0.138581
v -0.093443 0.329099 -0.177687
v 0.276653 -0.292820 0.142052
v 0.235984 -0.004207 -0.325087
v -0.292135 0.215728 0.163633
v -0.223202 -0.010447 0.303154
v -0.175280 -0.526805 0.090412
v 0.081612 -0.476758 -0.173493
v -0.231095 -0.004466 -0.318291
v -0.315380 -0.218534 -0.144009
v 0.302879 -0.005340 0.220962
v 0.188192 -0.137389 0.308546
v 0.316501 0.088362 0.201611
v 0.231861 0.086076 0.275942
v 0.099177 -0.155008 0.361624
v 0.124685 -0.028905 0.353539
v 0.252785 0.295851 0.040589
v 0.234026 0.277045 0.147890
v 0.173204 0.353690 -0.028960
v 0.111781 0.378104 0.035054
v 0.164737 0.301187 0.194404
v 0.110362 0.352517 0.135804
v 0.218522 0.240480 -0.152375
v 0.224497 0.178842 -0.208305
v 0.302074 0.182891 -0.056536
v 0.318285 0.074943 -0.128880
v 0.349282 0.095065 -0.036472
v -0.166723 0.260564 -0.174377
v -0.085240 0.239883 -0.258263
v 0.011343 0.325970 -0.157075
v -0.053606 0.352314 -0.068653
v -0.001683 0.265438 -0.245766
v -0.150668 0.319731 -0.067150
v 0.150497 -0.462787 0.189666
v 0.203522 -0.292228 0.215323
v 0.208936 -0.448212 0.100811
v 0.303089 -0.268017 0.031383
v 0.308342 -0.132777 0.131819
v 0.341563 -0.148082 0.036514
v 0.241526 -0.110341 -0.275555
v 0.319595 -0.104052 -0.212698
v 0.130863 -0.013452 -0.354961
v 0.101873 0.081664 -0.369367
v 0.297296 -0.016958 -0.228806
v 0.179111 0.090555 -0.315331
v -0.359809 0.113047 0.054291
v -0.319683 0.191055 0.058111
v -0.155434 0.279647 0.206636
v -0.216801 0.197191 0.225518
v -0.221971 0.269698 0.126147
v -0.326444 0.103678 0.141069
v -0.108492 -0.024003 0.339717
v -0.217498 -0.158738 0.263607
v -0.091504 0.100579 0.342029
v -0.184401 0.089378 0.287158
v -0.304425 -0.136453 0.186498
v -0.296866 -0.015244 0.200475
v -0.135182 -0.454940 0.202562
v -0.208643 -0.406301 0.152492
v -0.161221 -0.541909 -0.034136
v -0.087734 -0.645988 0.032962
v -0.078584 -0.593418 0.139069
v -0.237450 -0.419129 0.039485
v -0.023943 -0.522928 -0.158264
v 0.049001 -0.622980 -0.069218
v -0.011411 -0.377320 -0.240046
v 0.074432 -0.316201 -0.253101
v 0.141791 -0.536287 -0.070575
v 0.158893 -0.367792 -0.174833
v -0.177458 -0.127936 -0.309944
v -0.097997 -0.104341 -0.362993
v -0.295025 -0.008456 -0.222686
v -0.316261 0.083102 -0.200946
v -0.120581 -0.003672 -0.349624
v -0.234587 0.089415 -0.267989
v -0.323203 -0.110764 -0.132364
v -0.356394 -0.124938 -0.046282
v -0.228629 -0.247290 -0.212880
v -0.305775 -0.262987 -0.064189
v -0.224055 -0.349303 -0.163835
v -0.009407 0.082018 -0.088850
v -0.111439 0.500555 0.016006
v 0.065746 0.094661 -0.037769
v 0.060260 0.090514 0.053718
v -0.020379 0.073724 0.094123
v -0.095532 0.061081 0.043042
v -0.090046 0.065227 -0.048445
v 0.032278 0.576168 -0.050111
v -0.081624 0.482571 -0.139346
v 0.022957 0.569122 0.105335
v -0.100266 0.468479 0.171547
v -0.214167 0.374882 0.082312
v -0.204846 0.381928 -0.073134
v 0.118938 0.005444 0.085340
v 0.391368 0.269959 0.043420
v 0.072644 0.055062 0.044794
v 0.078994 0.059681 -0.033866
v 0.131638 0.014682 -0.071980
v 0.177932 -0.034936 -0.031435
v 0.171582 -0.039555 0.047225
v 0.318942 0.383588 0.111737
v 0.354142 0.253679 0.174443
v 0.329731 0.391436 -0.021915
v 0.375720 0.269374 -0.092861
v 0.410920 0.139465 -0.030156
v 0.400130 0.131617 0.103496
v -0.103241 -0.143829 -0.088850
v -0.468777 0.084133 0.016006
v -0.058339 -0.082252 -0.037769
v -0.059363 -0.089053 0.053718
v -0.105289 -0.157429 0.094123
v -0.150190 -0.219006 0.043042
v -0.149166 -0.212206 -0.048445
v -0.418866 0.238667 -0.050111
v -0.434886 0.092115 -0.139346
v -0.420606 0.227112 0.105335
v -0.438366 0.069007 0.171547
v -0.454385 -0.077545 0.082312
v -0.452645 -0.065991 -0.073134
vt 0.696380 0.559245
vt 0.696672 0.649459
vt 0.674539 0.645314
vt 0.682423 0.558433
vt 0.695711 0.557102
vt 0.693443 0.654847
vt 0.712570 0.664773
vt 0.707129 0.560916
vt 0.692525 0.557030
vt 0.691753 0.633348
vt 0.711842 0.636670
vt 0.705692 0.557758
vt 0.673544 0.537126
vt 0.664054 0.624942
vt 0.678411 0.617786
vt 0.682627 0.535892
vt 0.704852 0.536430
vt 0.715140 0.624407
vt 0.702237 0.632553
vt 0.696329 0.537741
vt 0.676969 0.507637
vt 0.665798 0.603337
vt 0.667861 0.599214
vt 0.677773 0.509511
vt 0.699947 0.558904
vt 0.699947 0.558904
vt 0.699947 0.558904
vt 0.702931 0.529924
vt 0.712193 0.637201
vt 0.692458 0.636600
vt 0.691517 0.526110
vt 0.694079 0.555833
vt 0.691967 0.668882
vt 0.671465 0.665993
vt 0.682132 0.557497
vt 0.688607 0.542446
vt 0.687932 0.685412
vt 0.671755 0.684464
vt 0.679328 0.547115
vt 0.685637 0.558266
vt 0.677760 0.638888
vt 0.678620 0.625513
vt 0.685662 0.553117
vt 0.682343 0.544978
vt 0.679867 0.633369
vt 0.702480 0.637655
vt 0.696376 0.545797
vt 0.676968 0.532014
vt 0.669452 0.634398
vt 0.688203 0.627431
vt 0.688047 0.530152
vt 0.715982 0.668038
vt 0.709125 0.557968
vt 0.695133 0.565158
vt 0.687081 0.644590
vt 0.695240 0.641156
vt 0.699767 0.567231
vt 0.699947 0.558904
vt 0.699947 0.558904
vt 0.699947 0.558904
vt 0.687600 0.542964
vt 0.687758 0.632545
vt 0.668099 0.628325
vt 0.676137 0.541690
vt 0.674798 0.560850
vt 0.661474 0.686967
vt 0.663218 0.682785
vt 0.675167 0.565265
vt 0.706115 0.564448
vt 0.705372 0.648366
vt 0.692498 0.563613
vt 0.691968 0.695633
vt 0.704629 0.510063
vt 0.712831 0.607661
vt 0.689078 0.611693
vt 0.690693 0.511016
vt 0.709739 0.562484
vt 0.721616 0.689262
vt 0.708145 0.566798
vt 0.718099 0.684896
vt 0.691452 0.570716
vt 0.690367 0.687129
vt 0.699947 0.558904
vt 0.699947 0.558904
vt 0.699947 0.558904
vt 0.699947 0.558904
vt 0.698706 0.542022
vt 0.706728 0.628457
vt 0.686850 0.548264
vt 0.686528 0.629669
vt 0.704628 0.627101
vt 0.697734 0.545227
vt 0.688903 0.594347
vt 0.680778 0.681676
vt 0.694893 0.682151
vt 0.697243 0.597984
vt 0.713809 0.678844
vt 0.708633 0.595648
vt 0.693654 0.591607
vt 0.687794 0.685268
vt 0.706141 0.593667
vt 0.709776 0.688655
vt 0.723253 0.681969
vt 0.714286 0.593079
vt 0.716064 0.642280
vt 0.712679 0.567866
vt 0.723936 0.646589
vt 0.717197 0.566240
vt 0.671306 0.655140
vt 0.681375 0.555090
vt 0.699947 0.558904
vt 0.699947 0.558904
vt 0.711114 0.628671
vt 0.702894 0.528937
vt 0.675840 0.527475
vt 0.667353 0.634928
vt 0.694749 0.558896
vt 0.693172 0.644390
vt 0.668837 0.626972
vt 0.676231 0.544920
vt 0.706254 0.557556
vt 0.711122 0.633143
vt 0.712754 0.640736
vt 0.707199 0.558446
vt 0.697461 0.552816
vt 0.696539 0.622834
vt 0.699947 0.558904
vt 0.672461 0.671866
vt 0.679196 0.545995
vt 0.700990 0.544432
vt 0.707967 0.682495
vt 0.699947 0.558904
vt 0.699947 0.558904
vt 0.700065 0.644107
vt 0.694626 0.545110
vt 0.672826 0.643383
vt 0.678349 0.543789
vt 0.706076 0.561218
vt 0.713296 0.647804
vt 0.690452 0.669836
vt 0.690816 0.547736
vt 0.699746 0.550126
vt 0.705598 0.679769
vt 0.689693 0.603479
vt 0.690948 0.513888
vt 0.711440 0.603213
vt 0.704120 0.511824
vt 0.699947 0.558904
vt 0.699947 0.558904
vt 0.681431 0.540692
vt 0.676612 0.636024
vt 0.701072 0.621956
vt 0.696447 0.538337
vt 0.671186 0.543761
vt 0.661525 0.636419
vt 0.675743 0.641022
vt 0.683014 0.559831
vt 0.699947 0.558904
vt 0.699947 0.558904
vt 0.699947 0.558904
vt 0.701239 0.717305
vt 0.705598 0.711019
vt 0.690452 0.701086
vt 0.676709 0.709044
vt 0.672461 0.703116
vt 0.671755 0.715714
vt 0.703220 0.717616
vt 0.707967 0.713745
vt 0.676171 0.721550
vt 0.687932 0.716662
vt 0.687487 0.707828
vt 0.691219 0.719363
vt 0.706131 0.721203
vt 0.709776 0.719905
vt 0.723253 0.713219
vt 0.709799 0.715283
vt 0.713809 0.710094
vt 0.694893 0.713401
vt 0.690599 0.718860
vt 0.687794 0.716518
vt 0.696822 0.717043
vt 0.680778 0.712926
vt 0.685398 0.716197
vt 0.717108 0.717700
vt 0.696482 0.679015
vt 0.695240 0.672406
vt 0.687081 0.675840
vt 0.691396 0.679331
vt 0.705372 0.679616
vt 0.714151 0.677580
vt 0.716064 0.673530
vt 0.707026 0.681575
vt 0.723936 0.677839
vt 0.719064 0.680270
vt 0.692990 0.722542
vt 0.690367 0.718379
vt 0.663218 0.714035
vt 0.691446 0.730006
vt 0.691968 0.726883
vt 0.721616 0.720512
vt 0.712729 0.720974
vt 0.718099 0.716146
vt 0.669926 0.724890
vt 0.661474 0.718217
vt 0.715334 0.724208
vt 0.671273 0.721659
vt 0.691606 0.647741
vt 0.689078 0.642943
vt 0.712831 0.638911
vt 0.706264 0.639090
vt 0.711440 0.634463
vt 0.689693 0.634729
vt 0.671002 0.637923
vt 0.665798 0.634587
vt 0.686113 0.638204
vt 0.667861 0.630464
vt 0.672350 0.635230
vt 0.707225 0.642165
vt 0.708146 0.699240
vt 0.712570 0.696023
vt 0.693443 0.686097
vt 0.675745 0.694934
vt 0.671306 0.686390
vt 0.671465 0.697243
vt 0.710912 0.703212
vt 0.715982 0.699288
vt 0.676035 0.700149
vt 0.691967 0.700132
vt 0.688773 0.703991
vt 0.696152 0.694663
vt 0.684003 0.665039
vt 0.686528 0.660919
vt 0.668837 0.658222
vt 0.689654 0.668392
vt 0.687758 0.663795
vt 0.706728 0.659707
vt 0.700605 0.662171
vt 0.704628 0.658351
vt 0.672194 0.662441
vt 0.668099 0.659575
vt 0.702039 0.663098
vt 0.672668 0.661571
vt 0.682740 0.670593
vt 0.677760 0.670138
vt 0.693172 0.675640
vt 0.708149 0.673448
vt 0.712754 0.671986
vt 0.711122 0.664393
vt 0.682767 0.661117
vt 0.678620 0.656763
vt 0.706905 0.670897
vt 0.696539 0.654084
vt 0.696380 0.675644
vt 0.693536 0.659507
vt 0.696178 0.682173
vt 0.696672 0.680709
vt 0.713296 0.679054
vt 0.691480 0.671211
vt 0.691753 0.664598
vt 0.675743 0.672272
vt 0.680198 0.676056
vt 0.674539 0.676564
vt 0.708150 0.682678
vt 0.711842 0.667920
vt 0.706997 0.673777
vt 0.679789 0.679103
vt 0.679543 0.668688
vt 0.676612 0.667274
vt 0.702237 0.663803
vt 0.710099 0.659222
vt 0.715140 0.655657
vt 0.701072 0.653206
vt 0.670743 0.661526
vt 0.664054 0.656192
vt 0.700230 0.659231
vt 0.678411 0.649036
vt 0.681826 0.656001
vt 0.700549 0.665252
vt 0.707568 0.671289
vt 0.712193 0.668451
vt 0.711114 0.659921
vt 0.685958 0.666413
vt 0.688203 0.658681
vt 0.669452 0.665648
vt 0.694932 0.672793
vt 0.692458 0.667850
vt 0.673833 0.669010
vt 0.667353 0.666178
vt 0.671822 0.671254
vt 0.707049 0.667555
vt 0.695786 0.677642
vt 0.700065 0.675357
vt 0.702480 0.668905
vt 0.696847 0.676235
vt 0.679867 0.664619
vt 0.677279 0.678276
vt 0.672826 0.674633
vt 0.678547 0.668782
vt 0.661525 0.667669
vt 0.667653 0.672344
vt 0.937344 0.526122
vt 0.937344 0.659050
vt 0.966990 0.689136
vt 0.954791 0.526122
vt 0.966990 0.689136
vt 0.954791 0.526122
vt 0.937344 0.659050
vt 0.937344 0.526122
vt 0.907698 0.628965
vt 0.919895 0.526122
vt 0.907698 0.628965
vt 0.919895 0.526122
vt 0.933948 0.717791
vt 0.966990 0.736239
vt 0.937344 0.706154
vt 0.966990 0.736239
vt 0.937344 0.706154
vt 0.907698 0.676068
vt 0.907698 0.676068
vt 0.937344 0.526122
vt 0.937344 0.659050
vt 0.966990 0.689136
vt 0.954791 0.526122
vt 0.966990 0.689136
vt 0.954791 0.526122
vt 0.937344 0.659050
vt 0.937344 0.526122
vt 0.907698 0.628965
vt 0.919895 0.526122
vt 0.907698 0.628965
vt 0.919895 0.526122
vt 0.933948 0.717791
vt 0.966990 0.736239
vt 0.937344 0.706154
vt 0.966990 0.736239
vt 0.937344 0.706154
vt 0.907698 0.676068
vt 0.907698 0.676068
vt 0.937344 0.526122
vt 0.937344 0.659050
vt 0.966990 0.689136
vt 0.954791 0.526122
vt 0.966990 0.689136
vt 0.954791 0.526122
vt 0.937344 0.659050
vt 0.937344 0.526122
vt 0.907698 0.628965
vt 0.919895 0.526122
vt 0.907698 0.628965
vt 0.919895 0.526122
vt 0.933948 0.717791
vt 0.966990 0.736239
vt 0.937344 0.706154
vt 0.966990 0.736239
vt 0.937344 0.706154
vt 0.907698 0.676068
vt 0.907698 0.676068
vn -0.0124 -0.2854 0.9583
vn -0.3593 -0.3112 0.8798
vn 0.2316 -0.6670 0.7082
vn 0.4019 -0.6843 0.6084
vn 0.3105 -0.6686 -0.6757
vn 0.3084 -0.5891 -0.7469
vn 0.6219 -0.5011 -0.6018
vn 0.6901 -0.4723 -0.5484
vn -0.7700 -0.0392 -0.6369
vn 0.9705 0.0870 0.2247
vn -0.2005 -0.4350 -0.8778
vn -0.2345 -0.3528 -0.9058
vn -0.3056 -0.6148 -0.7271
vn -0.4307 -0.5537 -0.7127
vn 0.8888 0.4577 0.0238
vn 0.9505 0.1087 0.2912
vn 0.9941 0.0502 -0.0964
vn -0.4201 -0.0284 0.9071
vn -0.1763 0.0190 0.9842
vn 0.5555 0.0114 -0.8315
vn 0.5982 0.0577 -0.7992
vn 0.5720 0.0237 -0.8199
vn -0.0015 0.9483 -0.3175
vn -0.6104 0.4470 0.6539
vn -0.5093 0.6344 0.5815
vn -0.6484 -0.6132 0.4511
vn -0.3937 -0.4654 0.7927
vn -0.7218 -0.3848 0.5752
vn 0.0194 0.4941 -0.8692
vn -0.9615 -0.0104 0.2746
vn -0.9332 -0.2771 -0.2287
vn -0.9550 -0.2736 0.1145
vn 0.9392 -0.0044 0.3433
vn -0.3290 0.6760 -0.6594
vn -0.4388 0.8567 0.2711
vn -0.3190 0.7084 0.6296
vn -0.3503 0.8640 0.3616
vn 0.2196 -0.3266 0.9193
vn 0.1977 -0.3460 0.9172
vn -0.0790 -0.5548 0.8282
vn -0.9786 -0.1502 0.1410
vn 0.2935 0.8974 0.3294
vn 0.6575 0.6947 0.2918
vn 0.4716 0.8804 -0.0500
vn -0.4992 0.8004 0.3320
vn -0.2918 0.6104 0.7364
vn -0.2830 0.9541 -0.0979
vn -0.3214 -0.1077 0.9408
vn -0.1668 0.2446 0.9552
vn 0.2723 -0.3270 0.9049
vn 0.6720 0.7209 -0.1692
vn 0.4535 0.8445 -0.2849
vn 0.1624 0.9867 0.0041
vn 0.5095 0.8380 0.1954
vn 0.5685 0.3736 -0.7330
vn 0.3628 0.5119 -0.7787
vn 0.3043 0.1433 -0.9417
vn -0.0566 0.4804 -0.8752
vn -0.0273 0.9188 -0.3937
vn -0.4854 0.7168 -0.5006
vn 0.4651 -0.0741 0.8822
vn -0.7021 0.6368 -0.3185
vn -0.2960 0.9440 -0.1460
vn -0.2636 0.8374 0.4789
vn -0.1652 0.9831 0.0785
vn -0.4380 0.5959 -0.6731
vn 0.0453 0.7009 0.7118
vn 0.3255 0.0260 0.9452
vn 0.3572 -0.0525 0.9326
vn 0.4183 0.0645 0.9060
vn 0.6683 -0.1032 -0.7367
vn 0.2281 -0.4097 -0.8832
vn 0.4516 -0.0159 -0.8921
vn 0.7452 -0.3055 -0.5928
vn 0.8963 -0.4427 -0.0244
vn 0.9766 0.0349 0.2122
vn 0.6430 0.7385 0.2027
vn 0.8382 0.5044 -0.2073
vn 0.6862 0.6234 -0.3748
vn -0.6051 -0.0931 -0.7907
vn -0.6125 -0.1226 -0.7809
vn -0.1079 -0.3241 -0.9399
vn -0.4728 -0.3014 -0.8280
vn -0.6277 -0.1735 -0.7588
vn -0.5627 -0.5700 -0.5988
vn -0.8158 -0.5689 -0.1036
vn 0.0801 0.9336 -0.3492
vn -0.1841 0.9709 -0.1532
vn 0.1209 -0.1566 0.9802
vn 0.1235 0.9555 -0.2677
vn -0.8987 -0.4345 0.0593
vn -0.9317 -0.0544 0.3590
vn -0.9797 -0.1256 0.1562
vn -0.5874 0.6895 0.4236
vn -0.2320 0.9325 0.2768
vn -0.6833 0.7237 -0.0966
vn -0.8477 0.4438 0.2906
vn 0.2164 0.9271 0.3060
vn -0.7141 0.0415 0.6989
vn -0.7349 0.2850 -0.6154
vn 0.5863 0.0694 -0.8071
vn -0.8255 0.5615 -0.0572
vn -0.9089 0.2380 -0.3424
vn -0.9871 0.0784 0.1393
vn 0.3644 0.7708 -0.5225
vn -0.7938 -0.2438 0.5572
vn -0.8670 -0.4735 0.1551
vn -0.8027 -0.4944 0.3335
vn -0.9747 -0.0850 -0.2065
vn -0.7970 -0.0792 0.5987
vn 0.6450 0.0408 0.7631
vn 0.8896 -0.2347 0.3918
vn 0.9273 0.3379 0.1613
vn 0.8662 0.2085 0.4541
vn 0.9403 0.0243 -0.3394
vn 0.9556 -0.2221 0.1937
vn 0.9544 -0.2492 -0.1644
vn 0.7019 -0.4899 0.5170
vn 0.4703 -0.4598 0.7533
vn 0.7219 0.3183 0.6144
vn 0.8443 -0.1676 -0.5089
vn 0.9043 -0.3760 -0.2022
vn 0.7632 -0.6455 0.0307
vn 0.7281 -0.6853 -0.0182
vn 0.5461 -0.7386 0.3952
vn 0.6820 -0.5997 0.4186
vn 0.5832 -0.2465 -0.7740
vn 0.3078 -0.1270 -0.9430
vn -0.1560 -0.4326 -0.8880
vn -0.2375 -0.4418 -0.8651
vn -0.5297 -0.6428 -0.5533
vn -0.4209 -0.3532 -0.8355
vn -0.7395 -0.6634 0.1144
vn 0.2881 -0.8378 0.4638
vn -0.8572 0.2146 0.4681
vn -0.9370 -0.1831 0.2975
vn 0.6604 -0.6937 0.2876
vn -0.0517 0.4569 0.8880
vn -0.5569 -0.7231 -0.4086
vn -0.3882 -0.7003 -0.5991
vn -0.1767 -0.6240 -0.7612
vn -0.6410 -0.2328 -0.7314
vn 0.5812 0.0391 0.8128
vn 0.7428 0.1606 0.6499
vn 0.5152 0.3616 0.7771
vn 0.2742 0.1060 0.9558
vn 0.5075 0.8404 0.1901
vn 0.4619 0.8687 -0.1790
vn 0.7978 0.4311 -0.4214
vn -0.2822 0.8419 -0.4600
vn -0.6117 0.6310 -0.4771
vn -0.4810 0.8588 -0.1762
vn 0.8453 -0.2909 0.4481
vn 0.6867 -0.2368 0.6873
vn 0.6188 0.0667 -0.7827
vn 0.4031 0.1653 -0.9001
vn -0.7305 0.5057 0.4589
vn -0.5312 0.3760 0.7593
vn -0.4902 0.6909 0.5314
vn -0.6045 0.0587 0.7944
vn -0.4029 0.1626 0.9007
vn -0.7911 -0.5453 0.2772
vn -0.8318 -0.5545 -0.0267
vn -0.7445 -0.6394 0.1920
vn -0.6490 -0.6064 0.4595
vn 0.3735 -0.5034 -0.7792
vn 0.3586 -0.5937 -0.7204
vn 0.5582 -0.5338 -0.6352
vn -0.5830 0.0427 -0.8113
vn -0.7469 0.1435 -0.6492
vn -0.2698 0.1735 -0.9472
vn -0.5139 0.3902 -0.7640
vn -0.8401 -0.2399 -0.4866
vn 0.5911 0.0134 -0.8065
vn 0.9955 0.0708 0.0629
vn 0.4906 -0.0626 0.8691
vn -0.4712 -0.2703 0.8396
vn -0.9359 -0.3449 -0.0718
vn -0.3663 -0.1910 -0.9107
vn 0.1877 -0.9817 -0.0332
vn -0.6335 0.7737 -0.0029
vn -0.4941 0.8653 -0.0845
vn -0.6081 0.7668 -0.2055
vn -0.5054 0.8568 0.1027
vn -0.6324 0.7484 0.1998
vn -0.7511 0.6555 0.0788
vn -0.7398 0.6640 -0.1084
vn -0.5345 0.2258 0.8145
vn -0.7969 0.6034 -0.0289
vn -0.3995 0.3240 -0.8576
vn 0.2975 -0.3709 -0.8797
vn 0.5992 -0.8006 0.0014
vn 0.1565 -0.4735 0.8668
vn -0.6866 -0.7205 -0.0977
vn 0.9485 0.3025 0.0943
vn 0.8758 0.4433 0.1911
vn 0.9124 0.2843 0.2945
vn 0.8908 0.4543 0.0043
vn 0.9450 0.3081 -0.1098
vn 0.9885 0.1513 -0.0057
vn 0.9734 0.1403 0.1812
vn 0.4133 0.4227 -0.8065
vn 0.6624 0.7465 0.0629
vn 0.3946 0.2982 0.8691
vn -0.1480 -0.5227 0.8396
vn -0.4282 -0.9008 -0.0718
vn -0.1284 -0.3926 -0.9107
vn 0.8205 -0.5707 -0.0332
vn -0.9939 0.1104 -0.0029
vn -0.9582 0.2733 -0.0845
vn -0.9709 0.1232 -0.2055
vn -0.9603 0.2594 0.1027
vn -0.9754 0.0931 0.1998
vn -0.9953 -0.0563 0.0788
vn -0.9932 -0.0424 -0.1084
usemtl demonlord
s 1
f 12/1/1 90/2/2 94/3/3 11/4/4
f 17/5/5 72/6/6 73/7/7 5/8/8
f 14/9/9 92/10/9 95/11/9 15/12/9
f 13/13/10 100/14/10 101/15/10 17/16/10
f 16/17/11 98/18/12 96/19/13 14/20/14
f 18/21/15 70/22/16 71/23/17 19/24/15
f 3/25/18 12/26/1 20/27/19
f 4/28/20 103/29/21 106/30/21 23/31/22
f 27/32/23 77/33/23 75/34/23 9/35/23
f 20/36/19 48/37/24 46/38/25 6/39/25
f 3/40/26 85/41/27 88/42/28 15/43/26
f 16/44/29 110/45/29 108/46/29 22/47/29
f 8/48/30 105/49/30 104/50/31 22/51/32
f 5/8/33 73/7/33 76/52/33 19/53/33
f 28/54/34 55/55/34 56/56/34 27/57/34
f 7/58/35 25/59/36 29/60/37
f 7/61/38 81/62/39 83/63/40 21/64/40
f 30/65/41 65/66/41 60/67/41 26/68/41
f 24/69/42 57/70/43 55/55/44 28/54/42
f 10/71/45 63/72/46 65/66/46 30/65/47
f 11/73/4 66/74/48 67/75/49 2/76/50
f 28/77/51 62/78/52 63/72/53 10/71/54
f 27/79/55 64/80/56 62/78/52 28/77/51
f 9/81/57 61/82/58 64/80/56 27/79/55
f 26/83/59 8/84/60 30/85/47
f 30/85/47 29/60/37 10/86/45
f 29/87/61 80/88/61 81/62/39 7/61/38
f 8/89/60 79/90/62 82/91/63 30/92/47
f 29/93/37 54/94/64 52/95/65 10/96/45
f 10/96/66 52/95/66 51/97/66 28/98/66
f 25/99/36 53/100/67 54/94/64 29/93/37
f 6/101/68 50/102/69 53/100/69 25/99/70
f 28/98/71 51/97/71 49/103/71 24/104/71
f 27/57/72 56/56/73 58/105/74 19/106/72
f 19/106/75 58/105/74 59/107/76 18/108/75
f 19/53/77 76/52/78 77/33/79 27/32/77
f 9/35/80 75/34/81 74/109/82 23/110/83
f 23/111/83 26/83/84 9/112/80
f 22/51/32 104/50/31 102/113/85 16/114/86
f 26/115/59 107/116/87 105/49/88 8/48/60
f 20/117/19 84/118/89 85/41/27 3/40/18
f 30/92/47 82/91/63 80/88/90 29/87/37
f 21/64/91 83/63/92 78/119/93 22/120/91
f 7/121/35 87/122/94 86/123/95 25/124/36
f 21/125/96 89/126/97 87/122/94 7/121/35
f 20/27/19 6/127/68 25/59/70
f 6/39/98 46/38/98 45/128/98 24/129/98
f 12/130/1 47/131/99 48/37/24 20/36/19
f 23/110/83 74/109/82 72/6/6 17/5/5
f 22/120/100 78/119/100 79/90/62 8/89/60
f 17/132/101 4/133/20 23/111/22
f 22/47/102 108/46/103 109/134/104 21/135/102
f 23/31/105 106/30/105 107/116/87 26/115/59
f 21/135/106 109/134/104 111/136/107 15/137/108
f 15/43/109 88/42/109 89/126/109 21/125/109
f 3/138/18 91/139/110 90/2/2 12/1/1
f 25/124/70 86/123/111 84/118/89 20/117/19
f 24/104/112 49/103/113 50/102/114 6/101/112
f 24/129/115 45/128/115 43/140/116 18/141/117
f 2/142/50 44/143/118 47/131/119 12/130/1
f 18/108/120 59/107/76 57/70/43 24/69/120
f 19/24/121 71/23/17 69/144/122 5/145/8
f 5/145/8 69/144/122 68/146/123 13/147/124
f 13/148/124 17/132/5 5/149/8
f 1/150/125 97/151/126 100/14/126 13/13/124
f 17/16/101 101/15/127 99/152/128 4/153/20
f 4/153/129 99/152/128 98/18/12 16/17/11
f 16/114/11 102/113/85 103/29/130 4/28/129
f 14/154/14 112/155/131 110/45/132 16/44/11
f 15/137/108 111/136/107 112/155/131 14/154/133
f 11/4/4 94/3/3 93/156/134 1/157/125
f 15/12/135 95/11/136 91/139/110 3/138/18
f 13/147/124 68/146/123 66/74/137 11/73/4
f 2/76/50 67/75/49 70/22/138 18/21/138
f 11/158/4 1/159/125 13/148/124
f 14/20/14 96/19/13 97/151/139 1/150/140
f 1/157/140 93/156/141 92/10/141 14/9/14
f 11/158/4 2/160/50 12/26/1
f 18/141/117 43/140/116 44/143/118 2/142/50
f 26/68/84 60/67/142 61/82/142 9/81/80
f 31/161/143 44/162/118 43/163/116
f 31/164/143 45/165/144 46/166/145
f 31/167/143 47/168/119 44/162/118
f 31/169/143 46/166/145 48/170/146
f 31/171/143 43/163/116 45/165/144
f 31/172/143 48/170/146 47/168/119
f 32/173/147 50/174/114 49/175/113
f 32/176/147 51/177/148 52/178/65
f 32/179/147 53/180/67 50/174/114
f 32/181/147 52/178/65 54/182/64
f 32/183/147 54/182/64 53/180/67
f 32/184/147 49/175/113 51/177/148
f 33/185/149 56/186/73 55/187/44
f 33/188/149 55/187/44 57/189/43
f 33/190/149 58/191/74 56/186/73
f 33/192/149 57/189/43 59/193/76
f 33/194/149 59/193/76 58/191/74
f 34/195/150 61/196/58 60/197/151
f 34/198/150 63/199/53 62/200/52
f 34/201/150 64/202/56 61/196/58
f 34/203/150 65/204/152 63/199/53
f 34/205/150 62/200/52 64/202/56
f 34/206/150 60/197/151 65/204/152
f 35/207/153 67/208/154 66/209/137
f 35/210/153 68/211/123 69/212/122
f 35/213/153 70/214/16 67/208/154
f 35/215/153 69/212/122 71/216/17
f 35/217/153 71/216/17 70/214/16
f 35/218/153 66/209/137 68/211/123
f 36/219/155 73/220/7 72/221/6
f 36/222/155 74/223/82 75/224/156
f 36/225/155 76/226/78 73/220/7
f 36/227/155 75/224/156 77/228/79
f 36/229/155 77/228/79 76/226/78
f 36/230/155 72/221/6 74/223/82
f 37/231/157 79/232/62 78/233/93
f 37/234/157 81/235/158 80/236/159
f 37/237/157 82/238/63 79/232/62
f 37/239/157 83/240/92 81/235/158
f 37/241/157 80/236/159 82/238/63
f 37/242/157 78/233/93 83/240/92
f 38/243/160 85/244/27 84/245/89
f 38/246/160 86/247/161 87/248/94
f 38/249/160 88/250/28 85/244/27
f 38/251/160 87/248/94 89/252/97
f 38/253/160 84/245/89 86/247/161
f 38/254/160 89/252/97 88/250/28
f 39/255/162 90/256/2 91/257/110
f 39/258/162 92/259/163 93/260/164
f 39/261/162 93/260/164 94/262/165
f 39/263/162 91/257/110 95/264/136
f 39/265/162 95/264/136 92/259/163
f 39/266/162 94/262/165 90/256/2
f 40/267/166 97/268/167 96/269/13
f 40/270/166 98/271/12 99/272/128
f 40/273/166 100/274/168 97/268/167
f 40/275/166 99/272/128 101/276/127
f 40/277/166 101/276/127 100/274/168
f 40/278/166 96/269/13 98/271/12
f 41/279/169 103/280/130 102/281/85
f 41/282/169 104/283/31 105/284/170
f 41/285/169 106/286/171 103/280/130
f 41/287/169 105/284/170 107/288/172
f 41/289/169 107/288/172 106/286/171
f 41/290/169 102/281/85 104/283/31
f 42/291/173 109/292/104 108/293/103
f 42/294/173 108/293/103 110/295/132
f 42/296/173 111/297/107 109/292/104
f 42/298/173 110/295/132 112/299/131
f 42/300/173 112/299/131 111/297/107
f 113/301/174 121/302/174 120/303/174 115/304/174
f 115/304/175 120/303/175 122/305/175 116/306/175
f 116/306/176 122/305/176 123/307/176 117/308/176
f 117/308/177 123/307/177 124/309/177 118/310/177
f 118/310/178 124/309/178 125/311/178 119/312/178
f 119/312/179 125/311/179 121/302/179 113/301/179
f 113/301/180 115/304/180 116/306/180 117/308/180 118/310/180 119/312/180
f 114/313/181 120/314/182 121/315/183
f 114/313/181 122/316/184 120/314/182
f 114/313/181 123/317/185 122/316/184
f 114/313/181 124/318/186 123/317/185
f 114/313/181 125/319/187 124/318/186
f 114/313/181 121/315/183 125/319/187
f 126/320/188 134/321/188 133/322/188 128/323/188
f 128/323/189 133/322/189 135/324/189 129/325/189
f 129/325/190 135/324/190 136/326/190 130/327/190
f 130/327/191 136/326/191 137/328/191 131/329/191
f 131/329/192 137/328/192 138/330/192 132/331/192
f 132/331/193 138/330/193 134/321/193 126/320/193
f 126/320/194 128/323/194 129/325/194 130/327/194 131/329/194 132/331/194
f 127/332/195 133/333/196 134/334/197
f 127/332/195 135/335/198 133/333/196
f 127/332/195 136/336/199 135/335/198
f 127/332/195 137/337/200 136/336/199
f 127/332/195 138/338/201 137/337/200
f 127/332/195 134/334/197 138/338/201
f 139/339/202 147/340/202 146/341/202 141/342/202
f 141/342/203 146/341/203 148/343/203 142/344/203
f 142/344/204 148/343/204 149/345/204 143/346/204
f 143/346/205 149/345/205 150/347/205 144/348/205
f 144/348/206 150/347/206 151/349/206 145/350/206
f 145/350/207 151/349/207 147/340/207 139/339/207
f 139/339/208 141/342/208 142/344/208 143/346/208 144/348/208 145/350/208
f 140/351/209 146/352/210 147/353/211
f 140/351/209 148/354/212 146/352/210
f 140/351/209 149/355/213 148/354/212
f 140/351/209 150/356/214 149/355/213
f 140/351/209 151/357/215 150/356/214
f 140/351/209 147/353/211 151/357/215
