{
    "asset" : {
        "generator" : "Khronos glTF Blender I/O v0.9.36",
        "version" : "2.0"
    },
    "scene" : 0,
    "scenes" : [
        {
            "name" : "Scene",
            "nodes" : [
                3
            ]
        }
    ],
    "nodes" : [
        {
            "mesh" : 0,
            "name" : "character_santaArmLeft",
            "translation" : [
                0.20404434204101562,
                0.6335563659667969,
                0
            ]
        },
        {
            "mesh" : 1,
            "name" : "character_santaArmRight",
            "translation" : [
                -0.20404624938964844,
                0.6335563063621521,
                0
            ]
        },
        {
            "mesh" : 2,
            "name" : "character_santaHead",
            "translation" : [
                0,
                0.704538106918335,
                0
            ]
        },
        {
            "children" : [
                0,
                1,
                2
            ],
            "mesh" : 3,
            "name" : "character_santaBody"
        }
    ],
    "materials" : [
        {
            "name" : "White",
            "pbrMetallicRoughness" : {
                "baseColorFactor" : [
                    0.799102783203125,
                    0.799102783203125,
                    0.799102783203125,
                    1
                ],
                "metallicFactor" : 0,
                "roughnessFactor" : 0.5
            }
        },
        {
            "name" : "RedDark",
            "pbrMetallicRoughness" : {
                "baseColorFactor" : [
                    0.7230429649353027,
                    0.019390203058719635,
                    0.08769338577985764,
                    1
                ],
                "metallicFactor" : 0,
                "roughnessFactor" : 0.5
            }
        },
        {
            "doubleSided" : true,
            "name" : "PinkLight",
            "pbrMetallicRoughness" : {
                "baseColorFactor" : [
                    0.9215819239616394,
                    0.5271151065826416,
                    0.33245164155960083,
                    1
                ],
                "metallicFactor" : 0,
                "roughnessFactor" : 0.5
            }
        },
        {
            "name" : "Black",
            "pbrMetallicRoughness" : {
                "baseColorFactor" : [
                    0.019794002175331116,
                    0.03207586705684662,
                    0.037408243864774704,
                    1
                ],
                "metallicFactor" : 0,
                "roughnessFactor" : 0.5
            }
        },
        {
            "name" : "Gold",
            "pbrMetallicRoughness" : {
                "baseColorFactor" : [
                    0.49687275290489197,
                    0.3342590034008026,
                    0.10588642954826355,
                    1
                ],
                "metallicFactor" : 0.40909093618392944,
                "roughnessFactor" : 0.2340908944606781
            }
        }
    ],
    "meshes" : [
        {
            "name" : "Cube.4703",
            "primitives" : [
                {
                    "attributes" : {
                        "POSITION" : 0,
                        "NORMAL" : 1,
                        "TEXCOORD_0" : 2
                    },
                    "indices" : 3,
                    "material" : 0
                },
                {
                    "attributes" : {
                        "POSITION" : 4,
                        "NORMAL" : 5,
                        "TEXCOORD_0" : 6
                    },
                    "indices" : 7,
                    "material" : 1
                },
                {
                    "attributes" : {
                        "POSITION" : 8,
                        "NORMAL" : 9,
                        "TEXCOORD_0" : 10
                    },
                    "indices" : 11,
                    "material" : 2
                }
            ]
        },
        {
            "name" : "Cube.4704",
            "primitives" : [
                {
                    "attributes" : {
                        "POSITION" : 12,
                        "NORMAL" : 13,
                        "TEXCOORD_0" : 14
                    },
                    "indices" : 15,
                    "material" : 0
                },
                {
                    "attributes" : {
                        "POSITION" : 16,
                        "NORMAL" : 17,
                        "TEXCOORD_0" : 18
                    },
                    "indices" : 19,
                    "material" : 1
                },
                {
                    "attributes" : {
                        "POSITION" : 20,
                        "NORMAL" : 21,
                        "TEXCOORD_0" : 22
                    },
                    "indices" : 23,
                    "material" : 2
                }
            ]
        },
        {
            "name" : "Cube.4701",
            "primitives" : [
                {
                    "attributes" : {
                        "POSITION" : 24,
                        "NORMAL" : 25,
                        "TEXCOORD_0" : 26
                    },
                    "indices" : 27,
                    "material" : 2
                },
                {
                    "attributes" : {
                        "POSITION" : 28,
                        "NORMAL" : 29,
                        "TEXCOORD_0" : 30
                    },
                    "indices" : 31,
                    "material" : 3
                },
                {
                    "attributes" : {
                        "POSITION" : 32,
                        "NORMAL" : 33,
                        "TEXCOORD_0" : 34
                    },
                    "indices" : 35,
                    "material" : 0
                },
                {
                    "attributes" : {
                        "POSITION" : 36,
                        "NORMAL" : 37,
                        "TEXCOORD_0" : 38
                    },
                    "indices" : 39,
                    "material" : 1
                }
            ]
        },
        {
            "name" : "Cube.4700",
            "primitives" : [
                {
                    "attributes" : {
                        "POSITION" : 40,
                        "NORMAL" : 41,
                        "TEXCOORD_0" : 42
                    },
                    "indices" : 43,
                    "material" : 1
                },
                {
                    "attributes" : {
                        "POSITION" : 44,
                        "NORMAL" : 45,
                        "TEXCOORD_0" : 46
                    },
                    "indices" : 47,
                    "material" : 3
                },
                {
                    "attributes" : {
                        "POSITION" : 48,
                        "NORMAL" : 49,
                        "TEXCOORD_0" : 50
                    },
                    "indices" : 51,
                    "material" : 4
                },
                {
                    "attributes" : {
                        "POSITION" : 52,
                        "NORMAL" : 53,
                        "TEXCOORD_0" : 54
                    },
                    "indices" : 55,
                    "material" : 0
                }
            ]
        }
    ],
    "accessors" : [
        {
            "bufferView" : 0,
            "componentType" : 5126,
            "count" : 90,
            "max" : [
                0.29304519295692444,
                -0.26161473989486694,
                0.12435349822044373
            ],
            "min" : [
                0.11037091910839081,
                -0.34376147389411926,
                -0.12435349822044373
            ],
            "type" : "VEC3"
        },
        {
            "bufferView" : 1,
            "componentType" : 5126,
            "count" : 90,
            "type" : "VEC3"
        },
        {
            "bufferView" : 2,
            "componentType" : 5126,
            "count" : 90,
            "type" : "VEC2"
        },
        {
            "bufferView" : 3,
            "componentType" : 5123,
            "count" : 306,
            "type" : "SCALAR"
        },
        {
            "bufferView" : 4,
            "componentType" : 5126,
            "count" : 106,
            "max" : [
                0.2613336443901062,
                0.09418356418609619,
                0.11328349262475967
            ],
            "min" : [
                -0.11533478647470474,
                -0.2616254985332489,
                -0.11328351497650146
            ],
            "type" : "VEC3"
        },
        {
            "bufferView" : 5,
            "componentType" : 5126,
            "count" : 106,
            "type" : "VEC3"
        },
        {
            "bufferView" : 6,
            "componentType" : 5126,
            "count" : 106,
            "type" : "VEC2"
        },
        {
            "bufferView" : 7,
            "componentType" : 5123,
            "count" : 417,
            "type" : "SCALAR"
        },
        {
            "bufferView" : 8,
            "componentType" : 5126,
            "count" : 117,
            "max" : [
                0.26490139961242676,
                -0.3437543511390686,
                0.09058663994073868
            ],
            "min" : [
                0.12564954161643982,
                -0.47665560245513916,
                -0.0905865803360939
            ],
            "type" : "VEC3"
        },
        {
            "bufferView" : 9,
            "componentType" : 5126,
            "count" : 117,
            "type" : "VEC3"
        },
        {
            "bufferView" : 10,
            "componentType" : 5126,
            "count" : 117,
            "type" : "VEC2"
        },
        {
            "bufferView" : 11,
            "componentType" : 5123,
            "count" : 561,
            "type" : "SCALAR"
        },
        {
            "bufferView" : 12,
            "componentType" : 5126,
            "count" : 90,
            "max" : [
                -0.11037091910839081,
                -0.26161473989486694,
                0.12435349822044373
            ],
            "min" : [
                -0.29304519295692444,
                -0.34376147389411926,
                -0.12435349822044373
            ],
            "type" : "VEC3"
        },
        {
            "bufferView" : 13,
            "componentType" : 5126,
            "count" : 90,
            "type" : "VEC3"
        },
        {
            "bufferView" : 14,
            "componentType" : 5126,
            "count" : 90,
            "type" : "VEC2"
        },
        {
            "bufferView" : 15,
            "componentType" : 5123,
            "count" : 306,
            "type" : "SCALAR"
        },
        {
            "bufferView" : 16,
            "componentType" : 5126,
            "count" : 106,
            "max" : [
                0.11533478647470474,
                0.09418356418609619,
                0.11328349262475967
            ],
            "min" : [
                -0.2613336443901062,
                -0.2616254985332489,
                -0.11328351497650146
            ],
            "type" : "VEC3"
        },
        {
            "bufferView" : 17,
            "componentType" : 5126,
            "count" : 106,
            "type" : "VEC3"
        },
        {
            "bufferView" : 18,
            "componentType" : 5126,
            "count" : 106,
            "type" : "VEC2"
        },
        {
            "bufferView" : 19,
            "componentType" : 5123,
            "count" : 417,
            "type" : "SCALAR"
        },
        {
            "bufferView" : 20,
            "componentType" : 5126,
            "count" : 117,
            "max" : [
                -0.12564954161643982,
                -0.3437543511390686,
                0.09058663994073868
            ],
            "min" : [
                -0.26490139961242676,
                -0.47665560245513916,
                -0.0905865803360939
            ],
            "type" : "VEC3"
        },
        {
            "bufferView" : 21,
            "componentType" : 5126,
            "count" : 117,
            "type" : "VEC3"
        },
        {
            "bufferView" : 22,
            "componentType" : 5126,
            "count" : 117,
            "type" : "VEC2"
        },
        {
            "bufferView" : 23,
            "componentType" : 5123,
            "count" : 561,
            "type" : "SCALAR"
        },
        {
            "bufferView" : 24,
            "componentType" : 5126,
            "count" : 462,
            "max" : [
                0.5877276062965393,
                0.8600599765777588,
                0.5780367851257324
            ],
            "min" : [
                -0.5877274870872498,
                0,
                -0.4330125153064728
            ],
            "type" : "VEC3"
        },
        {
            "bufferView" : 25,
            "componentType" : 5126,
            "count" : 462,
            "type" : "VEC3"
        },
        {
            "bufferView" : 26,
            "componentType" : 5126,
            "count" : 462,
            "type" : "VEC2"
        },
        {
            "bufferView" : 27,
            "componentType" : 5123,
            "count" : 1314,
            "type" : "SCALAR"
        },
        {
            "bufferView" : 28,
            "componentType" : 5126,
            "count" : 108,
            "max" : [
                0.329667866230011,
                0.4932206869125366,
                0.468027800321579
            ],
            "min" : [
                -0.32963353395462036,
                0.3560604751110077,
                0.36318591237068176
            ],
            "type" : "VEC3"
        },
        {
            "bufferView" : 29,
            "componentType" : 5126,
            "count" : 108,
            "type" : "VEC3"
        },
        {
            "bufferView" : 30,
            "componentType" : 5126,
            "count" : 108,
            "type" : "VEC2"
        },
        {
            "bufferView" : 31,
            "componentType" : 5123,
            "count" : 396,
            "type" : "SCALAR"
        },
        {
            "bufferView" : 32,
            "componentType" : 5126,
            "count" : 1152,
            "max" : [
                0.6616568565368652,
                1.245403528213501,
                0.594505250453949
            ],
            "min" : [
                -0.6836289763450623,
                -0.14649060368537903,
                -0.6939043998718262
            ],
            "type" : "VEC3"
        },
        {
            "bufferView" : 33,
            "componentType" : 5126,
            "count" : 1152,
            "type" : "VEC3"
        },
        {
            "bufferView" : 34,
            "componentType" : 5126,
            "count" : 1152,
            "type" : "VEC2"
        },
        {
            "bufferView" : 35,
            "componentType" : 5123,
            "count" : 4848,
            "type" : "SCALAR"
        },
        {
            "bufferView" : 36,
            "componentType" : 5126,
            "count" : 293,
            "max" : [
                0.5942566394805908,
                1.3766273260116577,
                0.4268932640552521
            ],
            "min" : [
                -0.5453914403915405,
                0.5137981176376343,
                -0.6124041676521301
            ],
            "type" : "VEC3"
        },
        {
            "bufferView" : 37,
            "componentType" : 5126,
            "count" : 293,
            "type" : "VEC3"
        },
        {
            "bufferView" : 38,
            "componentType" : 5126,
            "count" : 293,
            "type" : "VEC2"
        },
        {
            "bufferView" : 39,
            "componentType" : 5123,
            "count" : 1458,
            "type" : "SCALAR"
        },
        {
            "bufferView" : 40,
            "componentType" : 5126,
            "count" : 239,
            "max" : [
                0.32655423879623413,
                0.7255613207817078,
                0.32655423879623413
            ],
            "min" : [
                -0.32655423879623413,
                -2.9802322387695312e-08,
                -0.33807381987571716
            ],
            "type" : "VEC3"
        },
        {
            "bufferView" : 41,
            "componentType" : 5126,
            "count" : 239,
            "type" : "VEC3"
        },
        {
            "bufferView" : 42,
            "componentType" : 5126,
            "count" : 239,
            "type" : "VEC2"
        },
        {
            "bufferView" : 43,
            "componentType" : 5123,
            "count" : 936,
            "type" : "SCALAR"
        },
        {
            "bufferView" : 44,
            "componentType" : 5126,
            "count" : 146,
            "max" : [
                0.3505779504776001,
                0.31824323534965515,
                0.36294496059417725
            ],
            "min" : [
                -0.3505779504776001,
                0.1739652156829834,
                -0.36294496059417725
            ],
            "type" : "VEC3"
        },
        {
            "bufferView" : 45,
            "componentType" : 5126,
            "count" : 146,
            "type" : "VEC3"
        },
        {
            "bufferView" : 46,
            "componentType" : 5126,
            "count" : 146,
            "type" : "VEC2"
        },
        {
            "bufferView" : 47,
            "componentType" : 5123,
            "count" : 576,
            "type" : "SCALAR"
        },
        {
            "bufferView" : 48,
            "componentType" : 5126,
            "count" : 32,
            "max" : [
                0.12136662006378174,
                0.32667112350463867,
                0.3763223886489868
            ],
            "min" : [
                -0.12136661261320114,
                0.16499558091163635,
                0.3050004243850708
            ],
            "type" : "VEC3"
        },
        {
            "bufferView" : 49,
            "componentType" : 5126,
            "count" : 32,
            "type" : "VEC3"
        },
        {
            "bufferView" : 50,
            "componentType" : 5126,
            "count" : 32,
            "type" : "VEC2"
        },
        {
            "bufferView" : 51,
            "componentType" : 5123,
            "count" : 144,
            "type" : "SCALAR"
        },
        {
            "bufferView" : 52,
            "componentType" : 5126,
            "count" : 134,
            "max" : [
                0.3464309275150299,
                0.7255613207817078,
                0.3478269875049591
            ],
            "min" : [
                -0.3464306592941284,
                0.06617268174886703,
                -0.3478270173072815
            ],
            "type" : "VEC3"
        },
        {
            "bufferView" : 53,
            "componentType" : 5126,
            "count" : 134,
            "type" : "VEC3"
        },
        {
            "bufferView" : 54,
            "componentType" : 5126,
            "count" : 134,
            "type" : "VEC2"
        },
        {
            "bufferView" : 55,
            "componentType" : 5123,
            "count" : 540,
            "type" : "SCALAR"
        }
    ],
    "bufferViews" : [
        {
            "buffer" : 0,
            "byteLength" : 1080,
            "byteOffset" : 0
        },
        {
            "buffer" : 0,
            "byteLength" : 1080,
            "byteOffset" : 1080
        },
        {
            "buffer" : 0,
            "byteLength" : 720,
            "byteOffset" : 2160
        },
        {
            "buffer" : 0,
            "byteLength" : 612,
            "byteOffset" : 2880
        },
        {
            "buffer" : 0,
            "byteLength" : 1272,
            "byteOffset" : 3492
        },
        {
            "buffer" : 0,
            "byteLength" : 1272,
            "byteOffset" : 4764
        },
        {
            "buffer" : 0,
            "byteLength" : 848,
            "byteOffset" : 6036
        },
        {
            "buffer" : 0,
            "byteLength" : 834,
            "byteOffset" : 6884
        },
        {
            "buffer" : 0,
            "byteLength" : 1404,
            "byteOffset" : 7720
        },
        {
            "buffer" : 0,
            "byteLength" : 1404,
            "byteOffset" : 9124
        },
        {
            "buffer" : 0,
            "byteLength" : 936,
            "byteOffset" : 10528
        },
        {
            "buffer" : 0,
            "byteLength" : 1122,
            "byteOffset" : 11464
        },
        {
            "buffer" : 0,
            "byteLength" : 1080,
            "byteOffset" : 12588
        },
        {
            "buffer" : 0,
            "byteLength" : 1080,
            "byteOffset" : 13668
        },
        {
            "buffer" : 0,
            "byteLength" : 720,
            "byteOffset" : 14748
        },
        {
            "buffer" : 0,
            "byteLength" : 612,
            "byteOffset" : 15468
        },
        {
            "buffer" : 0,
            "byteLength" : 1272,
            "byteOffset" : 16080
        },
        {
            "buffer" : 0,
            "byteLength" : 1272,
            "byteOffset" : 17352
        },
        {
            "buffer" : 0,
            "byteLength" : 848,
            "byteOffset" : 18624
        },
        {
            "buffer" : 0,
            "byteLength" : 834,
            "byteOffset" : 19472
        },
        {
            "buffer" : 0,
            "byteLength" : 1404,
            "byteOffset" : 20308
        },
        {
            "buffer" : 0,
            "byteLength" : 1404,
            "byteOffset" : 21712
        },
        {
            "buffer" : 0,
            "byteLength" : 936,
            "byteOffset" : 23116
        },
        {
            "buffer" : 0,
            "byteLength" : 1122,
            "byteOffset" : 24052
        },
        {
            "buffer" : 0,
            "byteLength" : 5544,
            "byteOffset" : 25176
        },
        {
            "buffer" : 0,
            "byteLength" : 5544,
            "byteOffset" : 30720
        },
        {
            "buffer" : 0,
            "byteLength" : 3696,
            "byteOffset" : 36264
        },
        {
            "buffer" : 0,
            "byteLength" : 2628,
            "byteOffset" : 39960
        },
        {
            "buffer" : 0,
            "byteLength" : 1296,
            "byteOffset" : 42588
        },
        {
            "buffer" : 0,
            "byteLength" : 1296,
            "byteOffset" : 43884
        },
        {
            "buffer" : 0,
            "byteLength" : 864,
            "byteOffset" : 45180
        },
        {
            "buffer" : 0,
            "byteLength" : 792,
            "byteOffset" : 46044
        },
        {
            "buffer" : 0,
            "byteLength" : 13824,
            "byteOffset" : 46836
        },
        {
            "buffer" : 0,
            "byteLength" : 13824,
            "byteOffset" : 60660
        },
        {
            "buffer" : 0,
            "byteLength" : 9216,
            "byteOffset" : 74484
        },
        {
            "buffer" : 0,
            "byteLength" : 9696,
            "byteOffset" : 83700
        },
        {
            "buffer" : 0,
            "byteLength" : 3516,
            "byteOffset" : 93396
        },
        {
            "buffer" : 0,
            "byteLength" : 3516,
            "byteOffset" : 96912
        },
        {
            "buffer" : 0,
            "byteLength" : 2344,
            "byteOffset" : 100428
        },
        {
            "buffer" : 0,
            "byteLength" : 2916,
            "byteOffset" : 102772
        },
        {
            "buffer" : 0,
            "byteLength" : 2868,
            "byteOffset" : 105688
        },
        {
            "buffer" : 0,
            "byteLength" : 2868,
            "byteOffset" : 108556
        },
        {
            "buffer" : 0,
            "byteLength" : 1912,
            "byteOffset" : 111424
        },
        {
            "buffer" : 0,
            "byteLength" : 1872,
            "byteOffset" : 113336
        },
        {
            "buffer" : 0,
            "byteLength" : 1752,
            "byteOffset" : 115208
        },
        {
            "buffer" : 0,
            "byteLength" : 1752,
            "byteOffset" : 116960
        },
        {
            "buffer" : 0,
            "byteLength" : 1168,
            "byteOffset" : 118712
        },
        {
            "buffer" : 0,
            "byteLength" : 1152,
            "byteOffset" : 119880
        },
        {
            "buffer" : 0,
            "byteLength" : 384,
            "byteOffset" : 121032
        },
        {
            "buffer" : 0,
            "byteLength" : 384,
            "byteOffset" : 121416
        },
        {
            "buffer" : 0,
            "byteLength" : 256,
            "byteOffset" : 121800
        },
        {
            "buffer" : 0,
            "byteLength" : 288,
            "byteOffset" : 122056
        },
        {
            "buffer" : 0,
            "byteLength" : 1608,
            "byteOffset" : 122344
        },
        {
            "buffer" : 0,
            "byteLength" : 1608,
            "byteOffset" : 123952
        },
        {
            "buffer" : 0,
            "byteLength" : 1072,
            "byteOffset" : 125560
        },
        {
            "buffer" : 0,
            "byteLength" : 1080,
            "byteOffset" : 126632
        }
    ],
    "buffers" : [
        {
            "byteLength" : 127712,
            "uri" : "data:application/octet-stream;base64,"
        }
    ]
}
