# Blender v3.4.1 OBJ File: 'August2026_UltraTurboHeroMan_Assets_Export.blend'
# www.blender.org
mtllib UltraTurboHeroMan_Blaster.mtl
o UltraTurboHeroMan_Blaster
v -0.054082 0.212012 0.718082
v -0.063784 0.202332 0.721436
v -0.063785 0.175225 0.730827
v -0.054084 0.165546 0.734181
v -0.060845 0.238830 0.708790
v -0.088952 0.210649 0.718554
v -0.088953 0.166783 0.733752
v -0.060849 0.138601 0.743517
v -0.056931 0.224239 0.721135
v -0.074556 0.206646 0.727231
v -0.074557 0.170532 0.739743
v -0.056934 0.152941 0.745838
v -0.060696 0.238149 0.599076
v -0.088950 0.210369 0.608701
v -0.088951 0.166797 0.623797
v -0.060682 0.138445 0.633620
v -0.048040 0.301865 -0.246499
v 0.048110 0.301865 -0.246499
v -0.048022 0.301865 0.023092
v -0.047999 0.301865 0.180141
v -0.047999 0.163884 0.180141
v 0.048069 0.163884 0.180141
v 0.048069 0.301865 0.180141
v 0.048092 0.301865 0.023092
v 0.033738 0.331733 -0.174387
v -0.033667 0.331733 -0.174387
v 0.033729 0.331733 -0.011710
v -0.033659 0.331733 -0.011710
v -0.033651 0.331733 0.057894
v -0.033643 0.331733 0.139285
v 0.033713 0.331733 0.139285
v 0.033721 0.331733 0.057894
v 0.032848 0.365124 -0.246499
v -0.032778 0.365124 -0.246499
v 0.032848 0.365124 -0.174387
v -0.032778 0.365124 -0.174387
v 0.017162 0.383127 -0.246499
v -0.017092 0.383127 -0.246499
v 0.017162 0.383127 -0.174387
v -0.017092 0.383127 -0.174387
v 0.205539 0.155582 0.149957
v 0.205539 0.141775 0.136151
v 0.219345 0.155582 0.136151
v 0.205539 0.220308 0.149957
v 0.205539 0.234115 0.136151
v 0.219345 0.220308 0.136151
v 0.205539 0.141775 0.048764
v 0.219345 0.155582 0.048764
v 0.205539 0.155582 0.034957
v 0.205539 0.234115 0.048764
v 0.205539 0.220308 0.034957
v 0.219345 0.220308 0.048764
v -0.205539 0.141775 0.136151
v -0.219345 0.155582 0.136151
v -0.205539 0.155582 0.149957
v -0.205539 0.234115 0.136151
v -0.205539 0.220308 0.149957
v -0.219345 0.220308 0.136151
v -0.205539 0.141775 0.048764
v -0.219345 0.155582 0.048764
v -0.205539 0.234115 0.048764
v -0.219345 0.220308 0.048764
v -0.205539 0.220308 0.034957
v 0.205539 0.141775 0.021151
v 0.219345 0.155582 0.021151
v 0.205539 0.234115 0.021151
v 0.219345 0.220308 0.021151
v 0.205539 0.141775 -0.054736
v 0.219345 0.155582 -0.054736
v 0.205539 0.155582 -0.068543
v 0.205539 0.234115 -0.054736
v 0.205539 0.220308 -0.068543
v 0.219345 0.220308 -0.054736
v -0.205539 0.141775 0.021151
v -0.219345 0.155582 0.021151
v -0.205539 0.155582 0.034957
v -0.205539 0.234115 0.021151
v -0.219345 0.220308 0.021151
v -0.205539 0.141775 -0.054736
v -0.205539 0.155582 -0.068543
v -0.219345 0.155582 -0.054736
v -0.205539 0.234115 -0.054736
v -0.219345 0.220308 -0.054736
v -0.205539 0.220308 -0.068543
v 0.054068 0.165547 0.734181
v 0.063770 0.175227 0.730827
v 0.063770 0.202334 0.721435
v 0.054069 0.212013 0.718082
v 0.089092 0.166785 0.733752
v 0.089093 0.210651 0.718554
v 0.060868 0.238831 0.708790
v 0.057018 0.152941 0.745838
v 0.074643 0.170535 0.739742
v 0.074644 0.206648 0.727230
v 0.057021 0.224240 0.721135
v 0.088545 0.166799 0.623797
v 0.088546 0.210370 0.608701
v 0.060723 0.238150 0.599076
v 0.060726 0.138446 0.633620
v 0.060868 0.138601 0.743517
v -0.049869 0.205540 0.668463
v -0.056876 0.198548 0.668463
v -0.056877 0.178971 0.668463
v -0.049871 0.171980 0.668463
v 0.000009 0.188609 0.668463
v 0.056862 0.178972 0.668463
v 0.049855 0.171981 0.668463
v 0.056862 0.198550 0.668463
v 0.049856 0.205540 0.668463
v -0.022112 0.108304 0.111814
v 0.022163 0.108304 0.111814
v -0.046944 0.120342 0.082960
v 0.022163 0.154448 0.001578
v -0.022112 0.154448 0.001578
v 0.046975 0.142410 0.030432
v -0.046944 0.142410 0.030432
v 0.046975 0.120342 0.082960
v 0.078968 -0.230423 -0.050840
v 0.046975 -0.152103 -0.030704
v 0.046975 -0.130035 -0.083231
v -0.046944 -0.152103 -0.030704
v -0.046944 -0.130035 -0.083231
v -0.022112 -0.164141 -0.001850
v 0.022163 -0.117997 -0.112085
v -0.022112 -0.117997 -0.112085
v 0.022163 -0.164141 -0.001850
v 0.078968 -0.199443 -0.124729
v -0.078936 -0.230423 -0.050840
v -0.078936 -0.199443 -0.124729
v -0.037194 -0.250662 -0.002328
v 0.037245 -0.179203 -0.173241
v -0.037194 -0.179203 -0.173241
v 0.037245 -0.250662 -0.002328
v 0.000016 -0.248146 -0.114104
v 0.054908 -0.256954 -0.071342
v 0.054908 -0.232676 -0.129165
v -0.054876 -0.256954 -0.071342
v -0.054876 -0.232676 -0.129165
v -0.025852 -0.271025 -0.037613
v 0.025903 -0.218604 -0.162893
v -0.025852 -0.218604 -0.162893
v 0.025903 -0.271025 -0.037613
v 0.046975 -0.048489 0.012524
v 0.046975 -0.074087 0.001844
v 0.040893 -0.060441 0.005153
v 0.046975 0.042326 0.050411
v 0.046975 0.016728 0.039732
v 0.040893 0.030374 0.043041
v -0.046944 -0.026421 -0.040003
v -0.046944 -0.052019 -0.050683
v -0.040862 -0.040067 -0.043313
v -0.046944 0.038796 -0.012795
v -0.046944 0.064394 -0.002116
v -0.040862 0.050748 -0.005425
v -0.046944 0.042326 0.050411
v -0.046944 0.016728 0.039732
v -0.040862 0.030374 0.043041
v -0.046944 -0.048489 0.012524
v -0.046944 -0.074087 0.001844
v -0.040862 -0.060441 0.005153
v 0.046975 -0.026421 -0.040003
v 0.046975 -0.052019 -0.050683
v 0.040893 -0.040067 -0.043313
v 0.046975 0.038796 -0.012795
v 0.046975 0.064394 -0.002116
v 0.040893 0.050748 -0.005425
v -0.022112 0.076432 -0.030970
v -0.022112 0.050834 -0.041649
v -0.019245 0.061227 -0.030542
v -0.022112 -0.039981 -0.079537
v -0.022112 -0.014383 -0.068858
v -0.019245 -0.029588 -0.068430
v 0.022163 -0.039981 -0.079537
v 0.022163 -0.014383 -0.068858
v 0.019296 -0.029588 -0.068430
v 0.022163 0.050834 -0.041649
v 0.022163 0.076432 -0.030970
v 0.019296 0.061227 -0.030542
v -0.022112 -0.086125 0.030698
v -0.022112 -0.060527 0.041378
v -0.019245 -0.070920 0.030270
v -0.022112 0.004690 0.068586
v -0.022112 0.030288 0.079266
v -0.019245 0.019895 0.068158
v 0.022163 0.004690 0.068586
v 0.022163 0.030288 0.079266
v 0.019296 0.019895 0.068158
v 0.022163 -0.060527 0.041378
v 0.022163 -0.086125 0.030698
v 0.019296 -0.070920 0.030270
v 0.048089 0.163884 0.024321
v -0.048019 0.163884 0.024321
v -0.048040 0.200557 -0.246499
v -0.048037 0.163884 -0.209826
v 0.048107 0.163884 -0.209826
v 0.048110 0.200557 -0.246499
v -0.277431 0.223756 0.563379
v -0.277431 0.154162 0.563379
v -0.224720 0.223756 0.563379
v -0.224720 0.154162 0.563379
v -0.156992 0.154162 0.740361
v -0.156992 0.223756 0.740361
v -0.261390 0.154162 0.447296
v -0.156992 0.154162 0.546890
v -0.156992 0.223756 0.546890
v -0.261390 0.223756 0.447296
v -0.182257 0.223756 0.447296
v -0.182257 0.154162 0.447296
v -0.136451 0.223756 0.508196
v -0.136451 0.154162 0.508196
v -0.212759 0.154162 0.373498
v -0.212759 0.223756 0.373498
v 0.136453 0.223756 0.508196
v 0.212762 0.223756 0.373498
v 0.212762 0.154162 0.373498
v 0.136453 0.154162 0.508196
v 0.182261 0.223756 0.447296
v 0.182261 0.154162 0.447296
v 0.261399 0.154162 0.447296
v 0.157000 0.154162 0.546890
v 0.157000 0.223756 0.546890
v 0.261399 0.223756 0.447296
v 0.157000 0.154162 0.740361
v 0.157000 0.223756 0.740361
v 0.224731 0.223756 0.563379
v 0.224731 0.154162 0.563379
v 0.277445 0.154162 0.563379
v 0.277445 0.223756 0.563379
v 0.229155 0.188959 0.362535
v 0.126292 0.188959 0.525098
v 0.198654 0.188959 0.436333
v 0.277306 0.188959 0.435639
v 0.137864 0.188959 0.551656
v 0.151196 0.188959 0.759208
v 0.240638 0.188959 0.551722
v 0.294876 0.188959 0.554156
v -0.229152 0.188959 0.362535
v -0.126288 0.188959 0.525097
v -0.198650 0.188959 0.436333
v -0.137855 0.188959 0.551655
v -0.277297 0.188959 0.435639
v -0.151187 0.188959 0.759208
v -0.240627 0.188959 0.551722
v -0.294863 0.188959 0.554156
v 0.067160 0.104719 0.634801
v 0.095436 0.132994 0.634801
v 0.067160 0.132994 0.663077
v 0.095436 0.246413 0.634801
v 0.067160 0.274689 0.634801
v 0.067160 0.246413 0.663077
v -0.067161 0.104719 0.634801
v -0.067161 0.132994 0.663077
v -0.095436 0.132994 0.634801
v -0.067161 0.274689 0.634801
v -0.095436 0.246413 0.634801
v -0.067161 0.246413 0.663077
v 0.067160 0.132994 -0.166737
v 0.119397 0.132994 -0.151725
v 0.095436 0.104719 -0.135484
v 0.095436 0.274689 -0.135484
v 0.119397 0.246413 -0.151725
v 0.067160 0.246413 -0.166737
v -0.119397 0.132994 -0.151725
v -0.067161 0.132994 -0.166737
v -0.095436 0.104719 -0.135484
v -0.119397 0.246413 -0.151725
v -0.095436 0.274689 -0.135484
v -0.067161 0.246413 -0.166737
v -0.095436 0.132994 0.295499
v -0.119397 0.132994 0.252211
v -0.095436 0.104719 0.235971
v -0.067161 0.104719 0.295499
v -0.095436 0.246413 0.295499
v -0.067161 0.274689 0.295499
v -0.095436 0.274689 0.235971
v -0.119397 0.246413 0.252211
v 0.095436 0.132994 0.295499
v 0.067160 0.104719 0.295499
v 0.095436 0.104719 0.235971
v 0.119396 0.132994 0.252211
v 0.095436 0.246413 0.295499
v 0.119396 0.246413 0.252211
v 0.095436 0.274689 0.235971
v 0.067160 0.274689 0.295499
v -0.149617 0.274689 0.201942
v -0.177892 0.246413 0.187284
v -0.153931 0.246413 0.230573
v -0.149617 0.274689 -0.101458
v -0.153931 0.246413 -0.130089
v -0.177892 0.246413 -0.086801
v -0.153931 0.132994 -0.130089
v -0.149617 0.104719 -0.101458
v -0.177892 0.132994 -0.086801
v 0.153931 0.246413 -0.130089
v 0.149616 0.274689 -0.101458
v 0.177892 0.246413 -0.086801
v 0.153931 0.132994 -0.130089
v 0.177892 0.132994 -0.086801
v 0.149616 0.104719 -0.101458
v 0.149616 0.104719 0.201942
v 0.177892 0.132994 0.187284
v 0.153931 0.132994 0.230572
v -0.149617 0.104719 0.201942
v -0.153931 0.132994 0.230573
v -0.177892 0.132994 0.187284
v 0.149616 0.274689 0.201942
v 0.153931 0.246413 0.230572
v 0.177892 0.246413 0.187284
vt 0.706107 0.892645
vt 0.662691 0.892153
vt 0.706156 0.909427
vt 0.559387 0.853429
vt 0.577078 0.853578
vt 0.577165 0.903252
vt 0.559486 0.903252
vt 0.559148 0.812140
vt 0.576842 0.811943
vt 0.576991 0.831400
vt 0.559288 0.831407
vt 0.578507 0.878674
vt 0.578569 0.892516
vt 0.577078 0.880796
vt 0.578339 0.854701
vt 0.578445 0.868542
vt 0.576991 0.866553
vt 0.576842 0.847096
vt 0.577142 0.900254
vt 0.578553 0.892516
vt 0.577094 0.832812
vt 0.577176 0.843584
vt 0.577176 0.843584
vt 0.577094 0.832812
vt 0.577045 0.824927
vt 0.577045 0.824927
vt 0.577142 0.832811
vt 0.578507 0.833873
vt 0.578445 0.823741
vt 0.577094 0.824927
vt 0.578339 0.809900
vt 0.577010 0.814155
vt 0.577190 0.843584
vt 0.578569 0.847715
vt 0.576991 0.839334
vt 0.559288 0.839342
vt 0.580730 0.830405
vt 0.580733 0.830405
vt 0.580730 0.850246
vt 0.580730 0.850246
vt 0.565731 0.839446
vt 0.565731 0.830405
vt 0.565734 0.830405
vt 0.565738 0.850246
vt 0.565731 0.850246
vt 0.580736 0.830405
vt 0.580737 0.839446
vt 0.580737 0.850246
vt 0.565738 0.874934
vt 0.567979 0.882297
vt 0.567979 0.882297
vt 0.565738 0.874934
vt 0.580730 0.874934
vt 0.578489 0.882297
vt 0.578489 0.906985
vt 0.578496 0.906985
vt 0.567972 0.906985
vt 0.567979 0.906985
vt 0.565738 0.830405
vt 0.578489 0.906985
vt 0.578489 0.906985
vt 0.567979 0.906985
vt 0.567979 0.906985
vt 0.565738 0.825558
vt 0.578489 0.882297
vt 0.580730 0.825558
vt 0.568115 0.865841
vt 0.578353 0.865841
vt 0.580730 0.874934
vt 0.578489 0.882297
vt 0.567979 0.882297
vt 0.567972 0.882297
vt 0.565731 0.874934
vt 0.580737 0.874934
vt 0.578496 0.882297
vt 0.568115 0.939905
vt 0.570560 0.944342
vt 0.570560 0.944342
vt 0.568115 0.939905
vt 0.568115 0.890529
vt 0.568115 0.890529
vt 0.578496 0.857609
vt 0.578353 0.865841
vt 0.568115 0.865841
vt 0.567972 0.857609
vt 0.578353 0.890529
vt 0.578353 0.890529
vt 0.575907 0.944342
vt 0.575907 0.944342
vt 0.575907 0.870279
vt 0.570560 0.870279
vt 0.578353 0.939905
vt 0.578353 0.939905
vt 0.570560 0.870279
vt 0.575907 0.870279
vt 0.844055 0.837636
vt 0.844055 0.837636
vt 0.844055 0.873964
vt 0.844055 0.873964
vt 0.840209 0.891631
vt 0.840209 0.891631
vt 0.776978 0.891631
vt 0.776978 0.891631
vt 0.773133 0.837636
vt 0.773133 0.837636
vt 0.773133 0.873964
vt 0.773133 0.873964
vt 0.776978 0.800130
vt 0.773133 0.807879
vt 0.776978 0.807879
vt 0.776978 0.883883
vt 0.773133 0.883883
vt 0.776978 0.780292
vt 0.776978 0.788041
vt 0.773133 0.788041
vt 0.776978 0.871793
vt 0.773133 0.864045
vt 0.776978 0.864045
vt 0.840209 0.800130
vt 0.840209 0.807879
vt 0.844055 0.807879
vt 0.844055 0.883883
vt 0.840209 0.883883
vt 0.840209 0.780292
vt 0.844055 0.788041
vt 0.840209 0.788041
vt 0.840209 0.871793
vt 0.840209 0.864045
vt 0.844055 0.864045
vt 0.776978 0.810049
vt 0.773133 0.817798
vt 0.773133 0.817798
vt 0.776978 0.810049
vt 0.776978 0.827717
vt 0.773133 0.827717
vt 0.773133 0.864045
vt 0.776978 0.864045
vt 0.776978 0.901550
vt 0.773133 0.893802
vt 0.773133 0.893802
vt 0.776978 0.901550
vt 0.776978 0.844206
vt 0.773133 0.844206
vt 0.773133 0.807879
vt 0.776978 0.807879
vt 0.844055 0.844206
vt 0.840209 0.844206
vt 0.840209 0.807879
vt 0.844055 0.807879
vt 0.840209 0.810049
vt 0.844055 0.817798
vt 0.844055 0.817798
vt 0.840209 0.810049
vt 0.840209 0.901550
vt 0.844055 0.893802
vt 0.844055 0.893802
vt 0.840209 0.901550
vt 0.840209 0.864045
vt 0.844055 0.864045
vt 0.844055 0.827717
vt 0.840209 0.827717
vt 0.776978 0.800130
vt 0.840209 0.800130
vt 0.969055 0.837636
vt 0.969055 0.837636
vt 0.969055 0.873964
vt 0.969055 0.873964
vt 0.965209 0.891631
vt 0.965209 0.891631
vt 0.901978 0.891631
vt 0.901978 0.891631
vt 0.898133 0.837636
vt 0.898133 0.837636
vt 0.898133 0.873964
vt 0.898133 0.873964
vt 0.901978 0.807879
vt 0.965209 0.807879
vt 0.965209 0.844206
vt 0.901978 0.844206
vt 0.901978 0.800130
vt 0.898133 0.807879
vt 0.901978 0.807879
vt 0.901978 0.883883
vt 0.898133 0.883883
vt 0.901978 0.780292
vt 0.901978 0.788041
vt 0.898133 0.788041
vt 0.901978 0.871793
vt 0.898133 0.864045
vt 0.901978 0.864045
vt 0.965209 0.800130
vt 0.965209 0.807879
vt 0.969055 0.807879
vt 0.969055 0.883883
vt 0.965209 0.883883
vt 0.965209 0.780292
vt 0.969055 0.788041
vt 0.965209 0.788041
vt 0.965209 0.871793
vt 0.965209 0.864045
vt 0.969055 0.864045
vt 0.901978 0.810049
vt 0.898133 0.817798
vt 0.898133 0.817798
vt 0.901978 0.810049
vt 0.901978 0.827717
vt 0.898133 0.827717
vt 0.898133 0.864045
vt 0.901978 0.864045
vt 0.901978 0.901550
vt 0.898133 0.893802
vt 0.898133 0.893802
vt 0.901978 0.901550
vt 0.898133 0.844206
vt 0.898133 0.807879
vt 0.969055 0.844206
vt 0.969055 0.807879
vt 0.965209 0.810049
vt 0.969055 0.817798
vt 0.969055 0.817798
vt 0.965209 0.810049
vt 0.965209 0.901550
vt 0.969055 0.893802
vt 0.969055 0.893802
vt 0.965209 0.901550
vt 0.965209 0.864045
vt 0.969055 0.864045
vt 0.969055 0.827717
vt 0.965209 0.827717
vt 0.901978 0.800130
vt 0.965209 0.800130
vt 0.559459 0.872675
vt 0.577142 0.873036
vt 0.576991 0.853580
vt 0.559288 0.853432
vt 0.576905 0.839336
vt 0.559189 0.839343
vt 0.559121 0.812140
vt 0.576818 0.847096
vt 0.578445 0.878675
vt 0.576991 0.880798
vt 0.578384 0.868543
vt 0.576905 0.866554
vt 0.578321 0.854701
vt 0.576997 0.814155
vt 0.576997 0.814155
vt 0.578553 0.847715
vt 0.577010 0.814155
vt 0.577094 0.824927
vt 0.578321 0.809900
vt 0.578384 0.823742
vt 0.577142 0.832811
vt 0.577190 0.843584
vt 0.578445 0.833874
vt 0.559189 0.831409
vt 0.576905 0.831401
vt 0.576818 0.811943
vt 0.705963 0.863580
vt 0.662586 0.870825
vt 0.705975 0.863580
vt 0.706059 0.880361
vt 0.662727 0.904468
vt 0.706142 0.909427
vt 0.662656 0.883138
vt 0.706059 0.892646
vt 0.706011 0.880362
vt 0.662621 0.883140
vt 0.583527 0.843760
vt 0.583527 0.866230
vt 0.593469 0.866230
vt 0.593469 0.843760
vt 0.583527 0.875050
vt 0.583527 0.901931
vt 0.593469 0.901931
vt 0.593469 0.875050
vt 0.562784 0.834939
vt 0.562784 0.808058
vt 0.562784 0.808058
vt 0.562784 0.834939
vt 0.562784 0.866230
vt 0.562784 0.866230
vt 0.562784 0.843760
vt 0.562784 0.843760
vt 0.572723 0.808058
vt 0.572723 0.834939
vt 0.593469 0.834939
vt 0.593469 0.834939
vt 0.593469 0.808058
vt 0.593469 0.808058
vt 0.064793 0.631950
vt 0.066356 0.580279
vt 0.073449 0.580279
vt 0.069013 0.631950
vt 0.051553 0.580279
vt 0.058646 0.580279
vt 0.060208 0.631950
vt 0.055990 0.631950
vt 0.073449 0.580279
vt 0.069013 0.631950
vt 0.064793 0.631950
vt 0.066356 0.580279
vt 0.058646 0.580279
vt 0.060208 0.631950
vt 0.055990 0.631950
vt 0.051553 0.580279
vt 0.572723 0.834939
vt 0.572723 0.808058
vt 0.572723 0.875050
vt 0.572723 0.901931
vt 0.073449 0.549029
vt 0.073449 0.549029
vt 0.070113 0.544659
vt 0.070113 0.544659
vt 0.066356 0.549029
vt 0.065181 0.544659
vt 0.058646 0.549029
vt 0.051553 0.549029
vt 0.054888 0.544659
vt 0.059821 0.544659
vt 0.051553 0.549029
vt 0.054888 0.544659
vt 0.058646 0.549029
vt 0.059821 0.544659
vt 0.066356 0.549029
vt 0.065181 0.544659
vt 0.054888 0.575909
vt 0.054888 0.575909
vt 0.062501 0.574765
vt 0.593469 0.812510
vt 0.593469 0.812510
vt 0.591483 0.808100
vt 0.591483 0.808100
vt 0.059821 0.575909
vt 0.065181 0.575909
vt 0.059821 0.575909
vt 0.065181 0.575909
vt 0.070113 0.575909
vt 0.070113 0.575909
vt 0.583527 0.843760
vt 0.583527 0.866230
vt 0.572723 0.866230
vt 0.572723 0.843760
vt 0.562784 0.875050
vt 0.562784 0.901931
vt 0.562784 0.901931
vt 0.562784 0.875050
vt 0.593469 0.901931
vt 0.593469 0.875050
vt 0.572723 0.843760
vt 0.572723 0.866230
vt 0.572723 0.875050
vt 0.572723 0.901931
vt 0.583527 0.808058
vt 0.583527 0.834939
vt 0.593469 0.843760
vt 0.593469 0.866230
vt 0.583527 0.901931
vt 0.583527 0.875050
vt 0.583527 0.808058
vt 0.583527 0.834939
vt 0.591483 0.870600
vt 0.591483 0.870600
vt 0.593469 0.866189
vt 0.593469 0.866189
vt 0.562784 0.812510
vt 0.562784 0.812510
vt 0.564769 0.808100
vt 0.564769 0.808100
vt 0.572723 0.812510
vt 0.573423 0.808100
vt 0.564769 0.870600
vt 0.573423 0.870600
vt 0.572723 0.866189
vt 0.562784 0.866189
vt 0.564769 0.870600
vt 0.562784 0.866189
vt 0.562784 0.843800
vt 0.562784 0.843800
vt 0.564769 0.839391
vt 0.564769 0.839391
vt 0.583527 0.812510
vt 0.582827 0.808100
vt 0.582827 0.870600
vt 0.583527 0.866189
vt 0.564769 0.901891
vt 0.564769 0.901891
vt 0.562784 0.897480
vt 0.562784 0.897480
vt 0.593469 0.843800
vt 0.593469 0.843800
vt 0.591483 0.839391
vt 0.591483 0.839391
vt 0.572723 0.812510
vt 0.573423 0.808100
vt 0.573423 0.870600
vt 0.572723 0.866189
vt 0.583527 0.843800
vt 0.582827 0.839391
vt 0.582827 0.901891
vt 0.591483 0.901891
vt 0.593469 0.897480
vt 0.583527 0.897480
vt 0.583527 0.812510
vt 0.582827 0.808100
vt 0.582827 0.870600
vt 0.583527 0.866189
vt 0.591483 0.901891
vt 0.593469 0.897480
vt 0.572723 0.843800
vt 0.573423 0.839391
vt 0.573423 0.901891
vt 0.572723 0.897480
vt 0.583527 0.843800
vt 0.572723 0.843800
vt 0.573423 0.839391
vt 0.582827 0.839391
vt 0.582827 0.901891
vt 0.573423 0.901891
vt 0.572723 0.897480
vt 0.583527 0.897480
vt 0.565738 0.850246
vt 0.593698 0.833954
vt 0.591217 0.835614
vt 0.533781 0.835614
vt 0.531300 0.833954
vt 0.546867 0.858556
vt 0.578131 0.858556
vt 0.579669 0.855999
vt 0.545330 0.855999
vt 0.538397 0.846782
vt 0.535916 0.845123
vt 0.545330 0.855999
vt 0.545117 0.862575
vt 0.542221 0.861854
vt 0.538397 0.846782
vt 0.524014 0.845018
vt 0.526422 0.846782
vt 0.543100 0.893986
vt 0.542221 0.891134
vt 0.529564 0.862586
vt 0.531971 0.864350
vt 0.521355 0.862954
vt 0.523994 0.864350
vt 0.542221 0.891134
vt 0.523994 0.864350
vt 0.531971 0.864350
vt 0.542221 0.922384
vt 0.542221 0.893104
vt 0.531971 0.895600
vt 0.526422 0.878032
vt 0.542221 0.893104
vt 0.531971 0.895600
vt 0.526422 0.846782
vt 0.542221 0.922384
vt 0.523994 0.895600
vt 0.542221 0.861854
vt 0.526422 0.878032
vt 0.523994 0.895600
vt 0.545330 0.887249
vt 0.538397 0.878032
vt 0.538397 0.878032
vt 0.545330 0.887249
vt 0.533781 0.835614
vt 0.591217 0.835614
vt 0.579669 0.887249
vt 0.586602 0.878032
vt 0.533781 0.866864
vt 0.591217 0.866864
vt 0.586602 0.878032
vt 0.579669 0.887249
vt 0.591217 0.866864
vt 0.533781 0.866864
vt 0.579669 0.855999
vt 0.589082 0.845123
vt 0.586602 0.846782
vt 0.582779 0.893104
vt 0.598578 0.878032
vt 0.586602 0.846782
vt 0.598578 0.846782
vt 0.600985 0.845018
vt 0.598578 0.878032
vt 0.582779 0.893104
vt 0.582779 0.861854
vt 0.579882 0.862576
vt 0.582779 0.922384
vt 0.601006 0.895600
vt 0.593028 0.895600
vt 0.582779 0.891134
vt 0.581900 0.893986
vt 0.593028 0.895600
vt 0.582779 0.922384
vt 0.601006 0.895600
vt 0.593028 0.864350
vt 0.595436 0.862586
vt 0.601006 0.864350
vt 0.603645 0.862954
vt 0.582779 0.891134
vt 0.601006 0.864350
vt 0.593028 0.864350
vt 0.598578 0.846782
vt 0.582779 0.861854
vt 0.061585 0.597870
vt 0.061585 0.640782
vt 0.026975 0.640782
vt 0.026975 0.597870
vt 0.066001 0.597870
vt 0.066001 0.640782
vt 0.068208 0.640782
vt 0.068208 0.597870
vt 0.107205 0.597870
vt 0.107205 0.640782
vt 0.104998 0.640782
vt 0.104998 0.597870
vt 0.061585 0.651480
vt 0.026975 0.651480
vt 0.026975 0.651480
vt 0.061585 0.651480
vt 0.067658 0.587171
vt 0.105548 0.587171
vt 0.102076 0.587171
vt 0.071128 0.587171
vt 0.026975 0.597870
vt 0.026975 0.640782
vt 0.061585 0.640782
vt 0.061585 0.597870
vt 0.105548 0.651480
vt 0.067658 0.651480
vt 0.071128 0.651480
vt 0.102076 0.651480
vt 0.024090 0.597870
vt 0.024090 0.640782
vt 0.024090 0.640782
vt 0.024090 0.597870
vt 0.072624 0.597870
vt 0.072624 0.640782
vt 0.100582 0.640782
vt 0.100582 0.597870
vt 0.067658 0.587171
vt 0.105548 0.587171
vt 0.100582 0.597870
vt 0.100582 0.640782
vt 0.072624 0.640782
vt 0.072624 0.597870
vt 0.067658 0.651480
vt 0.105548 0.651480
vt 0.102076 0.651480
vt 0.071128 0.651480
vt 0.108736 0.597870
vt 0.108736 0.640782
vt 0.108736 0.640782
vt 0.108736 0.597870
vt 0.066001 0.640782
vt 0.066001 0.597870
vt 0.068208 0.597870
vt 0.068208 0.640782
vt 0.071128 0.587171
vt 0.102076 0.587171
vt 0.107205 0.640782
vt 0.107205 0.597870
vt 0.104998 0.597870
vt 0.104998 0.640782
vt 0.026975 0.587171
vt 0.026975 0.587171
vt 0.061585 0.587171
vt 0.061585 0.587171
vn -0.0000 0.0000 1.0000
vn -0.7052 0.7090 -0.0036
vn -0.4082 0.9129 -0.0052
vn -0.3503 0.9366 -0.0054
vn -0.7081 -0.7061 -0.0001
vn -0.8917 -0.4526 -0.0001
vn -0.9496 -0.3133 -0.0000
vn -0.3733 0.4335 0.8202
vn -0.1670 0.6107 0.7741
vn -0.1304 0.6200 0.7737
vn -0.3691 0.4423 0.8174
vn -0.1988 -0.1042 0.9745
vn -0.4042 0.1027 0.9089
vn -0.4138 0.1585 0.8965
vn -0.1743 -0.1114 0.9784
vn 0.1300 0.6202 0.7736
vn 0.1671 0.6108 0.7740
vn -0.9464 -0.2909 0.1403
vn -0.7133 -0.6855 0.1459
vn -0.9241 -0.3544 0.1431
vn -0.8724 0.4721 0.1265
vn -0.9094 0.3960 0.1272
vn 0.4920 0.0623 0.8684
vn 0.5027 0.1024 0.8583
vn 0.4332 0.4683 0.7700
vn 0.4587 0.4272 0.7792
vn 0.1442 0.6541 0.7425
vn 0.1923 0.6425 0.7417
vn 0.2352 -0.1836 0.9545
vn 0.2004 -0.1932 0.9605
vn -1.0000 0.0000 -0.0000
vn 1.0000 -0.0000 0.0001
vn 0.9895 0.1446 0.0001
vn 0.9910 0.1340 0.0001
vn -1.0000 -0.0000 0.0001
vn -0.9895 0.1446 0.0001
vn -0.9924 0.1207 0.0237
vn 0.9924 0.1207 0.0237
vn -0.9910 0.1340 0.0001
vn -0.9012 0.4334 0.0001
vn 0.0000 0.8073 0.5902
vn 0.0000 0.9421 0.3354
vn 0.0000 0.9260 0.3776
vn 0.0000 1.0000 -0.0000
vn -0.0000 0.9259 -0.3776
vn -0.0000 0.7589 -0.6513
vn 0.0000 0.0000 -1.0000
vn 0.0000 0.7589 0.6513
vn 0.9012 0.4334 0.0001
vn -0.9012 0.4335 0.0001
vn -0.9457 0.3238 0.0272
vn 0.9457 0.3238 0.0272
vn 0.9012 0.4335 0.0001
vn -0.9036 0.4270 0.0333
vn -0.7540 0.6569 0.0000
vn 0.9036 0.4270 0.0333
vn 0.7540 0.6569 -0.0000
vn -0.8756 -0.3416 -0.3416
vn -0.8756 -0.3416 0.3416
vn -0.8756 0.3416 0.3416
vn -0.8756 0.3416 -0.3416
vn -0.3416 0.8756 -0.3416
vn -0.3416 0.8756 0.3416
vn 0.3416 0.8756 0.3416
vn 0.3416 0.8756 -0.3416
vn 0.8756 -0.3416 0.3416
vn 0.8756 -0.3416 -0.3416
vn 0.8756 0.3416 -0.3416
vn 0.8756 0.3416 0.3416
vn 0.3416 -0.8756 0.3416
vn 0.4606 -0.4606 0.7588
vn 0.4606 0.4606 0.7588
vn 0.3416 -0.8756 -0.3416
vn 0.4606 -0.4606 -0.7588
vn 0.4606 0.4606 -0.7588
vn -0.3416 -0.8756 0.3416
vn -0.4606 -0.4606 0.7588
vn -0.4606 0.4606 0.7588
vn -0.3416 -0.8756 -0.3416
vn -0.4606 -0.4606 -0.7588
vn -0.4606 0.4606 -0.7588
vn 0.3416 -0.3416 -0.8756
vn -0.3416 -0.3416 -0.8756
vn -0.3416 0.3416 -0.8756
vn 0.3416 0.3416 -0.8756
vn 0.4606 0.7588 -0.4606
vn -0.4606 0.7588 -0.4606
vn 0.7075 0.7067 -0.0053
vn 1.0000 -0.0017 -0.0050
vn 0.8923 -0.4515 -0.0033
vn 0.9495 -0.3136 -0.0039
vn 0.0000 -1.0000 0.0014
vn 0.3724 0.4338 0.8204
vn 0.3684 0.4423 0.8177
vn 0.4035 0.1024 0.9092
vn 0.4129 0.1586 0.8968
vn 0.1737 -0.1118 0.9784
vn 0.1990 -0.1044 0.9744
vn -0.3452 0.9315 0.1146
vn -0.3669 0.9231 0.1152
vn -0.2006 -0.1916 0.9608
vn -0.2331 -0.1823 0.9552
vn 0.8724 0.4721 0.1265
vn 0.3452 0.9315 0.1146
vn 0.3669 0.9231 0.1152
vn 0.9094 0.3960 0.1272
vn -0.0000 1.0000 -0.0062
vn -0.1909 0.6420 0.7425
vn -0.1443 0.6534 0.7431
vn -0.4310 0.4676 0.7718
vn -0.4557 0.4274 0.7808
vn 0.9464 -0.2909 0.1403
vn 0.9241 -0.3544 0.1431
vn 0.7133 -0.6855 0.1459
vn -0.4996 0.1044 0.8599
vn -0.4889 0.0639 0.8700
vn 0.7099 -0.7043 -0.0018
vn 0.0000 -0.9916 0.1294
vn -0.9235 -0.0670 -0.3777
vn -0.9236 0.3157 -0.2175
vn -0.7684 0.4126 -0.4892
vn -0.7684 0.0574 -0.6374
vn -0.9441 0.1269 -0.3042
vn -0.7831 0.2395 -0.5740
vn -0.0000 -0.1958 0.9806
vn 0.0000 -0.3850 0.9229
vn 0.0000 -0.5592 0.8291
vn 0.9442 -0.1268 0.3040
vn 0.9236 0.0670 0.3775
vn 0.7687 -0.0573 0.6371
vn 0.7833 -0.2394 0.5737
vn 0.0000 0.5592 -0.8291
vn 0.0000 0.3850 -0.9229
vn 0.8694 0.4773 -0.1279
vn 0.8689 0.4778 -0.1292
vn 0.7265 0.5670 -0.3883
vn 0.7265 0.1229 0.6761
vn 0.8686 0.2438 0.4314
vn 0.8693 0.2446 0.4295
vn 0.0000 0.7068 -0.7074
vn -0.8693 0.4774 -0.1281
vn -0.8689 0.4779 -0.1292
vn -0.8685 0.2438 0.4315
vn -0.8693 0.2446 0.4296
vn 0.0000 -0.0055 1.0000
vn -0.7831 -0.2395 0.5740
vn -0.7684 -0.0574 0.6374
vn -0.9235 0.0670 0.3777
vn -0.9441 -0.1269 0.3042
vn -0.9236 -0.3157 0.2175
vn -0.9443 -0.1267 0.3037
vn -0.3310 -0.3277 -0.8849
vn 0.3311 -0.3277 -0.8849
vn 0.3364 -0.3286 -0.8825
vn -0.3362 -0.3286 -0.8826
vn -0.7263 0.5671 -0.3884
vn 0.7404 -0.4720 -0.4786
vn 0.7413 -0.4730 -0.4762
vn 0.7407 -0.6718 -0.0001
vn 0.3311 -0.8594 0.3895
vn 0.3363 -0.8584 0.3873
vn 0.7415 -0.6710 -0.0021
vn -0.3310 -0.8594 0.3896
vn -0.3362 -0.8584 0.3873
vn -0.7407 -0.6719 -0.0001
vn -0.7414 -0.6711 -0.0020
vn -0.7404 -0.4720 -0.4786
vn -0.7413 -0.4729 -0.4763
vn 0.0410 -0.9534 -0.2990
vn -0.0410 -0.9534 -0.2990
vn -0.0000 -0.9148 -0.4039
vn -0.0000 0.1958 -0.9806
vn -0.0000 -0.0281 -0.9996
vn 0.1149 -0.9335 -0.3398
vn 0.1352 -0.8946 -0.4260
vn -0.1149 -0.9335 -0.3397
vn -0.1352 -0.8946 -0.4260
vn -0.0584 -0.8674 -0.4942
vn 0.0584 -0.8674 -0.4942
vn 0.9236 -0.0670 -0.3775
vn 0.9236 0.3157 -0.2174
vn 0.9236 -0.3157 0.2174
vn 0.9444 -0.1266 0.3035
vn 0.7687 -0.4124 0.4889
vn -0.7684 -0.4126 0.4892
vn -0.9443 0.1267 -0.3037
vn 0.7687 0.0573 -0.6371
vn 0.7687 0.4124 -0.4889
vn 0.7833 0.2394 -0.5737
vn 0.9442 0.1268 -0.3040
vn 0.9444 0.1266 -0.3035
vn 0.0000 0.7302 -0.6832
vn 0.0000 -0.7302 0.6832
vn -0.8561 -0.5046 0.1115
vn -0.7162 -0.5922 0.3693
vn -0.7162 0.1542 0.6807
vn -0.8560 0.2754 0.4375
vn -0.0000 0.0281 0.9996
vn 0.8561 -0.2754 -0.4373
vn 0.7164 -0.1543 -0.6804
vn 0.7164 0.5921 -0.3690
vn 0.8562 0.5045 -0.1114
vn 0.8562 -0.5045 0.1114
vn 0.8561 0.2754 0.4373
vn -0.7162 -0.1542 -0.6807
vn -0.8560 -0.2754 -0.4375
vn -0.8561 0.5046 -0.1115
vn -0.7162 0.5922 -0.3693
vn 0.7164 -0.5921 0.3690
vn 0.7164 0.1543 0.6804
vn -0.7263 0.1228 0.6763
vn 0.0000 -1.0000 -0.0000
vn 0.0000 -0.9239 -0.3827
vn 0.0000 -0.7071 -0.7071
vn -0.0000 -0.3005 -0.9538
vn -0.0000 0.4369 0.8995
vn -0.8815 -0.3005 0.3643
vn -0.9242 0.0000 0.3820
vn 0.7976 -0.4580 0.3925
vn 0.9716 -0.0000 0.2368
vn 0.8857 -0.4107 0.2163
vn 0.0042 0.3073 -0.9516
vn 0.0044 -0.0000 -1.0000
vn 0.9994 -0.0000 0.0332
vn 0.9375 -0.3466 0.0312
vn -0.9042 0.3176 0.2856
vn -0.9536 -0.0000 0.3012
vn -0.0217 0.2968 -0.9547
vn -0.0228 -0.0000 -0.9997
vn -0.8040 0.2112 0.5558
vn -0.8226 -0.0000 0.5687
vn -0.8040 -0.2112 0.5558
vn -0.0217 -0.2968 -0.9547
vn -0.9042 -0.3176 0.2856
vn 0.8857 0.4107 0.2163
vn 0.9375 0.3466 0.0312
vn 0.0042 -0.3073 -0.9516
vn 0.7976 0.4580 0.3925
vn -0.8815 0.3005 0.3643
vn -0.0000 0.3005 -0.9538
vn -0.0000 -0.4369 0.8995
vn 0.9242 -0.0000 0.3820
vn 0.8815 -0.3005 0.3643
vn -0.0044 -0.0000 -1.0000
vn -0.0042 0.3073 -0.9516
vn -0.7976 -0.4580 0.3926
vn -0.8857 -0.4107 0.2163
vn -0.9715 -0.0000 0.2369
vn -0.9375 -0.3466 0.0312
vn -0.9994 -0.0000 0.0332
vn 0.9536 -0.0000 0.3012
vn 0.9042 0.3177 0.2856
vn 0.0228 0.0000 -0.9997
vn 0.0217 0.2968 -0.9547
vn 0.8226 -0.0000 0.5687
vn 0.8040 0.2112 0.5559
vn 0.8040 -0.2112 0.5559
vn 0.0217 -0.2968 -0.9547
vn 0.9042 -0.3177 0.2856
vn -0.8857 0.4107 0.2163
vn -0.9375 0.3466 0.0312
vn -0.7976 0.4580 0.3926
vn -0.0042 -0.3073 -0.9516
vn 0.8815 0.3005 0.3643
vn 0.9682 -0.0000 0.2501
vn 1.0000 0.0000 -0.0000
vn -0.7260 0.0000 0.6877
vn 0.4076 0.0000 -0.9132
vn 0.7260 0.0000 -0.6877
vn -0.9682 0.0000 0.2501
vn 0.3827 0.0000 0.9239
vn -0.3827 0.0000 0.9239
vn -0.9682 0.0000 -0.2501
vn 0.9682 0.0000 -0.2501
vn -0.1395 0.0000 -0.9902
vn 0.1395 0.0000 -0.9902
vn 0.7260 -0.0000 0.6877
vn -0.4076 0.0000 -0.9132
vn -0.7260 0.0000 -0.6877
vn 0.4606 -0.7588 0.4606
vn 0.6861 -0.6861 0.2418
vn 0.2418 -0.6861 0.6861
vn 0.6861 0.6861 0.2418
vn 0.4606 0.7588 0.4606
vn 0.2418 0.6861 0.6861
vn -0.4606 -0.7588 0.4606
vn -0.2418 -0.6861 0.6861
vn -0.6861 -0.6861 0.2418
vn -0.4606 0.7588 0.4606
vn -0.6861 0.6861 0.2418
vn -0.2418 0.6861 0.6861
vn 0.0584 -0.7134 -0.6983
vn 0.3266 -0.6637 -0.6729
vn 0.2220 -0.6867 -0.6923
vn 0.2220 0.6867 -0.6923
vn 0.3266 0.6637 -0.6729
vn 0.0584 0.7134 -0.6983
vn -0.3266 -0.6637 -0.6729
vn -0.0584 -0.7134 -0.6983
vn -0.2220 -0.6867 -0.6923
vn -0.3266 0.6637 -0.6729
vn -0.2220 0.6867 -0.6923
vn -0.0584 0.7134 -0.6983
vn -0.6825 -0.7076 0.1828
vn -0.5178 -0.7001 0.4916
vn -0.5352 -0.7005 0.4720
vn -0.6891 -0.7094 0.1481
vn -0.6825 0.7076 0.1828
vn -0.6891 0.7094 0.1481
vn -0.5352 0.7005 0.4720
vn -0.5178 0.7001 0.4916
vn 0.6825 -0.7076 0.1828
vn 0.6891 -0.7094 0.1481
vn 0.5352 -0.7005 0.4720
vn 0.5178 -0.7001 0.4916
vn 0.6825 0.7076 0.1828
vn 0.5178 0.7001 0.4916
vn 0.5352 0.7005 0.4720
vn 0.6891 0.7094 0.1481
vn -0.6426 0.6727 0.3666
vn -0.7346 0.6652 0.1339
vn -0.5204 0.6453 0.5593
vn -0.6426 0.6727 -0.3666
vn -0.5204 0.6453 -0.5593
vn -0.7346 0.6652 -0.1339
vn -0.5204 -0.6453 -0.5593
vn -0.6426 -0.6727 -0.3666
vn -0.7346 -0.6652 -0.1339
vn 0.5204 0.6453 -0.5593
vn 0.6426 0.6727 -0.3666
vn 0.7346 0.6652 -0.1339
vn 0.5204 -0.6453 -0.5593
vn 0.7346 -0.6652 -0.1339
vn 0.6426 -0.6727 -0.3666
vn 0.6426 -0.6727 0.3666
vn 0.7346 -0.6652 0.1339
vn 0.5204 -0.6453 0.5593
vn -0.6426 -0.6727 0.3666
vn -0.5204 -0.6453 0.5593
vn -0.7346 -0.6652 0.1339
vn 0.6426 0.6727 0.3666
vn 0.5204 0.6453 0.5593
vn 0.7346 0.6652 0.1339
vn 0.7071 0.0000 0.7071
vn -0.7071 0.0000 0.7071
usemtl UltraTurboHeroMan
s 1
f 102/1/1 105/2/1 101/3/1
f 14/4/2 6/5/2 5/6/3 13/7/4
f 16/8/5 8/9/5 7/10/6 15/11/7
f 10/12/8 9/13/9 5/6/10 6/14/11
f 12/15/12 11/16/13 7/17/14 8/18/15
f 10/12/8 6/14/11 7/17/14 11/16/13
f 91/19/16 5/6/10 9/13/9 95/20/17
f 87/21/18 88/22/19 109/23/19 108/24/20
f 86/25/21 87/21/18 108/24/20 106/26/22
f 2/27/23 10/28/24 11/29/25 3/30/26
f 3/30/26 11/29/25 12/31/27 4/32/28
f 1/33/29 9/34/30 10/28/24 2/27/23
f 7/35/6 6/5/31 14/4/31 15/36/7
f 22/37/32 191/38/32 24/39/33 23/40/34
f 193/41/35 194/42/35 192/43/35 19/44/36 17/45/37
f 24/39/33 191/38/32 195/46/32 196/47/32 18/48/38
f 20/49/39 30/50/40 29/51/40 19/52/36
f 23/53/41 31/54/42 30/50/42 20/49/41
f 27/55/43 25/56/44 26/57/44 28/58/43
f 23/53/1 20/49/1 21/59/1 22/37/1
f 31/60/42 32/61/45 29/62/45 30/63/42
f 19/64/46 29/51/45 32/65/45 24/66/46
f 17/45/47 34/67/47 33/68/47 18/48/47
f 24/69/48 27/70/43 28/71/43 19/52/48
f 24/69/33 32/65/49 31/54/49 23/53/34
f 19/52/36 28/71/50 26/72/51 17/73/37
f 18/74/38 25/75/52 27/70/53 24/69/33
f 36/76/54 40/77/55 38/78/55 34/79/54
f 26/72/51 36/80/54 34/81/54 17/73/37
f 25/82/1 35/83/1 36/84/1 26/85/1
f 18/74/38 33/86/56 35/87/56 25/75/52
f 38/78/44 40/77/44 39/88/44 37/89/44
f 35/83/1 39/90/1 40/91/1 36/84/1
f 33/92/56 37/89/57 39/88/57 35/93/56
f 34/67/47 38/94/47 37/95/47 33/68/47
f 60/96/58 54/97/59 58/98/60 62/99/61
f 61/100/62 56/101/63 45/102/64 50/103/65
f 43/104/66 48/105/67 52/106/68 46/107/69
f 42/108/70 43/109/66 41/110/71
f 44/111/72 46/112/69 45/102/64
f 47/113/73 49/114/74 48/115/67
f 50/116/65 52/117/68 51/118/75
f 53/119/76 55/120/77 54/121/59
f 56/101/63 58/122/60 57/123/78
f 59/124/79 60/125/58 76/126/80
f 61/127/62 63/128/81 62/129/61
f 47/130/73 48/131/67 43/132/66 42/133/70
f 41/134/71 43/135/66 46/136/69 44/137/72
f 45/138/64 46/139/69 52/140/68 50/141/65
f 51/142/75 52/143/68 48/144/67 49/145/74
f 59/124/79 76/126/80 49/114/74 47/113/73
f 50/116/65 51/118/75 63/128/81 61/127/62
f 62/146/61 63/147/81 76/148/80 60/149/58
f 53/150/76 54/151/59 60/152/58 59/153/79
f 61/154/62 62/155/61 58/156/60 56/157/63
f 57/158/78 58/159/60 54/160/59 55/161/77
f 42/108/70 41/110/71 55/120/77 53/119/76
f 56/101/63 57/123/78 44/111/72 45/102/64
f 47/162/73 42/108/70 53/119/76 59/163/79
f 81/164/58 75/165/59 78/166/60 83/167/61
f 82/168/44 77/169/63 66/170/64 71/171/44
f 65/172/66 69/173/67 73/174/68 67/175/69
f 70/176/82 80/177/83 84/178/84 72/179/85
f 64/180/70 65/181/66 49/182/71
f 51/183/72 67/184/69 66/170/64
f 68/185/73 70/186/82 69/187/67
f 71/188/86 73/189/68 72/190/85
f 74/191/76 76/192/77 75/193/59
f 77/169/63 78/194/60 63/195/78
f 79/196/79 81/197/58 80/198/83
f 82/199/87 84/200/84 83/201/61
f 68/202/73 69/203/67 65/204/66 64/205/70
f 49/206/71 65/207/66 67/208/69 51/209/72
f 66/210/64 67/211/69 73/212/68 71/213/86
f 72/179/85 73/214/68 69/215/67 70/176/82
f 79/196/79 80/198/83 70/186/82 68/185/73
f 71/188/86 72/190/85 84/200/84 82/199/87
f 83/216/61 84/178/84 80/177/83 81/217/58
f 74/218/76 75/219/59 81/220/58 79/221/79
f 82/222/87 83/223/61 78/224/60 77/225/63
f 63/226/78 78/227/60 75/228/59 76/229/77
f 64/180/70 49/182/71 76/192/77 74/191/76
f 77/169/63 63/195/78 51/183/72 66/170/64
f 68/230/73 64/180/70 74/191/76 79/231/79
f 55/120/1 41/110/1 44/137/1 57/123/1
f 98/232/88 91/233/88 90/234/88 97/235/88
f 97/235/89 90/234/89 89/236/90 96/237/91
f 8/18/92 16/8/92 99/238/92 100/239/92
f 95/20/17 94/240/93 90/241/94 91/19/16
f 93/242/95 89/243/96 90/241/94 94/240/93
f 12/15/12 8/18/15 100/239/97 92/244/98
f 85/245/99 86/25/21 106/26/22 107/246/100
f 95/247/101 9/34/30 1/33/29 88/22/102
f 3/30/103 4/32/104 104/248/105 103/249/106
f 13/7/4 5/6/3 91/233/107 98/232/107
f 85/245/108 92/250/109 93/251/110 86/25/111
f 2/27/112 3/30/103 103/249/106 102/252/113
f 1/33/114 2/27/112 102/252/113 101/253/114
f 4/32/104 85/245/99 107/246/100 104/248/105
f 4/32/28 12/31/27 92/250/109 85/245/108
f 86/25/111 93/251/110 94/254/115 87/21/116
f 87/21/116 94/254/115 95/247/101 88/22/102
f 96/255/91 89/256/90 100/257/117 99/238/117
f 93/242/95 92/244/98 100/239/97 89/243/96
f 107/258/1 105/259/1 104/260/1
f 103/261/1 104/260/1 105/259/1
f 105/262/1 109/263/1 101/3/1
f 103/261/1 105/264/1 102/1/1
f 109/263/1 105/262/1 108/265/1
f 88/22/118 1/33/118 101/253/118 109/23/118
f 106/266/1 105/267/1 107/258/1
f 108/265/1 105/2/1 106/266/1
f 149/268/119 152/269/120 168/270/121 171/271/122
f 153/272/119 116/273/123 114/274/124 167/275/122
f 179/276/125 123/277/126 126/278/126 189/279/125
f 185/280/125 182/281/125 180/282/127 188/283/127
f 119/284/128 144/285/129 189/279/130 126/278/131
f 170/286/132 173/287/132 124/288/133 125/289/133
f 120/290/134 127/291/135 131/292/136 124/293/136
f 133/294/137 118/295/138 119/296/139 126/297/137
f 124/293/140 131/292/140 132/298/140 125/299/140
f 122/300/141 129/301/142 128/302/143 121/303/144
f 126/297/145 123/304/145 130/305/145 133/294/145
f 123/277/146 179/276/147 159/306/148 121/307/149
f 155/308/150 112/309/151 116/273/123 153/272/119
f 132/310/152 131/311/153 140/312/154 141/313/155
f 119/296/139 118/295/138 127/291/135 120/290/134
f 125/299/156 132/298/156 129/301/142 122/300/141
f 131/311/153 127/314/157 136/315/158 140/312/154
f 118/316/159 133/317/160 142/318/161 135/319/162
f 133/317/160 130/320/163 139/321/164 142/318/161
f 130/320/163 128/322/165 137/323/166 139/321/164
f 128/322/165 129/324/167 138/325/168 137/323/166
f 142/326/169 139/327/170 134/328/171
f 171/329/172 174/330/172 175/331/173 172/332/173
f 134/328/171 135/333/174 142/326/169
f 134/328/171 136/334/175 135/333/174
f 137/335/176 138/336/177 134/328/171
f 139/327/170 137/335/176 134/328/171
f 127/314/157 118/316/159 135/319/162 136/315/158
f 129/324/167 132/310/152 141/313/155 138/325/168
f 141/337/178 140/338/179 134/328/171
f 136/334/175 134/328/171 140/338/179
f 138/336/177 141/337/178 134/328/171
f 161/339/180 164/340/181 147/341/129 143/342/182
f 186/343/127 111/344/126 110/345/126 183/346/127
f 114/274/133 113/347/133 177/348/172 167/275/172
f 158/349/150 156/350/148 152/269/120 149/268/119
f 146/351/182 117/352/183 111/344/131 186/343/184
f 183/346/185 110/345/146 112/309/151 155/308/150
f 180/282/185 182/281/147 156/350/148 158/349/150
f 122/353/186 150/354/120 170/286/121 125/289/124
f 174/355/187 176/356/188 164/340/181 161/339/180
f 121/307/149 159/306/148 150/354/120 122/353/186
f 177/348/187 113/347/189 115/357/190 165/358/180
f 120/359/191 162/360/181 144/285/129 119/284/128
f 165/358/180 115/357/190 117/352/183 146/351/182
f 124/288/189 173/287/188 162/360/181 120/359/191
f 172/361/192 175/362/192 173/363/132 170/364/132
f 188/365/127 180/366/127 181/367/193 190/368/193
f 180/366/185 158/369/150 160/370/194 181/367/195
f 181/371/196 160/372/197 159/373/148 179/374/147
f 190/375/198 181/371/198 179/374/125 189/376/125
f 186/377/127 183/378/127 184/379/193 187/380/193
f 174/330/187 161/381/180 163/382/199 175/331/200
f 175/362/201 163/383/202 162/384/181 173/363/188
f 187/385/198 184/386/198 182/387/125 185/388/125
f 167/389/172 177/390/172 178/391/173 169/392/173
f 161/381/180 143/393/182 145/394/203 163/382/199
f 163/383/202 145/395/204 144/396/129 162/384/181
f 153/397/119 167/389/122 169/392/205 154/398/206
f 154/399/207 169/400/208 168/401/121 152/402/120
f 158/369/150 149/403/119 151/404/206 160/370/194
f 160/372/197 151/405/207 150/406/120 159/373/148
f 143/393/182 188/365/184 190/368/209 145/394/203
f 145/395/204 190/375/210 189/376/130 144/396/129
f 169/400/192 178/407/192 176/408/132 168/401/132
f 168/270/132 176/356/132 174/355/172 171/271/172
f 183/378/185 155/409/150 157/410/194 184/379/195
f 184/386/196 157/411/197 156/412/148 182/387/147
f 155/409/150 153/397/119 154/398/206 157/410/194
f 157/411/197 154/399/207 152/402/120 156/412/148
f 149/403/119 171/329/122 172/332/205 151/404/206
f 151/405/207 172/361/208 170/364/121 150/406/120
f 165/413/180 146/414/182 148/415/203 166/416/199
f 166/417/202 148/418/204 147/419/129 164/420/181
f 177/390/187 165/413/180 166/416/199 178/391/200
f 178/407/201 166/417/202 164/420/181 176/408/188
f 146/414/182 186/377/184 187/380/209 148/415/203
f 148/418/204 187/385/210 185/388/130 147/419/129
f 143/342/182 147/341/129 185/280/130 188/283/184
f 128/302/143 130/305/211 123/304/211 121/303/144
f 192/43/212 191/38/212 22/37/212 21/59/212
f 193/41/47 17/45/47 18/48/47 196/47/47
f 19/44/36 192/43/35 21/59/35 20/421/39
f 195/46/213 194/42/213 193/41/214 196/47/214
f 194/42/213 195/46/213 191/38/212 192/43/212
f 229/422/47 215/423/215 211/424/215 237/425/47
f 238/426/216 230/427/216 213/428/216 209/429/216
f 211/424/217 208/430/217 239/431/218 237/425/218
f 210/432/219 238/426/219 240/433/220 204/434/221
f 207/435/222 239/431/223 241/436/223 206/437/222
f 204/434/221 240/433/220 242/438/224 201/439/225
f 206/437/226 241/436/227 243/440/227 199/441/226
f 199/441/228 243/440/229 244/442/229 197/443/228
f 202/444/230 197/443/230 244/442/231 242/438/231
f 242/438/231 244/442/231 198/445/232 201/439/232
f 243/440/229 200/446/233 198/445/233 244/442/229
f 202/447/44 205/448/44 199/449/44
f 203/450/212 204/451/212 200/452/212
f 241/436/227 203/453/234 200/446/234 243/440/227
f 201/454/212 198/455/212 200/452/212
f 240/433/220 205/456/235 202/444/236 242/438/224
f 205/448/44 206/457/44 199/449/44
f 204/451/212 201/454/212 200/452/212
f 199/449/44 197/458/44 202/447/44
f 239/431/223 208/430/237 203/453/237 241/436/223
f 209/459/44 207/460/44 206/457/44 205/448/44
f 208/461/212 210/462/212 204/451/212 203/450/212
f 238/426/238 209/429/238 205/456/235 240/433/220
f 237/425/218 239/431/218 207/435/239 212/463/239
f 212/463/240 214/464/240 229/422/47 237/425/47
f 209/459/44 213/465/44 217/466/44 207/460/44
f 211/467/212 215/468/212 218/469/212 208/461/212
f 218/469/212 216/470/212 210/462/212 208/461/212
f 217/466/44 214/471/44 212/472/44 207/460/44
f 210/432/241 216/473/241 230/427/241 238/426/241
f 229/422/242 231/474/242 218/475/243 215/423/243
f 217/466/44 213/465/44 221/476/44 222/477/44
f 231/474/244 217/478/245 222/479/245 232/480/244
f 216/470/212 218/469/212 219/481/212 220/482/212
f 230/427/246 216/473/246 220/483/247 233/484/248
f 224/485/44 228/486/44 225/487/44
f 233/484/248 220/483/247 223/488/249 234/489/250
f 220/482/212 219/481/212 226/490/212
f 223/491/212 226/490/212 227/492/212
f 232/480/251 222/479/252 225/493/252 235/494/251
f 222/477/44 221/476/44 225/487/44
f 223/491/212 220/482/212 226/490/212
f 235/494/253 225/493/254 228/495/254 236/496/253
f 221/476/44 224/485/44 225/487/44
f 234/489/255 236/496/255 228/495/256 224/497/256
f 223/488/257 227/498/257 236/496/255 234/489/255
f 226/499/258 235/494/253 236/496/253 227/498/258
f 219/500/259 232/480/251 235/494/251 226/499/259
f 221/501/260 233/484/248 234/489/250 224/497/261
f 213/428/262 230/427/262 233/484/248 221/501/260
f 218/475/263 231/474/244 232/480/244 219/500/263
f 214/464/264 217/478/264 231/474/242 229/422/242
f 277/502/265 281/503/265 248/504/266 246/505/266
f 270/506/267 276/507/267 287/508/267 304/509/267
f 258/510/268 261/511/268 294/512/269 297/513/269
f 274/514/44 254/515/44 249/516/44 284/517/44
f 279/518/212 259/519/212 299/520/212 300/521/212
f 253/522/31 255/523/31 273/524/270 269/525/270
f 260/526/44 283/527/44 306/528/44 295/529/44
f 247/530/271 250/531/271 256/532/272 252/533/272
f 305/534/270 286/535/270 290/536/273 293/537/273
f 271/538/212 265/539/212 259/519/212 279/518/212
f 298/540/274 296/541/274 308/542/265 301/543/265
f 275/544/44 267/545/44 288/546/44 285/547/44
f 264/548/275 268/549/275 262/550/276 257/551/276
f 282/552/277 280/553/277 302/554/277 307/555/277
f 265/539/212 271/538/212 303/556/212 292/557/212
f 266/558/278 263/559/278 291/560/279 289/561/279
f 267/545/44 275/544/44 283/527/44 260/526/44
f 245/562/280 246/505/281 247/530/282
f 248/504/283 249/516/284 250/531/285
f 251/563/286 252/533/287 253/522/288
f 254/515/289 255/523/290 256/532/291
f 257/551/292 258/510/293 259/519/294
f 260/526/295 261/511/296 262/550/297
f 263/559/298 264/548/299 265/539/300
f 266/558/301 267/545/302 268/549/303
f 269/525/304 270/506/305 271/538/306 272/564/307
f 273/524/308 274/514/309 275/544/310 276/507/311
f 277/502/312 278/565/313 279/518/314 280/553/315
f 281/503/316 282/552/317 283/527/318 284/517/319
f 285/547/320 286/535/321 287/508/322
f 288/546/323 289/561/324 290/536/325
f 291/560/326 292/557/327 293/537/328
f 294/512/329 295/529/330 296/541/331
f 297/513/332 298/540/333 299/520/334
f 300/521/335 301/543/336 302/554/337
f 303/556/338 304/509/339 305/534/340
f 306/528/341 307/555/342 308/542/343
f 251/563/286 245/562/280 247/530/282 252/533/287
f 246/505/344 248/504/344 250/531/271 247/530/271
f 249/516/284 254/515/289 256/532/291 250/531/285
f 255/523/345 253/522/345 252/533/272 256/532/272
f 272/564/307 251/563/286 253/522/288 269/525/304
f 268/549/275 264/548/275 263/559/278 266/558/278
f 259/519/294 265/539/300 264/548/299 257/551/292
f 267/545/302 260/526/295 262/550/297 268/549/303
f 261/511/268 258/510/268 257/551/276 262/550/276
f 284/517/319 249/516/284 248/504/283 281/503/316
f 254/515/289 274/514/309 273/524/308 255/523/290
f 245/562/280 278/565/313 277/502/312 246/505/281
f 274/514/44 284/517/44 283/527/44 275/544/44
f 271/538/212 279/518/212 278/565/212 272/564/212
f 281/503/265 277/502/265 280/553/277 282/552/277
f 276/507/267 270/506/267 269/525/270 273/524/270
f 285/547/320 288/546/323 290/536/325 286/535/321
f 289/561/279 291/560/279 293/537/273 290/536/273
f 296/541/274 298/540/274 297/513/269 294/512/269
f 300/521/335 299/520/334 298/540/333 301/543/336
f 292/557/327 303/556/338 305/534/340 293/537/328
f 295/529/330 306/528/341 308/542/343 296/541/331
f 307/555/277 302/554/277 301/543/265 308/542/265
f 286/535/270 305/534/270 304/509/267 287/508/267
f 279/518/314 300/521/335 302/554/337 280/553/315
f 306/528/341 283/527/318 282/552/317 307/555/342
f 266/558/301 289/561/324 288/546/323 267/545/302
f 287/508/322 276/507/311 275/544/310 285/547/320
f 270/506/305 304/509/339 303/556/338 271/538/306
f 291/560/326 263/559/298 265/539/300 292/557/327
f 258/510/293 297/513/332 299/520/334 259/519/294
f 294/512/329 261/511/296 260/526/295 295/529/330
f 251/563/212 272/564/212 278/565/212 245/562/212
