# Blender v3.4.1 OBJ File: 'August2026_UltraTurboHeroMan_Assets_Export.blend'
# www.blender.org
mtllib UltraTurboHeroMan_Sword.mtl
o UltraTurboHeroMan_Sword
v -0.060906 0.182075 0.047607
v -0.060906 0.316773 0.047607
v -0.060906 0.182075 -0.047607
v -0.060906 0.316773 -0.047607
v 0.060894 0.182075 0.047607
v 0.060894 0.316773 0.047607
v 0.060894 0.182075 -0.047607
v 0.060894 0.316773 -0.047607
v 0.020294 0.182075 -0.065512
v -0.020306 0.182075 -0.065512
v -0.000006 0.339601 -0.061185
v -0.020306 0.182075 0.065512
v 0.020294 0.182075 0.065512
v -0.000006 0.339601 0.061185
v -0.189777 0.182075 -0.025025
v -0.189777 0.182075 0.025025
v -0.113469 0.316773 0.047607
v -0.113469 0.316773 -0.047607
v 0.113436 0.316773 -0.047607
v 0.189744 0.182075 -0.025025
v 0.189744 0.182075 0.025025
v 0.113436 0.316773 0.047607
v -0.060906 0.255873 0.047607
v -0.060906 0.255873 -0.047607
v 0.060894 0.255873 -0.047607
v 0.060894 0.255873 0.047607
v -0.159275 0.255873 0.025025
v -0.159275 0.255873 -0.025025
v 0.159243 0.255873 -0.025025
v 0.159243 0.255873 0.025025
v 0.238381 0.255873 0.025025
v 0.133983 0.355467 0.036316
v 0.133983 0.355467 -0.036316
v 0.238381 0.255873 -0.025025
v -0.238408 0.255873 -0.025025
v -0.134010 0.355467 -0.036316
v -0.134010 0.355467 0.036316
v -0.238408 0.255873 0.025025
v -0.043036 0.132033 -0.032668
v -0.043036 0.132033 0.032668
v -0.015155 0.132033 -0.044963
v 0.043023 0.132033 0.032668
v 0.043023 0.132033 -0.032668
v 0.015142 0.132033 0.044963
v 0.015142 0.132033 -0.044963
v -0.015155 0.132033 0.044963
v 0.133983 0.548938 0.023842
v 0.133983 0.548938 -0.023842
v -0.134010 0.548938 -0.023842
v -0.134010 0.548938 0.023842
v -0.201738 0.371955 0.025025
v -0.201738 0.371955 -0.025025
v 0.201714 0.371955 -0.025025
v 0.201714 0.371955 0.025025
v 0.254427 0.371955 0.025025
v -0.254449 0.371955 0.025025
v -0.254449 0.371955 -0.025025
v 0.254427 0.371955 -0.025025
v -0.073070 0.166552 -0.000000
v -0.060906 0.336494 -0.000000
v 0.073058 0.166552 -0.000000
v 0.060894 0.336494 -0.000000
v -0.000006 0.359322 -0.000000
v -0.206170 0.171112 -0.000000
v -0.103306 0.333674 -0.000000
v 0.206137 0.171112 -0.000000
v 0.103274 0.333674 -0.000000
v 0.175637 0.244910 -0.000000
v -0.175668 0.244910 -0.000000
v 0.254288 0.244216 -0.000000
v 0.114846 0.360233 -0.000000
v -0.114873 0.360232 -0.000000
v -0.254315 0.244216 -0.000000
v -0.052591 0.132033 -0.000000
v 0.052578 0.132033 -0.000000
v -0.022759 -0.157016 0.067537
v 0.128178 0.567785 -0.000000
v -0.128205 0.567785 -0.000000
v 0.217620 0.360298 -0.000000
v -0.217645 0.360298 -0.000000
v 0.271859 0.362733 -0.000000
v -0.271880 0.362733 -0.000000
v -0.017740 0.144931 -0.057229
v -0.053207 0.144931 -0.041588
v 0.017727 0.144931 0.057229
v 0.053193 0.144931 0.041588
v 0.053193 0.144931 -0.041588
v 0.017727 0.144931 -0.057229
v -0.053207 0.144931 0.041588
v -0.017740 0.144931 0.057229
v -0.065371 0.144931 -0.000000
v 0.065357 0.144931 -0.000000
v -0.025475 -0.266156 0.075596
v -0.015155 -0.131221 0.044963
v 0.015142 -0.131221 0.044963
v -0.015155 -0.131221 -0.044963
v 0.015142 -0.131221 -0.044963
v -0.052591 -0.131221 -0.000000
v 0.052578 -0.131221 -0.000000
v -0.043036 -0.131221 -0.032668
v 0.043023 -0.131221 0.032668
v 0.043023 -0.131221 -0.032668
v -0.043036 -0.131221 0.032668
v 0.022749 -0.157016 0.067537
v -0.022759 -0.157016 -0.067537
v 0.022749 -0.157016 -0.067537
v -0.078989 -0.157016 -0.000000
v 0.078979 -0.157016 -0.000000
v -0.064637 -0.157016 -0.049069
v 0.064627 -0.157016 0.049069
v 0.064627 -0.157016 -0.049069
v -0.064637 -0.157016 0.049069
v 0.025464 -0.266156 0.075596
v -0.025475 -0.266156 -0.075596
v 0.025464 -0.266156 -0.075596
v -0.088414 -0.266156 -0.000000
v 0.088403 -0.266156 -0.000000
v -0.072350 -0.266156 -0.054924
v 0.072339 -0.266156 0.054924
v 0.072339 -0.266156 -0.054924
v -0.072350 -0.266156 0.054924
v -0.000004 -0.302591 -0.000000
v -0.017712 -0.295030 0.052558
v 0.017704 -0.295030 0.052558
v -0.017712 -0.295030 -0.052559
v 0.017704 -0.295030 -0.052559
v -0.061471 -0.295030 -0.000000
v 0.061463 -0.295030 -0.000000
v -0.050302 -0.295030 -0.038186
v 0.050294 -0.295030 0.038186
v 0.050294 -0.295030 -0.038186
v -0.050302 -0.295030 0.038186
v -0.015155 -0.031102 0.044963
v -0.015155 -0.055837 0.044963
v -0.013193 -0.043469 0.039140
v -0.015155 0.056649 0.044963
v -0.015155 0.031914 0.044963
v -0.013193 0.044282 0.039140
v 0.015142 -0.031102 -0.044963
v 0.015142 -0.055837 -0.044963
v 0.013180 -0.043469 -0.039140
v 0.015142 0.031914 -0.044963
v 0.015142 0.056649 -0.044963
v 0.013180 0.044282 -0.039140
v -0.015155 0.056649 -0.044963
v -0.015155 0.031914 -0.044963
v -0.013193 0.044282 -0.039140
v -0.015155 -0.031102 -0.044963
v -0.015155 -0.055837 -0.044963
v -0.013193 -0.043469 -0.039140
v 0.015142 -0.031102 0.044963
v 0.015142 -0.055837 0.044963
v 0.013180 -0.043469 0.039140
v 0.015142 0.031914 0.044963
v 0.015142 0.056649 0.044963
v 0.013180 0.044282 0.039140
v 0.043023 0.056649 -0.032668
v 0.043023 0.031914 -0.032668
v 0.037450 0.044282 -0.028437
v 0.043023 -0.055837 -0.032668
v 0.043023 -0.031102 -0.032668
v 0.037450 -0.043469 -0.028437
v 0.043023 -0.055837 0.032668
v 0.043023 -0.031102 0.032668
v 0.037450 -0.043469 0.028437
v 0.043023 0.031914 0.032668
v 0.043023 0.056649 0.032668
v 0.037450 0.044282 0.028437
v 0.052578 0.056649 -0.000000
v 0.052578 0.031914 -0.000000
v 0.045767 0.044282 -0.000000
v 0.052578 -0.031102 -0.000000
v 0.052578 -0.055837 -0.000000
v 0.045767 -0.043469 -0.000000
v -0.043036 -0.055837 -0.032668
v -0.043036 -0.031102 -0.032668
v -0.037463 -0.043469 -0.028437
v -0.043036 0.031914 -0.032668
v -0.043036 0.056649 -0.032668
v -0.037463 0.044282 -0.028437
v -0.052591 -0.055837 -0.000000
v -0.052591 -0.031102 -0.000000
v -0.045780 -0.043469 -0.000000
v -0.052591 0.056649 -0.000000
v -0.052591 0.031914 -0.000000
v -0.045780 0.044282 -0.000000
v -0.043036 0.031914 0.032668
v -0.043036 0.056649 0.032668
v -0.037463 0.044282 0.028437
v -0.043036 -0.031102 0.032668
v -0.043036 -0.055837 0.032668
v -0.037463 -0.043469 0.028437
v -0.000007 0.315670 0.065007
v 0.046075 0.255873 0.044579
v -0.000007 0.196076 0.065007
v -0.046089 0.255873 0.044579
v -0.000007 0.315670 -0.065007
v -0.046089 0.255873 -0.044579
v -0.000007 0.196076 -0.065007
v 0.046075 0.255873 -0.044579
v -0.038264 0.255873 -0.059919
v -0.000007 0.255873 -0.080547
v 0.038250 0.255873 0.059919
v -0.000007 0.255873 0.080547
v -0.000007 0.206229 -0.080547
v -0.000007 0.206229 0.080547
v -0.000007 0.305517 -0.080547
v -0.000007 0.305517 0.080547
v -0.038264 0.255873 0.059919
v 0.038250 0.255873 -0.059919
v 0.000103 0.302675 -0.019706
v -0.028404 0.302605 -0.034436
v 0.000103 1.254017 0.024052
v -0.078144 1.352905 0.000000
v -0.138481 1.167663 0.000000
v 0.000103 1.254017 -0.024052
v 0.078349 1.352905 0.000000
v 0.138687 1.167663 0.000000
v 0.028610 0.302605 -0.034436
v 0.000103 0.302675 0.019706
v 0.028610 0.302605 0.034436
v -0.028404 0.302605 0.034436
v 0.088407 0.302512 0.000000
v -0.088201 0.302512 0.000000
v -0.041362 1.138514 0.029773
v 0.041568 1.138514 0.029773
v 0.000103 1.138512 0.018317
v 0.041568 1.138514 -0.029773
v -0.041362 1.138514 -0.029773
v 0.000103 1.138512 -0.018317
v -0.155700 0.658127 0.000000
v 0.155905 0.658127 0.000000
v -0.051508 0.658127 0.033053
v 0.051714 0.658127 0.033053
v 0.000103 0.658127 0.019257
v 0.051714 0.658127 -0.033053
v -0.051508 0.658127 -0.033053
v 0.000103 0.658127 -0.019257
v 0.041303 1.427085 0.000000
v -0.041098 1.427085 0.000000
v 0.000103 1.410677 -0.013742
v 0.000103 1.410677 0.013742
v 0.000103 1.490320 0.000000
v -0.088201 0.586269 0.000000
v 0.088407 0.586269 0.000000
v -0.028404 0.586362 0.034436
v 0.028610 0.586362 0.034436
v 0.000103 0.586432 0.019706
v 0.028610 0.586362 -0.034436
v -0.028404 0.586362 -0.034436
v 0.000103 0.586432 -0.019706
vt 0.071717 0.628032
vt 0.071717 0.616864
vt 0.091217 0.616864
vt 0.086602 0.628032
vt 0.053567 0.628032
vt 0.053285 0.628032
vt 0.059428 0.637249
vt 0.059428 0.634439
vt 0.059428 0.621625
vt 0.059428 0.616864
vt 0.065572 0.616864
vt 0.065184 0.611242
vt 0.059816 0.611242
vt 0.051443 0.583264
vt 0.053285 0.585614
vt 0.033781 0.585614
vt 0.031300 0.583954
vt 0.059428 0.608983
vt 0.053285 0.608983
vt 0.053285 0.605999
vt 0.059428 0.605999
vt 0.071717 0.608983
vt 0.065572 0.608983
vt 0.065572 0.605999
vt 0.071717 0.605999
vt 0.053285 0.616864
vt 0.054450 0.611242
vt 0.065572 0.616864
vt 0.059428 0.616864
vt 0.059816 0.611242
vt 0.065184 0.611242
vt 0.059428 0.621625
vt 0.053567 0.628032
vt 0.053285 0.628032
vt 0.065572 0.621625
vt 0.071435 0.628032
vt 0.071717 0.628032
vt 0.033781 0.616864
vt 0.038397 0.628032
vt 0.053285 0.637249
vt 0.045330 0.637249
vt 0.038397 0.628032
vt 0.073557 0.583264
vt 0.071717 0.585614
vt 0.091217 0.585614
vt 0.093698 0.583954
vt 0.071717 0.637249
vt 0.079669 0.637249
vt 0.086602 0.628032
vt 0.079669 0.605999
vt 0.078131 0.608556
vt 0.071717 0.616864
vt 0.091217 0.616864
vt 0.053285 0.616864
vt 0.033781 0.616864
vt 0.053285 0.637249
vt 0.045330 0.637249
vt 0.053285 0.605999
vt 0.045330 0.605999
vt 0.046867 0.608556
vt 0.089082 0.595123
vt 0.086602 0.596782
vt 0.091217 0.585614
vt 0.071717 0.637249
vt 0.065572 0.637249
vt 0.059428 0.637249
vt 0.065572 0.637249
vt 0.079669 0.637249
vt 0.035916 0.595123
vt 0.038397 0.596782
vt 0.033781 0.585614
vt 0.082779 0.643104
vt 0.098578 0.628032
vt 0.086602 0.596782
vt 0.098578 0.596782
vt 0.100985 0.595018
vt 0.098578 0.628032
vt 0.082779 0.643104
vt 0.082779 0.611854
vt 0.079882 0.612576
vt 0.042221 0.611854
vt 0.045117 0.612575
vt 0.042221 0.643104
vt 0.026422 0.628032
vt 0.026422 0.628032
vt 0.042221 0.643104
vt 0.038397 0.596782
vt 0.026422 0.596782
vt 0.024014 0.595018
vt 0.583527 0.843760
vt 0.583527 0.866230
vt 0.593469 0.866230
vt 0.593469 0.843760
vt 0.583527 0.875050
vt 0.583527 0.901931
vt 0.593469 0.901931
vt 0.593469 0.875050
vt 0.593469 0.808058
vt 0.593469 0.834939
vt 0.596876 0.834939
vt 0.596876 0.808058
vt 0.053285 0.585614
vt 0.054450 0.579992
vt 0.052608 0.579992
vt 0.054450 0.611242
vt 0.070553 0.611242
vt 0.070553 0.611242
vt 0.071717 0.585614
vt 0.070553 0.579992
vt 0.072393 0.579992
vt 0.031971 0.645600
vt 0.023994 0.645600
vt 0.042221 0.672384
vt 0.082779 0.672384
vt 0.101006 0.645600
vt 0.093028 0.645600
vt 0.042221 0.672384
vt 0.031971 0.645600
vt 0.082779 0.641134
vt 0.081900 0.643986
vt 0.093028 0.645600
vt 0.042221 0.641134
vt 0.043100 0.643986
vt 0.082779 0.672384
vt 0.101006 0.645600
vt 0.023994 0.645600
vt 0.093028 0.614350
vt 0.095436 0.612586
vt 0.031971 0.614350
vt 0.029564 0.612586
vt 0.101006 0.614350
vt 0.103645 0.612954
vt 0.023994 0.614350
vt 0.021355 0.612954
vt 0.042221 0.641134
vt 0.082779 0.641134
vt 0.101006 0.614350
vt 0.023994 0.614350
vt 0.031971 0.614350
vt 0.093028 0.614350
vt 0.026422 0.596782
vt 0.098578 0.596782
vt 0.042221 0.611854
vt 0.082779 0.611854
vt 0.070553 0.579992
vt 0.054450 0.579992
vt 0.562784 0.808058
vt 0.562784 0.834939
vt 0.559376 0.834939
vt 0.559376 0.808058
vt 0.572723 0.808058
vt 0.572723 0.834939
vt 0.596876 0.901931
vt 0.596876 0.875050
vt 0.045330 0.605999
vt 0.079669 0.605999
vt 0.071717 0.605999
vt 0.065572 0.605999
vt 0.059428 0.605999
vt 0.060208 0.578040
vt 0.055990 0.578040
vt 0.059816 0.579992
vt 0.064793 0.578040
vt 0.069013 0.578040
vt 0.065184 0.579992
vt 0.069013 0.578040
vt 0.064793 0.578040
vt 0.065184 0.579992
vt 0.055990 0.578040
vt 0.060208 0.578040
vt 0.059816 0.579992
vt 0.054543 0.546790
vt 0.055990 0.546790
vt 0.054450 0.548742
vt 0.052608 0.548742
vt 0.070459 0.546790
vt 0.069013 0.546790
vt 0.070553 0.548742
vt 0.072393 0.548742
vt 0.055990 0.546790
vt 0.054450 0.548742
vt 0.069013 0.546790
vt 0.070553 0.548742
vt 0.055990 0.631950
vt 0.060208 0.631950
vt 0.059057 0.628046
vt 0.052719 0.628046
vt 0.064793 0.631950
vt 0.065945 0.628046
vt 0.055990 0.631950
vt 0.054543 0.631950
vt 0.050548 0.628046
vt 0.052719 0.628046
vt 0.070459 0.631950
vt 0.069013 0.631950
vt 0.072282 0.628046
vt 0.074454 0.628046
vt 0.069013 0.631950
vt 0.072282 0.628046
vt 0.064793 0.631950
vt 0.060208 0.631950
vt 0.059057 0.628046
vt 0.065945 0.628046
vt 0.559376 0.875050
vt 0.559376 0.901931
vt 0.562784 0.901931
vt 0.562784 0.875050
vt 0.562784 0.808058
vt 0.562784 0.834939
vt 0.572723 0.834939
vt 0.572723 0.808058
vt 0.572723 0.875050
vt 0.572723 0.901931
vt 0.072282 0.596796
vt 0.074454 0.596796
vt 0.075881 0.580279
vt 0.073449 0.580279
vt 0.052719 0.596796
vt 0.059057 0.596796
vt 0.058646 0.580279
vt 0.051553 0.580279
vt 0.065945 0.596796
vt 0.066356 0.580279
vt 0.052719 0.596796
vt 0.050548 0.596796
vt 0.049121 0.580279
vt 0.051553 0.580279
vt 0.072282 0.596796
vt 0.073449 0.580279
vt 0.073449 0.549029
vt 0.066356 0.549029
vt 0.065181 0.544659
vt 0.070113 0.544659
vt 0.058646 0.549029
vt 0.051553 0.549029
vt 0.054888 0.544659
vt 0.059821 0.544659
vt 0.073449 0.549029
vt 0.075881 0.549029
vt 0.071803 0.544659
vt 0.070113 0.544659
vt 0.051553 0.549029
vt 0.058646 0.549029
vt 0.059821 0.544659
vt 0.054888 0.544659
vt 0.066356 0.549029
vt 0.065181 0.544659
vt 0.049121 0.549029
vt 0.053199 0.544659
vt 0.059057 0.596796
vt 0.058646 0.580279
vt 0.065945 0.596796
vt 0.066356 0.580279
vt 0.062501 0.574765
vt 0.071803 0.575909
vt 0.070113 0.575909
vt 0.059821 0.575909
vt 0.054888 0.575909
vt 0.065181 0.575909
vt 0.059821 0.575909
vt 0.065181 0.575909
vt 0.054888 0.575909
vt 0.070113 0.575909
vt 0.053199 0.575909
vt 0.583527 0.843760
vt 0.583527 0.866230
vt 0.572723 0.866230
vt 0.572723 0.843760
vt 0.562784 0.843760
vt 0.562784 0.866230
vt 0.559376 0.866230
vt 0.559376 0.843760
vt 0.596876 0.866230
vt 0.596876 0.843760
vt 0.572723 0.843760
vt 0.572723 0.866230
vt 0.572723 0.875050
vt 0.572723 0.901931
vt 0.562784 0.901931
vt 0.562784 0.875050
vt 0.593469 0.834939
vt 0.593469 0.808058
vt 0.562784 0.843760
vt 0.562784 0.866230
vt 0.583527 0.808058
vt 0.583527 0.834939
vt 0.593469 0.866230
vt 0.593469 0.843760
vt 0.593469 0.875050
vt 0.593469 0.901931
vt 0.583527 0.901931
vt 0.583527 0.875050
vt 0.583527 0.808058
vt 0.583527 0.834939
vt 0.593469 0.812510
vt 0.596876 0.812510
vt 0.594448 0.808100
vt 0.591483 0.808100
vt 0.591483 0.870600
vt 0.594448 0.870600
vt 0.596876 0.866189
vt 0.593469 0.866189
vt 0.562784 0.812510
vt 0.572723 0.812510
vt 0.573423 0.808100
vt 0.564769 0.808100
vt 0.564769 0.870600
vt 0.573423 0.870600
vt 0.572723 0.866189
vt 0.562784 0.866189
vt 0.559376 0.812510
vt 0.561804 0.808100
vt 0.561804 0.870600
vt 0.559376 0.866189
vt 0.593469 0.812510
vt 0.583527 0.812510
vt 0.582827 0.808100
vt 0.591483 0.808100
vt 0.591483 0.870600
vt 0.582827 0.870600
vt 0.583527 0.866189
vt 0.593469 0.866189
vt 0.562784 0.843800
vt 0.559376 0.843800
vt 0.561804 0.839391
vt 0.564769 0.839391
vt 0.564769 0.901891
vt 0.561804 0.901891
vt 0.559376 0.897480
vt 0.562784 0.897480
vt 0.572723 0.812510
vt 0.573423 0.808100
vt 0.573423 0.870600
vt 0.572723 0.866189
vt 0.583527 0.843800
vt 0.593469 0.843800
vt 0.591483 0.839391
vt 0.582827 0.839391
vt 0.582827 0.901891
vt 0.591483 0.901891
vt 0.593469 0.897480
vt 0.583527 0.897480
vt 0.583527 0.812510
vt 0.582827 0.808100
vt 0.582827 0.870600
vt 0.583527 0.866189
vt 0.562784 0.812510
vt 0.564769 0.808100
vt 0.564769 0.870600
vt 0.562784 0.866189
vt 0.596876 0.843800
vt 0.594448 0.839391
vt 0.594448 0.901891
vt 0.596876 0.897480
vt 0.562784 0.843800
vt 0.572723 0.843800
vt 0.573423 0.839391
vt 0.564769 0.839391
vt 0.564769 0.901891
vt 0.573423 0.901891
vt 0.572723 0.897480
vt 0.562784 0.897480
vt 0.583527 0.843800
vt 0.572723 0.843800
vt 0.573423 0.839391
vt 0.582827 0.839391
vt 0.582827 0.901891
vt 0.573423 0.901891
vt 0.572723 0.897480
vt 0.583527 0.897480
vt 0.593469 0.843800
vt 0.591483 0.839391
vt 0.591483 0.901891
vt 0.593469 0.897480
vt 0.937500 0.955113
vt 0.899849 0.906249
vt 0.906250 0.906249
vt 0.937500 0.946816
vt 0.937500 0.794883
vt 0.975159 0.843749
vt 0.968765 0.843749
vt 0.937500 0.803181
vt 0.899849 0.874999
vt 0.937500 0.826133
vt 0.937500 0.834431
vt 0.906250 0.874999
vt 0.975159 0.874999
vt 0.937500 0.826133
vt 0.937500 0.834431
vt 0.968765 0.874999
vt 0.937500 0.794883
vt 0.899849 0.843749
vt 0.906250 0.843749
vt 0.937500 0.803181
vt 0.937500 0.955113
vt 0.975159 0.906249
vt 0.968765 0.906249
vt 0.937500 0.946816
vt 0.975159 0.874999
vt 0.937500 0.923863
vt 0.937500 0.915566
vt 0.968765 0.874999
vt 0.899849 0.874999
vt 0.937500 0.923863
vt 0.937500 0.915566
vt 0.906250 0.874999
vt 0.059428 0.634439
vt 0.071435 0.628032
vt 0.065572 0.634439
vt 0.065572 0.621625
vt 0.065572 0.634439
vt 0.937500 0.874999
vt 0.937500 0.843749
vt 0.937500 0.906249
vt 0.937500 0.874999
vt 0.937500 0.843749
vt 0.937500 0.906249
vt 0.178018 0.654126
vt 0.184354 0.654125
vt 0.184371 0.664855
vt 0.179130 0.664855
vt 0.199310 0.599353
vt 0.191817 0.599562
vt 0.191817 0.599562
vt 0.199310 0.599353
vt 0.187748 0.601875
vt 0.190963 0.601875
vt 0.191126 0.612604
vt 0.187748 0.612604
vt 0.187748 0.661708
vt 0.187748 0.658100
vt 0.192614 0.658100
vt 0.187748 0.661708
vt 0.187748 0.658100
vt 0.182882 0.658100
vt 0.190254 0.679567
vt 0.186418 0.678891
vt 0.190628 0.679633
vt 0.187748 0.675517
vt 0.182882 0.675517
vt 0.184371 0.647438
vt 0.179130 0.647438
vt 0.187748 0.675517
vt 0.192614 0.675517
vt 0.196367 0.664855
vt 0.191126 0.647438
vt 0.196367 0.647438
vt 0.187748 0.555189
vt 0.191186 0.555159
vt 0.190963 0.592288
vt 0.187748 0.592288
vt 0.187748 0.679125
vt 0.190628 0.679633
vt 0.184371 0.647438
vt 0.187748 0.647438
vt 0.187748 0.623266
vt 0.191126 0.647438
vt 0.187748 0.647438
vt 0.187748 0.612604
vt 0.184371 0.612604
vt 0.187748 0.623266
vt 0.187748 0.555189
vt 0.184311 0.555159
vt 0.184534 0.592288
vt 0.187748 0.592288
vt 0.187748 0.601875
vt 0.184534 0.601875
vt 0.176187 0.589766
vt 0.178018 0.627123
vt 0.184354 0.627122
vt 0.184354 0.636709
vt 0.178018 0.636709
vt 0.190963 0.636709
vt 0.187748 0.636708
vt 0.191143 0.636709
vt 0.197479 0.636709
vt 0.197479 0.654126
vt 0.191143 0.654125
vt 0.191126 0.664855
vt 0.184354 0.644539
vt 0.178018 0.644540
vt 0.176187 0.607183
vt 0.187748 0.679125
vt 0.184869 0.679633
vt 0.185243 0.679567
vt 0.189079 0.678891
vt 0.184869 0.679633
vt 0.187797 0.661717
vt 0.191029 0.662286
vt 0.187748 0.661708
vt 0.184468 0.662286
vt 0.191186 0.589993
vt 0.187748 0.590023
vt 0.187748 0.627122
vt 0.190963 0.627122
vt 0.199310 0.607183
vt 0.191817 0.607392
vt 0.191143 0.644539
vt 0.187748 0.599609
vt 0.184311 0.599579
vt 0.184311 0.599579
vt 0.187748 0.599609
vt 0.176187 0.599353
vt 0.183680 0.599562
vt 0.183680 0.599562
vt 0.176187 0.599353
vt 0.187748 0.599609
vt 0.191186 0.599579
vt 0.191186 0.599579
vt 0.187748 0.599609
vt 0.191186 0.564746
vt 0.187748 0.564775
vt 0.187748 0.564775
vt 0.191186 0.564746
vt 0.183680 0.616979
vt 0.176187 0.616769
vt 0.176187 0.616769
vt 0.183680 0.616979
vt 0.191817 0.616979
vt 0.199310 0.616769
vt 0.199310 0.616769
vt 0.191817 0.616979
vt 0.184311 0.564746
vt 0.187748 0.564775
vt 0.187748 0.564775
vt 0.184311 0.564746
vt 0.199310 0.589766
vt 0.197479 0.627123
vt 0.191143 0.627122
vt 0.184534 0.636709
vt 0.187748 0.636708
vt 0.184311 0.589993
vt 0.187748 0.590023
vt 0.187748 0.627122
vt 0.184534 0.627122
vt 0.183680 0.589975
vt 0.183680 0.607392
vt 0.191817 0.589975
vt 0.197479 0.644540
vt 0.190628 0.662216
vt 0.184869 0.662216
vn 0.1727 0.0132 0.9849
vn 0.3329 -0.0583 0.9412
vn 0.1948 0.0403 0.9800
vn 0.1635 -0.0400 0.9857
vn -0.1041 0.0929 -0.9902
vn -0.1727 0.0132 -0.9849
vn -0.0000 -0.0485 -0.9988
vn -0.0000 -0.0890 -0.9960
vn -0.0000 0.1801 -0.9836
vn -0.1759 -0.0439 -0.9834
vn 0.1759 -0.0439 -0.9834
vn 0.1981 -0.2264 -0.9537
vn -0.1981 -0.2264 -0.9537
vn -0.0505 -0.9987 0.0000
vn -0.0471 -0.9323 0.3585
vn -0.0000 1.0000 0.0000
vn -0.2202 0.9754 0.0000
vn -0.2017 0.9179 0.3416
vn -0.0000 0.9401 0.3408
vn 0.2202 0.9754 -0.0000
vn 0.2017 0.9179 0.3416
vn -0.3329 -0.0583 -0.9412
vn -0.3931 -0.2259 -0.8913
vn 0.1759 -0.0439 0.9834
vn -0.1759 -0.0439 0.9834
vn -0.1981 -0.2264 0.9537
vn 0.1981 -0.2264 0.9537
vn -0.0000 0.1801 0.9836
vn -0.1041 0.0929 0.9902
vn -0.1727 0.0132 0.9849
vn 0.1041 0.0929 -0.9902
vn 0.1727 0.0132 -0.9849
vn -0.1948 0.0403 -0.9800
vn -0.1635 -0.0400 -0.9857
vn -0.1862 -0.0571 0.9808
vn -0.1443 -0.1032 0.9841
vn -0.1635 -0.0400 0.9857
vn 0.0505 -0.9987 0.0000
vn 0.0471 -0.9323 -0.3585
vn 0.1863 -0.0571 -0.9808
vn 0.1443 -0.1032 -0.9841
vn 0.1635 -0.0400 -0.9857
vn 0.0277 0.9340 0.3563
vn 0.0297 0.9996 0.0000
vn 0.3329 -0.0583 -0.9412
vn 0.1948 0.0403 -0.9800
vn -0.3329 -0.0583 0.9412
vn -0.1948 0.0403 0.9800
vn -0.1862 -0.0571 -0.9808
vn -0.1443 -0.1032 -0.9841
vn -0.2017 0.9179 -0.3416
vn -0.0277 0.9340 -0.3563
vn -0.0297 0.9996 0.0000
vn 0.8465 0.3499 0.4013
vn 0.1863 -0.0571 0.9808
vn -0.0000 -0.0485 0.9988
vn 0.1443 -0.1032 0.9841
vn -0.8465 0.3499 -0.4013
vn 0.1476 0.0086 -0.9890
vn 0.1462 -0.0265 -0.9889
vn -0.0040 -0.9122 -0.4097
vn 0.1462 -0.0265 0.9889
vn 0.1476 0.0086 0.9890
vn -0.7948 0.4598 0.3962
vn -0.8709 0.2768 0.4061
vn -0.8769 0.2570 0.4062
vn 0.7948 0.4597 -0.3962
vn 0.8709 0.2768 -0.4061
vn 0.8769 0.2570 -0.4062
vn -0.1476 0.0086 0.9890
vn -0.1462 -0.0265 0.9889
vn -0.1462 -0.0265 -0.9889
vn -0.1476 0.0086 -0.9890
vn 0.0040 -0.9122 0.4097
vn 0.2038 -0.2210 -0.9537
vn 0.2038 0.2210 -0.9537
vn 0.7322 0.2388 -0.6378
vn 0.7322 -0.2388 -0.6378
vn 0.2062 0.0000 -0.9785
vn 0.4035 0.0000 -0.9150
vn 0.9598 0.0000 -0.2807
vn 0.9710 0.2389 0.0000
vn 1.0000 0.0000 -0.0000
vn -0.9591 -0.2832 0.0000
vn -0.9158 -0.2704 -0.2969
vn -0.3931 -0.2259 0.8913
vn 0.3931 -0.2259 -0.8913
vn 0.3931 -0.2259 0.8913
vn 0.9591 -0.2832 0.0000
vn 0.9158 -0.2704 0.2969
vn -0.0931 0.0368 -0.9950
vn 0.0000 0.0067 -1.0000
vn -0.0918 0.0418 -0.9949
vn 0.0918 0.0418 -0.9949
vn 0.0931 0.0368 -0.9950
vn -0.0918 0.0418 0.9949
vn -0.0931 0.0368 0.9950
vn -0.9168 0.0428 0.3969
vn 0.0931 0.0368 0.9950
vn 0.9168 0.0428 -0.3969
vn 0.0918 0.0418 0.9949
vn 0.0000 0.0067 1.0000
vn 0.8644 0.2730 -0.4223
vn -0.8644 0.2731 0.4223
vn 0.0209 -0.9177 -0.3968
vn -0.0209 -0.9177 0.3968
vn -0.8221 0.5693 -0.0000
vn -0.7858 0.5441 0.2941
vn 0.8221 0.5693 -0.0000
vn 0.7857 0.5441 -0.2941
vn 0.7857 0.5441 0.2941
vn -0.7858 0.5441 -0.2941
vn -0.0209 -0.9177 -0.3968
vn 0.0209 -0.9177 0.3968
vn -0.8644 0.2731 -0.4223
vn 0.8644 0.2730 0.4223
vn 0.8709 0.2768 0.4061
vn 0.8769 0.2570 0.4062
vn 0.9168 0.0428 0.3969
vn -0.8709 0.2768 -0.4061
vn -0.8769 0.2570 -0.4062
vn -0.9168 0.0428 -0.3969
vn 0.9158 -0.2704 -0.2969
vn -0.9158 -0.2704 0.2969
vn -0.9598 0.0000 0.2807
vn -0.7322 0.2388 0.6378
vn -0.9710 0.2389 -0.0000
vn -1.0000 0.0000 0.0000
vn -0.2062 0.0000 0.9785
vn -0.2038 0.2210 0.9537
vn -0.4035 0.0000 0.9150
vn 0.9710 -0.2389 -0.0000
vn 0.0040 -0.9122 -0.4097
vn 0.7948 0.4597 0.3962
vn -0.7948 0.4598 -0.3962
vn -0.0040 -0.9122 0.4097
vn -0.8465 0.3499 0.4013
vn 0.8465 0.3499 -0.4013
vn -0.0277 0.9340 0.3563
vn 0.2017 0.9179 -0.3416
vn 0.0277 0.9340 -0.3563
vn 0.0471 -0.9323 0.3585
vn -0.0000 0.9401 -0.3408
vn -0.0471 -0.9323 -0.3585
vn -0.1479 -0.6969 -0.7017
vn -0.5188 -0.7238 -0.4550
vn 0.1479 -0.6969 0.7017
vn 0.5188 -0.7238 0.4550
vn 0.5188 -0.7238 -0.4550
vn 0.1479 -0.6969 -0.7017
vn -0.5188 -0.7238 0.4550
vn -0.1479 -0.6969 0.7017
vn -0.7104 -0.7038 0.0000
vn 0.7104 -0.7038 -0.0000
vn -0.5103 0.7232 -0.4653
vn -0.1434 0.6753 -0.7234
vn -0.1585 0.6763 -0.7194
vn -0.5235 0.7240 -0.4493
vn 0.1434 0.6754 -0.7234
vn 0.1585 0.6763 -0.7194
vn -0.5103 0.7232 0.4653
vn -0.6989 0.7152 0.0000
vn -0.5235 0.7240 0.4493
vn 0.6989 0.7153 -0.0000
vn 0.5103 0.7232 0.4653
vn 0.5234 0.7240 0.4492
vn 0.5103 0.7232 -0.4653
vn 0.5234 0.7240 -0.4492
vn 0.1434 0.6754 0.7234
vn -0.1434 0.6753 0.7234
vn -0.1585 0.6763 0.7194
vn 0.1585 0.6763 0.7194
vn -0.9710 -0.2389 0.0000
vn -0.9598 0.0000 -0.2807
vn -0.7322 -0.2388 -0.6378
vn -0.4035 0.0000 -0.9150
vn -0.7322 0.2388 -0.6378
vn -0.2038 0.2210 -0.9537
vn -0.2062 0.0000 -0.9785
vn -0.2038 -0.2210 -0.9537
vn 0.9565 0.0826 -0.2798
vn 0.9963 0.0860 -0.0000
vn -0.4023 0.0774 -0.9122
vn -0.2044 0.0771 -0.9758
vn -0.2067 0.0772 -0.9754
vn 0.2044 0.0771 -0.9758
vn 0.2067 0.0772 -0.9754
vn -0.9565 0.0826 0.2798
vn -0.9963 0.0860 0.0000
vn 0.9565 0.0826 0.2798
vn 0.4023 0.0774 -0.9122
vn 0.5481 -0.6913 0.4708
vn 0.1647 -0.6418 0.7490
vn 0.1498 -0.6409 0.7529
vn 0.5350 -0.6906 0.4867
vn -0.1647 -0.6418 0.7489
vn -0.5481 -0.6914 0.4708
vn -0.5350 -0.6906 0.4867
vn -0.1498 -0.6409 0.7529
vn 0.5481 -0.6913 -0.4708
vn 0.7312 -0.6822 0.0000
vn 0.5350 -0.6906 -0.4867
vn -0.5481 -0.6914 -0.4708
vn -0.1647 -0.6418 -0.7489
vn -0.1498 -0.6409 -0.7529
vn -0.5350 -0.6906 -0.4867
vn 0.1647 -0.6418 -0.7490
vn 0.1498 -0.6409 -0.7529
vn -0.7311 -0.6822 -0.0000
vn -0.2044 0.0771 0.9758
vn -0.4023 0.0774 0.9122
vn -0.2067 0.0772 0.9754
vn 0.4023 0.0774 0.9122
vn 0.2044 0.0771 0.9758
vn 0.2067 0.0772 0.9754
vn -0.9565 0.0826 -0.2798
vn 0.0000 -1.0000 0.0000
vn 0.1221 -0.9925 -0.0000
vn 0.0906 -0.9929 0.0773
vn -0.0297 -0.9907 0.1325
vn -0.0906 -0.9929 0.0773
vn 0.0297 -0.9907 0.1325
vn -0.0297 -0.9907 -0.1325
vn 0.0297 -0.9907 -0.1325
vn -0.0906 -0.9929 -0.0773
vn 0.0906 -0.9929 -0.0773
vn -0.1221 -0.9925 0.0000
vn 0.2038 -0.2210 0.9537
vn 0.2038 0.2210 0.9537
vn -0.2038 -0.2210 0.9537
vn -0.7322 -0.2388 0.6378
vn 0.7322 0.2388 0.6378
vn 0.9598 0.0000 0.2807
vn 0.7322 -0.2388 0.6378
vn 0.4035 0.0000 0.9150
vn 0.2062 0.0000 0.9785
vn 0.8760 -0.4824 -0.0000
vn 0.6482 -0.4912 -0.5819
vn 0.6482 0.4912 -0.5819
vn 0.8760 0.4824 0.0000
vn -0.1784 -0.4422 -0.8790
vn -0.6482 -0.4912 -0.5819
vn -0.6482 0.4912 -0.5819
vn -0.1784 0.4422 -0.8790
vn -0.8760 -0.4824 0.0000
vn -0.8760 0.4824 -0.0000
vn 0.1784 -0.4422 0.8790
vn 0.6482 -0.4912 0.5819
vn 0.6482 0.4912 0.5819
vn 0.1784 0.4422 0.8790
vn -0.6482 -0.4912 0.5819
vn -0.6482 0.4912 0.5819
vn -0.1784 -0.4422 0.8790
vn -0.1784 0.4422 0.8790
vn 0.1784 -0.4422 -0.8790
vn 0.1784 0.4422 -0.8790
vn -0.7993 0.4807 0.3606
vn 0.7993 -0.4807 0.3606
vn -0.7993 -0.4807 0.3606
vn 0.7993 -0.4807 -0.3606
vn -0.7993 -0.4807 -0.3606
vn 0.7993 0.4807 -0.3606
vn 0.7993 0.4807 0.3606
vn -0.7993 0.4807 -0.3606
vn -0.0000 -0.0890 0.9960
vn 0.1041 0.0929 0.9902
vn 0.4746 0.0000 0.8802
vn -0.4746 0.0000 0.8802
vn -0.4746 0.0000 -0.8802
vn 0.4746 0.0000 -0.8802
vn -0.2972 -0.0915 0.9504
vn -0.3480 -0.1123 0.9308
vn -0.2764 0.0707 0.9585
vn -0.2632 0.0627 0.9627
vn 0.4344 -0.1282 0.8916
vn 0.4979 -0.0645 0.8648
vn 0.4990 0.0000 0.8666
vn -0.2986 0.0337 0.9538
vn -0.2951 0.0306 0.9550
vn -0.2637 -0.0200 0.9644
vn -0.2640 -0.0231 0.9642
vn 0.2465 0.1237 0.9612
vn 0.2238 0.0850 0.9709
vn 0.2242 0.0770 0.9715
vn -0.2465 0.1237 -0.9612
vn -0.2238 0.0850 -0.9709
vn -0.2242 0.0770 -0.9715
vn 0.2597 0.1472 -0.9544
vn 0.2465 0.1237 -0.9612
vn 0.2525 0.1645 -0.9535
vn -0.2238 0.0850 0.9709
vn -0.2242 0.0770 0.9715
vn -0.2764 0.0707 -0.9585
vn -0.2632 0.0627 -0.9627
vn 0.2238 0.0850 -0.9709
vn 0.2242 0.0770 -0.9715
vn 0.2632 0.0627 -0.9627
vn 0.2764 0.0707 0.9585
vn 0.2632 0.0627 0.9627
vn -0.3978 0.0331 0.9169
vn -0.3932 0.0356 0.9188
vn 0.2637 -0.0200 0.9644
vn 0.2640 -0.0231 0.9642
vn 0.2660 -0.0478 0.9628
vn -0.2660 -0.0478 0.9628
vn -0.2637 -0.0200 -0.9644
vn -0.2640 -0.0231 -0.9642
vn -0.2660 -0.0478 -0.9628
vn 0.2640 -0.0231 -0.9642
vn 0.2637 -0.0200 -0.9644
vn 0.2660 -0.0478 -0.9628
vn 0.3978 0.0331 -0.9169
vn 0.3932 0.0356 -0.9188
vn 0.2951 0.0306 -0.9550
vn 0.2986 0.0337 -0.9538
vn -0.4344 -0.1282 -0.8916
vn -0.2972 -0.0915 -0.9504
vn -0.3480 -0.1123 -0.9308
vn -0.2951 0.0306 -0.9550
vn -0.2986 0.0337 -0.9538
vn 0.3480 -0.1123 0.9308
vn 0.2972 -0.0915 0.9504
vn 0.2972 -0.0915 -0.9504
vn 0.3480 -0.1123 -0.9308
vn 0.2764 0.0707 -0.9585
vn -0.4344 -0.1282 0.8916
vn -0.2465 0.1237 0.9612
vn -0.2597 0.1472 0.9544
vn -0.2525 0.1645 0.9535
vn 0.2597 0.1472 0.9544
vn 0.2525 0.1645 0.9535
vn -0.2597 0.1472 -0.9544
vn -0.2525 0.1645 -0.9535
vn -0.3932 0.0356 -0.9188
vn -0.3978 0.0331 -0.9169
vn 0.4344 -0.1282 -0.8916
vn 0.4979 -0.0645 -0.8648
vn 0.3978 0.0331 0.9169
vn 0.3932 0.0356 0.9188
vn 0.4591 0.0000 0.8884
vn -0.4979 -0.0645 -0.8648
vn -0.4990 0.0000 -0.8666
vn -0.4591 0.0000 -0.8884
vn -0.4591 0.0000 0.8884
vn -0.4979 -0.0645 0.8648
vn -0.4990 0.0000 0.8666
vn 0.4990 0.0000 -0.8666
vn 0.4591 0.0000 -0.8884
vn 0.2951 0.0306 0.9550
vn 0.2986 0.0337 0.9538
usemtl UltraTurboHeroMan
s 1
f 26/1/1 5/2/2 21/3/3 30/4/4
f 198/5/5 24/6/6 11/7/7 197/8/8
f 24/6/6 198/5/5 199/9/9 10/10/10
f 10/10/10 9/11/11 88/12/12 83/13/13
f 59/14/14 1/15/15 16/16/15 64/17/14
f 63/18/16 60/19/17 2/20/18 14/21/19
f 62/22/20 63/23/16 14/24/19 6/25/21
f 3/26/22 10/10/10 83/13/13 84/27/23
f 13/28/24 12/29/25 90/30/26 85/31/27
f 12/29/25 195/32/28 196/33/29 23/34/30
f 13/28/24 195/32/28 12/29/25
f 9/11/11 199/35/9 200/36/31 25/37/32
f 10/10/10 199/35/9 9/11/11
f 24/6/6 3/26/22 15/38/33 28/39/34
f 23/34/30 2/40/35 17/41/36 27/42/37
f 61/43/38 7/44/39 20/45/39 66/46/38
f 25/37/32 8/47/40 19/48/41 29/49/42
f 62/22/20 6/25/21 22/50/43 67/51/44
f 7/52/45 25/37/32 29/49/42 20/53/46
f 1/54/47 23/34/30 27/42/37 16/55/48
f 4/56/49 24/6/6 28/39/34 18/57/50
f 60/19/17 4/58/51 18/59/52 65/60/53
f 66/46/54 68/61/54 30/62/54 21/63/54
f 24/6/6 4/56/49 11/7/7
f 26/1/1 6/64/55 14/65/56
f 23/34/30 14/66/56 2/40/35
f 25/37/32 11/67/7 8/47/40
f 6/64/55 26/1/1 30/4/4 22/68/57
f 64/17/58 69/69/58 28/70/58 15/71/58
f 29/49/42 19/48/41 33/72/59 34/73/60
f 68/61/61 29/74/61 34/75/61 70/76/61
f 22/68/57 30/4/4 31/77/62 32/78/63
f 67/51/64 22/50/64 32/79/65 71/80/66
f 65/60/67 18/59/67 36/81/68 72/82/69
f 27/42/37 17/41/36 37/83/70 38/84/71
f 18/57/50 28/39/34 35/85/72 36/86/73
f 69/69/74 27/87/74 38/88/74 73/89/74
f 139/90/75 142/91/76 158/92/77 161/93/78
f 143/94/75 45/95/79 43/96/80 157/97/78
f 102/98/81 160/99/77 173/100/82 99/101/83
f 59/14/84 3/102/85 84/103/85 91/104/84
f 12/29/25 1/54/47 89/105/86 90/30/26
f 9/11/11 7/52/45 87/106/87 88/12/12
f 5/2/2 13/28/24 85/31/27 86/107/88
f 61/43/89 5/108/90 86/109/90 92/110/89
f 52/111/91 57/112/92 49/113/93
f 48/114/94 58/115/92 53/116/95
f 37/83/70 50/117/96 51/118/97
f 71/80/66 32/79/65 47/119/98 77/120/98
f 36/86/73 35/85/72 52/111/91
f 32/78/63 31/77/62 54/121/99
f 72/82/69 36/81/68 49/122/100 78/123/100
f 47/124/101 54/121/99 55/125/102
f 50/117/96 56/126/102 51/118/97
f 70/76/103 34/75/103 53/127/103 79/128/103
f 73/89/104 38/88/104 51/129/104 80/130/104
f 38/84/71 37/83/70 51/118/97
f 49/113/93 36/86/73 52/111/91
f 34/73/60 33/72/59 53/116/95
f 47/124/101 32/78/63 54/121/99
f 79/128/105 53/127/105 58/131/105 81/132/105
f 80/130/106 51/129/106 56/133/106 82/134/106
f 78/123/107 82/134/107 56/133/108 50/135/108
f 33/72/59 48/114/94 53/116/95
f 77/120/109 81/132/109 58/131/110 48/136/110
f 47/119/111 55/137/111 81/132/109 77/120/109
f 49/122/112 57/138/112 82/134/107 78/123/107
f 52/139/113 80/130/113 82/134/113 57/138/113
f 54/140/114 79/128/114 81/132/114 55/137/114
f 35/141/115 73/89/115 80/130/115 52/139/115
f 31/142/116 70/76/116 79/128/116 54/140/116
f 37/143/117 72/82/118 78/123/119 50/135/119
f 33/144/120 71/80/121 77/120/122 48/136/122
f 7/44/123 61/43/89 92/110/89 87/145/123
f 1/15/124 59/14/84 91/104/84 89/146/124
f 103/147/125 191/148/126 181/149/127 98/150/128
f 94/151/129 134/152/130 191/148/126 103/147/131
f 157/97/78 43/96/81 75/153/83 169/154/132
f 28/70/133 69/69/133 73/89/133 35/141/133
f 17/155/134 65/60/134 72/82/118 37/143/117
f 19/156/135 67/51/135 71/80/121 33/144/120
f 30/62/136 68/61/136 70/76/136 31/142/136
f 16/16/137 27/87/137 69/69/137 64/17/137
f 20/45/138 29/74/138 68/61/138 66/46/138
f 2/20/18 60/19/17 65/60/53 17/155/139
f 8/157/140 62/22/20 67/51/44 19/156/141
f 5/108/142 61/43/38 66/46/38 21/63/142
f 8/157/140 11/158/143 63/23/16 62/22/20
f 11/159/143 4/58/51 60/19/17 63/18/16
f 3/102/144 59/14/14 64/17/14 15/71/144
f 41/160/145 39/161/146 84/103/146 83/162/145
f 44/163/147 42/164/148 86/109/148 85/165/147
f 43/166/149 45/167/150 88/168/150 87/145/149
f 45/167/150 41/160/145 83/162/145 88/168/150
f 40/169/151 46/170/152 90/171/152 89/146/151
f 46/170/152 44/163/147 85/165/147 90/171/152
f 74/172/153 40/173/151 89/174/151 91/175/153
f 75/176/154 43/177/149 87/178/149 92/179/154
f 39/180/146 74/172/153 91/175/153 84/181/146
f 42/182/148 75/176/154 92/179/154 86/183/148
f 100/184/155 96/185/156 105/186/157 109/187/158
f 96/185/156 97/188/159 106/189/160 105/186/157
f 103/190/161 98/191/162 107/192/162 112/193/163
f 99/194/164 101/195/165 110/196/166 108/197/164
f 97/188/159 102/198/167 111/199/168 106/189/160
f 95/200/169 94/201/170 76/202/171 104/203/172
f 184/204/173 74/205/128 39/206/174 179/207/175
f 100/208/176 175/209/177 149/210/178 96/211/179
f 145/212/180 41/213/179 45/95/79 143/94/75
f 111/214/181 108/215/182 117/216/182 120/217/181
f 109/218/183 105/219/184 114/220/185 118/221/183
f 105/219/184 106/222/186 115/223/187 114/220/185
f 112/224/188 107/225/189 116/226/189 121/227/188
f 108/215/182 110/228/190 119/229/190 117/216/182
f 106/222/186 111/214/191 120/217/191 115/223/187
f 102/198/167 99/194/164 108/197/164 111/199/168
f 94/201/170 103/190/161 112/193/163 76/202/171
f 101/195/165 95/200/169 104/203/172 110/196/166
f 98/191/162 100/184/155 109/187/158 107/192/162
f 119/230/192 113/231/193 124/232/194 130/233/195
f 93/234/196 121/235/197 132/236/198 123/237/199
f 120/238/200 117/239/201 128/240/201 131/241/202
f 118/242/203 114/243/204 125/244/205 129/245/206
f 114/243/204 115/246/207 126/247/208 125/244/205
f 121/235/197 116/248/209 127/249/209 132/236/198
f 76/250/210 112/224/211 121/227/211 93/251/212
f 110/228/213 104/252/214 113/253/215 119/229/213
f 107/225/189 109/218/216 118/221/216 116/226/189
f 104/252/214 76/250/210 93/251/212 113/253/215
f 122/254/217 128/255/218 130/256/219
f 122/254/217 123/257/220 132/258/221
f 122/254/217 124/259/222 123/257/220
f 125/260/223 126/261/224 122/254/217
f 129/262/225 125/260/223 122/254/217
f 131/263/226 128/255/218 122/254/217
f 116/248/209 118/242/203 129/245/206 127/249/209
f 113/231/193 93/234/196 123/237/199 124/232/194
f 115/246/207 120/238/200 131/241/202 126/247/208
f 117/239/201 119/230/192 130/233/195 128/240/201
f 127/264/227 122/254/217 132/258/221
f 124/259/222 122/254/217 130/256/219
f 126/261/224 131/263/226 122/254/217
f 127/264/227 129/262/225 122/254/217
f 151/265/228 154/266/229 137/267/130 133/268/230
f 190/269/231 187/270/126 185/271/127 182/272/173
f 161/93/78 158/92/77 170/273/82 172/274/132
f 148/275/180 146/276/178 142/91/76 139/90/75
f 98/150/128 181/149/127 175/209/177 100/208/174
f 136/277/230 46/278/129 40/279/131 188/280/231
f 99/101/83 173/100/82 163/281/232 101/282/233
f 179/207/175 39/206/176 41/213/179 145/212/180
f 176/283/175 178/284/177 146/276/178 148/275/180
f 97/285/79 140/286/76 160/99/77 102/98/80
f 172/274/132 170/273/82 166/287/232 164/288/234
f 164/288/234 166/287/232 154/266/229 151/265/228
f 96/211/179 149/210/178 140/286/76 97/285/79
f 188/280/231 40/279/125 74/205/128 184/204/173
f 182/272/173 185/271/127 178/284/177 176/283/175
f 167/289/234 42/290/235 44/291/236 155/292/228
f 95/293/236 152/294/229 134/152/130 94/151/129
f 169/154/132 75/153/83 42/290/233 167/289/234
f 155/292/228 44/291/236 46/278/129 136/277/230
f 101/282/235 163/281/232 152/294/229 95/293/236
f 161/295/78 172/296/132 174/297/237 162/298/238
f 162/299/239 174/300/240 173/301/82 160/302/77
f 176/303/175 148/304/180 150/305/241 177/306/242
f 177/307/243 150/308/244 149/309/178 175/310/177
f 182/311/173 176/303/175 177/306/242 183/312/245
f 183/313/246 177/307/243 175/310/177 181/314/127
f 164/315/234 151/316/228 153/317/247 165/318/248
f 165/319/249 153/320/250 152/321/229 163/322/232
f 188/323/231 184/324/173 186/325/245 189/326/251
f 189/327/252 186/328/246 185/329/127 187/330/126
f 151/316/228 133/331/230 135/332/253 153/317/247
f 153/320/250 135/333/254 134/334/130 152/321/229
f 143/335/75 157/336/78 159/337/238 144/338/255
f 144/339/256 159/340/239 158/341/77 142/342/76
f 148/304/180 139/343/75 141/344/255 150/305/241
f 150/308/244 141/345/256 140/346/76 149/309/178
f 172/296/132 164/315/234 165/318/248 174/297/237
f 174/300/240 165/319/249 163/322/232 173/301/82
f 133/331/230 190/347/231 192/348/251 135/332/253
f 135/333/254 192/349/252 191/350/126 134/334/130
f 157/336/78 169/351/132 171/352/237 159/337/238
f 159/340/239 171/353/240 170/354/82 158/341/77
f 179/355/175 145/356/180 147/357/241 180/358/242
f 180/359/243 147/360/244 146/361/178 178/362/177
f 145/356/180 143/335/75 144/338/255 147/357/241
f 147/360/244 144/339/256 142/342/76 146/361/178
f 139/343/75 161/295/78 162/298/238 141/344/255
f 141/345/256 162/299/239 160/302/77 140/346/76
f 190/347/231 182/311/173 183/312/245 192/348/251
f 192/349/252 183/313/246 181/314/127 191/350/126
f 184/324/173 179/355/175 180/358/242 186/325/245
f 186/328/246 180/359/243 178/362/177 185/329/127
f 155/363/228 136/364/230 138/365/253 156/366/247
f 156/367/250 138/368/254 137/369/130 154/370/229
f 167/371/234 155/363/228 156/366/247 168/372/248
f 168/373/249 156/367/250 154/370/229 166/374/232
f 136/364/230 188/323/231 189/326/251 138/365/253
f 138/368/254 189/327/252 187/330/126 137/369/130
f 169/351/132 167/371/234 168/372/248 171/352/237
f 171/353/240 168/373/249 166/374/232 170/354/82
f 133/268/230 137/267/130 187/270/126 190/269/231
f 193/375/257 196/376/257 209/377/257 208/378/257
f 195/379/258 194/380/258 203/381/258 206/382/258
f 196/383/259 195/384/259 206/385/259 209/386/259
f 200/387/260 199/388/260 205/389/260 210/390/260
f 199/391/261 198/392/261 201/393/261 205/394/261
f 197/395/262 200/396/262 210/397/262 207/398/262
f 194/399/263 193/400/263 208/401/263 203/402/263
f 198/403/264 197/404/264 207/405/264 201/406/264
f 1/54/47 12/29/25 23/34/30
f 196/33/29 193/407/265 14/66/56 23/34/30
f 5/2/2 26/1/1 13/28/24
f 194/408/266 26/1/1 14/65/56 193/409/265
f 26/1/1 194/408/266 195/410/28 13/28/24
f 3/26/22 24/6/6 10/10/10
f 7/52/45 9/11/11 25/37/32
f 200/36/31 197/411/8 11/67/7 25/37/32
f 208/401/267 204/412/267 203/402/267
f 204/413/267 206/382/267 203/381/267
f 206/385/268 204/412/268 209/386/268
f 204/414/268 208/378/268 209/377/268
f 207/405/269 202/415/269 201/406/269
f 202/416/269 205/394/269 201/393/269
f 205/389/270 202/415/270 210/390/270
f 202/417/270 207/398/270 210/397/270
f 231/418/271 233/419/272 225/420/273 215/421/274
f 245/422/275 247/423/276 221/424/277 223/425/277
f 235/426/278 234/427/279 226/428/280 227/429/281
f 242/430/282 213/431/283 217/432/284
f 241/433/285 216/434/286 214/435/287
f 239/436/288 241/437/289 243/438/290
f 213/439/291 214/440/292 215/421/274
f 216/434/286 229/441/293 215/442/294
f 216/443/295 217/444/296 218/445/297
f 213/431/283 226/446/298 218/447/299
f 248/448/300 247/449/301 234/450/279 235/451/278
f 241/452/289 239/453/288 217/444/296
f 225/454/302 227/455/303 213/431/304
f 227/429/281 226/428/280 213/456/305
f 228/457/306 230/458/307 216/434/308
f 230/459/309 229/460/310 216/461/311
f 251/462/312 250/463/313 237/464/314 238/465/315
f 238/466/315 237/467/314 229/460/310 230/459/309
f 244/468/316 231/469/317 237/470/318
f 215/442/294 229/441/293 237/471/318 231/472/317
f 236/473/319 238/474/320 230/458/307 228/457/306
f 234/475/321 232/476/322 218/447/299 226/446/298
f 232/477/323 236/478/324 228/479/325 218/445/297
f 233/480/272 231/481/271 244/482/326
f 242/483/327 240/484/328 214/440/292
f 240/485/328 242/486/327 243/487/329
f 242/488/282 239/489/330 243/490/331
f 241/433/285 240/491/332 243/490/333
f 249/492/334 251/493/335 238/494/320 236/495/319
f 245/496/336 249/497/337 236/498/324
f 248/499/338 246/500/339 222/501/340 220/502/340
f 244/503/316 250/504/341 212/505/342 224/506/342
f 251/507/335 249/508/334 219/509/343 211/510/343
f 247/511/301 248/512/300 220/513/344 221/514/344
f 246/515/345 244/516/326 224/517/346 222/518/346
f 249/519/337 245/520/336 223/521/347 219/522/347
f 250/523/313 251/524/312 211/525/348 212/526/348
f 245/527/275 232/528/322 234/529/321
f 233/530/349 235/531/350 227/455/303 225/454/302
f 246/532/339 248/533/338 235/534/350 233/535/349
f 250/536/341 244/468/316 237/470/318
f 246/537/345 233/480/272 244/482/326
f 247/538/276 245/527/275 234/529/321
f 232/539/323 245/496/336 236/498/324
f 228/479/325 216/443/295 218/445/297
f 214/435/287 216/434/286 215/442/294
f 225/420/273 213/439/291 215/421/274
f 217/432/284 213/431/283 218/447/299
f 213/439/291 242/483/327 214/440/292
f 239/540/330 242/430/282 217/432/284
f 216/443/295 241/452/289 217/444/296
f 240/541/332 241/433/285 214/435/287
