<svg xmlns="http://www.w3.org/2000/svg" width="960" height="610" viewBox="0 0 960 610">
<rect width="960" height="610" fill="white"/>
<text x="24" y="40" font-size="23" font-family="Arial, sans-serif" font-weight="700" fill="#111">KFB J14 T4 · A_track_city · Original authored transition windows</text>
<text x="24" y="67" font-size="15" font-family="Arial,sans-serif" fill="#444">ZA: s = 1470–1570 m · u = (s − 1470)/100 · sideLag 0.08</text>
<g font-family="Arial,sans-serif"><line x1="195" y1="96" x2="195" y2="520" stroke="#999" stroke-width="0.7" stroke-dasharray="4 4"/><text x="195" y="544" text-anchor="middle" font-size="13" fill="#333">0.0</text><line x1="320" y1="96" x2="320" y2="520" stroke="#999" stroke-width="0.7" stroke-dasharray="4 4"/><text x="320" y="544" text-anchor="middle" font-size="13" fill="#333">0.2</text><line x1="445" y1="96" x2="445" y2="520" stroke="#999" stroke-width="0.7" stroke-dasharray="4 4"/><text x="445" y="544" text-anchor="middle" font-size="13" fill="#333">0.4</text><line x1="570" y1="96" x2="570" y2="520" stroke="#999" stroke-width="0.7" stroke-dasharray="4 4"/><text x="570" y="544" text-anchor="middle" font-size="13" fill="#333">0.6</text><line x1="695" y1="96" x2="695" y2="520" stroke="#999" stroke-width="0.7" stroke-dasharray="4 4"/><text x="695" y="544" text-anchor="middle" font-size="13" fill="#333">0.8</text><line x1="820" y1="96" x2="820" y2="520" stroke="#999" stroke-width="0.7" stroke-dasharray="4 4"/><text x="820" y="544" text-anchor="middle" font-size="13" fill="#333">1.0</text><text x="24" y="132" font-size="16" fill="#282828">barrier</text><rect x="195" y="114" width="625" height="28" rx="5" fill="#e8e8e8"/><rect x="195" y="114" width="343.75" height="28" rx="4" fill="#6f7074"/><text x="203" y="132" font-size="11" fill="white">0.00 → 0.55</text><text x="24" y="172" font-size="16" fill="#282828">mark_track</text><rect x="195" y="154" width="625" height="28" rx="5" fill="#e8e8e8"/><rect x="257.5" y="154" width="281.25000000000006" height="28" rx="4" fill="#9b9ca0"/><text x="265.5" y="172" font-size="11" fill="#171717">0.10 → 0.55</text><text x="24" y="212" font-size="16" fill="#282828">road</text><rect x="195" y="194" width="625" height="28" rx="5" fill="#e8e8e8"/><rect x="226.25" y="194" width="418.74999999999994" height="28" rx="4" fill="#6f7074"/><text x="234.25" y="212" font-size="11" fill="white">0.05 → 0.72</text><text x="24" y="252" font-size="16" fill="#282828">curb</text><rect x="195" y="234" width="625" height="28" rx="5" fill="#e8e8e8"/><rect x="370" y="234" width="450" height="28" rx="4" fill="#9b9ca0"/><text x="378" y="252" font-size="11" fill="#171717">0.28 → 1.00</text><text x="24" y="292" font-size="16" fill="#282828">sidewalk</text><rect x="195" y="274" width="625" height="28" rx="5" fill="#e8e8e8"/><rect x="445" y="274" width="375" height="28" rx="4" fill="#6f7074"/><text x="453" y="292" font-size="11" fill="white">0.40 → 1.00</text><text x="24" y="332" font-size="16" fill="#282828">mark_city</text><rect x="195" y="314" width="625" height="28" rx="5" fill="#e8e8e8"/><rect x="476.25" y="314" width="231.24999999999997" height="28" rx="4" fill="#9b9ca0"/><text x="484.25" y="332" font-size="11" fill="#171717">0.45 → 0.82</text><text x="24" y="372" font-size="16" fill="#282828">props</text><rect x="195" y="354" width="625" height="28" rx="5" fill="#e8e8e8"/><rect x="538.75" y="354" width="281.25" height="28" rx="4" fill="#6f7074"/><text x="546.75" y="372" font-size="11" fill="white">0.55 → 1.00</text><text x="24" y="412" font-size="16" fill="#282828">light</text><rect x="195" y="394" width="625" height="28" rx="5" fill="#e8e8e8"/><rect x="382.5" y="394" width="375.00000000000006" height="28" rx="4" fill="#9b9ca0"/><text x="390.5" y="412" font-size="11" fill="#171717">0.30 → 0.90</text><text x="24" y="452" font-size="16" fill="#282828">vfx</text><rect x="195" y="434" width="625" height="28" rx="5" fill="#e8e8e8"/><rect x="413.75" y="434" width="250" height="28" rx="4" fill="#6f7074"/><text x="421.75" y="452" font-size="11" fill="white">0.35 → 0.75</text><text x="24" y="492" font-size="16" fill="#282828">pit</text><rect x="195" y="474" width="625" height="28" rx="5" fill="#e8e8e8"/><rect x="288.75" y="474" width="456.25" height="28" rx="4" fill="#9b9ca0"/><text x="296.75" y="492" font-size="11" fill="#171717">0.15 → 0.88</text></g>
<text x="24" y="575" font-family="Arial,sans-serif" font-size="14" fill="#333">Authored windows describe NON-TRACK influence weights, not component opacity or accepted 3D geometry.</text>
<text x="24" y="597" font-family="Arial,sans-serif" font-size="12" fill="#555">Source: transition-profiles.v1.json @ af6d52c9e3506ecc99d977c66faa8e7189e6f6e2 · data-only isolation</text>
</svg>