# Blender v3.4.1 OBJ File: 'September2026_GothGirl_Assets_Export.blend'
# www.blender.org
mtllib GothGirl_Microphone.mtl
o GothGirl_Microphone
v 0.000000 0.142952 -0.062650
v -0.000000 0.196548 -0.111365
v -0.000000 0.155913 -0.093667
v -0.000000 0.401000 0.000000
v -0.000000 0.340122 -0.111365
v -0.000000 0.380758 -0.093667
v 0.036825 0.142952 -0.050685
v 0.065459 0.196548 -0.090096
v 0.055056 0.155913 -0.075778
v 0.065459 0.340122 -0.090096
v 0.055056 0.380758 -0.075778
v 0.059583 0.142952 -0.019360
v 0.105915 0.196548 -0.034414
v 0.089083 0.155913 -0.028945
v 0.105915 0.340122 -0.034414
v 0.089083 0.380758 -0.028945
v 0.059583 0.142952 0.019360
v 0.105915 0.196548 0.034414
v 0.089083 0.155913 0.028945
v 0.105915 0.340122 0.034414
v 0.089083 0.380758 0.028945
v 0.036825 0.142952 0.050685
v 0.065459 0.196548 0.090096
v 0.055056 0.155913 0.075778
v 0.065459 0.340122 0.090096
v 0.055056 0.380758 0.075778
v -0.000000 0.142952 0.062650
v -0.000000 0.196548 0.111365
v -0.000000 0.155913 0.093667
v -0.000000 0.340122 0.111365
v -0.000000 0.380758 0.093667
v -0.036825 0.142952 0.050685
v -0.065459 0.196548 0.090096
v -0.055056 0.155913 0.075778
v -0.065459 0.340122 0.090096
v -0.055056 0.380758 0.075778
v -0.059583 0.142952 0.019360
v -0.105915 0.196548 0.034414
v -0.089083 0.155913 0.028945
v -0.105915 0.340122 0.034414
v -0.089083 0.380758 0.028945
v -0.059583 0.142952 -0.019360
v -0.105915 0.196548 -0.034414
v -0.089083 0.155913 -0.028945
v -0.105915 0.340122 -0.034414
v -0.089083 0.380758 -0.028945
v -0.036825 0.142952 -0.050685
v -0.065459 0.196548 -0.090096
v -0.055056 0.155913 -0.075778
v -0.065459 0.340122 -0.090096
v -0.055056 0.380758 -0.075778
v -0.000000 0.214591 -0.111365
v -0.000000 0.268412 -0.111365
v 0.065459 0.268412 -0.090096
v 0.065459 0.214591 -0.090096
v -0.065459 0.214591 -0.090096
v -0.065459 0.268412 -0.090096
v 0.105915 0.268412 -0.034414
v 0.105915 0.214591 -0.034414
v 0.105915 0.268412 0.034414
v 0.105915 0.214591 0.034414
v 0.065459 0.268412 0.090096
v 0.065459 0.214591 0.090096
v -0.000000 0.268412 0.111365
v -0.000000 0.214591 0.111365
v -0.065459 0.268412 0.090096
v -0.065459 0.214591 0.090096
v -0.105915 0.268412 0.034414
v -0.105915 0.214591 0.034414
v -0.105915 0.268412 -0.034414
v -0.105915 0.214591 -0.034414
v -0.000000 0.220014 -0.119793
v -0.000000 0.262989 -0.119793
v 0.070413 0.262989 -0.096915
v 0.070413 0.220014 -0.096915
v -0.070413 0.220014 -0.096915
v -0.070413 0.262989 -0.096915
v 0.113930 0.262989 -0.037018
v 0.113930 0.220014 -0.037018
v 0.113930 0.262989 0.037018
v 0.113930 0.220014 0.037018
v 0.070413 0.262989 0.096915
v 0.070413 0.220014 0.096915
v -0.000000 0.262989 0.119793
v -0.000000 0.220014 0.119793
v -0.070413 0.262989 0.096915
v -0.070413 0.220014 0.096915
v -0.113930 0.262989 0.037018
v -0.113930 0.220014 0.037018
v -0.113930 0.262989 -0.037018
v -0.113930 0.220014 -0.037018
v 0.029965 -0.199910 -0.041243
v -0.000000 -0.199910 -0.050979
v 0.048484 -0.199910 -0.015753
v 0.048484 -0.199910 0.015753
v 0.029965 -0.199910 0.041243
v -0.000000 -0.199910 0.050979
v -0.029965 -0.199910 0.041243
v -0.048484 -0.199910 0.015753
v -0.048484 -0.199910 -0.015753
v -0.029965 -0.199910 -0.041243
v 0.009943 -0.229260 -0.013685
v -0.000000 -0.229260 -0.016915
v 0.016087 -0.229260 -0.005227
v 0.016087 -0.229260 0.005227
v 0.009943 -0.229260 0.013685
v -0.000000 -0.229260 0.016915
v -0.009943 -0.229260 0.013685
v -0.016088 -0.229260 0.005227
v -0.016088 -0.229260 -0.005227
v -0.009943 -0.229260 -0.013685
v 0.000000 0.397589 -0.050940
v 0.029942 0.397589 -0.041212
v 0.048447 0.397589 -0.015741
v 0.048447 0.397589 0.015741
v 0.029942 0.397589 0.041212
v -0.000000 0.397589 0.050940
v -0.029942 0.397589 0.041212
v -0.048447 0.397589 0.015741
v -0.048447 0.397589 -0.015741
v -0.029942 0.397589 -0.041212
v -0.020291 -0.039405 0.087713
v -0.020291 0.031879 0.087713
v -0.025376 -0.069361 0.029962
v -0.025376 0.061835 0.029962
v 0.020291 -0.039405 0.087713
v 0.020291 0.031879 0.087713
v 0.025376 -0.069361 0.029962
v 0.025376 0.061835 0.029962
v -0.020291 -0.003763 0.082565
v -0.025376 -0.003763 0.029962
v 0.025376 -0.003763 0.029962
v 0.020291 -0.003763 0.082565
v 0.021301 -0.226668 -0.029319
v -0.000000 -0.226668 -0.036240
v 0.034466 -0.226668 -0.011199
v 0.034466 -0.226668 0.011199
v 0.021301 -0.226668 0.029319
v -0.000000 -0.226668 0.036240
v -0.021302 -0.226668 0.029319
v -0.034467 -0.226668 0.011199
v -0.034467 -0.226668 -0.011199
v -0.021302 -0.226668 -0.029319
v 0.012752 -0.309487 -0.017552
v -0.000000 -0.317160 0.000000
v -0.000000 -0.309487 -0.021695
v 0.020634 -0.309487 -0.006704
v 0.020634 -0.309487 0.006704
v 0.012752 -0.309487 0.017552
v -0.000000 -0.309487 0.021695
v -0.012752 -0.309487 0.017552
v -0.020634 -0.309487 0.006704
v -0.020634 -0.309487 -0.006704
v -0.012752 -0.309487 -0.017552
vt 0.652943 0.650193
vt 0.652943 0.670362
vt 0.671875 0.670362
vt 0.671875 0.650193
vt 0.702508 0.650193
vt 0.702508 0.670362
vt 0.702508 0.670362
vt 0.702508 0.650193
vt 0.690807 0.670362
vt 0.690807 0.650193
vt 0.671875 0.670362
vt 0.671875 0.650193
vt 0.652943 0.670362
vt 0.652943 0.650193
vt 0.641242 0.670362
vt 0.641242 0.650193
vt 0.641242 0.670362
vt 0.641242 0.650193
vt 0.690807 0.650193
vt 0.690807 0.670362
vt 0.671875 0.609857
vt 0.690807 0.609857
vt 0.687799 0.587048
vt 0.671875 0.587048
vt 0.680535 0.577601
vt 0.671875 0.577601
vt 0.671875 0.693170
vt 0.687799 0.693170
vt 0.671875 0.702618
vt 0.680535 0.702618
vt 0.702508 0.609857
vt 0.697640 0.587048
vt 0.685887 0.577601
vt 0.697640 0.693170
vt 0.685887 0.702618
vt 0.702508 0.609857
vt 0.697640 0.587048
vt 0.685887 0.577601
vt 0.697640 0.693170
vt 0.685887 0.702618
vt 0.690807 0.609857
vt 0.687799 0.587048
vt 0.680535 0.577601
vt 0.687799 0.693170
vt 0.680535 0.702618
vt 0.671875 0.609857
vt 0.671875 0.587048
vt 0.671875 0.577601
vt 0.671875 0.693170
vt 0.671875 0.702618
vt 0.652943 0.609857
vt 0.655951 0.587048
vt 0.663215 0.577601
vt 0.655951 0.693170
vt 0.663215 0.702618
vt 0.641242 0.609857
vt 0.646110 0.587048
vt 0.657863 0.577601
vt 0.646110 0.693170
vt 0.657863 0.702618
vt 0.641242 0.609857
vt 0.646110 0.587048
vt 0.657863 0.577601
vt 0.646110 0.693170
vt 0.657863 0.702618
vt 0.652943 0.609857
vt 0.655951 0.587048
vt 0.663215 0.577601
vt 0.655951 0.693170
vt 0.663215 0.702618
vt 0.414086 0.868048
vt 0.404818 0.868048
vt 0.406545 0.792532
vt 0.414086 0.792532
vt 0.671875 0.630025
vt 0.690807 0.630025
vt 0.577508 0.630025
vt 0.577508 0.630025
vt 0.577508 0.630025
vt 0.577508 0.630025
vt 0.702508 0.630025
vt 0.546875 0.650193
vt 0.565807 0.650193
vt 0.565807 0.650193
vt 0.546875 0.650193
vt 0.641242 0.630025
vt 0.652943 0.630025
vt 0.516242 0.630025
vt 0.527943 0.630025
vt 0.527943 0.630025
vt 0.516242 0.630025
vt 0.641242 0.630025
vt 0.577508 0.650193
vt 0.565807 0.650193
vt 0.565807 0.650193
vt 0.577508 0.650193
vt 0.652943 0.630025
vt 0.565807 0.630025
vt 0.546875 0.630025
vt 0.546875 0.630025
vt 0.565807 0.630025
vt 0.671875 0.630025
vt 0.516242 0.650193
vt 0.516242 0.650193
vt 0.516242 0.650193
vt 0.516242 0.650193
vt 0.690807 0.630025
vt 0.565807 0.630025
vt 0.565807 0.630025
vt 0.702508 0.630025
vt 0.516242 0.630025
vt 0.516242 0.630025
vt 0.546875 0.650193
vt 0.546875 0.650193
vt 0.527943 0.650193
vt 0.527943 0.650193
vt 0.577508 0.650193
vt 0.527943 0.630025
vt 0.527943 0.650193
vt 0.546875 0.630025
vt 0.527943 0.650193
vt 0.577508 0.650193
vt 0.546875 0.630025
vt 0.527943 0.630025
vt 0.421628 0.792532
vt 0.414086 0.788494
vt 0.419448 0.788494
vt 0.423355 0.868048
vt 0.429083 0.868048
vt 0.426289 0.792532
vt 0.404818 0.868048
vt 0.414086 0.868048
vt 0.414086 0.792532
vt 0.406545 0.792532
vt 0.429083 0.868048
vt 0.426289 0.792532
vt 0.423355 0.868048
vt 0.421628 0.792532
vt 0.399090 0.868048
vt 0.401883 0.792532
vt 0.399090 0.868048
vt 0.401883 0.792532
vt 0.422761 0.788494
vt 0.419448 0.788494
vt 0.408725 0.788494
vt 0.405411 0.788494
vt 0.408725 0.788494
vt 0.422761 0.788494
vt 0.414086 0.788494
vt 0.405411 0.788494
vt 0.693293 0.538139
vt 0.691315 0.538139
vt 0.691315 0.538139
vt 0.693293 0.538139
vt 0.684907 0.538139
vt 0.682925 0.538139
vt 0.682925 0.538139
vt 0.684907 0.538139
vt 0.684902 0.538139
vt 0.688112 0.538139
vt 0.688112 0.538139
vt 0.684902 0.538139
vt 0.693291 0.538139
vt 0.693291 0.538139
vt 0.688111 0.538139
vt 0.688111 0.538139
vt 0.682923 0.538139
vt 0.682923 0.538139
vt 0.691310 0.538139
vt 0.691310 0.538139
vt 0.676172 0.702618
vt 0.678828 0.702618
vt 0.671875 0.702618
vt 0.667578 0.702618
vt 0.664922 0.702618
vt 0.946135 0.800501
vt 0.946135 0.822604
vt 0.946135 0.822604
vt 0.946135 0.800501
vt 0.966725 0.856522
vt 0.966725 0.878626
vt 0.946135 0.878626
vt 0.946135 0.856522
vt 0.966725 0.800501
vt 0.966725 0.822604
vt 0.966725 0.822604
vt 0.966725 0.800501
vt 0.966725 0.831751
vt 0.966725 0.853854
vt 0.946135 0.853854
vt 0.946135 0.831751
vt 0.946135 0.778397
vt 0.966725 0.778397
vt 0.966725 0.778397
vt 0.946135 0.778397
vt 0.417288 0.788139
vt 0.414090 0.788139
vt 0.419269 0.788139
vt 0.419271 0.788139
vt 0.417293 0.788139
vt 0.414089 0.788139
vt 0.410885 0.788139
vt 0.408903 0.788139
vt 0.408901 0.788139
vt 0.410880 0.788139
vt 0.688108 0.537612
vn -0.5878 0.0000 -0.8090
vn -0.5763 0.1964 -0.7933
vn -0.0000 0.1964 -0.9805
vn -0.0000 0.0000 -1.0000
vn 0.9511 0.0000 -0.3090
vn 0.9325 0.1964 -0.3030
vn 0.9325 0.1964 0.3030
vn 0.9511 0.0000 0.3090
vn 0.5763 0.1964 0.7933
vn 0.5878 0.0000 0.8090
vn -0.0000 0.1964 0.9805
vn -0.0000 0.0000 1.0000
vn -0.5763 0.1964 0.7933
vn -0.5878 0.0000 0.8090
vn -0.9325 0.1964 0.3030
vn -0.9511 0.0000 0.3090
vn -0.9325 0.1964 -0.3030
vn -0.9511 0.0000 -0.3090
vn 0.5878 0.0000 -0.8090
vn 0.5763 0.1964 -0.7933
vn -0.0000 -0.1964 -0.9805
vn 0.5763 -0.1964 -0.7933
vn 0.4325 -0.6773 -0.5952
vn -0.0000 -0.6773 -0.7357
vn 0.2266 -0.9227 -0.3119
vn -0.0000 -0.9227 -0.3855
vn -0.0000 0.6835 -0.7299
vn 0.5389 0.3993 -0.7417
vn 0.2154 0.9304 -0.2965
vn -0.0000 0.9687 -0.2481
vn 0.1458 0.9687 -0.2007
vn 0.9325 -0.1964 -0.3030
vn 0.6997 -0.6773 -0.2274
vn 0.3667 -0.9227 -0.1191
vn 0.8719 0.3993 -0.2833
vn 0.3486 0.9304 -0.1133
vn 0.2359 0.9687 -0.0767
vn 0.9325 -0.1964 0.3030
vn 0.6997 -0.6773 0.2274
vn 0.3667 -0.9227 0.1191
vn 0.6942 0.6835 0.2256
vn 0.2359 0.9687 0.0767
vn 0.5763 -0.1964 0.7933
vn 0.4325 -0.6773 0.5952
vn 0.2266 -0.9227 0.3119
vn 0.4290 0.6835 0.5905
vn 0.1458 0.9687 0.2007
vn -0.0000 -0.1964 0.9805
vn -0.0000 -0.6773 0.7357
vn -0.0000 -0.9227 0.3855
vn -0.0000 0.6835 0.7299
vn -0.0000 0.9687 0.2481
vn -0.5763 -0.1964 0.7933
vn -0.4325 -0.6773 0.5952
vn -0.2266 -0.9227 0.3119
vn -0.4290 0.6835 0.5905
vn -0.1458 0.9687 0.2007
vn -0.9325 -0.1964 0.3030
vn -0.6997 -0.6773 0.2274
vn -0.3667 -0.9227 0.1191
vn -0.6942 0.6835 0.2256
vn -0.2359 0.9687 0.0767
vn -0.9325 -0.1964 -0.3030
vn -0.6997 -0.6773 -0.2274
vn -0.3667 -0.9227 -0.1191
vn -0.6942 0.6835 -0.2256
vn -0.2359 0.9687 -0.0767
vn -0.5763 -0.1964 -0.7933
vn -0.4325 -0.6773 -0.5952
vn -0.2266 -0.9227 -0.3119
vn -0.4290 0.6835 -0.5905
vn -0.1458 0.9687 -0.2007
vn -0.0000 -0.0340 0.9994
vn -0.5874 -0.0340 0.8085
vn 0.5146 -0.8410 0.1672
vn 0.5146 -0.8410 -0.1672
vn 0.0000 0.8410 -0.5411
vn 0.3180 0.8410 -0.4377
vn -0.5146 -0.8410 0.1672
vn -0.3180 -0.8410 0.4377
vn 0.5146 0.8410 0.1672
vn 0.3180 0.8410 0.4377
vn 0.3180 -0.8410 -0.4377
vn -0.0000 -0.8410 -0.5411
vn -0.5146 0.8410 0.1672
vn -0.5146 0.8410 -0.1672
vn 0.3180 -0.8410 0.4377
vn -0.5146 -0.8410 -0.1672
vn 0.0000 0.8410 0.5411
vn -0.3180 0.8410 -0.4377
vn -0.3180 0.8410 0.4377
vn 0.5146 0.8410 -0.1672
vn -0.0000 -0.8410 0.5411
vn -0.3180 -0.8410 -0.4377
vn 0.5149 -0.4825 0.7086
vn -0.0000 -0.4825 0.8759
vn 0.5874 -0.0340 0.8085
vn 0.9505 -0.0340 0.3088
vn -0.5874 -0.0340 -0.8085
vn -0.0000 -0.0340 -0.9994
vn 0.9505 -0.0340 -0.3088
vn 0.5874 -0.0340 -0.8085
vn -0.9505 -0.0340 -0.3088
vn -0.9505 -0.0340 0.3088
vn 0.5149 -0.4825 -0.7086
vn 0.8330 -0.4825 -0.2707
vn -0.8330 -0.4825 -0.2707
vn -0.5149 -0.4825 -0.7086
vn -0.5149 -0.4825 0.7086
vn 0.8330 -0.4825 0.2707
vn -0.0000 -0.4825 -0.8759
vn -0.8330 -0.4825 0.2707
vn 0.9494 0.0595 0.3085
vn 0.5867 0.0595 0.8076
vn -0.5867 0.0595 0.8076
vn -0.9494 0.0595 0.3085
vn -0.5867 0.0595 -0.8076
vn -0.0000 0.0595 -0.9982
vn 0.9494 0.0595 -0.3085
vn -0.0000 0.0595 0.9982
vn -0.9494 0.0595 -0.3085
vn 0.5867 0.0595 -0.8076
vn -0.0000 1.0000 -0.0000
vn -0.9959 0.0000 0.0905
vn -0.9959 -0.0046 0.0905
vn 0.0000 0.1430 0.9897
vn 0.9959 0.0000 0.0905
vn 0.9959 -0.0046 0.0905
vn 0.0000 -0.1430 0.9897
vn 0.0000 -0.8877 0.4604
vn 0.0000 0.8877 0.4604
vn 0.9959 0.0046 0.0905
vn -0.9959 0.0046 0.0905
vn 0.0781 -0.9911 -0.1076
vn -0.0000 -0.9911 -0.1329
vn 0.1264 -0.9911 -0.0411
vn 0.1264 -0.9911 0.0411
vn 0.0781 -0.9911 0.1075
vn -0.0000 -0.9911 0.1329
vn -0.0781 -0.9911 0.1075
vn -0.1264 -0.9911 0.0411
vn -0.1264 -0.9911 -0.0411
vn -0.0781 -0.9911 -0.1075
vn -0.0000 -1.0000 -0.0000
vn -0.0000 -0.9428 -0.3334
vn 0.1960 -0.9428 -0.2698
vn 0.3171 -0.9428 -0.1030
vn 0.3171 -0.9428 0.1030
vn 0.1960 -0.9428 0.2698
vn 0.0000 -0.9428 0.3334
vn -0.1960 -0.9428 0.2698
vn -0.3171 -0.9428 0.1030
vn -0.3171 -0.9428 -0.1030
vn -0.1960 -0.9428 -0.2698
usemtl gothgirl
s 1
f 57/1/1 50/2/2 5/3/3 53/4/4
f 58/5/5 15/6/6 20/7/7 60/8/8
f 60/8/8 20/7/7 25/9/9 62/10/10
f 62/10/10 25/9/9 30/11/11 64/12/12
f 64/12/12 30/11/11 35/13/13 66/14/14
f 66/14/14 35/13/13 40/15/15 68/16/16
f 68/16/16 40/15/15 45/17/17 70/18/18
f 70/18/18 45/17/17 50/2/2 57/1/1
f 54/19/19 10/20/20 15/6/6 58/5/5
f 53/4/4 5/3/3 10/20/20 54/19/19
f 2/21/21 8/22/22 9/23/23 3/24/24
f 3/24/24 9/23/23 7/25/25 1/26/26
f 10/20/20 5/3/3 6/27/27 11/28/28
f 11/28/29 6/27/27 112/29/30 113/30/31
f 8/22/22 13/31/32 14/32/33 9/23/23
f 9/23/23 14/32/33 12/33/34 7/25/25
f 15/6/6 10/20/20 11/28/28 16/34/35
f 16/34/36 11/28/29 113/30/31 114/35/37
f 13/31/32 18/36/38 19/37/39 14/32/33
f 14/32/33 19/37/39 17/38/40 12/33/34
f 20/7/7 15/6/6 16/34/35 21/39/41
f 21/39/41 16/34/36 114/35/37 115/40/42
f 18/36/38 23/41/43 24/42/44 19/37/39
f 19/37/39 24/42/44 22/43/45 17/38/40
f 25/9/9 20/7/7 21/39/41 26/44/46
f 26/44/46 21/39/41 115/40/42 116/45/47
f 23/41/43 28/46/48 29/47/49 24/42/44
f 24/42/44 29/47/49 27/48/50 22/43/45
f 30/11/11 25/9/9 26/44/46 31/49/51
f 31/49/51 26/44/46 116/45/47 117/50/52
f 28/46/48 33/51/53 34/52/54 29/47/49
f 29/47/49 34/52/54 32/53/55 27/48/50
f 35/13/13 30/11/11 31/49/51 36/54/56
f 36/54/56 31/49/51 117/50/52 118/55/57
f 33/51/53 38/56/58 39/57/59 34/52/54
f 34/52/54 39/57/59 37/58/60 32/53/55
f 40/15/15 35/13/13 36/54/56 41/59/61
f 41/59/61 36/54/56 118/55/57 119/60/62
f 38/56/58 43/61/63 44/62/64 39/57/59
f 39/57/59 44/62/64 42/63/65 37/58/60
f 45/17/17 40/15/15 41/59/61 46/64/66
f 46/64/66 41/59/61 119/60/62 120/65/67
f 43/61/63 48/66/68 49/67/69 44/62/64
f 44/62/64 49/67/69 47/68/70 42/63/65
f 50/2/2 45/17/17 46/64/66 51/69/71
f 51/69/71 46/64/66 120/65/67 121/70/72
f 48/66/68 2/21/21 3/24/24 49/67/69
f 49/67/69 3/24/24 1/26/26 47/68/70
f 5/3/3 50/2/2 51/69/71 6/27/27
f 6/27/27 51/69/71 121/70/72 112/29/30
f 27/71/73 32/72/74 98/73/74 97/74/73
f 2/21/21 52/75/4 55/76/19 8/22/22
f 61/77/75 59/78/76 79/79/76 81/80/75
f 8/22/22 55/76/19 59/81/5 13/31/32
f 53/82/77 54/83/78 74/84/78 73/85/77
f 43/61/63 71/86/18 56/87/1 48/66/68
f 69/88/79 67/89/80 87/90/80 89/91/79
f 38/56/58 69/92/16 71/86/18 43/61/63
f 60/93/81 62/94/82 82/95/82 80/96/81
f 33/51/53 67/97/14 69/92/16 38/56/58
f 55/98/83 52/99/84 72/100/84 75/101/83
f 28/46/48 65/102/12 67/97/14 33/51/53
f 68/103/85 70/104/86 90/105/86 88/106/85
f 23/41/43 63/107/10 65/102/12 28/46/48
f 63/108/87 61/77/75 81/80/75 83/109/87
f 18/36/38 61/110/8 63/107/10 23/41/43
f 71/111/88 69/88/79 89/91/79 91/112/88
f 13/31/32 59/81/5 61/110/8 18/36/38
f 62/94/82 64/113/89 84/114/89 82/95/82
f 48/66/68 56/87/1 52/75/4 2/21/21
f 70/104/86 57/115/90 77/116/90 90/105/86
f 72/100/4 73/85/4 74/84/19 75/101/19
f 75/101/19 74/84/19 78/117/5 79/79/5
f 91/112/18 90/105/18 77/116/1 76/118/1
f 89/91/16 88/106/16 90/105/18 91/112/18
f 87/90/14 86/119/14 88/106/16 89/91/16
f 85/120/12 84/114/12 86/119/14 87/90/14
f 83/109/10 82/95/10 84/114/12 85/120/12
f 81/80/8 80/96/8 82/95/10 83/109/10
f 79/79/5 78/117/5 80/96/8 81/80/8
f 76/118/1 77/116/1 73/85/4 72/100/4
f 66/121/91 68/103/85 88/106/85 86/119/91
f 59/78/76 55/98/83 75/101/83 79/79/76
f 58/122/92 60/93/81 80/96/81 78/117/92
f 67/89/80 65/123/93 85/120/93 87/90/80
f 54/83/78 58/122/92 78/117/92 74/84/78
f 52/99/84 56/124/94 76/118/94 72/100/84
f 64/113/89 66/121/91 86/119/91 84/114/89
f 56/124/94 71/111/88 91/112/88 76/118/94
f 57/115/90 53/82/77 73/85/77 77/116/90
f 65/123/93 63/108/87 83/109/87 85/120/93
f 96/125/95 97/74/96 139/126/96 138/127/95
f 22/128/97 27/71/73 97/74/73 96/125/97
f 17/129/98 22/128/97 96/125/97 95/130/98
f 47/131/99 1/132/100 93/133/100 101/134/99
f 12/135/101 17/129/98 95/130/98 94/136/101
f 7/137/102 12/135/101 94/136/101 92/138/102
f 1/132/100 7/137/102 92/138/102 93/133/100
f 42/139/103 47/131/99 101/134/99 100/140/103
f 37/141/104 42/139/103 100/140/103 99/142/104
f 32/72/74 37/141/104 99/142/104 98/73/74
f 92/138/105 94/136/106 136/143/106 134/144/105
f 100/140/107 101/134/108 143/145/108 142/146/107
f 97/74/96 98/73/109 140/147/109 139/126/96
f 94/136/106 95/130/110 137/148/110 136/143/106
f 101/134/108 93/133/111 135/149/111 143/145/108
f 98/73/109 99/142/112 141/150/112 140/147/109
f 95/130/110 96/125/95 138/127/95 137/148/110
f 93/133/111 92/138/105 134/144/105 135/149/111
f 99/142/112 100/140/107 142/146/107 141/150/112
f 105/151/113 106/152/114 149/153/114 148/154/113
f 108/155/115 109/156/116 152/157/116 151/158/115
f 111/159/117 103/160/118 146/161/118 154/162/117
f 104/163/119 105/151/113 148/154/113 147/164/119
f 107/165/120 108/155/115 151/158/115 150/166/120
f 110/167/121 111/159/117 154/162/117 153/168/121
f 102/169/122 104/163/119 147/164/119 144/170/122
f 106/152/114 107/165/120 150/166/120 149/153/114
f 109/156/116 110/167/121 153/168/121 152/157/116
f 103/160/118 102/169/122 144/170/122 146/161/118
f 4/171/123 113/30/31 112/29/30
f 4/172/123 114/35/37 113/30/31
f 4/172/123 115/40/42 114/35/37
f 4/171/123 116/45/47 115/40/42
f 4/173/123 117/50/52 116/45/47
f 4/174/123 118/55/57 117/50/52
f 4/175/123 119/60/62 118/55/57
f 4/175/123 120/65/67 119/60/62
f 4/174/123 121/70/72 120/65/67
f 4/173/123 112/29/30 121/70/72
f 130/176/124 123/177/125 125/178/125 131/179/124
f 126/180/126 133/181/126 130/182/126 122/183/126
f 132/184/127 129/185/128 127/186/128 133/187/127
f 133/188/129 127/189/129 123/190/129 130/191/129
f 124/192/130 128/193/130 126/194/130 122/195/130
f 129/185/131 125/178/131 123/177/131 127/186/131
f 128/193/132 132/184/127 133/187/127 126/194/132
f 122/195/133 130/176/124 131/179/124 124/192/133
f 102/196/134 103/197/135 135/149/135 134/144/134
f 104/198/136 102/196/134 134/144/134 136/143/136
f 105/199/137 104/198/136 136/143/136 137/148/137
f 106/200/138 105/199/137 137/148/137 138/127/138
f 107/201/139 106/200/138 138/127/138 139/126/139
f 108/202/140 107/201/139 139/126/139 140/147/140
f 109/203/141 108/202/140 140/147/140 141/150/141
f 110/204/142 109/203/141 141/150/141 142/146/142
f 111/205/143 110/204/142 142/146/142 143/145/143
f 103/197/135 111/205/143 143/145/143 135/149/135
f 145/206/144 146/161/145 144/170/146
f 145/206/144 144/170/146 147/164/147
f 145/206/144 147/164/147 148/154/148
f 145/206/144 148/154/148 149/153/149
f 145/206/144 149/153/149 150/166/150
f 145/206/144 150/166/150 151/158/151
f 145/206/144 151/158/151 152/157/152
f 145/206/144 152/157/152 153/168/153
f 145/206/144 153/168/153 154/162/154
f 145/206/144 154/162/154 146/161/145
