# Blender v3.4.1 OBJ File: 'September2026_GothGirl_Assets_Export.blend'
# www.blender.org
mtllib GothGirl_MicStand.mtl
o GothGirl_MicStand
v -0.000000 0.109186 -0.038370
v -0.012480 0.121666 -0.066673
v 0.012480 0.121666 -0.066673
v -0.000000 0.270814 -0.038370
v 0.012480 0.258334 -0.066673
v -0.012480 0.258334 -0.066673
v 0.033229 0.109186 0.019185
v 0.063980 0.121666 0.022529
v 0.051501 0.121666 0.044144
v 0.033229 0.270814 0.019185
v 0.051501 0.258334 0.044144
v 0.063980 0.258334 0.022529
v -0.033229 0.109186 0.019185
v -0.051501 0.121666 0.044144
v -0.063980 0.121666 0.022529
v -0.033229 0.270814 0.019185
v -0.063980 0.258334 0.022529
v -0.051501 0.258334 0.044144
v -0.000000 0.070276 0.234375
v -0.000000 0.158927 -0.009191
v 0.022050 0.080255 0.238007
v 0.022050 0.168905 -0.005559
v 0.027496 0.102676 0.246167
v 0.027496 0.191326 0.002601
v 0.012237 0.120656 0.252712
v 0.012237 0.209307 0.009146
v -0.012237 0.120656 0.252712
v -0.012237 0.209307 0.009146
v -0.027496 0.102676 0.246167
v -0.027496 0.191326 0.002601
v -0.022050 0.080255 0.238007
v -0.022050 0.168906 -0.005559
v -0.000000 0.046726 0.246297
v 0.036164 0.063091 0.252254
v 0.045096 0.099864 0.265638
v 0.020070 0.129353 0.276371
v -0.020070 0.129353 0.276371
v -0.045096 0.099864 0.265638
v -0.036164 0.063091 0.252254
v -0.000000 0.034058 0.416344
v 0.202975 0.070276 -0.117187
v -0.007960 0.158927 0.004596
v 0.195095 0.080255 -0.138099
v -0.015839 0.168905 -0.016316
v 0.199440 0.102676 -0.146896
v -0.011495 0.191326 -0.025113
v 0.212736 0.120656 -0.136953
v 0.001802 0.209307 -0.015170
v 0.224973 0.120656 -0.115758
v 0.014039 0.209307 0.006025
v 0.226935 0.102676 -0.099272
v 0.016001 0.191326 0.022511
v 0.217145 0.080255 -0.099908
v 0.006210 0.168906 0.021875
v 0.213300 0.046726 -0.123148
v 0.200376 0.063091 -0.157446
v 0.207501 0.099864 -0.171873
v 0.229310 0.129353 -0.155566
v 0.249379 0.129353 -0.120805
v 0.252597 0.099864 -0.093764
v 0.236540 0.063091 -0.094808
v 0.360565 0.034058 -0.208172
v -0.202975 0.070276 -0.117188
v 0.007960 0.158927 0.004595
v -0.217145 0.080255 -0.099908
v -0.006210 0.168905 0.021875
v -0.226935 0.102676 -0.099272
v -0.016001 0.191326 0.022511
v -0.224973 0.120656 -0.115759
v -0.014039 0.209307 0.006024
v -0.212736 0.120656 -0.136953
v -0.001802 0.209307 -0.015170
v -0.199439 0.102676 -0.146896
v 0.011495 0.191326 -0.025113
v -0.195095 0.080255 -0.138099
v 0.015839 0.168906 -0.016316
v -0.213299 0.046726 -0.123149
v -0.236540 0.063091 -0.094808
v -0.252597 0.099864 -0.093765
v -0.249379 0.129353 -0.120805
v -0.229309 0.129353 -0.155567
v -0.207501 0.099864 -0.171873
v -0.200376 0.063091 -0.157446
v -0.360565 0.034058 -0.208172
v -0.000000 0.201161 -0.031196
v -0.000000 1.050028 -0.031196
v 0.024390 0.201161 -0.019450
v 0.024390 1.050028 -0.019450
v 0.030414 0.201161 0.006942
v 0.030414 1.050028 0.006942
v 0.013535 0.201161 0.028107
v 0.013535 1.050028 0.028106
v -0.013535 0.201161 0.028107
v -0.013535 1.050028 0.028106
v -0.030414 0.201161 0.006942
v -0.030414 1.050028 0.006942
v -0.024390 0.201161 -0.019450
v -0.024390 1.050028 -0.019450
v -0.000000 0.776643 -0.031196
v -0.000000 0.757502 -0.031196
v -0.000000 0.767073 -0.023372
v 0.024390 0.757502 -0.019450
v 0.024390 0.776643 -0.019450
v 0.018273 0.767073 -0.014572
v 0.030414 0.757502 0.006942
v 0.030414 0.776643 0.006942
v 0.022786 0.767073 0.005201
v 0.013535 0.757502 0.028107
v 0.013535 0.776643 0.028107
v 0.010141 0.767073 0.021057
v -0.013535 0.757502 0.028107
v -0.013535 0.776643 0.028107
v -0.010141 0.767073 0.021057
v -0.030414 0.757502 0.006942
v -0.030414 0.776643 0.006942
v -0.022786 0.767073 0.005201
v -0.024390 0.757502 -0.019450
v -0.024390 0.776643 -0.019450
v -0.018273 0.767073 -0.014572
v -0.000000 0.002313 0.400023
v -0.000000 -0.004033 0.385756
v 0.036164 0.012332 0.391713
v 0.027687 0.014842 0.404583
v 0.045096 0.049105 0.405097
v 0.034525 0.042995 0.414830
v 0.020070 0.078595 0.415830
v 0.015365 0.065572 0.423048
v -0.020070 0.078595 0.415830
v -0.015365 0.065572 0.423048
v -0.045096 0.049105 0.405097
v -0.034525 0.042995 0.414830
v -0.036164 0.012332 0.391712
v -0.027687 0.014842 0.404583
v 0.346430 0.002313 -0.200011
v 0.334075 -0.004033 -0.192878
v 0.321151 0.012332 -0.227175
v 0.336536 0.014842 -0.226269
v 0.328276 0.049105 -0.241603
v 0.341991 0.042995 -0.237315
v 0.350085 0.078595 -0.225296
v 0.358687 0.065572 -0.224830
v 0.370154 0.078595 -0.190534
v 0.374053 0.065572 -0.198217
v 0.373372 0.049105 -0.163494
v 0.376516 0.042995 -0.177515
v 0.357315 0.012332 -0.164537
v 0.364223 0.014842 -0.178314
v -0.346430 0.002313 -0.200012
v -0.334074 -0.004033 -0.192878
v -0.357315 0.012332 -0.164537
v -0.364223 0.014842 -0.178314
v -0.373372 0.049105 -0.163494
v -0.376516 0.042995 -0.177516
v -0.370154 0.078595 -0.190535
v -0.374052 0.065572 -0.198217
v -0.350084 0.078595 -0.225296
v -0.358687 0.065572 -0.224831
v -0.328276 0.049105 -0.241603
v -0.341991 0.042995 -0.237315
v -0.321151 0.012332 -0.227176
v -0.336536 0.014842 -0.226270
v -0.000000 1.188680 -0.359701
v 0.024390 1.167546 -0.358505
v -0.000000 1.156509 -0.362522
v 0.030414 1.192346 -0.349478
v 0.013535 1.212235 -0.342239
v -0.013535 1.212235 -0.342239
v -0.030414 1.192346 -0.349478
v -0.024390 1.167546 -0.358505
v -0.000000 0.869522 0.425968
v 0.024390 0.880559 0.429985
v 0.030414 0.905360 0.439012
v 0.013535 0.925248 0.446251
v -0.013535 0.925248 0.446251
v -0.030414 0.905360 0.439012
v -0.024390 0.880559 0.429985
v 0.032660 0.871087 0.436726
v 0.040726 0.904297 0.448814
v 0.018125 0.930928 0.458507
v -0.018125 0.930928 0.458507
v -0.040726 0.904297 0.448814
v -0.032660 0.871087 0.436726
v -0.000000 0.820140 0.652853
v -0.000000 0.856308 0.431347
v -0.000000 0.958644 0.181106
v -0.000000 0.952591 0.197736
v -0.000000 0.963414 0.192259
v 0.024390 0.963629 0.201753
v 0.024390 0.969682 0.185123
v 0.017903 0.971516 0.195208
v 0.030414 0.988429 0.210780
v 0.030414 0.994482 0.194150
v 0.022325 0.989721 0.201833
v 0.013535 1.008318 0.218019
v 0.013535 1.014370 0.201389
v 0.009935 1.004320 0.207147
v -0.013535 1.008318 0.218019
v -0.013535 1.014370 0.201389
v -0.009936 1.004320 0.207147
v -0.030414 0.988429 0.210780
v -0.030414 0.994482 0.194150
v -0.022325 0.989721 0.201833
v -0.024390 0.963629 0.201753
v -0.024390 0.969682 0.185123
v -0.017903 0.971516 0.195208
v -0.000000 0.782768 0.626495
v -0.000000 0.778275 0.612660
v 0.041505 0.797058 0.619497
v 0.034505 0.798382 0.632178
v 0.051756 0.839261 0.634858
v 0.043027 0.833468 0.644949
v 0.023034 0.873106 0.647176
v 0.019149 0.861605 0.655190
v -0.023034 0.873106 0.647176
v -0.019149 0.861605 0.655190
v -0.051756 0.839261 0.634858
v -0.043028 0.833468 0.644949
v -0.041505 0.797058 0.619497
v -0.034505 0.798382 0.632178
v -0.000000 1.252920 -0.530579
v -0.000000 1.219736 -0.594958
v -0.000000 1.226314 -0.551126
v -0.000000 1.380223 -0.763620
v -0.000000 1.256896 -0.733639
v -0.000000 1.284508 -0.768310
v 0.036825 1.264478 -0.527483
v 0.065459 1.240281 -0.589453
v 0.055056 1.243593 -0.546496
v 0.065459 1.277440 -0.728135
v 0.055056 1.301787 -0.763680
v 0.059583 1.294735 -0.519375
v 0.105915 1.294066 -0.575041
v 0.089083 1.288831 -0.534375
v 0.105915 1.331225 -0.713723
v 0.089083 1.347025 -0.751558
v 0.059583 1.332136 -0.509354
v 0.105915 1.360548 -0.557227
v 0.089083 1.344748 -0.519392
v 0.105915 1.397708 -0.695909
v 0.089083 1.402942 -0.736575
v 0.036825 1.362393 -0.501246
v 0.065459 1.414334 -0.542816
v 0.055056 1.389986 -0.507270
v 0.065459 1.451493 -0.681497
v 0.055056 1.448180 -0.724454
v -0.000000 1.373950 -0.498150
v -0.000000 1.434878 -0.537311
v -0.000000 1.407265 -0.502640
v -0.000000 1.472037 -0.675992
v -0.000000 1.465460 -0.719824
v -0.036825 1.362393 -0.501246
v -0.065459 1.414333 -0.542816
v -0.055056 1.389986 -0.507270
v -0.065459 1.451493 -0.681497
v -0.055056 1.448180 -0.724454
v -0.059584 1.332136 -0.509354
v -0.105915 1.360548 -0.557227
v -0.089083 1.344748 -0.519392
v -0.105915 1.397708 -0.695909
v -0.089083 1.402942 -0.736575
v -0.059584 1.294735 -0.519375
v -0.105915 1.294066 -0.575041
v -0.089083 1.288831 -0.534375
v -0.105915 1.331225 -0.713723
v -0.089083 1.347025 -0.751558
v -0.036825 1.264478 -0.527483
v -0.065459 1.240281 -0.589453
v -0.055056 1.243593 -0.546496
v -0.065459 1.277440 -0.728135
v -0.055056 1.301788 -0.763680
v -0.000000 1.224406 -0.612386
v -0.000000 1.238336 -0.664373
v 0.065459 1.258880 -0.658868
v 0.065459 1.244950 -0.606881
v -0.065459 1.244950 -0.606881
v -0.065459 1.258880 -0.658868
v 0.105915 1.312666 -0.644456
v 0.105915 1.298736 -0.592469
v 0.105915 1.379148 -0.626642
v 0.105915 1.365218 -0.574656
v 0.065459 1.432933 -0.612231
v 0.065459 1.419003 -0.560244
v -0.000000 1.453477 -0.606726
v -0.000000 1.439548 -0.554739
v -0.065459 1.432933 -0.612231
v -0.065459 1.419003 -0.560244
v -0.105915 1.379148 -0.626642
v -0.105915 1.365218 -0.574656
v -0.105915 1.312666 -0.644456
v -0.105915 1.298736 -0.592469
v -0.000000 1.217669 -0.619805
v -0.000000 1.228792 -0.661316
v 0.070413 1.250891 -0.655395
v 0.070413 1.239768 -0.613884
v -0.070413 1.239768 -0.613883
v -0.070413 1.250891 -0.655395
v 0.113930 1.308747 -0.639893
v 0.113930 1.297624 -0.598381
v 0.113930 1.380260 -0.620731
v 0.113930 1.369137 -0.579219
v 0.070413 1.438116 -0.605228
v 0.070413 1.426993 -0.563717
v -0.000000 1.460214 -0.599307
v -0.000000 1.449092 -0.557795
v -0.070413 1.438116 -0.605228
v -0.070413 1.426993 -0.563717
v -0.113930 1.380260 -0.620731
v -0.113930 1.369137 -0.579219
v -0.113930 1.308747 -0.639893
v -0.113930 1.297624 -0.598381
v 0.029965 1.184859 -0.193860
v -0.000000 1.175454 -0.196380
v 0.048484 1.209480 -0.187263
v 0.048484 1.239913 -0.179108
v 0.029964 1.264534 -0.172511
v -0.000000 1.273938 -0.169991
v -0.029965 1.264534 -0.172511
v -0.048484 1.239913 -0.179108
v -0.048484 1.209480 -0.187263
v -0.029965 1.184859 -0.193860
v 0.009942 1.203881 -0.158377
v -0.000000 1.200761 -0.159213
v 0.016087 1.212051 -0.156188
v 0.016087 1.222149 -0.153482
v 0.009942 1.230318 -0.151293
v -0.000000 1.233439 -0.150457
v -0.009943 1.230318 -0.151293
v -0.016088 1.222149 -0.153482
v -0.016088 1.212051 -0.156188
v -0.009943 1.203881 -0.158377
v -0.000000 1.330136 -0.773510
v 0.029942 1.339533 -0.770992
v 0.048447 1.364135 -0.764399
v 0.048447 1.394545 -0.756251
v 0.029942 1.419148 -0.749659
v -0.000000 1.428545 -0.747141
v -0.029942 1.419148 -0.749659
v -0.048447 1.394545 -0.756251
v -0.048447 1.364135 -0.764399
v -0.029942 1.339533 -0.770992
v -0.020291 1.350962 -0.315519
v -0.020291 1.369411 -0.384374
v -0.025376 1.287426 -0.301531
v -0.025376 1.321381 -0.428256
v 0.020291 1.350962 -0.315519
v 0.020291 1.369411 -0.384374
v 0.025376 1.287426 -0.301531
v 0.025376 1.321381 -0.428256
v -0.020291 1.355214 -0.351279
v -0.025376 1.304404 -0.364894
v 0.025376 1.304404 -0.364894
v 0.020291 1.355214 -0.351279
v 0.021301 1.189451 -0.164927
v -0.000000 1.182765 -0.166718
v 0.034466 1.206953 -0.160237
v 0.034466 1.228588 -0.154440
v 0.021301 1.246091 -0.149750
v -0.000000 1.252776 -0.147959
v -0.021302 1.246091 -0.149750
v -0.034467 1.228588 -0.154440
v -0.034467 1.206953 -0.160237
v -0.021302 1.189451 -0.164927
v 0.012752 1.179382 -0.081885
v -0.000000 1.194350 -0.069930
v -0.000000 1.175379 -0.082957
v 0.020633 1.189860 -0.079077
v 0.020633 1.202811 -0.075607
v 0.012752 1.213289 -0.072799
v -0.000000 1.217292 -0.071727
v -0.012752 1.213289 -0.072799
v -0.020634 1.202811 -0.075607
v -0.020634 1.189860 -0.079077
v -0.012752 1.179382 -0.081885
v -0.052666 1.255723 -0.232864
v -0.052666 1.222665 -0.241722
v 0.032549 1.195921 -0.248888
v 0.052666 1.222665 -0.241722
v -0.032549 1.195921 -0.248888
v -0.000000 1.185705 -0.251626
v 0.052666 1.255723 -0.232864
v 0.052666 1.291450 -0.366198
v -0.000000 1.221432 -0.384959
v -0.032549 1.231647 -0.382222
v 0.052666 1.258392 -0.375056
v 0.032549 1.231647 -0.382222
v -0.052666 1.258392 -0.375056
v -0.052666 1.291450 -0.366198
v 0.076939 1.263341 -0.230823
v -0.000000 1.161053 -0.258231
v -0.047551 1.175977 -0.254232
v 0.076939 1.215047 -0.243764
v 0.047551 1.175976 -0.254232
v -0.076939 1.215047 -0.243764
v -0.076939 1.263341 -0.230823
v 0.047551 1.211703 -0.387566
v -0.000000 1.196779 -0.391565
v -0.047551 1.211703 -0.387566
v 0.076939 1.299068 -0.364157
v 0.076939 1.250774 -0.377097
v -0.076939 1.250774 -0.377097
v -0.076939 1.299068 -0.364157
v 0.036803 1.129477 -0.000000
v -0.036803 1.129477 -0.000000
v 0.036803 1.115780 0.042155
v -0.036803 1.115780 0.042155
v 0.036803 1.079921 0.068208
v -0.036803 1.079921 0.068208
v 0.036803 1.035598 0.068208
v -0.036803 1.035598 0.068208
v 0.036803 0.999739 0.042155
v -0.036803 0.999739 0.042155
v 0.036803 0.986042 -0.000000
v -0.057056 1.057760 -0.000000
v -0.036803 0.986042 -0.000000
v 0.057056 1.057760 -0.000000
v 0.036803 0.999739 -0.042155
v -0.036803 0.999739 -0.042155
v 0.036803 1.035598 -0.068208
v -0.036803 1.035598 -0.068208
v 0.036803 1.079922 -0.068208
v -0.036803 1.079922 -0.068208
v 0.036803 1.115780 -0.042155
v -0.036803 1.115780 -0.042155
v 0.057056 1.098552 0.029638
v 0.057056 1.108182 -0.000000
v -0.057056 1.108182 -0.000000
v -0.057056 1.098552 0.029638
v 0.057056 1.073341 0.047955
v -0.057056 1.073341 0.047955
v 0.057056 1.042178 0.047955
v -0.057056 1.042178 0.047955
v 0.057056 1.016967 0.029638
v -0.057056 1.016967 0.029638
v 0.057056 1.007337 -0.000000
v -0.057056 1.007337 -0.000000
v 0.057056 1.016967 -0.029638
v -0.057056 1.016967 -0.029638
v 0.057056 1.042178 -0.047955
v -0.057056 1.042178 -0.047955
v 0.057056 1.073341 -0.047955
v -0.057056 1.073341 -0.047955
v 0.057056 1.098552 -0.029638
v -0.057056 1.098552 -0.029638
v 0.066916 1.057759 -0.000000
v -0.066916 1.057759 -0.000000
v 0.066916 1.057759 0.030119
v 0.066916 1.031675 0.015059
v -0.066916 1.031675 0.015059
v -0.066916 1.057759 0.030119
v 0.066916 1.031675 -0.015060
v -0.066916 1.031675 -0.015060
v 0.066916 1.057759 -0.030120
v -0.066916 1.057759 -0.030120
v 0.066916 1.083844 -0.015060
v -0.066916 1.083844 -0.015060
v 0.066916 1.083844 0.015059
v -0.066916 1.083844 0.015059
vt 0.906850 0.840483
vt 0.906850 0.888261
vt 0.926273 0.888261
vt 0.926273 0.840483
vt 0.950403 0.840483
vt 0.950403 0.888261
vt 0.911556 0.888261
vt 0.911556 0.840483
vt 0.943512 0.897675
vt 0.930980 0.897675
vt 0.918447 0.897675
vt 0.935686 0.840483
vt 0.935686 0.888261
vt 0.955110 0.888261
vt 0.955110 0.840483
vt 0.930980 0.831069
vt 0.943512 0.831069
vt 0.918447 0.831069
vt 0.968272 0.862721
vt 0.916207 0.862721
vt 0.916207 0.864345
vt 0.968272 0.864345
vt 0.916207 0.867994
vt 0.968272 0.867994
vt 0.916207 0.870920
vt 0.968272 0.870920
vt 0.916207 0.870920
vt 0.968272 0.870920
vt 0.916207 0.867994
vt 0.968272 0.867994
vt 0.916207 0.864345
vt 0.968272 0.864345
vt 0.718272 0.629970
vt 0.718272 0.628346
vt 0.718272 0.628346
vt 0.718272 0.629970
vt 0.718272 0.581834
vt 0.718272 0.581556
vt 0.718272 0.582799
vt 0.718272 0.629970
vt 0.718272 0.633619
vt 0.718272 0.633619
vt 0.718272 0.629970
vt 0.718272 0.636545
vt 0.718272 0.633619
vt 0.718272 0.633619
vt 0.718272 0.636545
vt 0.718272 0.636545
vt 0.718272 0.636545
vt 0.718272 0.589342
vt 0.718272 0.589593
vt 0.718272 0.587353
vt 0.718272 0.586663
vt 0.718272 0.586725
vt 0.718272 0.588965
vt 0.718272 0.581471
vt 0.718272 0.583095
vt 0.718272 0.583095
vt 0.718272 0.581471
vt 0.718272 0.586725
vt 0.718272 0.583931
vt 0.718272 0.589593
vt 0.718272 0.583321
vt 0.718272 0.583148
vt 0.718272 0.581905
vt 0.718272 0.583095
vt 0.718272 0.583095
vt 0.718272 0.586744
vt 0.718272 0.586744
vt 0.718272 0.589670
vt 0.718272 0.589670
vt 0.718272 0.589670
vt 0.718272 0.589670
vt 0.718272 0.586744
vt 0.718272 0.586744
vt 0.718272 0.583148
vt 0.718272 0.585941
vt 0.968272 0.862721
vt 0.916207 0.862721
vt 0.916207 0.864345
vt 0.968272 0.864345
vt 0.916207 0.867994
vt 0.968272 0.867994
vt 0.916207 0.870920
vt 0.968272 0.870920
vt 0.916207 0.870920
vt 0.968272 0.870920
vt 0.916207 0.867994
vt 0.968272 0.867994
vt 0.916207 0.864345
vt 0.968272 0.864345
vt 0.718272 0.629970
vt 0.718272 0.628346
vt 0.718272 0.628346
vt 0.718272 0.629970
vt 0.718272 0.581834
vt 0.718272 0.581556
vt 0.718272 0.582799
vt 0.718272 0.629970
vt 0.718272 0.633619
vt 0.718272 0.633619
vt 0.718272 0.629970
vt 0.718272 0.636545
vt 0.718272 0.633619
vt 0.718272 0.633619
vt 0.718272 0.636545
vt 0.718272 0.636545
vt 0.718272 0.636545
vt 0.718272 0.589342
vt 0.718272 0.589593
vt 0.718272 0.587353
vt 0.718272 0.586663
vt 0.718272 0.586725
vt 0.718272 0.588965
vt 0.718272 0.581471
vt 0.718272 0.583095
vt 0.718272 0.583095
vt 0.718272 0.581471
vt 0.718272 0.586725
vt 0.718272 0.583931
vt 0.718272 0.589593
vt 0.718272 0.583321
vt 0.718272 0.583148
vt 0.718272 0.581905
vt 0.718272 0.583095
vt 0.718272 0.583095
vt 0.718272 0.586744
vt 0.718272 0.586744
vt 0.718272 0.589670
vt 0.718272 0.589670
vt 0.718272 0.589670
vt 0.718272 0.589670
vt 0.718272 0.586744
vt 0.718272 0.586744
vt 0.718272 0.583148
vt 0.718272 0.585941
vt 0.968272 0.862721
vt 0.916207 0.862721
vt 0.916207 0.864345
vt 0.968272 0.864345
vt 0.916207 0.867994
vt 0.968272 0.867994
vt 0.916207 0.870920
vt 0.968272 0.870920
vt 0.916207 0.870920
vt 0.968272 0.870920
vt 0.916207 0.867994
vt 0.968272 0.867994
vt 0.916207 0.864345
vt 0.968272 0.864345
vt 0.718272 0.629970
vt 0.718272 0.628346
vt 0.718272 0.628346
vt 0.718272 0.629970
vt 0.718272 0.629970
vt 0.718272 0.633619
vt 0.718272 0.633619
vt 0.718272 0.629970
vt 0.718272 0.636545
vt 0.718272 0.633619
vt 0.718272 0.633619
vt 0.718272 0.636545
vt 0.718272 0.636545
vt 0.718272 0.636545
vt 0.718272 0.589342
vt 0.718272 0.589593
vt 0.718272 0.587353
vt 0.718272 0.586663
vt 0.718272 0.586725
vt 0.718272 0.588965
vt 0.718272 0.581471
vt 0.718272 0.583095
vt 0.718272 0.583095
vt 0.718272 0.581471
vt 0.718272 0.586725
vt 0.718272 0.583931
vt 0.718272 0.589593
vt 0.718272 0.583321
vt 0.718272 0.583148
vt 0.718272 0.581905
vt 0.718272 0.583095
vt 0.718272 0.583095
vt 0.718272 0.586744
vt 0.718272 0.586744
vt 0.718272 0.589670
vt 0.718272 0.589670
vt 0.718272 0.589670
vt 0.718272 0.589670
vt 0.718272 0.586744
vt 0.718272 0.586744
vt 0.718272 0.583148
vt 0.718272 0.585941
vt 0.940432 0.820302
vt 0.940432 0.891140
vt 0.937020 0.891140
vt 0.937020 0.820302
vt 0.940432 0.820302
vt 0.940432 0.891140
vt 0.948098 0.891140
vt 0.948098 0.820302
vt 0.954246 0.891140
vt 0.954247 0.820302
vt 0.954246 0.891140
vt 0.954247 0.820302
vt 0.948098 0.891140
vt 0.948098 0.820302
vt 0.940432 0.929698
vt 0.937020 0.929698
vt 0.940432 0.929698
vt 0.948098 0.929698
vt 0.954246 0.929698
vt 0.954246 0.929698
vt 0.948098 0.929698
vt 0.948098 0.895326
vt 0.940432 0.895326
vt 0.954246 0.895326
vt 0.954246 0.895326
vt 0.948098 0.895326
vt 0.937020 0.895326
vt 0.940432 0.895326
vt 0.940432 0.864076
vt 0.937020 0.864076
vt 0.937020 0.861983
vt 0.940432 0.861983
vt 0.940432 0.924483
vt 0.937020 0.924483
vt 0.937020 0.922390
vt 0.940432 0.922390
vt 0.948098 0.864076
vt 0.948098 0.861983
vt 0.948098 0.924483
vt 0.948098 0.922390
vt 0.954246 0.864076
vt 0.954246 0.861983
vt 0.954246 0.924483
vt 0.954246 0.922390
vt 0.954246 0.864076
vt 0.954246 0.861983
vt 0.954246 0.924483
vt 0.954247 0.922390
vt 0.948098 0.864076
vt 0.948098 0.861983
vt 0.948098 0.924483
vt 0.948098 0.922390
vt 0.940432 0.864076
vt 0.940432 0.861983
vt 0.940432 0.924483
vt 0.940432 0.922390
vt 0.718272 0.582799
vt 0.718272 0.581556
vt 0.718272 0.581834
vt 0.940432 0.842181
vt 0.940432 0.867513
vt 0.937020 0.867513
vt 0.937020 0.842181
vt 0.948098 0.842181
vt 0.948098 0.867513
vt 0.954247 0.867513
vt 0.954247 0.842181
vt 0.954247 0.867513
vt 0.954247 0.842181
vt 0.948098 0.867513
vt 0.948098 0.842181
vt 0.940432 0.867513
vt 0.940432 0.842181
vt 0.943332 0.929698
vt 0.940432 0.929698
vt 0.937020 0.929698
vt 0.947063 0.929698
vt 0.948098 0.929698
vt 0.950056 0.929698
vt 0.954246 0.929698
vt 0.954246 0.929698
vt 0.948098 0.929698
vt 0.940432 0.929698
vt 0.941671 0.929698
vt 0.704247 0.630307
vt 0.698098 0.630307
vt 0.698099 0.629735
vt 0.704248 0.629735
vt 0.698098 0.630307
vt 0.704247 0.630307
vt 0.704249 0.629735
vt 0.698099 0.629735
vt 0.687020 0.630307
vt 0.690432 0.630307
vt 0.690430 0.629735
vt 0.687018 0.629735
vt 0.690432 0.630307
vt 0.690430 0.629735
vt 0.690432 0.578098
vt 0.690430 0.598485
vt 0.687018 0.598485
vt 0.687020 0.578098
vt 0.698098 0.578098
vt 0.698099 0.598485
vt 0.704249 0.598485
vt 0.704247 0.578098
vt 0.704248 0.598485
vt 0.704247 0.578098
vt 0.698099 0.598485
vt 0.698098 0.578098
vt 0.690432 0.578098
vt 0.690430 0.598485
vt 0.692808 0.577178
vt 0.690851 0.577178
vt 0.688042 0.577178
vt 0.697250 0.577178
vt 0.697949 0.577178
vt 0.691636 0.577178
vt 0.700813 0.577178
vt 0.703640 0.577178
vt 0.698578 0.577178
vt 0.703640 0.577178
vt 0.697949 0.577178
vt 0.703011 0.577178
vt 0.690851 0.577178
vt 0.697164 0.577178
vt 0.690831 0.577178
vt 0.687693 0.577178
vt 0.690502 0.577178
vt 0.948098 0.869359
vt 0.940432 0.869359
vt 0.954247 0.869359
vt 0.954247 0.869359
vt 0.948098 0.869359
vt 0.940432 0.869359
vt 0.937020 0.869359
vt 0.940432 0.838109
vt 0.937020 0.838109
vt 0.937020 0.837186
vt 0.940432 0.837186
vt 0.940432 0.899686
vt 0.937020 0.899686
vt 0.937020 0.898763
vt 0.940432 0.898763
vt 0.948098 0.838109
vt 0.948098 0.837186
vt 0.948098 0.899686
vt 0.948098 0.898763
vt 0.954247 0.838109
vt 0.954247 0.837186
vt 0.954247 0.899686
vt 0.954247 0.898763
vt 0.954247 0.838109
vt 0.954247 0.837186
vt 0.954247 0.899686
vt 0.954247 0.898763
vt 0.948098 0.838109
vt 0.948098 0.837186
vt 0.948098 0.899686
vt 0.948098 0.898763
vt 0.940432 0.838109
vt 0.940432 0.837186
vt 0.940432 0.899686
vt 0.940432 0.898763
vt 0.687020 0.593723
vt 0.690432 0.593723
vt 0.690502 0.592803
vt 0.687693 0.592803
vt 0.698098 0.593723
vt 0.697164 0.592803
vt 0.690851 0.592803
vt 0.704247 0.593723
vt 0.703011 0.592803
vt 0.697949 0.592803
vt 0.704247 0.593723
vt 0.703640 0.592803
vt 0.703640 0.592803
vt 0.698098 0.593723
vt 0.698578 0.592803
vt 0.690432 0.593723
vt 0.691636 0.592803
vt 0.697949 0.592803
vt 0.688042 0.592803
vt 0.690851 0.592803
vt 0.652943 0.650193
vt 0.652943 0.670362
vt 0.671875 0.670362
vt 0.671875 0.650193
vt 0.702508 0.650193
vt 0.702508 0.670362
vt 0.702508 0.670362
vt 0.702508 0.650193
vt 0.690807 0.670362
vt 0.690807 0.650193
vt 0.671875 0.670362
vt 0.671875 0.650193
vt 0.652943 0.670362
vt 0.652943 0.650193
vt 0.641242 0.670362
vt 0.641242 0.650193
vt 0.641242 0.670362
vt 0.641242 0.650193
vt 0.690807 0.650193
vt 0.690807 0.670362
vt 0.671875 0.609857
vt 0.690807 0.609857
vt 0.687799 0.587048
vt 0.671875 0.587048
vt 0.680535 0.577601
vt 0.671875 0.577601
vt 0.671875 0.693170
vt 0.687799 0.693170
vt 0.671875 0.702618
vt 0.680535 0.702618
vt 0.702508 0.609857
vt 0.697640 0.587048
vt 0.685887 0.577601
vt 0.697640 0.693170
vt 0.685887 0.702618
vt 0.702508 0.609857
vt 0.697640 0.587048
vt 0.685887 0.577601
vt 0.697640 0.693170
vt 0.685887 0.702618
vt 0.690807 0.609857
vt 0.687799 0.587048
vt 0.680535 0.577601
vt 0.687799 0.693170
vt 0.680535 0.702618
vt 0.671875 0.609857
vt 0.671875 0.587048
vt 0.671875 0.577601
vt 0.671875 0.693170
vt 0.671875 0.702618
vt 0.652943 0.609857
vt 0.655951 0.587048
vt 0.663215 0.577601
vt 0.655951 0.693170
vt 0.663215 0.702618
vt 0.641242 0.609857
vt 0.646110 0.587048
vt 0.657863 0.577601
vt 0.646110 0.693170
vt 0.657863 0.702618
vt 0.641242 0.609857
vt 0.646110 0.587048
vt 0.657863 0.577601
vt 0.646110 0.693170
vt 0.657863 0.702618
vt 0.652943 0.609857
vt 0.655951 0.587048
vt 0.663215 0.577601
vt 0.655951 0.693170
vt 0.663215 0.702618
vt 0.961011 0.827356
vt 0.961011 0.810217
vt 0.950840 0.810217
vt 0.950840 0.827356
vt 0.671875 0.630025
vt 0.690807 0.630025
vt 0.577508 0.630025
vt 0.577508 0.630025
vt 0.577508 0.630025
vt 0.577508 0.630025
vt 0.702508 0.630025
vt 0.546875 0.650193
vt 0.565807 0.650193
vt 0.565807 0.650193
vt 0.546875 0.650193
vt 0.641242 0.630025
vt 0.652943 0.630025
vt 0.516242 0.630025
vt 0.527943 0.630025
vt 0.527943 0.630025
vt 0.516242 0.630025
vt 0.641242 0.630025
vt 0.577508 0.650193
vt 0.565807 0.650193
vt 0.565807 0.650193
vt 0.577508 0.650193
vt 0.652943 0.630025
vt 0.565807 0.630025
vt 0.546875 0.630025
vt 0.546875 0.630025
vt 0.565807 0.630025
vt 0.671875 0.630025
vt 0.516242 0.650193
vt 0.516242 0.650193
vt 0.516242 0.650193
vt 0.516242 0.650193
vt 0.690807 0.630025
vt 0.565807 0.630025
vt 0.565807 0.630025
vt 0.702508 0.630025
vt 0.516242 0.630025
vt 0.516242 0.630025
vt 0.546875 0.650193
vt 0.546875 0.650193
vt 0.527943 0.650193
vt 0.527943 0.650193
vt 0.577508 0.650193
vt 0.527943 0.630025
vt 0.527943 0.650193
vt 0.546875 0.630025
vt 0.527943 0.650193
vt 0.577508 0.650193
vt 0.546875 0.630025
vt 0.527943 0.630025
vt 0.421628 0.792532
vt 0.414086 0.792532
vt 0.414086 0.788494
vt 0.419448 0.788494
vt 0.414086 0.868048
vt 0.404818 0.868048
vt 0.406545 0.792532
vt 0.423355 0.868048
vt 0.429083 0.868048
vt 0.426289 0.792532
vt 0.404818 0.868048
vt 0.414086 0.868048
vt 0.414086 0.792532
vt 0.406545 0.792532
vt 0.429083 0.868048
vt 0.426289 0.792532
vt 0.423355 0.868048
vt 0.421628 0.792532
vt 0.399090 0.868048
vt 0.401883 0.792532
vt 0.399090 0.868048
vt 0.401883 0.792532
vt 0.422761 0.788494
vt 0.419448 0.788494
vt 0.408725 0.788494
vt 0.405411 0.788494
vt 0.408725 0.788494
vt 0.422761 0.788494
vt 0.414086 0.788494
vt 0.405411 0.788494
vt 0.693293 0.538139
vt 0.691315 0.538139
vt 0.691315 0.538139
vt 0.693293 0.538139
vt 0.684907 0.538139
vt 0.682925 0.538139
vt 0.682925 0.538139
vt 0.684907 0.538139
vt 0.684902 0.538139
vt 0.688112 0.538139
vt 0.688112 0.538139
vt 0.684902 0.538139
vt 0.693291 0.538139
vt 0.693291 0.538139
vt 0.688111 0.538139
vt 0.688111 0.538139
vt 0.682923 0.538139
vt 0.682923 0.538139
vt 0.691310 0.538139
vt 0.691310 0.538139
vt 0.676172 0.702618
vt 0.678828 0.702618
vt 0.671875 0.702618
vt 0.667578 0.702618
vt 0.664922 0.702618
vt 0.946135 0.800501
vt 0.946135 0.822604
vt 0.946135 0.822604
vt 0.946135 0.800501
vt 0.966725 0.856522
vt 0.966725 0.878626
vt 0.946135 0.878626
vt 0.946135 0.856522
vt 0.966725 0.800501
vt 0.966725 0.822604
vt 0.966725 0.822604
vt 0.966725 0.800501
vt 0.966725 0.831751
vt 0.966725 0.853854
vt 0.946135 0.853854
vt 0.946135 0.831751
vt 0.946135 0.778397
vt 0.966725 0.778397
vt 0.966725 0.778397
vt 0.946135 0.778397
vt 0.417288 0.788139
vt 0.414090 0.788139
vt 0.419269 0.788139
vt 0.419271 0.788139
vt 0.417293 0.788139
vt 0.414089 0.788139
vt 0.410885 0.788139
vt 0.408903 0.788139
vt 0.408901 0.788139
vt 0.410880 0.788139
vt 0.688108 0.537612
vt 0.942613 0.827356
vt 0.942613 0.810217
vt 0.950840 0.810217
vt 0.950840 0.827356
vt 0.939470 0.827356
vt 0.939470 0.810217
vt 0.942613 0.827356
vt 0.942613 0.810217
vt 0.961011 0.810217
vt 0.961011 0.827356
vt 0.961011 0.827356
vt 0.950840 0.827356
vt 0.950840 0.810217
vt 0.961011 0.810217
vt 0.942613 0.827356
vt 0.950840 0.827356
vt 0.950840 0.810217
vt 0.942613 0.810217
vt 0.961011 0.810217
vt 0.961011 0.827356
vt 0.939470 0.827356
vt 0.939470 0.810217
vt 0.942613 0.827356
vt 0.942613 0.810217
vt 0.916810 0.856602
vt 0.916810 0.856602
vt 0.937500 0.863325
vt 0.937500 0.863325
vt 0.970977 0.839002
vt 0.970977 0.839002
vt 0.970977 0.817248
vt 0.970977 0.817248
vt 0.958190 0.799648
vt 0.958190 0.799648
vt 0.937500 0.792925
vt 0.937500 0.792925
vt 0.916810 0.799648
vt 0.916810 0.799648
vt 0.904023 0.817248
vt 0.904023 0.817248
vt 0.904023 0.839002
vt 0.904023 0.839002
vt 0.958190 0.856602
vt 0.958190 0.856602
vt 0.937500 0.910200
vt 0.958190 0.903477
vt 0.952046 0.895021
vt 0.937500 0.899748
vt 0.958190 0.903477
vt 0.937500 0.910200
vt 0.937500 0.899748
vt 0.952046 0.895021
vt 0.970977 0.885877
vt 0.961037 0.882648
vt 0.970977 0.885877
vt 0.961037 0.882648
vt 0.970977 0.864123
vt 0.961036 0.867352
vt 0.970977 0.864123
vt 0.961037 0.867353
vt 0.958190 0.846523
vt 0.952046 0.854979
vt 0.958190 0.846523
vt 0.952046 0.854979
vt 0.937500 0.839800
vt 0.937500 0.850252
vt 0.937500 0.839800
vt 0.937500 0.850252
vt 0.916810 0.846523
vt 0.922954 0.854979
vt 0.916810 0.846523
vt 0.922954 0.854979
vt 0.904023 0.864123
vt 0.913963 0.867353
vt 0.904023 0.864123
vt 0.913964 0.867353
vt 0.904023 0.885877
vt 0.913963 0.882648
vt 0.904023 0.885877
vt 0.913963 0.882648
vt 0.916810 0.903477
vt 0.922954 0.895021
vt 0.916810 0.903477
vt 0.922954 0.895021
vt 0.937500 0.828125
vt 0.937500 0.852873
vt 0.952046 0.848146
vt 0.937500 0.828125
vt 0.952046 0.848146
vt 0.937500 0.852873
vt 0.961037 0.835773
vt 0.961037 0.835773
vt 0.961036 0.820477
vt 0.961037 0.820478
vt 0.952046 0.808104
vt 0.952046 0.808104
vt 0.937500 0.803377
vt 0.937500 0.803377
vt 0.922954 0.808104
vt 0.922954 0.808104
vt 0.913963 0.820478
vt 0.913964 0.820478
vt 0.913963 0.835773
vt 0.913963 0.835773
vt 0.922954 0.848146
vt 0.922954 0.848146
vt 0.930771 0.931499
vt 0.930771 0.931499
vt 0.953629 0.918302
vt 0.953629 0.918302
vt 0.953629 0.891907
vt 0.953629 0.891907
vt 0.930771 0.878710
vt 0.930771 0.878710
vt 0.907913 0.891907
vt 0.907913 0.891907
vt 0.907913 0.918302
vt 0.907913 0.918302
vt 0.930771 0.951980
vt 0.930771 0.978374
vt 0.953629 0.965177
vt 0.930771 0.951980
vt 0.953629 0.965177
vt 0.930771 0.978374
vt 0.953629 0.938782
vt 0.953629 0.938782
vt 0.930771 0.925585
vt 0.930771 0.925585
vt 0.907913 0.938782
vt 0.907913 0.938782
vt 0.907913 0.965177
vt 0.907913 0.965177
vn -1.0000 -0.0000 -0.0000
vn -0.8660 -0.0000 -0.5000
vn -0.0000 0.0000 1.0000
vn -0.5000 0.0000 0.8660
vn 0.1918 0.9752 0.1108
vn 0.0000 0.9752 -0.2215
vn -0.1918 0.9752 0.1108
vn 0.5000 -0.0000 -0.8660
vn 1.0000 -0.0000 -0.0000
vn -0.0000 -0.9752 -0.2215
vn -0.1803 -0.9269 -0.3292
vn 0.1803 -0.9269 -0.3292
vn 0.1803 0.9269 -0.3292
vn -0.1803 0.9269 -0.3292
vn 0.1918 -0.9752 0.1108
vn 0.3752 -0.9269 0.0084
vn 0.1949 -0.9269 0.3208
vn 0.1949 0.9269 0.3208
vn 0.3752 0.9269 0.0084
vn -0.1918 -0.9752 0.1108
vn -0.1949 -0.9269 0.3208
vn -0.3752 -0.9269 0.0084
vn -0.3752 0.9269 0.0084
vn -0.1949 0.9269 0.3208
vn 0.0000 0.0000 -1.0000
vn 0.8660 -0.0000 0.5000
vn 0.0000 -0.9397 -0.3420
vn 0.7818 -0.5859 -0.2132
vn 0.9749 0.2091 0.0761
vn 0.4339 0.8466 0.3081
vn -0.4339 0.8466 0.3081
vn -0.9749 0.2091 0.0761
vn -0.7818 -0.5859 -0.2132
vn -0.5704 -0.1935 -0.7982
vn 0.0000 -0.4516 -0.8922
vn 0.0000 -0.7695 -0.6386
vn -0.7361 -0.4364 -0.5174
vn 0.8138 -0.3420 -0.4698
vn 0.7702 -0.4572 -0.4447
vn 0.7351 -0.4128 -0.5377
vn 0.5704 -0.1935 -0.7982
vn 0.7113 0.3865 -0.5871
vn 0.9179 0.3121 -0.2450
vn 0.7361 -0.4364 -0.5174
vn -0.3165 0.8516 -0.4179
vn -0.7113 0.3865 -0.5871
vn -0.9179 0.3121 -0.2450
vn -0.4085 0.9124 -0.0265
vn 0.3165 0.8516 -0.4179
vn 0.4085 0.9124 -0.0265
vn -0.0000 -0.3420 0.9397
vn -0.0544 -0.2331 0.9709
vn -0.1223 -0.3131 0.9418
vn 0.1223 -0.3131 0.9418
vn 0.0544 -0.2331 0.9709
vn -0.0981 -0.4128 0.9055
vn -0.0000 -0.4572 0.8893
vn 0.0981 -0.4128 0.9055
vn -0.2962 -0.9397 0.1710
vn -0.5756 -0.5859 -0.5705
vn -0.4216 0.2091 -0.8824
vn 0.0499 0.8466 -0.5298
vn 0.4838 0.8466 0.2217
vn 0.5534 0.2091 0.8063
vn 0.2062 -0.5859 0.7837
vn -0.4061 -0.1935 0.8931
vn -0.7727 -0.4516 0.4461
vn -0.5531 -0.7695 0.3193
vn -0.0800 -0.4364 0.8962
vn -0.8138 -0.3420 -0.4698
vn -0.7702 -0.4572 -0.4447
vn -0.8332 -0.4128 -0.3678
vn -0.9765 -0.1935 -0.0949
vn -0.8641 0.3865 -0.3224
vn -0.6711 0.3121 -0.6725
vn -0.8161 -0.4364 -0.3788
vn -0.2036 0.8516 0.4831
vn -0.1529 0.3865 0.9095
vn 0.2468 0.3121 0.9174
vn 0.1813 0.9124 0.3670
vn -0.5201 0.8516 -0.0652
vn -0.2272 0.9124 -0.3405
vn 0.8681 -0.2331 -0.4383
vn 0.8768 -0.3131 -0.3650
vn 0.7545 -0.3131 -0.5769
vn 0.8136 -0.2331 -0.5326
vn 0.8332 -0.4128 -0.3678
vn 0.2962 -0.9397 0.1710
vn -0.2062 -0.5859 0.7837
vn -0.5534 0.2091 0.8063
vn -0.4838 0.8466 0.2217
vn -0.0499 0.8466 -0.5298
vn 0.4216 0.2091 -0.8824
vn 0.5756 -0.5859 -0.5705
vn 0.9765 -0.1935 -0.0948
vn 0.7727 -0.4516 0.4461
vn 0.5531 -0.7695 0.3193
vn 0.8161 -0.4364 -0.3788
vn 0.4061 -0.1935 0.8931
vn 0.1529 0.3865 0.9096
vn -0.2468 0.3121 0.9174
vn 0.0800 -0.4364 0.8962
vn 0.5201 0.8516 -0.0652
vn 0.8641 0.3865 -0.3224
vn 0.6711 0.3121 -0.6725
vn 0.2272 0.9124 -0.3405
vn 0.2036 0.8516 0.4831
vn -0.1813 0.9124 0.3670
vn -0.8136 -0.2331 -0.5326
vn -0.7545 -0.3131 -0.5769
vn -0.8768 -0.3131 -0.3650
vn -0.8681 -0.2331 -0.4383
vn -0.7351 -0.4128 -0.5377
vn -0.7818 -0.0000 -0.6235
vn 0.7818 -0.0000 -0.6235
vn 0.9749 0.0000 0.2225
vn 0.4339 0.0000 0.9010
vn -0.4339 0.0000 0.9010
vn -0.9749 0.0000 0.2225
vn 0.0000 1.0000 0.0000
vn -0.0000 -1.0000 0.0000
vn -0.6053 -0.6330 -0.4827
vn 0.0000 -0.6330 -0.7742
vn -0.6053 0.6330 -0.4827
vn -0.0000 0.6330 -0.7742
vn -0.7548 -0.6330 0.1723
vn -0.7548 0.6330 0.1723
vn -0.3359 -0.6330 0.6975
vn -0.3359 0.6330 0.6975
vn 0.3359 -0.6330 0.6975
vn 0.3359 0.6330 0.6975
vn 0.7548 -0.6330 0.1723
vn 0.7548 0.6330 0.1723
vn 0.6053 -0.6330 -0.4827
vn 0.6053 0.6330 -0.4827
vn -0.0000 -0.9137 0.4064
vn 0.5626 -0.6591 0.4991
vn 0.7016 -0.0870 0.7073
vn 0.3122 0.3717 0.8743
vn -0.3122 0.3717 0.8743
vn -0.7016 -0.0870 0.7073
vn -0.5626 -0.6591 0.4991
vn 0.3520 -0.9137 -0.2032
vn 0.1509 -0.6591 -0.7368
vn 0.2617 -0.0870 -0.9612
vn 0.6010 0.3717 -0.7075
vn 0.9132 0.3717 -0.1667
vn 0.9633 -0.0870 0.2539
vn 0.7135 -0.6591 0.2377
vn -0.3520 -0.9137 -0.2032
vn -0.7135 -0.6591 0.2377
vn -0.9633 -0.0870 0.2539
vn -0.9132 0.3717 -0.1667
vn -0.6010 0.3717 -0.7075
vn -0.2617 -0.0870 -0.9612
vn -0.1509 -0.6591 -0.7368
vn 0.0000 0.3420 -0.9397
vn 0.2022 0.1789 -0.9629
vn 0.0000 0.0874 -0.9962
vn 0.2521 0.3845 -0.8880
vn 0.1122 0.5493 -0.8280
vn -0.1122 0.5493 -0.8280
vn -0.2521 0.3845 -0.8880
vn -0.2022 0.1789 -0.9629
vn -0.2912 0.8217 -0.4899
vn -0.6542 0.3939 -0.6456
vn 0.6543 0.3939 -0.6456
vn 0.2912 0.8217 -0.4899
vn 0.6542 0.3939 -0.6456
vn -0.0000 -0.3770 -0.9262
vn 0.5247 -0.1396 -0.8398
vn -0.5247 -0.1396 -0.8398
vn -0.7805 -0.5653 -0.2668
vn -0.0000 -0.9185 -0.3953
vn 0.9733 0.2284 0.0221
vn 0.4332 0.8648 0.2538
vn -0.4332 0.8648 0.2538
vn -0.9733 0.2284 0.0221
vn 0.7805 -0.5653 -0.2668
vn -0.2049 -0.4836 0.8510
vn -0.0000 -0.5764 0.8172
vn -0.2555 -0.2753 0.9268
vn -0.1137 -0.1082 0.9876
vn 0.1137 -0.1082 0.9876
vn 0.2555 -0.2753 0.9268
vn 0.2049 -0.4836 0.8510
vn -0.5703 -0.6613 0.4872
vn -0.0000 -0.9194 0.3932
vn -0.5703 -0.1935 -0.7983
vn -0.7112 -0.0814 0.6983
vn -0.7112 0.3865 -0.5872
vn -0.3165 0.3837 0.8675
vn -0.3165 0.8515 -0.4180
vn 0.3165 0.3837 0.8675
vn 0.3165 0.8515 -0.4180
vn 0.7112 -0.0814 0.6983
vn 0.7112 0.3865 -0.5872
vn 0.5703 -0.6613 0.4872
vn 0.5703 -0.1935 -0.7983
vn 0.0000 -0.9511 0.3088
vn 0.6162 -0.6723 0.4103
vn 0.7684 -0.0457 0.6384
vn 0.3420 0.4567 0.8213
vn -0.3420 0.4567 0.8213
vn -0.7684 -0.0457 0.6384
vn -0.6162 -0.6723 0.4103
vn -0.5878 -0.7815 -0.2094
vn -0.5763 -0.7154 -0.3950
vn 0.0000 -0.8963 -0.4434
vn -0.0000 -0.9659 -0.2588
vn 0.9511 -0.2985 -0.0800
vn 0.9325 -0.2419 -0.2681
vn 0.9325 0.3435 -0.1112
vn 0.9511 0.2985 0.0800
vn 0.5763 0.8171 0.0157
vn 0.5878 0.7815 0.2094
vn -0.0000 0.9979 0.0641
vn -0.0000 0.9659 0.2588
vn -0.5763 0.8171 0.0157
vn -0.5878 0.7815 0.2094
vn -0.9325 0.3435 -0.1112
vn -0.9511 0.2985 0.0800
vn -0.9325 -0.2419 -0.2681
vn -0.9511 -0.2985 -0.0800
vn 0.5878 -0.7815 -0.2094
vn 0.5763 -0.7154 -0.3950
vn -0.0000 -0.9979 -0.0641
vn 0.5763 -0.8171 -0.0157
vn 0.4325 -0.7502 0.5001
vn 0.0000 -0.8860 0.4638
vn 0.2266 -0.5401 0.8105
vn 0.0000 -0.6112 0.7915
vn -0.0000 -0.5281 -0.8492
vn 0.4290 -0.3935 -0.8131
vn -0.0000 0.0111 -0.9999
vn 0.1458 0.0569 -0.9877
vn 0.9325 -0.3435 0.1112
vn 0.6997 -0.3949 0.5953
vn 0.3667 -0.3539 0.8604
vn 0.6942 -0.0410 -0.7186
vn 0.2359 0.1767 -0.9556
vn 0.9325 0.2419 0.2681
vn 0.6997 0.0443 0.7130
vn 0.3667 -0.1237 0.9221
vn 0.6942 0.3948 -0.6019
vn 0.2359 0.3248 -0.9159
vn 0.5763 0.7154 0.3950
vn 0.4325 0.3997 0.8082
vn 0.2266 0.0625 0.9720
vn 0.4290 0.7473 -0.5074
vn 0.1458 0.4446 -0.8838
vn -0.0000 0.8963 0.4434
vn -0.0000 0.5354 0.8446
vn 0.0000 0.1336 0.9910
vn 0.0000 0.8820 -0.4713
vn 0.0000 0.4904 -0.8715
vn -0.5763 0.7154 0.3950
vn -0.4325 0.3997 0.8082
vn -0.2266 0.0625 0.9720
vn -0.4290 0.7473 -0.5074
vn -0.1458 0.4446 -0.8838
vn -0.9325 0.2419 0.2681
vn -0.6997 0.0443 0.7130
vn -0.3667 -0.1237 0.9221
vn -0.6942 0.3948 -0.6019
vn -0.2359 0.3248 -0.9159
vn -0.9325 -0.3435 0.1112
vn -0.6997 -0.3949 0.5953
vn -0.3667 -0.3539 0.8604
vn -0.6942 -0.0410 -0.7186
vn -0.2359 0.1767 -0.9556
vn -0.5763 -0.8171 -0.0157
vn -0.4325 -0.7502 0.5001
vn -0.2266 -0.5401 0.8105
vn -0.4290 -0.3935 -0.8131
vn -0.1458 0.0569 -0.9877
vn 0.5878 -0.7814 -0.2094
vn 0.5146 -0.0561 0.8556
vn 0.5146 -0.3792 0.7690
vn 0.8525 -0.3823 0.3564
vn 0.8525 0.1529 0.4998
vn -0.0000 -0.3050 -0.9524
vn 0.3180 -0.2052 -0.9256
vn 0.5269 -0.5858 -0.6158
vn -0.0000 -0.7512 -0.6601
vn -0.5878 -0.7814 -0.2094
vn -0.5146 -0.0562 0.8556
vn -0.3180 0.2052 0.9256
vn -0.5269 0.5858 0.6158
vn -0.8525 0.1529 0.4998
vn 0.5146 0.3792 -0.7690
vn 0.3180 0.6405 -0.6990
vn 0.5269 0.8152 -0.2404
vn 0.8525 0.3823 -0.3564
vn -0.5878 0.7814 0.2094
vn 0.3180 -0.6405 0.6990
vn 0.0000 -0.7403 0.6723
vn 0.0000 -0.9806 0.1961
vn 0.5269 -0.8152 0.2404
vn -0.5146 0.3792 -0.7690
vn -0.5146 0.0562 -0.8556
vn -0.8525 -0.1529 -0.4998
vn -0.8525 0.3823 -0.3564
vn 0.3180 0.2052 0.9256
vn 0.5269 0.5858 0.6158
vn -0.5146 -0.3792 0.7690
vn -0.8525 -0.3823 0.3564
vn 0.0000 0.7403 -0.6723
vn 0.0000 0.9806 -0.1961
vn -0.3180 -0.2052 -0.9256
vn -0.5269 -0.5858 -0.6158
vn 0.8525 -0.1529 -0.4998
vn -0.5269 -0.8152 0.2404
vn -0.5269 0.8152 -0.2404
vn -0.0000 0.7511 0.6601
vn -0.3180 0.6405 -0.6990
vn 0.5146 0.0562 -0.8556
vn -0.0000 0.3050 0.9524
vn -0.3180 -0.6405 0.6990
vn 0.5149 0.5596 0.6494
vn -0.0000 0.7212 0.6927
vn -0.0000 0.3959 0.9183
vn 0.3645 0.2815 0.8876
vn 0.0000 0.9566 0.2915
vn -0.5874 0.7722 0.2421
vn 0.5874 0.7722 0.2421
vn 0.9505 0.2895 0.1128
vn -0.5874 -0.7898 -0.1764
vn 0.0000 -0.9742 -0.2258
vn 0.9505 -0.3071 -0.0471
vn 0.5874 -0.7898 -0.1764
vn -0.9505 -0.3071 -0.0471
vn -0.9505 0.2895 0.1128
vn 0.5149 -0.8094 0.2826
vn 0.8330 -0.3863 0.3960
vn 0.5897 -0.3881 0.7082
vn 0.3645 -0.6876 0.6280
vn -0.8330 -0.3863 0.3960
vn -0.5149 -0.8094 0.2826
vn -0.3645 -0.6876 0.6280
vn -0.5897 -0.3881 0.7082
vn -0.5149 0.5596 0.6494
vn -0.3645 0.2815 0.8876
vn 0.8330 0.1366 0.5361
vn 0.5897 -0.0180 0.8074
vn -0.0000 -0.9709 0.2393
vn -0.0000 -0.8020 0.5973
vn -0.8330 0.1366 0.5361
vn -0.5897 -0.0180 0.8074
vn 0.9494 0.3134 0.0224
vn 0.5867 0.7955 0.1516
vn -0.5867 0.7955 0.1516
vn -0.9494 0.3134 0.0224
vn -0.5867 -0.7647 -0.2665
vn 0.0000 -0.9488 -0.3158
vn 0.9494 -0.2826 -0.1373
vn -0.0000 0.9796 0.2009
vn -0.9494 -0.2826 -0.1373
vn 0.5867 -0.7647 -0.2665
vn -0.0000 0.2588 -0.9659
vn -0.9959 0.0874 0.0234
vn -0.9959 0.0862 0.0279
vn 0.0000 0.9930 0.1181
vn 0.9959 0.0874 0.0234
vn 0.9959 0.0862 0.0279
vn 0.0000 0.9190 0.3942
vn 0.0000 0.2150 0.9766
vn 0.0000 0.6745 -0.7383
vn 0.9959 0.0886 0.0190
vn -0.9959 0.0886 0.0190
vn 0.0781 -0.3604 0.9295
vn -0.0000 -0.3849 0.9229
vn 0.1264 -0.2962 0.9467
vn 0.1264 -0.2168 0.9680
vn 0.0781 -0.1526 0.9852
vn -0.0000 -0.1281 0.9918
vn -0.0781 -0.1526 0.9852
vn -0.1264 -0.2168 0.9680
vn -0.1264 -0.2962 0.9467
vn -0.0781 -0.3604 0.9295
vn -0.0000 -0.2588 0.9659
vn 0.0000 -0.5661 0.8243
vn 0.1960 -0.5046 0.8408
vn 0.3171 -0.3435 0.8840
vn 0.3171 -0.1445 0.9373
vn 0.1960 0.0166 0.9805
vn -0.0000 0.0781 0.9969
vn -0.1960 0.0166 0.9805
vn -0.3171 -0.1445 0.9373
vn -0.3171 -0.3435 0.8840
vn -0.1960 -0.5046 0.8408
vn -0.3090 0.9186 0.2462
vn 0.3090 0.9186 0.2462
vn 0.0000 0.8090 -0.5878
vn 0.0000 0.3090 0.9511
vn 0.0000 -0.3090 0.9511
vn 0.0000 -0.8090 0.5878
vn 0.0000 -0.8090 -0.5878
vn 0.0000 -0.3090 -0.9511
vn 0.0000 0.3090 -0.9511
vn -0.0000 0.8090 0.5878
vn 0.7246 0.6892 0.0000
vn 0.7246 0.5575 0.4051
vn -0.7246 0.5575 0.4051
vn -0.7246 0.6892 0.0000
vn 0.7246 0.2130 0.6554
vn -0.7246 0.2130 0.6554
vn 0.7246 -0.2130 0.6554
vn -0.7246 -0.2130 0.6554
vn 0.7246 -0.5575 0.4051
vn -0.7246 -0.5575 0.4051
vn 0.7246 -0.6892 0.0000
vn -0.7246 -0.6892 0.0000
vn 0.7246 -0.5575 -0.4051
vn -0.7246 -0.5575 -0.4051
vn 0.7246 -0.2130 -0.6554
vn -0.7246 -0.2130 -0.6554
vn 0.7246 0.2130 -0.6554
vn -0.7246 0.2130 -0.6554
vn 0.7246 0.5575 -0.4051
vn -0.7246 0.5575 -0.4051
vn 0.0000 -0.5000 0.8660
vn -0.0000 -0.5000 -0.8660
vn -0.0000 0.5000 -0.8660
vn 0.0000 0.5000 0.8660
usemtl gothgirl
s 1
f 15/1/1 17/2/1 6/3/2 2/4/2
f 9/5/3 11/6/3 18/7/4 14/8/4
f 10/9/5 4/10/6 16/11/7
f 3/12/8 5/13/8 12/14/9 8/15/9
f 1/16/10 2/4/11 3/12/12
f 4/10/6 5/13/13 6/3/14
f 7/17/15 8/15/16 9/5/17
f 10/9/5 11/6/18 12/14/19
f 13/18/20 14/8/21 15/1/22
f 16/11/7 17/2/23 18/7/24
f 3/12/12 8/15/16 7/17/15 1/16/10
f 12/14/19 5/13/13 4/10/6 10/9/5
f 2/4/25 6/3/25 5/13/8 3/12/8
f 11/6/26 9/5/26 8/15/9 12/14/9
f 9/5/17 14/8/21 13/18/20 7/17/15
f 18/7/24 11/6/18 10/9/5 16/11/7
f 17/2/1 15/1/1 14/8/4 18/7/4
f 15/1/22 2/4/11 1/16/10 13/18/20
f 6/3/14 17/2/23 16/11/7 4/10/6
f 1/16/10 7/17/15 13/18/20
f 19/19/27 20/20/27 22/21/28 21/22/28
f 21/22/28 22/21/28 24/23/29 23/24/29
f 23/24/29 24/23/29 26/25/30 25/26/30
f 25/26/30 26/25/30 28/27/31 27/28/31
f 27/28/31 28/27/31 30/29/32 29/30/32
f 29/30/32 30/29/32 32/31/33 31/32/33
f 31/32/33 32/31/33 20/20/27 19/19/27
f 31/33/34 19/34/35 33/35/36 39/36/37
f 62/37/38 134/38/39 137/39/40
f 21/40/41 23/41/42 35/42/43 34/43/44
f 27/44/45 29/45/46 38/46/47 37/47/48
f 19/34/35 21/40/41 34/43/44 33/35/36
f 23/41/42 25/48/49 36/49/50 35/42/43
f 29/45/46 31/33/34 39/36/37 38/46/47
f 25/48/49 27/44/45 37/47/48 36/49/50
f 40/50/51 129/51/52 131/52/53
f 40/53/51 125/54/54 127/55/55
f 33/56/36 34/57/44 122/58/28 121/59/27
f 40/53/51 131/60/53 133/61/56
f 40/50/51 127/62/55 129/51/52
f 40/63/51 133/64/56 120/65/57
f 39/66/37 33/56/36 121/59/27 132/67/33
f 34/57/44 35/68/43 124/69/29 122/58/28
f 35/68/43 36/70/50 126/71/30 124/69/29
f 36/70/50 37/72/48 128/73/31 126/71/30
f 37/72/48 38/74/47 130/75/32 128/73/31
f 38/74/47 39/66/37 132/67/33 130/75/32
f 40/63/51 123/76/58 125/77/54
f 41/78/59 42/79/59 44/80/60 43/81/60
f 43/81/60 44/80/60 46/82/61 45/83/61
f 45/83/61 46/82/61 48/84/62 47/85/62
f 47/85/62 48/84/62 50/86/63 49/87/63
f 49/87/63 50/86/63 52/88/64 51/89/64
f 51/89/64 52/88/64 54/90/65 53/91/65
f 53/91/65 54/90/65 42/79/59 41/78/59
f 53/92/66 41/93/67 55/94/68 61/95/69
f 84/96/70 148/97/71 151/98/72
f 43/99/73 45/100/74 57/101/75 56/102/76
f 49/103/77 51/104/78 60/105/79 59/106/80
f 41/93/67 43/99/73 56/102/76 55/94/68
f 45/100/74 47/107/81 58/108/82 57/101/75
f 51/104/78 53/92/66 61/95/69 60/105/79
f 47/107/81 49/103/77 59/106/80 58/108/82
f 62/109/38 143/110/83 145/111/84
f 62/112/38 139/113/85 141/114/86
f 55/115/68 56/116/76 136/117/60 135/118/59
f 62/112/38 145/119/84 147/120/87
f 62/109/38 141/121/86 143/110/83
f 62/122/38 147/123/87 134/124/39
f 61/125/69 55/115/68 135/118/59 146/126/65
f 56/116/76 57/127/75 138/128/61 136/117/60
f 57/127/75 58/129/82 140/130/62 138/128/61
f 58/129/82 59/131/80 142/132/63 140/130/62
f 59/131/80 60/133/79 144/134/64 142/132/63
f 60/133/79 61/125/69 146/126/65 144/134/64
f 62/122/38 137/135/40 139/136/85
f 63/137/88 64/138/88 66/139/89 65/140/89
f 65/140/89 66/139/89 68/141/90 67/142/90
f 67/142/90 68/141/90 70/143/91 69/144/91
f 69/144/91 70/143/91 72/145/92 71/146/92
f 71/146/92 72/145/92 74/147/93 73/148/93
f 73/148/93 74/147/93 76/149/94 75/150/94
f 75/150/94 76/149/94 64/138/88 63/137/88
f 75/151/95 63/152/96 77/153/97 83/154/98
f 65/155/99 67/156/100 79/157/101 78/158/102
f 71/159/103 73/160/104 82/161/105 81/162/106
f 63/152/96 65/155/99 78/158/102 77/153/97
f 67/156/100 69/163/107 80/164/108 79/157/101
f 73/160/104 75/151/95 83/154/98 82/161/105
f 69/163/107 71/159/103 81/162/106 80/164/108
f 84/165/70 157/166/109 159/167/110
f 84/168/70 153/169/111 155/170/112
f 77/171/97 78/172/102 150/173/89 149/174/88
f 84/168/70 159/175/110 161/176/113
f 84/165/70 155/177/112 157/166/109
f 84/178/70 161/179/113 148/180/71
f 83/181/98 77/171/97 149/174/88 160/182/94
f 78/172/102 79/183/101 152/184/90 150/173/89
f 79/183/101 80/185/108 154/186/91 152/184/90
f 80/185/108 81/187/106 156/188/92 154/186/91
f 81/187/106 82/189/105 158/190/93 156/188/92
f 82/189/105 83/181/98 160/182/94 158/190/93
f 84/178/70 151/191/72 153/192/111
f 97/193/114 117/194/114 100/195/25 85/196/25
f 87/197/115 102/198/115 105/199/116 89/200/116
f 89/200/116 105/199/116 108/201/117 91/202/117
f 91/202/117 108/201/117 111/203/118 93/204/118
f 93/204/118 111/203/118 114/205/119 95/206/119
f 88/207/120 86/208/120 98/209/120 96/210/120 94/211/120 92/212/120 90/213/120
f 95/206/119 114/205/119 117/194/114 97/193/114
f 85/196/25 100/195/25 102/198/115 87/197/115
f 85/196/121 87/197/121 89/200/121 91/202/121 93/204/121 95/206/121 97/193/121
f 115/214/119 96/210/119 98/209/114 118/215/114
f 112/216/118 94/211/118 96/210/119 115/214/119
f 109/217/117 92/212/117 94/211/118 112/216/118
f 106/218/116 90/213/116 92/212/117 109/217/117
f 99/219/25 86/208/25 88/207/115 103/220/115
f 103/220/115 88/207/115 90/213/116 106/218/116
f 118/221/122 99/222/123 101/223/123 119/224/122
f 119/225/124 101/226/125 100/227/125 117/228/124
f 115/229/126 118/221/122 119/224/122 116/230/126
f 116/231/127 119/225/124 117/228/124 114/232/127
f 112/233/128 115/229/126 116/230/126 113/234/128
f 113/235/129 116/231/127 114/232/127 111/236/129
f 109/237/130 112/233/128 113/234/128 110/238/130
f 110/239/131 113/235/129 111/236/129 108/240/131
f 106/241/132 109/237/130 110/238/130 107/242/132
f 107/243/133 110/239/131 108/240/131 105/244/133
f 103/245/134 106/241/132 107/242/132 104/246/134
f 104/247/135 107/243/133 105/244/133 102/248/135
f 99/222/123 103/245/134 104/246/134 101/223/123
f 101/226/125 104/247/135 102/248/135 100/227/125
f 118/215/114 98/209/114 86/208/25 99/219/25
f 121/59/136 122/58/137 123/249/137 120/250/136
f 122/58/137 124/69/138 125/77/138 123/76/137
f 124/69/138 126/71/139 127/55/139 125/54/138
f 126/71/139 128/73/140 129/51/140 127/62/139
f 128/73/140 130/75/141 131/52/141 129/51/140
f 130/75/141 132/67/142 133/61/142 131/60/141
f 132/67/142 121/59/136 120/65/136 133/64/142
f 135/118/143 136/117/144 137/39/144 134/38/143
f 136/117/144 138/128/145 139/136/145 137/135/144
f 138/128/145 140/130/146 141/114/146 139/113/145
f 140/130/146 142/132/147 143/110/147 141/121/146
f 142/132/147 144/134/148 145/111/148 143/110/147
f 144/134/148 146/126/149 147/120/149 145/119/148
f 146/126/149 135/118/143 134/124/143 147/123/149
f 149/174/150 150/173/151 151/98/151 148/97/150
f 150/173/151 152/184/152 153/192/152 151/191/151
f 152/184/152 154/186/153 155/170/153 153/169/152
f 154/186/153 156/188/154 157/166/154 155/177/153
f 156/188/154 158/190/155 159/167/155 157/166/154
f 158/190/155 160/182/156 161/176/156 159/175/155
f 160/182/156 149/174/150 148/180/150 161/179/156
f 40/251/51 120/250/57 123/249/58
f 176/252/33 203/253/33 186/254/27 170/255/27
f 172/256/29 191/257/29 194/258/30 173/259/30
f 173/259/30 194/258/30 197/260/31 174/261/31
f 174/261/31 197/260/31 200/262/32 175/263/32
f 175/263/32 200/262/32 203/253/33 176/252/33
f 170/255/27 186/254/27 188/264/28 171/265/28
f 162/266/157 163/267/158 164/268/159
f 162/269/157 165/270/160 163/267/158
f 162/271/157 166/272/161 165/270/160
f 162/271/157 167/273/162 166/272/161
f 162/269/157 168/274/163 167/273/162
f 162/266/157 169/275/164 168/274/163
f 162/276/157 164/268/159 169/275/164
f 174/277/165 175/278/166 181/279/166 180/280/165
f 172/281/167 173/282/168 179/283/168 178/284/169
f 170/285/170 171/286/171 177/287/171 184/288/170
f 175/278/166 176/289/172 182/290/172 181/279/166
f 173/282/168 174/277/165 180/280/165 179/283/168
f 171/286/171 172/281/167 178/284/169 177/287/171
f 176/289/172 170/285/170 184/288/170 182/290/172
f 218/291/173 182/292/173 184/293/174 207/294/174
f 210/295/175 178/296/175 179/297/176 212/298/176
f 212/298/176 179/297/176 180/299/177 214/300/177
f 214/300/177 180/299/177 181/301/178 216/302/178
f 216/302/178 181/301/178 182/292/173 218/291/173
f 208/303/179 177/304/179 178/296/175 210/295/175
f 183/305/51 219/306/180 206/307/181
f 183/308/51 217/309/182 219/310/180
f 183/311/51 215/312/183 217/313/182
f 183/311/51 213/314/184 215/312/183
f 183/308/51 211/315/185 213/316/184
f 183/305/51 209/317/186 211/318/185
f 183/319/51 206/320/181 209/321/186
f 171/265/28 188/264/28 191/257/29 172/256/29
f 201/322/32 168/274/32 169/275/33 204/323/33
f 198/324/31 167/273/31 168/274/32 201/322/32
f 195/325/30 166/272/30 167/273/31 198/324/31
f 192/326/29 165/270/29 166/272/30 195/325/30
f 189/327/28 163/267/28 165/270/29 192/326/29
f 185/328/27 164/268/27 163/267/28 189/327/28
f 204/329/187 185/330/188 187/331/188 205/332/187
f 205/333/189 187/334/35 186/335/35 203/336/189
f 201/337/190 204/329/187 205/332/187 202/338/190
f 202/339/191 205/333/189 203/336/189 200/340/191
f 198/341/192 201/337/190 202/338/190 199/342/192
f 199/343/193 202/339/191 200/340/191 197/344/193
f 195/345/194 198/341/192 199/342/192 196/346/194
f 196/347/195 199/343/193 197/344/193 194/348/195
f 192/349/196 195/345/194 196/346/194 193/350/196
f 193/351/197 196/347/195 194/348/195 191/352/197
f 189/353/198 192/349/196 193/350/196 190/354/198
f 190/355/199 193/351/197 191/352/197 188/356/199
f 185/330/188 189/353/198 190/354/198 187/331/188
f 187/334/35 190/355/199 188/356/199 186/335/35
f 204/323/33 169/275/33 164/268/27 185/328/27
f 207/357/200 208/358/201 209/359/201 206/360/200
f 208/358/201 210/361/202 211/362/202 209/363/201
f 210/361/202 212/364/203 213/365/203 211/366/202
f 212/364/203 214/367/204 215/368/204 213/369/203
f 214/367/204 216/370/205 217/371/205 215/368/204
f 216/370/205 218/372/206 219/373/206 217/374/205
f 218/372/206 207/357/200 206/375/200 219/376/206
f 207/294/174 184/293/174 177/304/179 208/303/179
f 276/377/207 269/378/208 224/379/209 272/380/210
f 277/381/211 234/382/212 239/383/213 279/384/214
f 279/384/214 239/383/213 244/385/215 281/386/216
f 281/386/216 244/385/215 249/387/217 283/388/218
f 283/388/218 249/387/217 254/389/219 285/390/220
f 285/390/220 254/389/219 259/391/221 287/392/222
f 287/392/222 259/391/221 264/393/223 289/394/224
f 289/394/224 264/393/223 269/378/208 276/377/207
f 273/395/225 229/396/226 234/382/212 277/381/211
f 272/380/210 224/379/209 229/396/226 273/395/225
f 221/397/227 227/398/228 228/399/229 222/400/230
f 222/400/230 228/399/229 226/401/231 220/402/232
f 229/396/226 224/379/209 225/403/233 230/404/234
f 230/404/234 225/403/233 331/405/235 332/406/236
f 227/398/228 232/407/237 233/408/238 228/399/229
f 228/399/229 233/408/238 231/409/239 226/401/231
f 234/382/212 229/396/226 230/404/234 235/410/240
f 235/410/240 230/404/234 332/406/236 333/411/241
f 232/407/237 237/412/242 238/413/243 233/408/238
f 233/408/238 238/413/243 236/414/244 231/409/239
f 239/383/213 234/382/212 235/410/240 240/415/245
f 240/415/245 235/410/240 333/411/241 334/416/246
f 237/412/242 242/417/247 243/418/248 238/413/243
f 238/413/243 243/418/248 241/419/249 236/414/244
f 244/385/215 239/383/213 240/415/245 245/420/250
f 245/420/250 240/415/245 334/416/246 335/421/251
f 242/417/247 247/422/252 248/423/253 243/418/248
f 243/418/248 248/423/253 246/424/254 241/419/249
f 249/387/217 244/385/215 245/420/250 250/425/255
f 250/425/255 245/420/250 335/421/251 336/426/256
f 247/422/252 252/427/257 253/428/258 248/423/253
f 248/423/253 253/428/258 251/429/259 246/424/254
f 254/389/219 249/387/217 250/425/255 255/430/260
f 255/430/260 250/425/255 336/426/256 337/431/261
f 252/427/257 257/432/262 258/433/263 253/428/258
f 253/428/258 258/433/263 256/434/264 251/429/259
f 259/391/221 254/389/219 255/430/260 260/435/265
f 260/435/265 255/430/260 337/431/261 338/436/266
f 257/432/262 262/437/267 263/438/268 258/433/263
f 258/433/263 263/438/268 261/439/269 256/434/264
f 264/393/223 259/391/221 260/435/265 265/440/270
f 265/440/270 260/435/265 338/436/266 339/441/271
f 262/437/267 267/442/272 268/443/273 263/438/268
f 263/438/268 268/443/273 266/444/274 261/439/269
f 269/378/208 264/393/223 265/440/270 270/445/275
f 270/445/275 265/440/270 339/441/271 340/446/276
f 267/442/272 221/397/227 222/400/230 268/443/273
f 268/443/273 222/400/230 220/402/232 266/444/274
f 224/379/209 269/378/208 270/445/275 225/403/233
f 225/403/233 270/445/275 340/446/276 331/405/235
f 387/447/9 374/448/9 375/449/214 386/450/214
f 221/397/227 271/451/210 274/452/277 227/398/228
f 280/453/278 278/454/279 298/455/280 300/456/281
f 227/398/228 274/452/277 278/457/211 232/407/237
f 272/458/282 273/459/283 293/460/284 292/461/285
f 262/437/267 290/462/224 275/463/286 267/442/272
f 288/464/287 286/465/288 306/466/289 308/467/290
f 257/432/262 288/468/222 290/462/224 262/437/267
f 279/469/291 281/470/292 301/471/293 299/472/294
f 252/427/257 286/473/295 288/468/222 257/432/262
f 274/474/296 271/475/297 291/476/298 294/477/299
f 247/422/252 284/478/218 286/473/295 252/427/257
f 287/479/300 289/480/301 309/481/302 307/482/303
f 242/417/247 282/483/216 284/478/218 247/422/252
f 282/484/304 280/453/278 300/456/281 302/485/305
f 237/412/242 280/486/214 282/483/216 242/417/247
f 290/487/306 288/464/287 308/467/290 310/488/307
f 232/407/237 278/457/211 280/486/214 237/412/242
f 281/470/292 283/489/308 303/490/309 301/471/293
f 267/442/272 275/463/286 271/451/210 221/397/227
f 289/480/301 276/491/310 296/492/311 309/481/302
f 291/476/298 292/461/285 293/460/284 294/477/299
f 294/477/299 293/460/284 297/493/312 298/455/280
f 310/488/307 309/481/302 296/492/311 295/494/313
f 308/467/290 307/482/303 309/481/302 310/488/307
f 306/466/289 305/495/314 307/482/303 308/467/290
f 304/496/315 303/490/309 305/495/314 306/466/289
f 302/485/305 301/471/293 303/490/309 304/496/315
f 300/456/281 299/472/294 301/471/293 302/485/305
f 298/455/280 297/493/312 299/472/294 300/456/281
f 295/494/313 296/492/311 292/461/285 291/476/298
f 285/497/316 287/479/300 307/482/303 305/495/314
f 278/454/279 274/474/296 294/477/299 298/455/280
f 277/498/317 279/469/291 299/472/294 297/493/312
f 286/465/288 284/499/318 304/496/315 306/466/289
f 273/459/283 277/498/317 297/493/312 293/460/284
f 271/475/297 275/500/319 295/494/313 291/476/298
f 283/489/308 285/497/316 305/495/314 303/490/309
f 275/500/319 290/487/306 310/488/307 295/494/313
f 276/491/310 272/458/282 292/461/285 296/492/311
f 284/499/318 282/484/304 302/485/305 304/496/315
f 315/501/320 316/502/321 358/503/322 357/504/323
f 246/505/324 251/506/325 317/507/325 316/502/324
f 241/508/326 246/505/324 316/502/324 315/501/326
f 236/509/327 241/508/326 315/501/326 314/510/327
f 266/511/328 220/512/329 312/513/329 320/514/328
f 231/515/330 236/509/327 314/510/327 313/516/330
f 226/517/331 231/515/330 313/516/330 311/518/331
f 220/512/329 226/517/331 311/518/331 312/513/329
f 261/519/332 266/511/328 320/514/328 319/520/332
f 256/521/333 261/519/332 319/520/332 318/522/333
f 311/518/334 313/516/335 355/523/336 353/524/337
f 319/520/338 320/514/339 362/525/340 361/526/341
f 316/502/321 317/507/342 359/527/343 358/503/322
f 313/516/335 314/510/344 356/528/345 355/523/336
f 320/514/339 312/513/346 354/529/347 362/525/340
f 317/507/342 318/522/348 360/530/349 359/527/343
f 314/510/344 315/501/320 357/504/323 356/528/345
f 312/513/346 311/518/334 353/524/337 354/529/347
f 318/522/348 319/520/338 361/526/341 360/530/349
f 324/531/350 325/532/351 368/533/351 367/534/350
f 327/535/352 328/536/353 371/537/353 370/538/352
f 330/539/354 322/540/355 365/541/355 373/542/354
f 323/543/356 324/531/350 367/534/350 366/544/356
f 326/545/357 327/535/352 370/538/352 369/546/357
f 329/547/358 330/539/354 373/542/354 372/548/358
f 321/549/359 323/543/356 366/544/356 363/550/359
f 325/532/351 326/545/357 369/546/357 368/533/351
f 328/536/353 329/547/358 372/548/358 371/537/353
f 322/540/355 321/549/359 363/550/359 365/541/355
f 223/551/360 332/406/236 331/405/235
f 223/552/360 333/411/241 332/406/236
f 223/552/360 334/416/246 333/411/241
f 223/551/360 335/421/251 334/416/246
f 223/553/360 336/426/256 335/421/251
f 223/554/360 337/431/261 336/426/256
f 223/555/360 338/436/266 337/431/261
f 223/555/360 339/441/271 338/436/266
f 223/554/360 340/446/276 339/441/271
f 223/553/360 331/405/235 340/446/276
f 349/556/361 342/557/362 344/558/362 350/559/361
f 345/560/363 352/561/363 349/562/363 341/563/363
f 351/564/364 348/565/365 346/566/365 352/567/364
f 352/568/366 346/569/366 342/570/366 349/571/366
f 343/572/367 347/573/367 345/574/367 341/575/367
f 348/565/368 344/558/368 342/557/368 346/566/368
f 347/573/369 351/564/364 352/567/364 345/574/369
f 341/575/370 349/556/361 350/559/361 343/572/370
f 321/576/371 322/577/372 354/529/347 353/524/337
f 323/578/373 321/576/371 353/524/337 355/523/336
f 324/579/374 323/578/373 355/523/336 356/528/345
f 325/580/375 324/579/374 356/528/345 357/504/323
f 326/581/376 325/580/375 357/504/323 358/503/322
f 327/582/377 326/581/376 358/503/322 359/527/343
f 328/583/378 327/582/377 359/527/343 360/530/349
f 329/584/379 328/583/378 360/530/349 361/526/341
f 330/585/380 329/584/379 361/526/341 362/525/340
f 322/577/372 330/585/380 362/525/340 354/529/347
f 364/586/381 365/541/382 363/550/383
f 364/586/381 363/550/383 366/544/384
f 364/586/381 366/544/384 367/534/385
f 364/586/381 367/534/385 368/533/386
f 364/586/381 368/533/386 369/546/387
f 364/586/381 369/546/387 370/538/388
f 364/586/381 370/538/388 371/537/389
f 364/586/381 371/537/389 372/548/390
f 364/586/381 372/548/390 373/542/391
f 364/586/381 373/542/391 365/541/382
f 385/587/220 376/588/220 377/589/222 384/590/222
f 382/591/218 379/592/218 376/588/220 385/587/220
f 383/593/216 378/594/216 379/592/218 382/591/218
f 386/450/214 375/449/214 378/594/216 383/593/216
f 384/590/222 377/589/222 380/595/1 381/596/1
f 251/506/325 256/521/333 318/522/333 317/507/325
f 401/597/1 400/598/224 393/599/224 394/600/1
f 395/601/225 399/602/211 391/603/211 392/604/225
f 380/595/392 388/605/392 398/606/392 381/596/392
f 387/447/393 401/597/393 394/600/393 374/448/393
f 396/607/210 395/601/225 392/604/225 389/608/210
f 397/609/207 396/607/210 389/608/210 390/610/207
f 400/598/224 397/609/207 390/610/207 393/599/224
f 399/602/211 398/606/9 388/605/9 391/603/211
f 383/593/360 382/591/360 396/607/360 397/609/360
f 379/592/381 378/594/381 390/610/381 389/608/381
f 380/595/381 377/589/381 391/603/381 388/605/381
f 387/447/360 386/450/360 400/598/360 401/597/360
f 377/589/381 376/588/381 392/604/381 391/603/381
f 386/450/360 383/593/360 397/609/360 400/598/360
f 376/588/381 379/592/381 389/608/381 392/604/381
f 382/591/360 385/587/360 395/601/360 396/607/360
f 378/594/381 375/449/381 393/599/381 390/610/381
f 385/587/360 384/590/360 399/602/360 395/601/360
f 375/449/381 374/448/381 394/600/381 393/599/381
f 384/590/360 381/596/360 398/606/360 399/602/360
f 422/611/394 423/612/394 403/613/120 402/614/120
f 406/615/395 407/616/395 409/617/396 408/618/396
f 408/618/396 409/617/396 411/619/397 410/620/397
f 410/620/397 411/619/397 414/621/121 412/622/121
f 412/622/121 414/621/121 417/623/398 416/624/398
f 416/624/398 417/623/398 419/625/399 418/626/399
f 418/626/399 419/625/399 421/627/400 420/628/400
f 420/628/400 421/627/400 423/612/394 422/611/394
f 404/629/401 405/630/401 407/616/395 406/615/395
f 402/614/120 403/613/120 405/630/401 404/629/401
f 402/631/402 404/632/403 424/633/403 425/634/402
f 405/635/404 403/636/405 426/637/405 427/638/404
f 404/632/403 406/639/406 428/640/406 424/633/403
f 407/641/407 405/635/404 427/638/404 429/642/407
f 406/639/406 408/643/408 430/644/408 428/640/406
f 409/645/409 407/641/407 429/642/407 431/646/409
f 408/643/408 410/647/410 432/648/410 430/644/408
f 411/649/411 409/645/409 431/646/409 433/650/411
f 410/647/410 412/651/412 434/652/412 432/648/410
f 414/653/413 411/649/411 433/650/411 435/654/413
f 412/651/412 416/655/414 436/656/414 434/652/412
f 417/657/415 414/653/413 435/654/413 437/658/415
f 416/655/414 418/659/416 438/660/416 436/656/414
f 419/661/417 417/657/415 437/658/415 439/662/417
f 418/659/416 420/663/418 440/664/418 438/660/416
f 421/665/419 419/661/417 439/662/417 441/666/419
f 420/663/418 422/667/420 442/668/420 440/664/418
f 423/669/421 421/665/419 441/666/419 443/670/421
f 422/667/420 402/631/402 425/634/402 442/668/420
f 403/636/405 423/669/421 443/670/421 426/637/405
f 415/671/9 425/672/9 424/673/9
f 413/674/1 427/675/1 426/676/1
f 415/671/9 424/673/9 428/677/9
f 413/674/1 429/678/1 427/675/1
f 415/671/9 428/677/9 430/679/9
f 413/674/1 431/680/1 429/678/1
f 415/671/9 430/679/9 432/681/9
f 413/674/1 433/682/1 431/680/1
f 415/671/9 432/681/9 434/683/9
f 413/674/1 435/684/1 433/682/1
f 415/671/9 434/683/9 436/685/9
f 413/674/1 437/686/1 435/684/1
f 415/671/9 436/685/9 438/687/9
f 413/674/1 439/688/1 437/686/1
f 415/671/9 438/687/9 440/689/9
f 413/674/1 441/690/1 439/688/1
f 415/671/9 440/689/9 442/691/9
f 413/674/1 443/692/1 441/690/1
f 415/671/9 442/691/9 425/672/9
f 413/674/1 426/676/1 443/692/1
f 446/693/3 449/694/3 448/695/422 447/696/422
f 447/696/121 448/695/121 451/697/121 450/698/121
f 450/698/423 451/697/423 453/699/25 452/700/25
f 452/700/25 453/699/25 455/701/424 454/702/424
f 454/702/120 455/701/120 457/703/120 456/704/120
f 456/704/425 457/703/425 449/694/3 446/693/3
f 444/705/9 446/706/9 447/707/9
f 445/708/1 448/709/1 449/710/1
f 444/705/9 447/707/9 450/711/9
f 445/708/1 451/712/1 448/709/1
f 444/705/9 450/711/9 452/713/9
f 445/708/1 453/714/1 451/712/1
f 444/705/9 452/713/9 454/715/9
f 445/708/1 455/716/1 453/714/1
f 444/705/9 454/715/9 456/717/9
f 445/708/1 457/718/1 455/716/1
f 444/705/9 456/717/9 446/706/9
f 445/708/1 449/710/1 457/718/1
