# Blender v3.4.1 OBJ File: 'September2026_GothGirl_Assets_Export.blend'
# www.blender.org
mtllib GothGirl_Speaker.mtl
o GothGirl_Speaker
v -0.000000 0.605586 0.265115
v 0.153047 0.771742 0.260315
v -0.000000 0.937897 0.255515
v -0.153048 0.771742 0.260315
v 0.105850 0.658255 0.263593
v 0.103217 0.885228 0.257036
v -0.103217 0.885228 0.257036
v -0.105850 0.658255 0.263593
v 0.175688 0.304349 0.273817
v -0.000000 0.485678 0.268579
v -0.175688 0.304349 0.273817
v -0.000000 0.123019 0.279056
v 0.118429 0.428199 0.270239
v -0.118429 0.428199 0.270239
v -0.121565 0.180498 0.277395
v 0.121565 0.180498 0.277395
v -0.323558 0.043478 0.259738
v -0.302561 0.021739 0.260291
v -0.302996 0.043478 0.281354
v -0.317705 0.028106 0.260134
v -0.315435 0.030927 0.272563
v -0.303143 0.028106 0.275443
v -0.317989 0.043478 0.275028
v -0.273914 0.978264 0.254349
v -0.272237 1.000003 0.234204
v -0.292502 0.978264 0.234808
v -0.273137 0.993636 0.248179
v -0.284386 0.990815 0.245734
v -0.286258 0.993636 0.234386
v -0.287468 0.978264 0.248630
v -0.272194 0.021739 -0.303672
v -0.293256 0.043478 -0.303023
v -0.270532 0.043478 -0.324639
v -0.287357 0.028106 -0.303488
v -0.283844 0.030927 -0.315904
v -0.286158 0.043478 -0.318313
v -0.271263 0.028106 -0.318797
v -0.265108 0.978264 -0.273938
v -0.244914 1.000003 -0.273238
v -0.244566 0.978264 -0.293479
v -0.258913 0.993636 -0.273448
v -0.255905 0.990815 -0.284809
v -0.244413 0.993636 -0.287241
v -0.258692 0.978264 -0.287761
v 0.302561 0.021739 0.260291
v 0.323558 0.043478 0.259738
v 0.302996 0.043478 0.281354
v 0.317705 0.028106 0.260134
v 0.315435 0.030927 0.272563
v 0.317989 0.043478 0.275028
v 0.303143 0.028106 0.275443
v 0.292502 0.978264 0.234808
v 0.272237 1.000003 0.234204
v 0.273914 0.978264 0.254349
v 0.286258 0.993636 0.234386
v 0.284386 0.990815 0.245734
v 0.273137 0.993636 0.248179
v 0.287468 0.978264 0.248630
v 0.270532 0.043478 -0.324639
v 0.293256 0.043478 -0.303023
v 0.272194 0.021739 -0.303672
v 0.286158 0.043478 -0.318313
v 0.283844 0.030927 -0.315904
v 0.287357 0.028106 -0.303488
v 0.271263 0.028106 -0.318797
v 0.244566 0.978264 -0.293479
v 0.244914 1.000003 -0.273238
v 0.265108 0.978264 -0.273938
v 0.244413 0.993636 -0.287241
v 0.255905 0.990815 -0.284809
v 0.258913 0.993636 -0.273448
v 0.258692 0.978264 -0.287761
v -0.000000 0.043478 0.281354
v 0.000000 0.021739 0.260291
v -0.000000 0.028106 0.275449
v -0.000000 0.978264 0.254349
v 0.000000 1.000003 0.234204
v -0.000000 0.993636 0.248184
v -0.299363 0.771742 0.240316
v -0.280339 0.771742 0.260315
v -0.294205 0.771742 0.254457
v 0.299363 0.771742 0.240316
v 0.280339 0.771742 0.260315
v 0.294205 0.771742 0.254457
v 0.314891 0.304349 0.252781
v 0.294880 0.304349 0.273817
v 0.309466 0.304349 0.267656
v -0.314891 0.304349 0.252781
v -0.294880 0.304349 0.273817
v -0.309466 0.304349 0.267656
v -0.000000 0.510412 0.308716
v 0.103031 0.482805 0.308716
v 0.178456 0.407381 0.308716
v 0.206063 0.304349 0.308716
v 0.178456 0.201317 0.308716
v 0.103031 0.125893 0.308716
v -0.000000 0.098285 0.308716
v -0.103032 0.125893 0.308716
v -0.178457 0.201317 0.308716
v -0.206064 0.304349 0.308716
v -0.178457 0.407381 0.308716
v -0.103032 0.482805 0.308716
v 0.119393 0.511144 0.308716
v -0.000000 0.543135 0.308716
v 0.206795 0.423742 0.308716
v 0.238786 0.304349 0.308716
v 0.206795 0.184956 0.308716
v 0.119393 0.097554 0.308716
v -0.000000 0.065562 0.308716
v -0.119394 0.097554 0.308716
v -0.206796 0.184956 0.308716
v -0.238787 0.304349 0.308716
v -0.206796 0.423742 0.308716
v -0.119394 0.511144 0.308716
v 0.032851 0.361249 0.209362
v -0.000000 0.370051 0.209362
v 0.056900 0.337200 0.209362
v 0.065702 0.304349 0.209362
v 0.056900 0.271498 0.209362
v 0.032851 0.247449 0.209362
v -0.000000 0.238646 0.209362
v -0.032852 0.247449 0.209362
v -0.056900 0.271498 0.209362
v -0.065703 0.304349 0.209362
v -0.056900 0.337200 0.209362
v -0.032852 0.361249 0.209362
v -0.000000 0.560421 0.231348
v 0.128036 0.526114 0.231348
v 0.221765 0.432385 0.231348
v 0.256072 0.304349 0.231348
v 0.221765 0.176313 0.231348
v 0.128036 0.082584 0.231348
v -0.000000 0.048277 0.231348
v -0.128036 0.082584 0.231348
v -0.221765 0.176313 0.231348
v -0.256072 0.304349 0.231348
v -0.221765 0.432385 0.231348
v -0.128036 0.526114 0.231348
v 0.079343 0.441775 0.270244
v -0.000000 0.463035 0.270244
v 0.137426 0.383692 0.270244
v 0.158685 0.304349 0.270244
v 0.137426 0.225006 0.270244
v 0.079343 0.166923 0.270244
v -0.000000 0.145663 0.270244
v -0.079343 0.166923 0.270244
v -0.137426 0.225006 0.270244
v -0.158686 0.304349 0.270244
v -0.137426 0.383692 0.270244
v -0.079343 0.441775 0.270244
v -0.000000 0.304349 0.245624
v 0.024659 0.347060 0.225577
v -0.000000 0.353667 0.225577
v 0.042711 0.329008 0.225577
v 0.049318 0.304349 0.225577
v 0.042711 0.279690 0.225577
v 0.024659 0.261638 0.225577
v -0.000000 0.255030 0.225577
v -0.024660 0.261638 0.225577
v -0.042711 0.279690 0.225577
v -0.049319 0.304349 0.225577
v -0.042711 0.329008 0.225577
v -0.024660 0.347060 0.225577
v -0.000000 0.927195 0.308716
v 0.077727 0.906369 0.308716
v 0.134627 0.849469 0.308716
v 0.155454 0.771742 0.308716
v 0.134627 0.694015 0.308716
v 0.077727 0.637115 0.308716
v -0.000000 0.616288 0.308716
v -0.077727 0.637115 0.308716
v -0.134627 0.694015 0.308716
v -0.155454 0.771742 0.308716
v -0.134627 0.849469 0.308716
v -0.077727 0.906369 0.308716
v 0.090070 0.927747 0.308716
v -0.000000 0.951882 0.308716
v 0.156006 0.861812 0.308716
v 0.180140 0.771742 0.308716
v 0.156006 0.681672 0.308716
v 0.090070 0.615736 0.308716
v -0.000000 0.591601 0.308716
v -0.090070 0.615736 0.308716
v -0.156006 0.681672 0.308716
v -0.180140 0.771742 0.308716
v -0.156006 0.861812 0.308716
v -0.090070 0.927747 0.308716
v 0.024783 0.814667 0.209362
v -0.000000 0.821307 0.209362
v 0.042925 0.796525 0.209362
v 0.049565 0.771742 0.209362
v 0.042925 0.746959 0.209362
v 0.024783 0.728816 0.209362
v -0.000000 0.722176 0.209362
v -0.024783 0.728816 0.209362
v -0.042926 0.746959 0.209362
v -0.049566 0.771742 0.209362
v -0.042926 0.796525 0.209362
v -0.024783 0.814667 0.209362
v -0.000000 0.964922 0.231348
v 0.096590 0.939041 0.231348
v 0.167299 0.868332 0.231348
v 0.193180 0.771742 0.231348
v 0.167299 0.675151 0.231348
v 0.096590 0.604443 0.231348
v -0.000000 0.578561 0.231348
v -0.096590 0.604443 0.231348
v -0.167299 0.675151 0.231348
v -0.193181 0.771742 0.231348
v -0.167299 0.868332 0.231348
v -0.096590 0.939041 0.231348
v 0.059856 0.875415 0.270244
v -0.000000 0.891454 0.270244
v 0.103674 0.831598 0.270244
v 0.119712 0.771742 0.270244
v 0.103674 0.711885 0.270244
v 0.059856 0.668068 0.270244
v -0.000000 0.652029 0.270244
v -0.059857 0.668068 0.270244
v -0.103674 0.711885 0.270244
v -0.119713 0.771742 0.270244
v -0.103674 0.831598 0.270244
v -0.059857 0.875415 0.270244
v -0.000000 0.771742 0.245624
v 0.018603 0.803963 0.225577
v -0.000000 0.808947 0.225577
v 0.032221 0.790344 0.225577
v 0.037205 0.771742 0.225577
v 0.032221 0.753139 0.225577
v 0.018603 0.739520 0.225577
v -0.000000 0.734536 0.225577
v -0.018603 0.739520 0.225577
v -0.032222 0.753139 0.225577
v -0.037206 0.771742 0.225577
v -0.032222 0.790344 0.225577
v -0.018603 0.803963 0.225577
v 0.171430 0.000000 0.219876
v 0.163044 0.032609 0.228262
v 0.171430 0.000000 0.127952
v 0.163044 0.032609 0.119566
v 0.263354 0.000000 0.219876
v 0.271740 0.032609 0.228262
v 0.263354 0.000000 0.127952
v 0.271740 0.032609 0.119566
v -0.263354 0.000000 0.219876
v -0.271740 0.032609 0.228262
v -0.263354 0.000000 0.127952
v -0.271740 0.032609 0.119566
v -0.171430 0.000000 0.219876
v -0.163044 0.032609 0.228262
v -0.171430 0.000000 0.127952
v -0.163044 0.032609 0.119566
v -0.263354 0.000000 -0.171430
v -0.271740 0.032609 -0.163044
v -0.263354 0.000000 -0.263354
v -0.271740 0.032609 -0.271740
v -0.171430 0.000000 -0.171430
v -0.163044 0.032609 -0.163044
v -0.171430 0.000000 -0.263354
v -0.163044 0.032609 -0.271740
v 0.171430 0.000000 -0.171430
v 0.163044 0.032609 -0.163044
v 0.171430 0.000000 -0.263354
v 0.163044 0.032609 -0.271740
v 0.263354 0.000000 -0.171430
v 0.271740 0.032609 -0.163044
v 0.263354 0.000000 -0.263354
v 0.271740 0.032609 -0.271740
vt 0.891634 0.949701
vt 0.890196 0.949701
vt 0.904525 0.949701
vt 0.918445 0.946088
vt 0.919883 0.946088
vt 0.919883 0.904538
vt 0.919883 0.772662
vt 0.918445 0.772662
vt 0.919883 0.814212
vt 0.910709 0.917094
vt 0.904525 0.946088
vt 0.904525 0.929650
vt 0.890143 0.814212
vt 0.898342 0.801656
vt 0.897385 0.814212
vt 0.917416 0.769049
vt 0.918854 0.769049
vt 0.904525 0.769049
vt 0.900955 0.926286
vt 0.918907 0.904538
vt 0.911665 0.904538
vt 0.908095 0.882790
vt 0.910709 0.826768
vt 0.904525 0.879426
vt 0.904525 0.839324
vt 0.967741 0.800299
vt 0.941959 0.800299
vt 0.941994 0.801358
vt 0.967705 0.801358
vt 0.889167 0.904538
vt 0.889167 0.946088
vt 0.890605 0.946088
vt 0.898342 0.891982
vt 0.900955 0.835960
vt 0.918907 0.814212
vt 0.911665 0.814212
vt 0.918907 0.946088
vt 0.889167 0.772662
vt 0.889167 0.814212
vt 0.890605 0.772662
vt 0.904525 0.772662
vt 0.908095 0.792464
vt 0.904525 0.789100
vt 0.897385 0.904538
vt 0.890143 0.904538
vt 0.890143 0.946088
vt 0.939492 0.803912
vt 0.939793 0.801358
vt 0.939897 0.801826
vt 0.939756 0.803912
vt 0.940520 0.800299
vt 0.940483 0.801358
vt 0.940468 0.803912
vt 0.940468 0.977338
vt 0.940483 0.979892
vt 0.939897 0.979424
vt 0.939756 0.977338
vt 0.940520 0.980951
vt 0.939793 0.979892
vt 0.939492 0.977338
vt 0.941232 0.801358
vt 0.941394 0.801826
vt 0.940930 0.803912
vt 0.941267 0.803912
vt 0.942009 0.803912
vt 0.940930 0.977338
vt 0.941232 0.979892
vt 0.941394 0.979424
vt 0.941267 0.977338
vt 0.941959 0.980951
vt 0.941994 0.979892
vt 0.942009 0.977338
vt 0.969179 0.800299
vt 0.969906 0.801358
vt 0.969803 0.801826
vt 0.969216 0.801358
vt 0.970208 0.803912
vt 0.969943 0.803912
vt 0.969232 0.803912
vt 0.970208 0.977338
vt 0.969906 0.979892
vt 0.969803 0.979424
vt 0.969943 0.977338
vt 0.969179 0.980951
vt 0.969216 0.979892
vt 0.969232 0.977338
vt 0.967691 0.803912
vt 0.968432 0.803912
vt 0.968305 0.801826
vt 0.968769 0.803912
vt 0.968468 0.801358
vt 0.967691 0.977338
vt 0.967705 0.979892
vt 0.968305 0.979424
vt 0.968432 0.977338
vt 0.967741 0.980951
vt 0.968468 0.979892
vt 0.968769 0.977338
vt 0.940468 0.935788
vt 0.939756 0.935788
vt 0.939492 0.935788
vt 0.891634 0.769049
vt 0.969232 0.845462
vt 0.969943 0.845462
vt 0.970208 0.845462
vt 0.954850 0.800299
vt 0.954850 0.801358
vt 0.954850 0.803912
vt 0.954850 0.980951
vt 0.954850 0.979892
vt 0.954850 0.977338
vt 0.939756 0.845462
vt 0.939492 0.845462
vt 0.969232 0.935788
vt 0.969943 0.935788
vt 0.970208 0.935788
vt 0.918907 0.772662
vt 0.890143 0.772662
vt 0.940468 0.845462
vt 0.918854 0.949701
vt 0.917416 0.949701
vt 0.890196 0.769049
vt 0.891684 0.772662
vt 0.891684 0.946088
vt 0.917366 0.946088
vt 0.917366 0.772662
vt 0.687500 0.688398
vt 0.687500 0.684490
vt 0.703425 0.677257
vt 0.704578 0.680642
vt 0.715083 0.657498
vt 0.717080 0.659452
vt 0.719350 0.630507
vt 0.721655 0.630507
vt 0.715083 0.603516
vt 0.717080 0.601562
vt 0.703425 0.583757
vt 0.704578 0.580372
vt 0.687500 0.576524
vt 0.687500 0.572616
vt 0.671575 0.583757
vt 0.670423 0.580372
vt 0.659918 0.603516
vt 0.657921 0.601562
vt 0.655651 0.630507
vt 0.653345 0.630507
vt 0.659918 0.657498
vt 0.657921 0.659452
vt 0.673758 0.564096
vt 0.687500 0.557854
vt 0.687500 0.568565
vt 0.676917 0.573371
vt 0.671575 0.677257
vt 0.670423 0.680642
vt 0.687500 0.677092
vt 0.701243 0.670851
vt 0.711303 0.653800
vt 0.714985 0.630507
vt 0.711303 0.607214
vt 0.701243 0.590163
vt 0.687500 0.583922
vt 0.673758 0.590163
vt 0.663697 0.607214
vt 0.660015 0.630507
vt 0.663697 0.653800
vt 0.673758 0.670851
vt 0.711303 0.581147
vt 0.714985 0.604439
vt 0.708666 0.604439
vt 0.705830 0.586502
vt 0.673758 0.644783
vt 0.663697 0.627732
vt 0.669170 0.622377
vt 0.676917 0.635507
vt 0.701243 0.644783
vt 0.687500 0.651024
vt 0.687500 0.640314
vt 0.698083 0.635507
vt 0.663697 0.581147
vt 0.669170 0.586502
vt 0.701243 0.564096
vt 0.698083 0.573371
vt 0.711303 0.627732
vt 0.705830 0.622377
vt 0.660015 0.604439
vt 0.666335 0.604439
vt 0.687500 0.567158
vt 0.691882 0.565168
vt 0.698083 0.583372
vt 0.687500 0.588178
vt 0.695090 0.559731
vt 0.705830 0.570241
vt 0.696264 0.552304
vt 0.708666 0.552304
vt 0.695090 0.544877
vt 0.705830 0.534367
vt 0.691882 0.539441
vt 0.698083 0.521236
vt 0.687500 0.537451
vt 0.687500 0.516430
vt 0.683119 0.539441
vt 0.676917 0.521236
vt 0.679911 0.544877
vt 0.669170 0.534367
vt 0.678737 0.552304
vt 0.666335 0.552304
vt 0.679911 0.559731
vt 0.669170 0.570241
vt 0.683119 0.565168
vt 0.676917 0.583372
vt 0.691882 0.617303
vt 0.687500 0.619293
vt 0.687500 0.615589
vt 0.690789 0.614095
vt 0.695090 0.611866
vt 0.693197 0.610014
vt 0.687500 0.604439
vt 0.696264 0.604439
vt 0.694078 0.604439
vt 0.695090 0.597013
vt 0.693197 0.598865
vt 0.691882 0.591576
vt 0.690789 0.594784
vt 0.687500 0.589586
vt 0.687500 0.593290
vt 0.683119 0.591576
vt 0.684211 0.594784
vt 0.679911 0.597013
vt 0.681803 0.598865
vt 0.678737 0.604439
vt 0.680922 0.604439
vt 0.679911 0.611866
vt 0.681803 0.610014
vt 0.683119 0.617303
vt 0.684211 0.614095
vt 0.687500 0.740533
vt 0.687500 0.736625
vt 0.703425 0.729393
vt 0.704578 0.732777
vt 0.715083 0.709634
vt 0.717080 0.711587
vt 0.719350 0.682642
vt 0.721655 0.682642
vt 0.715083 0.655651
vt 0.717080 0.653697
vt 0.703425 0.635892
vt 0.704578 0.632508
vt 0.687500 0.628659
vt 0.687500 0.624752
vt 0.671575 0.635892
vt 0.670423 0.632508
vt 0.659918 0.655651
vt 0.657921 0.653697
vt 0.655651 0.682642
vt 0.653345 0.682642
vt 0.659918 0.709634
vt 0.657921 0.711587
vt 0.673758 0.616231
vt 0.687500 0.609990
vt 0.687500 0.620700
vt 0.676917 0.625507
vt 0.671575 0.729393
vt 0.670423 0.732777
vt 0.687500 0.729227
vt 0.701243 0.722986
vt 0.711303 0.705935
vt 0.714985 0.682642
vt 0.711303 0.659350
vt 0.701243 0.642298
vt 0.687500 0.636057
vt 0.673758 0.642298
vt 0.663697 0.659350
vt 0.660015 0.682642
vt 0.663697 0.705935
vt 0.673758 0.722986
vt 0.711303 0.633282
vt 0.714985 0.656575
vt 0.708666 0.656575
vt 0.705830 0.638637
vt 0.673758 0.696918
vt 0.663697 0.679867
vt 0.669170 0.674512
vt 0.676917 0.687643
vt 0.701243 0.696918
vt 0.687500 0.703160
vt 0.687500 0.692449
vt 0.698083 0.687643
vt 0.663697 0.633282
vt 0.669170 0.638637
vt 0.701243 0.616231
vt 0.698083 0.625507
vt 0.711303 0.679867
vt 0.705830 0.674512
vt 0.660015 0.656575
vt 0.666335 0.656575
vt 0.687500 0.619293
vt 0.691882 0.617303
vt 0.698083 0.635507
vt 0.687500 0.640314
vt 0.695090 0.611866
vt 0.705830 0.622377
vt 0.696264 0.604439
vt 0.708666 0.604439
vt 0.695090 0.597013
vt 0.705830 0.586502
vt 0.691882 0.591576
vt 0.698083 0.573371
vt 0.687500 0.589586
vt 0.687500 0.568565
vt 0.683119 0.591576
vt 0.676917 0.573371
vt 0.679911 0.597013
vt 0.669170 0.586502
vt 0.678737 0.604439
vt 0.666335 0.604439
vt 0.679911 0.611866
vt 0.669170 0.622377
vt 0.683119 0.617303
vt 0.676917 0.635507
vt 0.691882 0.669438
vt 0.687500 0.671428
vt 0.687500 0.667724
vt 0.690789 0.666230
vt 0.695090 0.664001
vt 0.693197 0.662149
vt 0.687500 0.656575
vt 0.696264 0.656575
vt 0.694078 0.656575
vt 0.695090 0.649148
vt 0.693197 0.651000
vt 0.691882 0.643711
vt 0.690789 0.646919
vt 0.687500 0.641721
vt 0.687500 0.645425
vt 0.683119 0.643711
vt 0.684211 0.646919
vt 0.679911 0.649148
vt 0.681803 0.651000
vt 0.678737 0.656575
vt 0.680922 0.656575
vt 0.679911 0.664001
vt 0.681803 0.662149
vt 0.683119 0.669438
vt 0.684211 0.666230
vt 0.687505 0.516082
vt 0.684922 0.528884
vt 0.684922 0.528884
vt 0.687505 0.516082
vt 0.718396 0.528884
vt 0.715814 0.516082
vt 0.718396 0.528884
vt 0.715814 0.516082
vt 0.687505 0.508203
vt 0.715814 0.508203
vt 0.715814 0.508203
vt 0.687505 0.508203
vt 0.648775 0.516082
vt 0.646192 0.528884
vt 0.646192 0.528884
vt 0.648775 0.516082
vt 0.679666 0.528884
vt 0.677083 0.516082
vt 0.679666 0.528884
vt 0.677083 0.516082
vt 0.648775 0.508203
vt 0.677083 0.508203
vt 0.677083 0.508203
vt 0.648775 0.508203
vt 0.648775 0.516082
vt 0.646192 0.528884
vt 0.646192 0.528884
vt 0.648775 0.516082
vt 0.679666 0.528884
vt 0.677083 0.516082
vt 0.679666 0.528884
vt 0.677083 0.516082
vt 0.648775 0.508203
vt 0.677083 0.508203
vt 0.677083 0.508203
vt 0.648775 0.508203
vt 0.687505 0.516082
vt 0.684922 0.528884
vt 0.684922 0.528884
vt 0.687505 0.516082
vt 0.718396 0.528884
vt 0.715814 0.516082
vt 0.718396 0.528884
vt 0.715814 0.516082
vt 0.687505 0.508203
vt 0.715814 0.508203
vt 0.715814 0.508203
vt 0.687505 0.508203
vn -0.1908 0.9608 -0.2012
vn -0.1942 0.9635 0.1842
vn 0.0000 0.9772 0.2121
vn 0.9548 0.1952 -0.2243
vn 0.9714 0.1971 0.1321
vn 0.9884 0.0368 0.1472
vn 0.9800 -0.1472 0.1336
vn 0.9631 -0.1452 -0.2264
vn -0.0000 0.0289 0.9996
vn 0.0000 0.2038 0.9790
vn -0.1983 0.0345 0.9795
vn 0.1812 -0.9647 -0.1912
vn 0.1839 -0.9674 0.1741
vn 0.0000 -0.9803 0.1976
vn 0.1983 0.0345 0.9795
vn -0.1812 -0.9647 -0.1912
vn -0.1543 -0.9145 -0.3739
vn 0.1543 -0.9145 -0.3739
vn -0.9884 0.0368 0.1472
vn -0.9714 0.1971 0.1321
vn -0.9548 0.1952 -0.2243
vn 0.1823 0.1950 0.9637
vn -0.9800 -0.1472 0.1336
vn -0.9631 -0.1452 -0.2264
vn -0.0000 -0.1682 0.9858
vn -0.1823 0.1950 0.9637
vn -0.9363 -0.3321 0.1141
vn -0.9110 -0.2956 0.2877
vn -0.9391 -0.1241 0.3205
vn -0.1839 -0.9674 0.1741
vn -0.1659 -0.9190 0.3577
vn -0.3325 -0.8885 0.3163
vn -0.3658 -0.9190 0.1473
vn -0.1843 -0.1493 0.9715
vn -0.3669 -0.1262 0.9217
vn -0.3327 -0.2971 0.8950
vn -0.1629 -0.3339 0.9284
vn -0.1801 0.6888 0.7022
vn -0.3288 0.3324 0.8840
vn -0.3643 0.1804 0.9136
vn -0.7098 0.6896 0.1435
vn -0.3485 0.8767 0.3315
vn -0.9304 0.1824 0.3181
vn -0.8988 0.3339 0.2840
vn -0.3656 -0.9145 -0.1733
vn -0.3293 -0.8785 -0.3462
vn -0.6834 -0.1296 -0.7185
vn -0.8848 -0.2859 -0.3680
vn -0.9217 -0.3260 -0.2104
vn -0.1761 -0.1440 -0.9738
vn -0.1621 -0.3251 -0.9317
vn -0.3234 -0.2850 -0.9023
vn -0.6996 0.6833 -0.2091
vn -0.5699 0.5626 -0.5989
vn -0.6762 0.1937 -0.7108
vn -0.1725 0.6837 -0.7091
vn -0.1745 0.1965 -0.9649
vn 0.3658 -0.9190 0.1473
vn 0.3325 -0.8885 0.3163
vn 0.1659 -0.9190 0.3577
vn 0.9391 -0.1241 0.3205
vn 0.9110 -0.2956 0.2877
vn 0.9363 -0.3321 0.1141
vn 0.1843 -0.1493 0.9715
vn 0.1629 -0.3339 0.9284
vn 0.3327 -0.2971 0.8950
vn 0.3669 -0.1262 0.9217
vn 0.7098 0.6896 0.1435
vn 0.8988 0.3339 0.2841
vn 0.9304 0.1824 0.3181
vn 0.1942 0.9635 0.1842
vn 0.1801 0.6888 0.7022
vn 0.3485 0.8767 0.3315
vn 0.3643 0.1804 0.9136
vn 0.3288 0.3324 0.8840
vn 0.1761 -0.1440 -0.9738
vn 0.6834 -0.1296 -0.7185
vn 0.3234 -0.2850 -0.9023
vn 0.1621 -0.3251 -0.9317
vn 0.9217 -0.3260 -0.2104
vn 0.8848 -0.2859 -0.3680
vn 0.3293 -0.8785 -0.3462
vn 0.3656 -0.9145 -0.1733
vn 0.1745 0.1965 -0.9649
vn 0.1725 0.6837 -0.7091
vn 0.5699 0.5626 -0.5989
vn 0.6762 0.1937 -0.7108
vn 0.1908 0.9608 -0.2012
vn 0.6996 0.6833 -0.2091
vn -0.3887 0.0387 0.9205
vn -0.9387 0.0403 0.3423
vn 0.3887 0.0387 0.9205
vn 0.9387 0.0403 0.3423
vn -0.0000 -0.9219 0.3873
vn 0.0000 -0.3587 0.9334
vn 0.0000 0.6907 0.7231
vn 0.0000 0.9759 0.2180
vn 0.4880 0.8452 0.2180
vn 0.8452 0.4880 0.2180
vn 0.9759 -0.0000 0.2180
vn 0.8452 -0.4880 0.2180
vn 0.4880 -0.8452 0.2180
vn 0.0000 -0.9759 0.2180
vn -0.4880 -0.8452 0.2180
vn -0.8452 -0.4880 0.2180
vn -0.9759 0.0000 0.2180
vn -0.8452 0.4880 0.2180
vn 0.3152 0.5459 0.7763
vn 0.0000 0.6304 0.7763
vn 0.0000 0.5953 0.8035
vn 0.2977 0.5156 0.8035
vn -0.4880 0.8452 0.2180
vn 0.0000 0.0000 1.0000
vn -0.5459 0.3152 0.7763
vn -0.6304 0.0000 0.7763
vn -0.5953 0.0000 0.8035
vn -0.5156 0.2977 0.8035
vn 0.3152 -0.5459 0.7763
vn 0.5459 -0.3152 0.7763
vn 0.5156 -0.2977 0.8035
vn 0.2977 -0.5156 0.8035
vn -0.3152 -0.5459 0.7763
vn -0.0000 -0.6304 0.7763
vn 0.0000 -0.5953 0.8035
vn -0.2977 -0.5156 0.8035
vn 0.5459 0.3152 0.7763
vn 0.5156 0.2977 0.8035
vn -0.3152 0.5459 0.7763
vn -0.2977 0.5156 0.8035
vn -0.5459 -0.3152 0.7763
vn -0.5156 -0.2977 0.8035
vn 0.6304 0.0000 0.7763
vn 0.5953 -0.0000 0.8035
vn -0.0000 -0.5478 0.8366
vn -0.2739 -0.4744 0.8366
vn -0.4744 -0.2739 0.8366
vn -0.5478 0.0000 0.8366
vn -0.4744 0.2739 0.8366
vn -0.2739 0.4744 0.8366
vn 0.0000 0.5478 0.8366
vn 0.2739 0.4744 0.8366
vn 0.4744 0.2739 0.8366
vn 0.5478 -0.0000 0.8366
vn 0.4744 -0.2739 0.8366
vn 0.2739 -0.4744 0.8366
vn 0.3517 0.6092 0.7108
vn -0.0000 0.7034 0.7108
vn 0.0000 0.5725 0.8199
vn 0.2863 0.4958 0.8199
vn 0.6092 0.3517 0.7108
vn 0.4958 0.2863 0.8199
vn 0.7034 -0.0000 0.7108
vn 0.5725 -0.0000 0.8199
vn 0.6092 -0.3517 0.7108
vn 0.4958 -0.2863 0.8199
vn 0.3517 -0.6092 0.7108
vn 0.2863 -0.4958 0.8199
vn 0.0000 -0.7034 0.7108
vn -0.0000 -0.5725 0.8199
vn -0.3517 -0.6092 0.7108
vn -0.2863 -0.4958 0.8199
vn -0.6092 -0.3517 0.7108
vn -0.4958 -0.2863 0.8199
vn -0.7034 0.0000 0.7108
vn -0.5725 -0.0000 0.8199
vn -0.6092 0.3517 0.7108
vn -0.4958 0.2863 0.8199
vn -0.3517 0.6092 0.7108
vn -0.2863 0.4958 0.8199
vn 0.0000 0.9861 0.1662
vn 0.4930 0.8540 0.1662
vn 0.8540 0.4930 0.1662
vn 0.9861 -0.0000 0.1662
vn 0.8540 -0.4930 0.1662
vn 0.4930 -0.8540 0.1662
vn -0.0000 -0.9861 0.1662
vn -0.4930 -0.8540 0.1662
vn -0.8540 -0.4930 0.1662
vn -0.9861 -0.0000 0.1662
vn -0.8540 0.4930 0.1662
vn 0.3663 0.6345 0.6806
vn -0.0000 0.7326 0.6806
vn 0.0000 0.6996 0.7145
vn 0.3498 0.6059 0.7145
vn -0.4930 0.8540 0.1662
vn -0.6345 0.3663 0.6806
vn -0.7326 0.0000 0.6806
vn -0.6996 0.0000 0.7145
vn -0.6059 0.3498 0.7145
vn 0.3663 -0.6345 0.6806
vn 0.6345 -0.3663 0.6806
vn 0.6059 -0.3498 0.7145
vn 0.3498 -0.6059 0.7145
vn -0.3663 -0.6345 0.6806
vn 0.0000 -0.7326 0.6806
vn 0.0000 -0.6996 0.7145
vn -0.3498 -0.6059 0.7145
vn 0.6345 0.3663 0.6806
vn 0.6059 0.3498 0.7145
vn -0.3663 0.6345 0.6806
vn -0.3498 0.6059 0.7145
vn -0.6345 -0.3663 0.6806
vn -0.6059 -0.3498 0.7145
vn 0.7326 -0.0000 0.6806
vn 0.6996 0.0000 0.7145
vn 0.0000 -0.6555 0.7552
vn -0.3277 -0.5677 0.7552
vn -0.5677 -0.3277 0.7552
vn -0.6555 0.0000 0.7552
vn -0.5677 0.3277 0.7552
vn -0.3277 0.5677 0.7552
vn -0.0000 0.6555 0.7552
vn 0.3277 0.5677 0.7552
vn 0.5677 0.3277 0.7552
vn 0.6555 0.0000 0.7552
vn 0.5677 -0.3277 0.7552
vn 0.3277 -0.5677 0.7552
vn 0.3976 0.6887 0.6062
vn -0.0000 0.7953 0.6062
vn 0.0000 0.6688 0.7434
vn 0.3344 0.5792 0.7434
vn 0.6887 0.3977 0.6062
vn 0.5792 0.3344 0.7434
vn 0.7953 -0.0000 0.6062
vn 0.6688 -0.0000 0.7434
vn 0.6887 -0.3976 0.6062
vn 0.5792 -0.3344 0.7434
vn 0.3976 -0.6887 0.6062
vn 0.3344 -0.5792 0.7434
vn -0.0000 -0.7953 0.6062
vn -0.0000 -0.6688 0.7434
vn -0.3977 -0.6887 0.6062
vn -0.3344 -0.5792 0.7434
vn -0.6887 -0.3977 0.6062
vn -0.5792 -0.3344 0.7434
vn -0.7953 -0.0000 0.6062
vn -0.6688 -0.0000 0.7434
vn -0.6887 0.3976 0.6062
vn -0.5792 0.3344 0.7434
vn -0.3977 0.6888 0.6062
vn -0.3344 0.5792 0.7434
vn -0.9685 -0.2491 0.0000
vn 0.0000 -0.2491 -0.9685
vn 0.9685 -0.2491 0.0000
vn 0.0000 -0.2491 0.9685
vn 0.0000 -1.0000 0.0000
usemtl gothgirl
s 1
f 39/1/1 25/2/2 77/3/3
f 68/4/4 52/5/5 82/6/6
f 46/7/7 60/8/8 85/9/6
f 6/10/9 76/11/10 3/12/9
f 89/13/11 15/14/9 11/15/9
f 61/16/12 45/17/13 74/18/14
f 60/8/8 68/4/4 82/6/6 85/9/6
f 7/19/9 3/12/9 76/11/10
f 83/20/15 2/21/9 5/22/9
f 13/23/9 5/22/9 1/24/9 10/25/9
f 61/26/12 31/27/16 37/28/17 65/29/18
f 79/30/19 26/31/20 38/32/21
f 1/24/9 8/33/9 14/34/9 10/25/9
f 86/35/15 83/20/15 5/22/9 13/23/9 9/36/9
f 2/21/9 83/20/15 6/10/9
f 54/37/22 76/11/10 6/10/9
f 17/38/23 88/39/19 32/40/24
f 73/41/25 16/42/9 12/43/9
f 4/44/9 7/19/9 80/45/11
f 7/19/9 76/11/10 24/46/26
f 17/47/23 20/48/27 21/49/28 23/50/29
f 18/51/30 22/52/31 21/49/32 20/48/33
f 19/53/34 23/50/35 21/49/36 22/52/37
f 24/54/26 27/55/38 28/56/39 30/57/40
f 25/58/2 29/59/41 28/56/42 27/55/38
f 26/60/20 30/57/43 28/56/44 29/59/41
f 31/27/16 34/61/45 35/62/46 37/28/17
f 32/63/24 36/64/47 35/62/48 34/61/49
f 33/65/50 37/28/51 35/62/52 36/64/47
f 38/66/21 41/67/53 42/68/54 44/69/55
f 39/70/1 43/71/56 42/68/54 41/67/53
f 40/72/57 44/69/55 42/68/54 43/71/56
f 45/73/13 48/74/58 49/75/59 51/76/60
f 46/77/7 50/78/61 49/75/62 48/74/63
f 47/79/64 51/76/65 49/75/66 50/78/67
f 52/80/5 55/81/68 56/82/69 58/83/70
f 53/84/71 57/85/72 56/82/73 55/81/68
f 54/86/22 58/83/74 56/82/75 57/85/72
f 59/87/76 62/88/77 63/89/78 65/29/79
f 60/90/8 64/91/80 63/89/81 62/88/77
f 61/26/12 65/29/18 63/89/82 64/91/83
f 66/92/84 69/93/85 70/94/86 72/95/87
f 67/96/88 71/97/89 70/94/86 69/93/85
f 68/98/4 72/95/87 70/94/86 71/97/89
f 31/27/16 18/51/30 20/48/33 34/61/45
f 34/61/49 20/48/27 17/47/23 32/63/24
f 80/99/11 24/54/26 30/57/40 81/100/90
f 81/100/91 30/57/43 26/60/20 79/101/19
f 25/58/2 39/70/1 41/67/53 29/59/41
f 29/59/41 41/67/53 38/66/21 26/60/20
f 65/29/79 37/28/51 33/65/50 59/87/76
f 39/70/1 67/96/88 69/93/85 43/71/56
f 43/71/56 69/93/85 66/92/84 40/72/57
f 31/102/16 61/16/12 74/18/14
f 40/72/57 33/65/50 36/64/47 44/69/55
f 45/73/13 61/26/12 64/91/83 48/74/58
f 48/74/63 64/91/80 60/90/8 46/77/7
f 67/96/88 53/84/71 55/81/68 71/97/89
f 71/97/89 55/81/68 52/80/5 68/98/4
f 86/103/15 47/79/64 50/78/67 87/104/92
f 87/104/93 50/78/61 46/77/7 85/105/6
f 74/106/14 45/73/13 51/76/60 75/107/94
f 75/107/95 51/76/65 47/79/64 73/108/25
f 77/109/3 25/58/2 27/55/38 78/110/96
f 78/110/96 27/55/38 24/54/26 76/111/10
f 18/51/30 74/106/14 75/107/94 22/52/31
f 22/52/37 75/107/95 73/108/25 19/53/34
f 53/84/71 77/109/3 78/110/96 57/85/72
f 57/85/72 78/110/96 76/111/10 54/86/22
f 90/112/91 81/100/91 79/101/19 88/113/19
f 83/114/15 86/103/15 87/104/92 84/115/92
f 84/115/93 87/104/93 85/105/6 82/116/6
f 8/33/9 4/44/9 80/45/11
f 83/20/15 54/37/22 6/10/9
f 47/117/64 86/35/15 16/42/9
f 44/69/55 36/64/47 32/63/24 38/66/21
f 68/98/4 60/90/8 62/88/77 72/95/87
f 72/95/87 62/88/77 59/87/76 66/92/84
f 54/86/22 83/114/15 84/115/92 58/83/74
f 58/83/70 84/115/93 82/116/6 52/80/5
f 73/41/25 47/117/64 16/42/9
f 86/35/15 9/36/9 16/42/9
f 19/118/34 73/41/25 15/14/9
f 73/41/25 12/43/9 15/14/9
f 11/15/9 14/34/9 89/13/11
f 14/34/9 8/33/9 80/45/11 89/13/11
f 19/53/34 89/119/11 90/112/90 23/50/35
f 23/50/29 90/112/91 88/113/19 17/47/23
f 88/39/19 79/30/19 38/32/21 32/40/24
f 89/119/11 80/99/11 81/100/90 90/112/90
f 80/45/11 7/19/9 24/46/26
f 89/13/11 19/118/34 15/14/9
f 53/120/71 67/121/88 77/3/3
f 18/122/30 31/102/16 74/18/14
f 67/121/88 39/1/1 77/3/3
f 33/123/50 40/124/57 66/125/84 59/126/76
f 127/127/97 104/128/97 103/129/98 128/130/98
f 128/130/98 103/129/98 105/131/99 129/132/99
f 129/132/99 105/131/99 106/133/100 130/134/100
f 130/134/100 106/133/100 107/135/101 131/136/101
f 131/136/101 107/135/101 108/137/102 132/138/102
f 132/138/102 108/137/102 109/139/103 133/140/103
f 133/140/103 109/139/103 110/141/104 134/142/104
f 134/142/104 110/141/104 111/143/105 135/144/105
f 135/144/105 111/143/105 112/145/106 136/146/106
f 136/146/106 112/145/106 113/147/107 137/148/107
f 98/149/108 97/150/109 145/151/110 146/152/111
f 137/148/107 113/147/107 114/153/112 138/154/112
f 138/154/112 114/153/112 104/128/97 127/127/97
f 91/155/113 92/156/113 103/129/113 104/128/113
f 92/156/113 93/157/113 105/131/113 103/129/113
f 93/157/113 94/158/113 106/133/113 105/131/113
f 94/158/113 95/159/113 107/135/113 106/133/113
f 95/159/113 96/160/113 108/137/113 107/135/113
f 96/160/113 97/161/113 109/139/113 108/137/113
f 97/161/113 98/162/113 110/141/113 109/139/113
f 98/162/113 99/163/113 111/143/113 110/141/113
f 99/163/113 100/164/113 112/145/113 111/143/113
f 100/164/113 101/165/113 113/147/113 112/145/113
f 101/165/113 102/166/113 114/153/113 113/147/113
f 102/166/113 91/155/113 104/128/113 114/153/113
f 95/167/114 94/168/115 142/169/116 143/170/117
f 102/171/118 101/172/119 149/173/120 150/174/121
f 92/175/122 91/176/123 140/177/124 139/178/125
f 99/179/126 98/149/108 146/152/111 147/180/127
f 96/181/128 95/167/114 143/170/117 144/182/129
f 91/176/123 102/171/118 150/174/121 140/177/124
f 93/183/130 92/175/122 139/178/125 141/184/131
f 100/185/132 99/179/126 147/180/127 148/186/133
f 97/150/109 96/181/128 144/182/129 145/151/110
f 94/168/115 93/183/130 141/184/131 142/169/116
f 101/172/119 100/185/132 148/186/133 149/173/120
f 116/187/134 115/188/135 139/189/125 140/190/124
f 115/188/135 117/191/136 141/192/131 139/189/125
f 117/191/136 118/193/137 142/194/116 141/192/131
f 118/193/137 119/195/138 143/196/117 142/194/116
f 119/195/138 120/197/139 144/198/129 143/196/117
f 120/197/139 121/199/140 145/200/110 144/198/129
f 121/199/140 122/201/141 146/202/111 145/200/110
f 122/201/141 123/203/142 147/204/127 146/202/111
f 123/203/142 124/205/143 148/206/133 147/204/127
f 124/205/143 125/207/144 149/208/120 148/206/133
f 125/207/144 126/209/145 150/210/121 149/208/120
f 126/209/145 116/187/134 140/190/124 150/210/121
f 115/211/146 116/212/147 153/213/148 152/214/149
f 117/215/150 115/211/146 152/214/149 154/216/151
f 152/214/149 151/217/113 154/216/151
f 118/218/152 117/215/150 154/216/151 155/219/153
f 154/216/151 151/217/113 155/219/153
f 119/220/154 118/218/152 155/219/153 156/221/155
f 155/219/153 151/217/113 156/221/155
f 120/222/156 119/220/154 156/221/155 157/223/157
f 156/221/155 151/217/113 157/223/157
f 121/224/158 120/222/156 157/223/157 158/225/159
f 157/223/157 151/217/113 158/225/159
f 122/226/160 121/224/158 158/225/159 159/227/161
f 158/225/159 151/217/113 159/227/161
f 123/228/162 122/226/160 159/227/161 160/229/163
f 159/227/161 151/217/113 160/229/163
f 124/230/164 123/228/162 160/229/163 161/231/165
f 160/229/163 151/217/113 161/231/165
f 125/232/166 124/230/164 161/231/165 162/233/167
f 161/231/165 151/217/113 162/233/167
f 126/234/168 125/232/166 162/233/167 163/235/169
f 162/233/167 151/217/113 163/235/169
f 116/212/147 126/234/168 163/235/169 153/213/148
f 163/235/169 151/217/113 153/213/148
f 153/213/148 151/217/113 152/214/149
f 200/236/170 177/237/170 176/238/171 201/239/171
f 201/239/171 176/238/171 178/240/172 202/241/172
f 202/241/172 178/240/172 179/242/173 203/243/173
f 203/243/173 179/242/173 180/244/174 204/245/174
f 204/245/174 180/244/174 181/246/175 205/247/175
f 205/247/175 181/246/175 182/248/176 206/249/176
f 206/249/176 182/248/176 183/250/177 207/251/177
f 207/251/177 183/250/177 184/252/178 208/253/178
f 208/253/178 184/252/178 185/254/179 209/255/179
f 209/255/179 185/254/179 186/256/180 210/257/180
f 171/258/181 170/259/182 218/260/183 219/261/184
f 210/257/180 186/256/180 187/262/185 211/263/185
f 211/263/185 187/262/185 177/237/170 200/236/170
f 164/264/113 165/265/113 176/238/113 177/237/113
f 165/265/113 166/266/113 178/240/113 176/238/113
f 166/266/113 167/267/113 179/242/113 178/240/113
f 167/267/113 168/268/113 180/244/113 179/242/113
f 168/268/113 169/269/113 181/246/113 180/244/113
f 169/269/113 170/270/113 182/248/113 181/246/113
f 170/270/113 171/271/113 183/250/113 182/248/113
f 171/271/113 172/272/113 184/252/113 183/250/113
f 172/272/113 173/273/113 185/254/113 184/252/113
f 173/273/113 174/274/113 186/256/113 185/254/113
f 174/274/113 175/275/113 187/262/113 186/256/113
f 175/275/113 164/264/113 177/237/113 187/262/113
f 168/276/186 167/277/187 215/278/188 216/279/189
f 175/280/190 174/281/191 222/282/192 223/283/193
f 165/284/194 164/285/195 213/286/196 212/287/197
f 172/288/198 171/258/181 219/261/184 220/289/199
f 169/290/200 168/276/186 216/279/189 217/291/201
f 164/285/195 175/280/190 223/283/193 213/286/196
f 166/292/202 165/284/194 212/287/197 214/293/203
f 173/294/204 172/288/198 220/289/199 221/295/205
f 170/259/182 169/290/200 217/291/201 218/260/183
f 167/277/187 166/292/202 214/293/203 215/278/188
f 174/281/191 173/294/204 221/295/205 222/282/192
f 189/296/206 188/297/207 212/298/197 213/299/196
f 188/297/207 190/300/208 214/301/203 212/298/197
f 190/300/208 191/302/209 215/303/188 214/301/203
f 191/302/209 192/304/210 216/305/189 215/303/188
f 192/304/210 193/306/211 217/307/201 216/305/189
f 193/306/211 194/308/212 218/309/183 217/307/201
f 194/308/212 195/310/213 219/311/184 218/309/183
f 195/310/213 196/312/214 220/313/199 219/311/184
f 196/312/214 197/314/215 221/315/205 220/313/199
f 197/314/215 198/316/216 222/317/192 221/315/205
f 198/316/216 199/318/217 223/319/193 222/317/192
f 199/318/217 189/296/206 213/299/196 223/319/193
f 188/320/218 189/321/219 226/322/220 225/323/221
f 190/324/222 188/320/218 225/323/221 227/325/223
f 225/323/221 224/326/113 227/325/223
f 191/327/224 190/324/222 227/325/223 228/328/225
f 227/325/223 224/326/113 228/328/225
f 192/329/226 191/327/224 228/328/225 229/330/227
f 228/328/225 224/326/113 229/330/227
f 193/331/228 192/329/226 229/330/227 230/332/229
f 229/330/227 224/326/113 230/332/229
f 194/333/230 193/331/228 230/332/229 231/334/231
f 230/332/229 224/326/113 231/334/231
f 195/335/232 194/333/230 231/334/231 232/336/233
f 231/334/231 224/326/113 232/336/233
f 196/337/234 195/335/232 232/336/233 233/338/235
f 232/336/233 224/326/113 233/338/235
f 197/339/236 196/337/234 233/338/235 234/340/237
f 233/338/235 224/326/113 234/340/237
f 198/341/238 197/339/236 234/340/237 235/342/239
f 234/340/237 224/326/113 235/342/239
f 199/343/240 198/341/238 235/342/239 236/344/241
f 235/342/239 224/326/113 236/344/241
f 189/321/219 199/343/240 236/344/241 226/322/220
f 236/344/241 224/326/113 226/322/220
f 226/322/220 224/326/113 225/323/221
f 237/345/242 238/346/242 240/347/242 239/348/242
f 239/348/243 240/347/243 244/349/243 243/350/243
f 243/350/244 244/349/244 242/351/244 241/352/244
f 241/352/245 242/351/245 238/346/245 237/345/245
f 239/353/246 243/354/246 241/355/246 237/356/246
f 245/357/242 246/358/242 248/359/242 247/360/242
f 247/360/243 248/359/243 252/361/243 251/362/243
f 251/362/244 252/361/244 250/363/244 249/364/244
f 249/364/245 250/363/245 246/358/245 245/357/245
f 247/365/246 251/366/246 249/367/246 245/368/246
f 253/369/242 254/370/242 256/371/242 255/372/242
f 255/372/243 256/371/243 260/373/243 259/374/243
f 259/374/244 260/373/244 258/375/244 257/376/244
f 257/376/245 258/375/245 254/370/245 253/369/245
f 255/377/246 259/378/246 257/379/246 253/380/246
f 261/381/242 262/382/242 264/383/242 263/384/242
f 263/384/243 264/383/243 268/385/243 267/386/243
f 267/386/244 268/385/244 266/387/244 265/388/244
f 265/388/245 266/387/245 262/382/245 261/381/245
f 263/389/246 267/390/246 265/391/246 261/392/246
