# Blender v3.4.1 OBJ File: 'September2026_GothGirl_Assets_Export.blend'
# www.blender.org
mtllib GothGirl_Stool.mtl
o GothGirl_Stool
v 0.094788 0.686209 -0.168290
v 0.123231 0.686209 -0.182695
v 0.154847 0.686209 -0.177561
v 0.177561 0.686209 -0.154848
v 0.182695 0.686209 -0.123232
v 0.168289 0.686209 -0.094789
v 0.139846 0.686209 -0.080383
v 0.108230 0.686209 -0.085517
v 0.085517 0.686209 -0.108231
v 0.080383 0.686209 -0.139847
v 0.180273 -0.000000 -0.180274
v 0.134206 0.021809 -0.225421
v 0.169504 0.026266 -0.243298
v 0.208739 0.029021 -0.236927
v 0.236926 0.029021 -0.208740
v 0.243298 0.026266 -0.169504
v 0.225421 0.021809 -0.134206
v 0.190123 0.017351 -0.116329
v 0.150887 0.014596 -0.122701
v 0.122701 0.014596 -0.150888
v 0.116329 0.017351 -0.190123
v 0.173981 0.000000 -0.219020
v 0.152438 0.000000 -0.208109
v 0.197928 -0.000000 -0.215131
v 0.215131 -0.000000 -0.197928
v 0.219020 -0.000000 -0.173981
v 0.208109 -0.000000 -0.152438
v 0.186566 0.000000 -0.141527
v 0.162619 0.000000 -0.145416
v 0.145416 0.000000 -0.162619
v 0.141527 0.000000 -0.186566
v -0.219615 0.777143 -0.219615
v -0.080385 0.777143 -0.300000
v 0.080385 0.777143 -0.300000
v 0.219615 0.777143 -0.219615
v 0.300000 0.777143 -0.080385
v 0.300000 0.777143 0.080385
v -0.000000 0.800000 0.000000
v 0.219615 0.777143 0.219615
v 0.080385 0.777143 0.300000
v -0.080385 0.777143 0.300000
v -0.219615 0.777143 0.219615
v -0.300000 0.777143 0.080385
v -0.300000 0.777143 -0.080385
v -0.219615 0.678571 -0.219615
v -0.080385 0.678571 -0.300000
v 0.080385 0.678571 -0.300000
v 0.219615 0.678571 -0.219615
v 0.300000 0.678571 -0.080385
v 0.300000 0.678571 0.080385
v 0.219615 0.678571 0.219615
v 0.080385 0.678571 0.300000
v -0.000000 0.655714 0.000000
v -0.080385 0.678571 0.300000
v -0.219615 0.678571 0.219615
v -0.300000 0.678571 0.080385
v -0.300000 0.678571 -0.080385
v 0.185287 0.205714 -0.185287
v 0.175787 0.235211 -0.175787
v 0.153086 0.248435 -0.153086
v 0.130804 0.234667 -0.130804
v 0.130803 0.176761 -0.130804
v 0.153086 0.162993 -0.153086
v 0.175787 0.176217 -0.175787
v 0.067820 0.205714 -0.253107
v 0.064343 0.235211 -0.240129
v 0.056034 0.248435 -0.209120
v 0.047878 0.234667 -0.178681
v 0.047878 0.176761 -0.178681
v 0.056034 0.162993 -0.209120
v 0.064343 0.176217 -0.240129
v -0.067819 0.205714 -0.253107
v -0.064341 0.235211 -0.240129
v -0.056032 0.248435 -0.209120
v -0.047876 0.234667 -0.178681
v -0.047876 0.176761 -0.178681
v -0.056032 0.162993 -0.209120
v -0.064341 0.176217 -0.240129
v -0.185285 0.205714 -0.185287
v -0.175785 0.235211 -0.175787
v -0.153085 0.248435 -0.153087
v -0.130802 0.234667 -0.130804
v -0.130802 0.176761 -0.130804
v -0.153085 0.162993 -0.153087
v -0.175785 0.176217 -0.175787
v -0.253105 0.205714 -0.067820
v -0.240127 0.235211 -0.064343
v -0.209118 0.248435 -0.056034
v -0.178679 0.234667 -0.047878
v -0.178679 0.176761 -0.047878
v -0.209118 0.162993 -0.056034
v -0.240127 0.176217 -0.064343
v -0.253105 0.205714 0.067819
v -0.240127 0.235211 0.064341
v -0.209118 0.248435 0.056032
v -0.178679 0.234667 0.047876
v -0.178679 0.176761 0.047876
v -0.209118 0.162993 0.056032
v -0.240127 0.176217 0.064341
v -0.185286 0.205714 0.185285
v -0.175785 0.235211 0.175785
v -0.153085 0.248435 0.153085
v -0.130802 0.234667 0.130802
v -0.130802 0.176761 0.130802
v -0.153085 0.162993 0.153085
v -0.175785 0.176217 0.175785
v -0.067819 0.205714 0.253105
v -0.064341 0.235211 0.240127
v -0.056032 0.248435 0.209118
v -0.047876 0.234667 0.178679
v -0.047876 0.176761 0.178679
v -0.056032 0.162993 0.209118
v -0.064341 0.176217 0.240127
v 0.067820 0.205714 0.253105
v 0.064343 0.235211 0.240127
v 0.056034 0.248435 0.209118
v 0.047878 0.234667 0.178679
v 0.047878 0.176761 0.178679
v 0.056034 0.162993 0.209118
v 0.064343 0.176217 0.240127
v 0.185287 0.205714 0.185285
v 0.175787 0.235211 0.175785
v 0.153086 0.248435 0.153085
v 0.130804 0.234667 0.130802
v 0.130804 0.176761 0.130802
v 0.153086 0.162993 0.153085
v 0.175787 0.176217 0.175785
v 0.253107 0.205714 0.067819
v 0.240129 0.235211 0.064341
v 0.209120 0.248435 0.056032
v 0.178681 0.234667 0.047876
v 0.178681 0.176761 0.047876
v 0.209120 0.162993 0.056032
v 0.240129 0.176217 0.064341
v 0.253107 0.205714 -0.067820
v 0.240129 0.235211 -0.064343
v 0.209120 0.248435 -0.056034
v 0.178681 0.234667 -0.047878
v 0.178681 0.176761 -0.047878
v 0.209120 0.162993 -0.056034
v 0.240129 0.176217 -0.064343
v -0.168290 0.686209 -0.094788
v -0.182695 0.686209 -0.123231
v -0.177561 0.686209 -0.154847
v -0.154848 0.686209 -0.177561
v -0.123232 0.686209 -0.182695
v -0.094789 0.686209 -0.168289
v -0.080383 0.686209 -0.139846
v -0.085517 0.686209 -0.108230
v -0.108231 0.686209 -0.085517
v -0.139847 0.686209 -0.080383
v -0.180274 -0.000000 -0.180273
v -0.225421 0.021809 -0.134206
v -0.243298 0.026266 -0.169504
v -0.236927 0.029021 -0.208739
v -0.208740 0.029021 -0.236926
v -0.169504 0.026266 -0.243298
v -0.134206 0.021809 -0.225421
v -0.116329 0.017351 -0.190123
v -0.122701 0.014596 -0.150887
v -0.150888 0.014596 -0.122701
v -0.190123 0.017351 -0.116329
v -0.219020 0.000000 -0.173981
v -0.208109 0.000000 -0.152438
v -0.215131 -0.000000 -0.197928
v -0.197928 -0.000000 -0.215131
v -0.173981 -0.000000 -0.219020
v -0.152438 -0.000000 -0.208109
v -0.141527 0.000000 -0.186566
v -0.145416 0.000000 -0.162619
v -0.162619 0.000000 -0.145416
v -0.186566 0.000000 -0.141527
v -0.094788 0.686209 0.168290
v -0.123231 0.686209 0.182695
v -0.154847 0.686209 0.177561
v -0.177560 0.686209 0.154848
v -0.182695 0.686209 0.123232
v -0.168289 0.686209 0.094789
v -0.139846 0.686209 0.080383
v -0.108230 0.686209 0.085518
v -0.085517 0.686209 0.108231
v -0.080383 0.686209 0.139847
v -0.180273 -0.000000 0.180274
v -0.134206 0.021809 0.225421
v -0.169503 0.026266 0.243298
v -0.208739 0.029021 0.236927
v -0.236926 0.029021 0.208740
v -0.243298 0.026266 0.169504
v -0.225421 0.021809 0.134207
v -0.190123 0.017351 0.116329
v -0.150887 0.014596 0.122701
v -0.122700 0.014596 0.150888
v -0.116329 0.017351 0.190123
v -0.173981 0.000000 0.219020
v -0.152438 0.000000 0.208109
v -0.197928 -0.000000 0.215132
v -0.215131 -0.000000 0.197928
v -0.219020 -0.000000 0.173982
v -0.208109 -0.000000 0.152438
v -0.186566 0.000000 0.141527
v -0.162619 0.000000 0.145416
v -0.145416 0.000000 0.162619
v -0.141527 0.000000 0.186566
v 0.168290 0.686209 0.094788
v 0.182695 0.686209 0.123231
v 0.177561 0.686209 0.154847
v 0.154848 0.686209 0.177560
v 0.123232 0.686209 0.182695
v 0.094789 0.686209 0.168289
v 0.080383 0.686209 0.139846
v 0.085518 0.686209 0.108230
v 0.108231 0.686209 0.085517
v 0.139847 0.686209 0.080383
v 0.180274 -0.000000 0.180273
v 0.225421 0.021809 0.134206
v 0.243298 0.026266 0.169503
v 0.236927 0.029021 0.208739
v 0.208740 0.029021 0.236926
v 0.169504 0.026266 0.243298
v 0.134207 0.021809 0.225421
v 0.116329 0.017351 0.190123
v 0.122701 0.014596 0.150887
v 0.150888 0.014596 0.122700
v 0.190123 0.017351 0.116329
v 0.219020 0.000000 0.173981
v 0.208109 0.000000 0.152438
v 0.215132 -0.000000 0.197928
v 0.197928 -0.000000 0.215131
v 0.173982 -0.000000 0.219020
v 0.152438 -0.000000 0.208109
v 0.141527 0.000000 0.186566
v 0.145416 0.000000 0.162619
v 0.162619 0.000000 0.145415
v 0.186566 0.000000 0.141527
v -0.201426 0.800000 -0.201426
v -0.073727 0.800000 -0.275153
v 0.073727 0.800000 -0.275153
v 0.201426 0.800000 -0.201426
v 0.275153 0.800000 -0.073727
v 0.275153 0.800000 0.073727
v 0.201426 0.800000 0.201426
v 0.073727 0.800000 0.275153
v -0.073727 0.800000 0.275153
v -0.201426 0.800000 0.201426
v -0.275153 0.800000 0.073727
v -0.275153 0.800000 -0.073727
v -0.073727 0.655714 -0.275153
v -0.201426 0.655714 -0.201426
v 0.073727 0.655714 -0.275153
v 0.201426 0.655714 -0.201426
v 0.275153 0.655714 -0.073727
v 0.275153 0.655714 0.073727
v 0.201426 0.655714 0.201426
v 0.073727 0.655714 0.275153
v -0.073727 0.655714 0.275153
v -0.201426 0.655714 0.201426
v -0.275153 0.655714 0.073727
v -0.275153 0.655714 -0.073727
vt 0.700501 0.828514
vt 0.695683 0.913415
vt 0.697149 0.913415
vt 0.702499 0.829055
vt 0.710828 0.829932
vt 0.703263 0.913415
vt 0.705575 0.913415
vt 0.713978 0.829932
vt 0.706098 0.913415
vt 0.714690 0.829597
vt 0.704631 0.913415
vt 0.712692 0.829055
vt 0.701736 0.913415
vt 0.708748 0.828514
vt 0.698518 0.913415
vt 0.704363 0.828179
vt 0.696205 0.913415
vt 0.701213 0.828179
vt 0.706443 0.829597
vt 0.700045 0.913415
vt 0.702499 0.797805
vt 0.706443 0.798347
vt 0.706944 0.795156
vt 0.704536 0.795156
vt 0.710828 0.798682
vt 0.709620 0.795156
vt 0.713978 0.798682
vt 0.711543 0.795156
vt 0.714690 0.798347
vt 0.711977 0.795156
vt 0.712692 0.797805
vt 0.710758 0.795156
vt 0.708748 0.797264
vt 0.708350 0.795156
vt 0.704363 0.796929
vt 0.705674 0.795156
vt 0.701213 0.796929
vt 0.703751 0.795156
vt 0.700501 0.797264
vt 0.703317 0.795156
vt 0.707647 0.795156
vt 0.662956 0.912487
vt 0.662956 0.920817
vt 0.678516 0.920817
vt 0.678516 0.912487
vt 0.712044 0.912487
vt 0.712044 0.920817
vt 0.721027 0.920817
vt 0.721027 0.912487
vt 0.721027 0.920817
vt 0.721027 0.912487
vt 0.712044 0.920817
vt 0.712044 0.912487
vt 0.696484 0.920817
vt 0.696484 0.912487
vt 0.678516 0.920817
vt 0.678516 0.912487
vt 0.662956 0.920817
vt 0.662956 0.912487
vt 0.653973 0.920817
vt 0.653973 0.912487
vt 0.653973 0.920817
vt 0.653973 0.912487
vt 0.696484 0.920817
vt 0.696484 0.912487
vt 0.678516 0.952067
vt 0.662956 0.952067
vt 0.664989 0.954844
vt 0.679260 0.954844
vt 0.696484 0.952067
vt 0.695740 0.954844
vt 0.712044 0.952067
vt 0.710011 0.954844
vt 0.721027 0.952067
vt 0.718251 0.954844
vt 0.721027 0.952067
vt 0.718251 0.954844
vt 0.712044 0.952067
vt 0.710011 0.954844
vt 0.696484 0.952067
vt 0.695740 0.954844
vt 0.678516 0.952067
vt 0.679260 0.954844
vt 0.662956 0.952067
vt 0.664989 0.954844
vt 0.653973 0.952067
vt 0.656749 0.954844
vt 0.653973 0.952067
vt 0.656749 0.954844
vt 0.662956 0.943737
vt 0.678516 0.943737
vt 0.679260 0.940960
vt 0.664989 0.940960
vt 0.696484 0.943737
vt 0.695740 0.940960
vt 0.712044 0.943737
vt 0.710011 0.940960
vt 0.721027 0.943737
vt 0.718251 0.940960
vt 0.721027 0.943737
vt 0.718251 0.940960
vt 0.712044 0.943737
vt 0.710011 0.940960
vt 0.696484 0.943737
vt 0.695740 0.940960
vt 0.678516 0.943737
vt 0.679260 0.940960
vt 0.662956 0.943737
vt 0.664989 0.940960
vt 0.653973 0.943737
vt 0.656749 0.940960
vt 0.653973 0.943737
vt 0.656749 0.940960
vt 0.708207 0.851397
vt 0.695079 0.851397
vt 0.694691 0.854981
vt 0.707146 0.854981
vt 0.707146 0.870606
vt 0.694691 0.870606
vt 0.693762 0.872047
vt 0.704609 0.872047
vt 0.692851 0.870540
vt 0.702118 0.870540
vt 0.682149 0.847880
vt 0.692851 0.847880
vt 0.692851 0.854915
vt 0.682149 0.854915
vt 0.702118 0.816630
vt 0.692851 0.816630
vt 0.693762 0.815122
vt 0.704609 0.815122
vt 0.694691 0.816564
vt 0.707146 0.816564
vt 0.707146 0.847814
vt 0.694691 0.847814
vt 0.679921 0.851397
vt 0.680309 0.854981
vt 0.680309 0.870606
vt 0.681238 0.872047
vt 0.682149 0.870540
vt 0.672882 0.847880
vt 0.672882 0.854915
vt 0.682149 0.816630
vt 0.681238 0.815122
vt 0.680309 0.816564
vt 0.680309 0.847814
vt 0.666793 0.851397
vt 0.667855 0.854981
vt 0.667855 0.870606
vt 0.670392 0.872047
vt 0.672882 0.870540
vt 0.667531 0.847880
vt 0.667531 0.847880
vt 0.667531 0.854915
vt 0.667531 0.854915
vt 0.672882 0.816630
vt 0.670392 0.815122
vt 0.667855 0.816564
vt 0.667855 0.847814
vt 0.659214 0.851397
vt 0.660664 0.854981
vt 0.660664 0.870606
vt 0.664129 0.872047
vt 0.667531 0.870540
vt 0.702118 0.847880
vt 0.707469 0.847880
vt 0.707469 0.854915
vt 0.702118 0.854915
vt 0.667531 0.816630
vt 0.664129 0.815122
vt 0.660664 0.816564
vt 0.660664 0.847814
vt 0.659214 0.851397
vt 0.660664 0.854981
vt 0.660664 0.870606
vt 0.664129 0.872047
vt 0.667531 0.870540
vt 0.672882 0.847880
vt 0.672882 0.854915
vt 0.667531 0.816630
vt 0.664129 0.815122
vt 0.660664 0.816564
vt 0.660664 0.847814
vt 0.666793 0.851397
vt 0.667855 0.854981
vt 0.667855 0.870606
vt 0.670392 0.872047
vt 0.672882 0.870540
vt 0.682149 0.847880
vt 0.682149 0.854915
vt 0.672882 0.816630
vt 0.670392 0.815122
vt 0.667855 0.816564
vt 0.667855 0.847814
vt 0.679921 0.851397
vt 0.680309 0.854981
vt 0.680309 0.870606
vt 0.681238 0.872047
vt 0.682149 0.870540
vt 0.692851 0.847880
vt 0.692851 0.854915
vt 0.682149 0.816630
vt 0.681238 0.815122
vt 0.680309 0.816564
vt 0.680309 0.847814
vt 0.695079 0.851397
vt 0.694691 0.854981
vt 0.694691 0.870606
vt 0.693762 0.872047
vt 0.692851 0.870540
vt 0.702118 0.847880
vt 0.702118 0.854915
vt 0.692851 0.816630
vt 0.693762 0.815122
vt 0.694691 0.816564
vt 0.694691 0.847814
vt 0.708207 0.851397
vt 0.707146 0.854981
vt 0.707146 0.870606
vt 0.704609 0.872047
vt 0.702118 0.870540
vt 0.707469 0.847880
vt 0.707469 0.854915
vt 0.702118 0.816630
vt 0.704609 0.815122
vt 0.707146 0.816564
vt 0.707146 0.847814
vt 0.715787 0.851397
vt 0.714336 0.854981
vt 0.714336 0.870606
vt 0.710871 0.872047
vt 0.707469 0.870540
vt 0.707469 0.816630
vt 0.710871 0.815122
vt 0.714336 0.816564
vt 0.714336 0.847814
vt 0.715787 0.851397
vt 0.714336 0.854981
vt 0.714336 0.870606
vt 0.710871 0.872047
vt 0.707469 0.870540
vt 0.707469 0.816630
vt 0.710871 0.815122
vt 0.714336 0.816564
vt 0.714336 0.847814
vt 0.666252 0.828514
vt 0.673264 0.913415
vt 0.670369 0.913415
vt 0.662307 0.829055
vt 0.661022 0.829932
vt 0.669425 0.913415
vt 0.671737 0.913415
vt 0.664172 0.829932
vt 0.674955 0.913415
vt 0.668557 0.829597
vt 0.677851 0.913415
vt 0.672501 0.829055
vt 0.679317 0.913415
vt 0.674499 0.828514
vt 0.678795 0.913415
vt 0.673787 0.828179
vt 0.676482 0.913415
vt 0.670637 0.828179
vt 0.660309 0.829597
vt 0.668902 0.913415
vt 0.662307 0.797805
vt 0.660309 0.798347
vt 0.663023 0.795156
vt 0.664242 0.795156
vt 0.661022 0.798682
vt 0.663457 0.795156
vt 0.664172 0.798682
vt 0.665380 0.795156
vt 0.668557 0.798347
vt 0.668056 0.795156
vt 0.672501 0.797805
vt 0.670464 0.795156
vt 0.674499 0.797264
vt 0.671683 0.795156
vt 0.673787 0.796929
vt 0.671249 0.795156
vt 0.670637 0.796929
vt 0.669326 0.795156
vt 0.666252 0.797264
vt 0.666650 0.795156
vt 0.667353 0.795156
vt 0.674499 0.828514
vt 0.679317 0.913415
vt 0.677851 0.913415
vt 0.672501 0.829055
vt 0.664172 0.829932
vt 0.671737 0.913415
vt 0.669425 0.913415
vt 0.661022 0.829932
vt 0.668902 0.913415
vt 0.660310 0.829597
vt 0.670369 0.913415
vt 0.662308 0.829055
vt 0.673264 0.913415
vt 0.666252 0.828514
vt 0.676482 0.913415
vt 0.670637 0.828179
vt 0.678795 0.913415
vt 0.673787 0.828179
vt 0.668557 0.829597
vt 0.674955 0.913415
vt 0.672501 0.797805
vt 0.668557 0.798347
vt 0.668056 0.795156
vt 0.670464 0.795156
vt 0.664172 0.798682
vt 0.665380 0.795156
vt 0.661022 0.798682
vt 0.663457 0.795156
vt 0.660310 0.798347
vt 0.663023 0.795156
vt 0.662308 0.797805
vt 0.664242 0.795156
vt 0.666252 0.797264
vt 0.666650 0.795156
vt 0.670637 0.796929
vt 0.669326 0.795156
vt 0.673787 0.796929
vt 0.671249 0.795156
vt 0.674499 0.797264
vt 0.671683 0.795156
vt 0.667353 0.795156
vt 0.708748 0.828514
vt 0.701736 0.913415
vt 0.704631 0.913415
vt 0.712693 0.829055
vt 0.713978 0.829932
vt 0.705575 0.913415
vt 0.703263 0.913415
vt 0.710828 0.829932
vt 0.700045 0.913415
vt 0.706443 0.829597
vt 0.697149 0.913415
vt 0.702499 0.829055
vt 0.695683 0.913415
vt 0.700501 0.828514
vt 0.696205 0.913415
vt 0.701213 0.828179
vt 0.698518 0.913415
vt 0.704363 0.828179
vt 0.714691 0.829597
vt 0.706098 0.913415
vt 0.712693 0.797805
vt 0.714691 0.798347
vt 0.711977 0.795156
vt 0.710758 0.795156
vt 0.713978 0.798682
vt 0.711543 0.795156
vt 0.710828 0.798682
vt 0.709620 0.795156
vt 0.706443 0.798347
vt 0.706944 0.795156
vt 0.702499 0.797805
vt 0.704536 0.795156
vt 0.700501 0.797264
vt 0.703317 0.795156
vt 0.701213 0.796929
vt 0.703751 0.795156
vt 0.704363 0.796929
vt 0.705674 0.795156
vt 0.708748 0.797264
vt 0.708350 0.795156
vt 0.707647 0.795156
vt 0.680680 0.923594
vt 0.679260 0.923594
vt 0.664989 0.923594
vt 0.694320 0.923594
vt 0.695740 0.923594
vt 0.706132 0.923594
vt 0.710011 0.923594
vt 0.712952 0.923594
vt 0.718251 0.923594
vt 0.718251 0.923594
vt 0.710011 0.923594
vt 0.695740 0.923594
vt 0.679260 0.923594
vt 0.668868 0.923594
vt 0.664989 0.923594
vt 0.662049 0.923594
vt 0.656749 0.923594
vt 0.656749 0.923594
vt 0.668868 0.894085
vt 0.664989 0.894085
vt 0.679260 0.894085
vt 0.680680 0.894085
vt 0.695740 0.894085
vt 0.694320 0.894085
vt 0.710011 0.894085
vt 0.706132 0.894085
vt 0.718251 0.894085
vt 0.712952 0.894085
vt 0.718251 0.894085
vt 0.710011 0.894085
vt 0.695740 0.894085
vt 0.679260 0.894085
vt 0.664989 0.894085
vt 0.656749 0.894085
vt 0.662049 0.894085
vt 0.656749 0.894085
vn -0.9874 -0.0416 -0.1526
vn -0.9894 -0.0427 -0.1390
vn -0.7220 0.0167 -0.6917
vn -0.7101 0.0185 -0.7039
vn 0.4498 0.1168 -0.8855
vn 0.4452 0.1166 -0.8878
vn 0.8878 0.1166 -0.4452
vn 0.8855 0.1168 -0.4498
vn 0.9819 0.0781 0.1727
vn 0.9841 0.0792 0.1593
vn 0.6917 0.0167 0.7220
vn 0.7039 0.0185 0.7101
vn 0.1390 -0.0427 0.9894
vn 0.1526 -0.0416 0.9874
vn -0.4585 -0.0782 0.8852
vn -0.4539 -0.0780 0.8876
vn -0.8852 -0.0782 0.4585
vn -0.8876 -0.0780 0.4539
vn -0.1593 0.0792 -0.9841
vn -0.1727 0.0781 -0.9819
vn -0.4118 -0.7526 -0.5138
vn -0.0578 -0.6876 -0.7238
vn -0.0633 -0.6883 -0.7226
vn -0.2594 -0.9123 -0.3170
vn 0.3640 -0.6490 -0.6680
vn 0.3620 -0.6491 -0.6690
vn 0.6680 -0.6490 -0.3640
vn 0.6690 -0.6491 -0.3620
vn 0.7238 -0.6876 0.0578
vn 0.7226 -0.6883 0.0633
vn 0.5138 -0.7526 0.4118
vn 0.3170 -0.9123 0.2594
vn 0.1493 -0.8194 0.5534
vn 0.0888 -0.9359 0.3408
vn -0.2097 -0.8605 0.4644
vn -0.1290 -0.9504 0.2831
vn -0.4644 -0.8605 0.2097
vn -0.2831 -0.9504 0.1290
vn -0.5534 -0.8194 -0.1493
vn -0.3408 -0.9359 -0.0888
vn -0.0000 -1.0000 0.0000
vn -0.7071 0.0000 -0.7071
vn -0.2588 0.0000 -0.9659
vn 0.7071 0.0000 -0.7071
vn 0.9659 0.0000 -0.2588
vn 0.9659 0.0000 0.2588
vn 0.7071 0.0000 0.7071
vn 0.2588 0.0000 0.9659
vn -0.2588 0.0000 0.9659
vn -0.7071 0.0000 0.7071
vn -0.9659 0.0000 0.2588
vn -0.9659 0.0000 -0.2588
vn 0.2588 0.0000 -0.9659
vn -0.1719 0.7475 -0.6416
vn -0.4697 0.7475 -0.4697
vn -0.2862 0.9144 -0.2862
vn -0.1048 0.9144 -0.3910
vn 0.1719 0.7475 -0.6416
vn 0.1048 0.9144 -0.3910
vn 0.4697 0.7475 -0.4697
vn 0.2862 0.9144 -0.2862
vn 0.6416 0.7475 -0.1719
vn 0.3910 0.9144 -0.1048
vn 0.6416 0.7475 0.1719
vn 0.3910 0.9144 0.1048
vn 0.4697 0.7475 0.4697
vn 0.2862 0.9144 0.2862
vn 0.1719 0.7475 0.6416
vn 0.1048 0.9144 0.3910
vn -0.1719 0.7475 0.6416
vn -0.1048 0.9144 0.3910
vn -0.4697 0.7475 0.4697
vn -0.2862 0.9144 0.2862
vn -0.6416 0.7475 0.1719
vn -0.3910 0.9144 0.1048
vn -0.6416 0.7475 -0.1719
vn -0.3910 0.9144 -0.1048
vn -0.4697 -0.7475 -0.4697
vn -0.1719 -0.7475 -0.6416
vn -0.1048 -0.9144 -0.3910
vn -0.2862 -0.9144 -0.2862
vn 0.1719 -0.7475 -0.6416
vn 0.1048 -0.9144 -0.3910
vn 0.4697 -0.7475 -0.4697
vn 0.2862 -0.9144 -0.2862
vn 0.6416 -0.7475 -0.1719
vn 0.3910 -0.9144 -0.1048
vn 0.6416 -0.7475 0.1719
vn 0.3910 -0.9144 0.1048
vn 0.4697 -0.7475 0.4697
vn 0.2862 -0.9144 0.2862
vn 0.1719 -0.7475 0.6416
vn 0.1048 -0.9144 0.3910
vn -0.1719 -0.7475 0.6416
vn -0.1048 -0.9144 0.3910
vn -0.4697 -0.7475 0.4697
vn -0.2862 -0.9144 0.2862
vn -0.6416 -0.7475 0.1719
vn -0.3910 -0.9144 0.1048
vn -0.6416 -0.7475 -0.1719
vn -0.3910 -0.9144 -0.1048
vn 0.6435 0.4145 -0.6435
vn 0.2355 0.4145 -0.8790
vn 0.1872 0.6907 -0.6985
vn 0.5113 0.6907 -0.5113
vn 0.0986 0.9246 -0.3679
vn 0.2693 0.9246 -0.2693
vn -0.2831 0.9164 0.2831
vn -0.1036 0.9164 0.3867
vn -0.2831 -0.9164 0.2831
vn -0.1036 -0.9164 0.3867
vn 0.2693 -0.9246 -0.2693
vn 0.0986 -0.9246 -0.3679
vn 0.1872 -0.6907 -0.6985
vn 0.5113 -0.6907 -0.5113
vn 0.2355 -0.4145 -0.8790
vn 0.6435 -0.4145 -0.6435
vn -0.2355 0.4145 -0.8790
vn -0.1872 0.6907 -0.6985
vn -0.0986 0.9246 -0.3679
vn 0.1036 0.9164 0.3867
vn 0.1036 -0.9164 0.3867
vn -0.0986 -0.9246 -0.3679
vn -0.1872 -0.6907 -0.6985
vn -0.2355 -0.4145 -0.8790
vn -0.6435 0.4145 -0.6435
vn -0.5113 0.6907 -0.5113
vn -0.2693 0.9246 -0.2693
vn 0.2831 0.9164 0.2831
vn 0.2831 -0.9164 0.2831
vn -0.2693 -0.9246 -0.2693
vn -0.5113 -0.6907 -0.5113
vn -0.6435 -0.4145 -0.6435
vn -0.8790 0.4145 -0.2355
vn -0.6985 0.6907 -0.1872
vn -0.3679 0.9246 -0.0986
vn 0.3867 0.9164 0.1036
vn 0.3867 -0.9164 0.1036
vn -0.3679 -0.9246 -0.0986
vn -0.6985 -0.6907 -0.1872
vn -0.8790 -0.4145 -0.2355
vn -0.8790 0.4145 0.2355
vn -0.6985 0.6907 0.1872
vn -0.3679 0.9246 0.0986
vn 0.3867 0.9164 -0.1036
vn 0.3867 -0.9164 -0.1036
vn -0.3679 -0.9246 0.0986
vn -0.6985 -0.6907 0.1872
vn -0.8790 -0.4145 0.2355
vn -0.6435 0.4145 0.6435
vn -0.5113 0.6907 0.5113
vn -0.2693 0.9246 0.2693
vn 0.2831 0.9164 -0.2831
vn 0.2831 -0.9164 -0.2831
vn -0.2693 -0.9246 0.2693
vn -0.5113 -0.6907 0.5113
vn -0.6435 -0.4145 0.6435
vn -0.2355 0.4145 0.8790
vn -0.1872 0.6907 0.6985
vn -0.0986 0.9246 0.3679
vn 0.1036 0.9164 -0.3867
vn 0.1036 -0.9164 -0.3867
vn -0.0986 -0.9246 0.3679
vn -0.1872 -0.6907 0.6985
vn -0.2355 -0.4145 0.8790
vn 0.2355 0.4145 0.8790
vn 0.1872 0.6907 0.6985
vn 0.0986 0.9246 0.3679
vn -0.1036 0.9164 -0.3867
vn -0.1036 -0.9164 -0.3867
vn 0.0986 -0.9246 0.3679
vn 0.1872 -0.6907 0.6985
vn 0.2355 -0.4145 0.8790
vn 0.6435 0.4145 0.6435
vn 0.5113 0.6907 0.5113
vn 0.2693 0.9246 0.2693
vn -0.2831 0.9164 -0.2831
vn -0.2831 -0.9164 -0.2831
vn 0.2693 -0.9246 0.2693
vn 0.5113 -0.6907 0.5113
vn 0.6435 -0.4145 0.6435
vn 0.8790 0.4145 0.2355
vn 0.6985 0.6907 0.1872
vn 0.3679 0.9246 0.0986
vn -0.3867 0.9164 -0.1036
vn -0.3867 -0.9164 -0.1036
vn 0.3679 -0.9246 0.0986
vn 0.6985 -0.6907 0.1872
vn 0.8790 -0.4145 0.2355
vn 0.8790 0.4145 -0.2355
vn 0.6985 0.6907 -0.1872
vn 0.3679 0.9246 -0.0986
vn -0.3867 0.9164 0.1036
vn -0.3867 -0.9164 0.1036
vn 0.3679 -0.9246 -0.0986
vn 0.6985 -0.6907 -0.1872
vn 0.8790 -0.4145 -0.2355
vn -0.1526 -0.0416 0.9874
vn -0.1390 -0.0427 0.9894
vn -0.6917 0.0167 0.7220
vn -0.7039 0.0185 0.7101
vn -0.8855 0.1168 -0.4498
vn -0.8878 0.1166 -0.4452
vn -0.4452 0.1166 -0.8878
vn -0.4498 0.1168 -0.8855
vn 0.1727 0.0781 -0.9819
vn 0.1593 0.0792 -0.9841
vn 0.7220 0.0167 -0.6917
vn 0.7101 0.0185 -0.7039
vn 0.9894 -0.0427 -0.1390
vn 0.9874 -0.0416 -0.1526
vn 0.8852 -0.0782 0.4585
vn 0.8876 -0.0780 0.4539
vn 0.4585 -0.0782 0.8852
vn 0.4539 -0.0780 0.8876
vn -0.9841 0.0792 0.1593
vn -0.9819 0.0781 0.1727
vn -0.5138 -0.7526 0.4118
vn -0.7238 -0.6876 0.0578
vn -0.7226 -0.6883 0.0633
vn -0.3170 -0.9123 0.2594
vn -0.6680 -0.6490 -0.3640
vn -0.6690 -0.6491 -0.3620
vn -0.3640 -0.6490 -0.6680
vn -0.3620 -0.6491 -0.6690
vn 0.0578 -0.6876 -0.7238
vn 0.0633 -0.6883 -0.7226
vn 0.4118 -0.7526 -0.5138
vn 0.2594 -0.9123 -0.3170
vn 0.5534 -0.8194 -0.1493
vn 0.3408 -0.9359 -0.0888
vn 0.4644 -0.8605 0.2097
vn 0.2831 -0.9504 0.1290
vn 0.2097 -0.8605 0.4644
vn 0.1290 -0.9504 0.2831
vn -0.1493 -0.8194 0.5534
vn -0.0888 -0.9359 0.3408
vn 0.9874 -0.0416 0.1526
vn 0.9894 -0.0427 0.1390
vn 0.7220 0.0167 0.6917
vn 0.7101 0.0185 0.7039
vn -0.4498 0.1168 0.8855
vn -0.4452 0.1166 0.8878
vn -0.8878 0.1166 0.4452
vn -0.8855 0.1168 0.4498
vn -0.9819 0.0781 -0.1727
vn -0.9841 0.0792 -0.1593
vn -0.6917 0.0167 -0.7220
vn -0.7039 0.0185 -0.7101
vn -0.1390 -0.0427 -0.9894
vn -0.1526 -0.0416 -0.9874
vn 0.4585 -0.0782 -0.8852
vn 0.4539 -0.0780 -0.8876
vn 0.8852 -0.0782 -0.4585
vn 0.8876 -0.0780 -0.4539
vn 0.1593 0.0792 0.9841
vn 0.1727 0.0781 0.9819
vn 0.4118 -0.7526 0.5138
vn 0.0578 -0.6876 0.7238
vn 0.0633 -0.6883 0.7226
vn 0.2594 -0.9123 0.3170
vn -0.3640 -0.6490 0.6680
vn -0.3620 -0.6491 0.6690
vn -0.6680 -0.6490 0.3640
vn -0.6690 -0.6491 0.3620
vn -0.7238 -0.6876 -0.0578
vn -0.7226 -0.6883 -0.0633
vn -0.5138 -0.7526 -0.4118
vn -0.3170 -0.9123 -0.2594
vn -0.1493 -0.8194 -0.5534
vn -0.0888 -0.9359 -0.3408
vn 0.2097 -0.8605 -0.4644
vn 0.1290 -0.9504 -0.2831
vn 0.4644 -0.8605 -0.2097
vn 0.2831 -0.9504 -0.1290
vn 0.5534 -0.8194 0.1493
vn 0.3408 -0.9359 0.0888
vn 0.1526 -0.0416 -0.9874
vn 0.1390 -0.0427 -0.9894
vn 0.6917 0.0167 -0.7220
vn 0.7039 0.0185 -0.7101
vn 0.8855 0.1168 0.4498
vn 0.8878 0.1166 0.4452
vn 0.4452 0.1166 0.8878
vn 0.4498 0.1168 0.8855
vn -0.1727 0.0781 0.9819
vn -0.1593 0.0792 0.9841
vn -0.7220 0.0167 0.6917
vn -0.7101 0.0185 0.7039
vn -0.9894 -0.0427 0.1390
vn -0.9874 -0.0416 0.1526
vn -0.8852 -0.0782 -0.4585
vn -0.8876 -0.0780 -0.4539
vn -0.4585 -0.0782 -0.8852
vn -0.4539 -0.0780 -0.8876
vn 0.9841 0.0792 -0.1593
vn 0.9819 0.0781 -0.1727
vn 0.5138 -0.7526 -0.4118
vn 0.7238 -0.6876 -0.0578
vn 0.7226 -0.6883 -0.0633
vn 0.3170 -0.9123 -0.2594
vn 0.6680 -0.6490 0.3640
vn 0.6690 -0.6491 0.3620
vn 0.3640 -0.6490 0.6680
vn 0.3620 -0.6491 0.6690
vn -0.0578 -0.6876 0.7238
vn -0.0633 -0.6883 0.7226
vn -0.4118 -0.7526 0.5138
vn -0.2594 -0.9123 0.3170
vn -0.5534 -0.8194 0.1493
vn -0.3408 -0.9359 0.0888
vn -0.4644 -0.8605 -0.2097
vn -0.2831 -0.9504 -0.1290
vn -0.2097 -0.8605 -0.4644
vn -0.1290 -0.9504 -0.2831
vn 0.1493 -0.8194 -0.5534
vn 0.0888 -0.9359 -0.3408
vn 0.0000 1.0000 0.0000
usemtl gothgirl
s 1
f 21/1/1 10/2/2 1/3/3 12/4/4
f 14/5/5 3/6/6 4/7/7 15/8/8
f 15/8/8 4/7/7 5/9/9 16/10/10
f 16/10/10 5/9/9 6/11/11 17/12/12
f 17/12/12 6/11/11 7/13/13 18/14/14
f 18/14/14 7/13/13 8/15/15 19/16/16
f 19/16/16 8/15/15 9/17/17 20/18/18
f 20/18/18 9/17/17 10/2/2 21/1/1
f 13/19/19 2/20/20 3/6/6 14/5/5
f 12/4/4 1/3/3 2/20/20 13/19/19
f 12/21/21 13/22/22 22/23/23 23/24/24
f 13/22/22 14/25/25 24/26/26 22/23/23
f 14/25/25 15/27/27 25/28/28 24/26/26
f 15/27/27 16/29/29 26/30/30 25/28/28
f 16/29/29 17/31/31 27/32/32 26/30/30
f 17/31/31 18/33/33 28/34/34 27/32/32
f 18/33/33 19/35/35 29/36/36 28/34/34
f 19/35/35 20/37/37 30/38/38 29/36/36
f 20/37/37 21/39/39 31/40/40 30/38/38
f 21/39/39 12/21/21 23/24/24 31/40/40
f 11/41/41 23/24/24 22/23/41
f 11/41/41 22/23/41 24/26/41
f 11/41/41 24/26/41 25/28/41
f 11/41/41 25/28/41 26/30/41
f 11/41/41 26/30/41 27/32/32
f 11/41/41 27/32/32 28/34/34
f 11/41/41 28/34/34 29/36/36
f 11/41/41 29/36/36 30/38/38
f 11/41/41 30/38/38 31/40/40
f 11/41/41 31/40/40 23/24/24
f 45/42/42 32/43/42 33/44/43 46/45/43
f 48/46/44 35/47/44 36/48/45 49/49/45
f 49/49/45 36/48/45 37/50/46 50/51/46
f 50/51/46 37/50/46 39/52/47 51/53/47
f 51/53/47 39/52/47 40/54/48 52/55/48
f 52/55/48 40/54/48 41/56/49 54/57/49
f 54/57/49 41/56/49 42/58/50 55/59/50
f 55/59/50 42/58/50 43/60/51 56/61/51
f 56/61/51 43/60/51 44/62/52 57/63/52
f 46/45/43 33/44/43 34/64/53 47/65/53
f 47/65/53 34/64/53 35/47/44 48/46/44
f 57/63/52 44/62/52 32/43/42 45/42/42
f 33/66/54 32/67/55 235/68/56 236/69/57
f 34/70/58 33/66/54 236/69/57 237/71/59
f 35/72/60 34/70/58 237/71/59 238/73/61
f 36/74/62 35/72/60 238/73/61 239/75/63
f 37/76/64 36/74/62 239/75/63 240/77/65
f 39/78/66 37/76/64 240/77/65 241/79/67
f 40/80/68 39/78/66 241/79/67 242/81/69
f 41/82/70 40/80/68 242/81/69 243/83/71
f 42/84/72 41/82/70 243/83/71 244/85/73
f 43/86/74 42/84/72 244/85/73 245/87/75
f 44/88/76 43/86/74 245/87/75 246/89/77
f 32/67/55 44/88/76 246/89/77 235/68/56
f 45/90/78 46/91/79 247/92/80 248/93/81
f 46/91/79 47/94/82 249/95/83 247/92/80
f 47/94/82 48/96/84 250/97/85 249/95/83
f 48/96/84 49/98/86 251/99/87 250/97/85
f 49/98/86 50/100/88 252/101/89 251/99/87
f 50/100/88 51/102/90 253/103/91 252/101/89
f 51/102/90 52/104/92 254/105/93 253/103/91
f 52/104/92 54/106/94 255/107/95 254/105/93
f 54/106/94 55/108/96 256/109/97 255/107/95
f 55/108/96 56/110/98 257/111/99 256/109/97
f 56/110/98 57/112/100 258/113/101 257/111/99
f 57/112/100 45/90/78 248/93/81 258/113/101
f 58/114/102 65/115/103 66/116/104 59/117/105
f 59/118/105 66/119/104 67/120/106 60/121/107
f 60/121/108 67/120/109 68/122/109 61/123/108
f 76/124/48 69/125/49 68/126/49 75/127/48
f 62/128/110 69/129/111 70/130/111 63/131/110
f 63/131/112 70/130/113 71/132/114 64/133/115
f 64/134/115 71/135/114 65/115/116 58/114/117
f 65/115/103 72/136/118 73/137/119 66/116/104
f 66/119/104 73/138/119 74/139/120 67/120/106
f 67/120/109 74/139/121 75/140/121 68/122/109
f 83/141/47 76/124/48 75/127/48 82/142/47
f 69/129/111 76/143/122 77/144/122 70/130/111
f 70/130/113 77/144/123 78/145/124 71/132/114
f 71/135/114 78/146/124 72/136/125 65/115/116
f 72/136/118 79/147/126 80/148/127 73/137/119
f 73/138/119 80/149/127 81/150/128 74/139/120
f 74/139/121 81/150/129 82/151/129 75/140/121
f 97/152/45 90/153/46 89/154/46 96/155/45
f 76/143/122 83/156/130 84/157/130 77/144/122
f 77/144/123 84/157/131 85/158/132 78/145/124
f 78/146/124 85/159/132 79/147/133 72/136/125
f 79/147/126 86/160/134 87/161/135 80/148/127
f 80/149/127 87/162/135 88/163/136 81/150/128
f 81/150/129 88/163/137 89/164/137 82/151/129
f 62/165/50 139/166/51 138/167/51 61/168/50
f 83/156/130 90/169/138 91/170/138 84/157/130
f 84/157/131 91/170/139 92/171/140 85/158/132
f 85/159/132 92/172/140 86/160/141 79/147/133
f 86/160/134 93/173/142 94/174/143 87/161/135
f 87/162/135 94/175/143 95/176/144 88/163/136
f 88/163/137 95/176/145 96/177/145 89/164/137
f 104/178/44 97/152/45 96/155/45 103/179/44
f 90/169/138 97/180/146 98/181/146 91/170/138
f 91/170/139 98/181/147 99/182/148 92/171/140
f 92/172/140 99/183/148 93/173/149 86/160/141
f 93/173/142 100/184/150 101/185/151 94/174/143
f 94/175/143 101/186/151 102/187/152 95/176/144
f 95/176/145 102/187/153 103/188/153 96/177/145
f 111/189/53 104/178/44 103/179/44 110/190/53
f 97/180/146 104/191/154 105/192/154 98/181/146
f 98/181/147 105/192/155 106/193/156 99/182/148
f 99/183/148 106/194/156 100/184/157 93/173/149
f 100/184/150 107/195/158 108/196/159 101/185/151
f 101/186/151 108/197/159 109/198/160 102/187/152
f 102/187/153 109/198/161 110/199/161 103/188/153
f 118/200/43 111/189/53 110/190/53 117/201/43
f 104/191/154 111/202/162 112/203/162 105/192/154
f 105/192/155 112/203/163 113/204/164 106/193/156
f 106/194/156 113/205/164 107/195/165 100/184/157
f 107/195/158 114/206/166 115/207/167 108/196/159
f 108/197/159 115/208/167 116/209/168 109/198/160
f 109/198/161 116/209/169 117/210/169 110/199/161
f 125/211/42 118/200/43 117/201/43 124/212/42
f 111/202/162 118/213/170 119/214/170 112/203/162
f 112/203/163 119/214/171 120/215/172 113/204/164
f 113/205/164 120/216/172 114/206/173 107/195/165
f 114/206/166 121/217/174 122/218/175 115/207/167
f 115/208/167 122/219/175 123/220/176 116/209/168
f 116/209/169 123/220/177 124/221/177 117/210/169
f 132/222/52 125/211/42 124/212/42 131/223/52
f 118/213/170 125/224/178 126/225/178 119/214/170
f 119/214/171 126/225/179 127/226/180 120/215/172
f 120/216/172 127/227/180 121/217/181 114/206/173
f 121/217/174 128/228/182 129/229/183 122/218/175
f 122/219/175 129/230/183 130/231/184 123/220/176
f 123/220/177 130/231/185 131/232/185 124/221/177
f 139/166/51 132/222/52 131/223/52 138/167/51
f 125/224/178 132/233/186 133/234/186 126/225/178
f 126/225/179 133/234/187 134/235/188 127/226/180
f 127/227/180 134/236/188 128/228/189 121/217/181
f 128/228/182 135/237/190 136/238/191 129/229/183
f 129/230/183 136/239/191 137/240/192 130/231/184
f 130/231/185 137/240/193 138/241/193 131/232/185
f 90/153/46 83/141/47 82/142/47 89/154/46
f 132/233/186 139/242/194 140/243/194 133/234/186
f 133/234/187 140/243/195 141/244/196 134/235/188
f 134/236/188 141/245/196 135/237/197 128/228/189
f 135/237/190 58/114/102 59/117/105 136/238/191
f 136/239/191 59/118/105 60/121/107 137/240/192
f 137/240/193 60/121/108 61/123/108 138/241/193
f 139/242/194 62/128/110 63/131/110 140/243/194
f 140/243/195 63/131/112 64/133/115 141/244/196
f 141/245/196 64/134/115 58/114/117 135/237/197
f 162/246/198 151/247/199 142/248/200 153/249/201
f 155/250/202 144/251/203 145/252/204 156/253/205
f 156/253/205 145/252/204 146/254/206 157/255/207
f 157/255/207 146/254/206 147/256/208 158/257/209
f 158/257/209 147/256/208 148/258/210 159/259/211
f 159/259/211 148/258/210 149/260/212 160/261/213
f 160/261/213 149/260/212 150/262/214 161/263/215
f 161/263/215 150/262/214 151/247/199 162/246/198
f 154/264/216 143/265/217 144/251/203 155/250/202
f 153/249/201 142/248/200 143/265/217 154/264/216
f 153/266/218 154/267/219 163/268/220 164/269/221
f 154/267/219 155/270/222 165/271/223 163/268/220
f 155/270/222 156/272/224 166/273/225 165/271/223
f 156/272/224 157/274/226 167/275/227 166/273/225
f 157/274/226 158/276/228 168/277/229 167/275/227
f 158/276/228 159/278/230 169/279/231 168/277/229
f 159/278/230 160/280/232 170/281/233 169/279/231
f 160/280/232 161/282/234 171/283/235 170/281/233
f 161/282/234 162/284/236 172/285/237 171/283/235
f 162/284/236 153/266/218 164/269/221 172/285/237
f 152/286/41 164/269/221 163/268/41
f 152/286/41 163/268/41 165/271/41
f 152/286/41 165/271/41 166/273/41
f 152/286/41 166/273/41 167/275/41
f 152/286/41 167/275/41 168/277/229
f 152/286/41 168/277/229 169/279/231
f 152/286/41 169/279/231 170/281/233
f 152/286/41 170/281/233 171/283/235
f 152/286/41 171/283/235 172/285/237
f 152/286/41 172/285/237 164/269/221
f 193/287/238 182/288/239 173/289/240 184/290/241
f 186/291/242 175/292/243 176/293/244 187/294/245
f 187/294/245 176/293/244 177/295/246 188/296/247
f 188/296/247 177/295/246 178/297/248 189/298/249
f 189/298/249 178/297/248 179/299/250 190/300/251
f 190/300/251 179/299/250 180/301/252 191/302/253
f 191/302/253 180/301/252 181/303/254 192/304/255
f 192/304/255 181/303/254 182/288/239 193/287/238
f 185/305/256 174/306/257 175/292/243 186/291/242
f 184/290/241 173/289/240 174/306/257 185/305/256
f 184/307/258 185/308/259 194/309/260 195/310/261
f 185/308/259 186/311/262 196/312/263 194/309/260
f 186/311/262 187/313/264 197/314/265 196/312/263
f 187/313/264 188/315/266 198/316/267 197/314/265
f 188/315/266 189/317/268 199/318/269 198/316/267
f 189/317/268 190/319/270 200/320/271 199/318/269
f 190/319/270 191/321/272 201/322/273 200/320/271
f 191/321/272 192/323/274 202/324/275 201/322/273
f 192/323/274 193/325/276 203/326/277 202/324/275
f 193/325/276 184/307/258 195/310/261 203/326/277
f 183/327/41 195/310/261 194/309/41
f 183/327/41 194/309/41 196/312/41
f 183/327/41 196/312/41 197/314/41
f 183/327/41 197/314/41 198/316/41
f 183/327/41 198/316/41 199/318/269
f 183/327/41 199/318/269 200/320/271
f 183/327/41 200/320/271 201/322/273
f 183/327/41 201/322/273 202/324/275
f 183/327/41 202/324/275 203/326/277
f 183/327/41 203/326/277 195/310/261
f 224/328/278 213/329/279 204/330/280 215/331/281
f 217/332/282 206/333/283 207/334/284 218/335/285
f 218/335/285 207/334/284 208/336/286 219/337/287
f 219/337/287 208/336/286 209/338/288 220/339/289
f 220/339/289 209/338/288 210/340/290 221/341/291
f 221/341/291 210/340/290 211/342/292 222/343/293
f 222/343/293 211/342/292 212/344/294 223/345/295
f 223/345/295 212/344/294 213/329/279 224/328/278
f 216/346/296 205/347/297 206/333/283 217/332/282
f 215/331/281 204/330/280 205/347/297 216/346/296
f 215/348/298 216/349/299 225/350/300 226/351/301
f 216/349/299 217/352/302 227/353/303 225/350/300
f 217/352/302 218/354/304 228/355/305 227/353/303
f 218/354/304 219/356/306 229/357/307 228/355/305
f 219/356/306 220/358/308 230/359/309 229/357/307
f 220/358/308 221/360/310 231/361/311 230/359/309
f 221/360/310 222/362/312 232/363/313 231/361/311
f 222/362/312 223/364/314 233/365/315 232/363/313
f 223/364/314 224/366/316 234/367/317 233/365/315
f 224/366/316 215/348/298 226/351/301 234/367/317
f 214/368/41 226/351/301 225/350/41
f 214/368/41 225/350/41 227/353/41
f 214/368/41 227/353/41 228/355/41
f 214/368/41 228/355/41 229/357/41
f 214/368/41 229/357/41 230/359/309
f 214/368/41 230/359/309 231/361/311
f 214/368/41 231/361/311 232/363/313
f 214/368/41 232/363/313 233/365/315
f 214/368/41 233/365/315 234/367/317
f 214/368/41 234/367/317 226/351/301
f 38/369/318 236/370/57 235/371/56
f 38/372/318 237/373/59 236/370/57
f 38/374/318 238/375/61 237/373/59
f 38/376/318 239/377/63 238/375/61
f 38/376/318 240/378/65 239/377/63
f 38/374/318 241/379/67 240/378/65
f 38/372/318 242/380/69 241/379/67
f 38/369/318 243/381/71 242/380/69
f 38/382/318 244/383/73 243/381/71
f 38/384/318 245/385/75 244/383/73
f 38/384/318 246/386/77 245/385/75
f 38/382/318 235/371/56 246/386/77
f 53/387/41 248/388/81 247/389/80
f 53/390/41 247/389/80 249/391/83
f 53/392/41 249/391/83 250/393/85
f 53/394/41 250/393/85 251/395/87
f 53/396/41 251/395/87 252/397/89
f 53/396/41 252/397/89 253/398/91
f 53/394/41 253/398/91 254/399/93
f 53/392/41 254/399/93 255/400/95
f 53/390/41 255/400/95 256/401/97
f 53/387/41 256/401/97 257/402/99
f 53/403/41 257/402/99 258/404/101
f 53/403/41 258/404/101 248/388/81
f 69/125/49 62/165/50 61/168/50 68/126/49
